M48
;Layer_Color=9474304
;FILE_FORMAT=2:5
INCH,LZ
;TYPE=PLATED
T1F00S00C0.01500
T2F00S00C0.02800
T3F00S00C0.04331
T4F00S00C0.04724
T5F00S00C0.05118
;TYPE=NON_PLATED
T6F00S00C0.07874
%
T01
X0180925Y0164787
X018998
X0194704Y0177385
Y0181322
Y0185259
Y0189196
X018998Y0197858
X0180925
X0176594Y0189196
Y0185259
Y0181322
Y0177385
T02
X0070826Y0212169
X0086181
X0101535
X0097204Y0220436
X0125492Y0210259
X0143917Y0188409
X02325Y0215574
X0237618Y0166362
X0250216
X0257696
X0263996
X0270689
X0276988
X0255334Y0233291
X0238011Y0237621
T03
X0013602Y0234984
Y0244984
T04
X0251003Y002581
X0237224
X0223444
X0209665
X0195885
X0178169
X0164389
X015061
X013683
X0123051
X0105334
X0091555
X0077775
X0063996
X0050216
T05
X0253224Y0054944
X0283224Y0064944
X0225098
X0195098Y0054944
X0166043Y0064944
X0136043Y0054944
X0106988Y0064944
X0076988Y0054944
X0047968Y0064944
X0017968Y0054944
Y0084944
Y0124944
X0047968
X0076988
Y0084944
X0136043
Y0124944
X0106988
X0166043
X0195098
X0225098
X0195098Y0084944
X0253224
Y0124944
X0283224
T06
X0296476Y0005141
X0005137
X0296476Y0276795
X0005137
M30
