G04*
G04 #@! TF.GenerationSoftware,Altium Limited,Altium Designer,20.0.10 (225)*
G04*
G04 Layer_Color=128*
%FSLAX25Y25*%
%MOIN*%
G70*
G01*
G75*
%ADD68C,0.00200*%
D68*
X292539Y276795D02*
X300413D01*
X296476Y272858D02*
Y280732D01*
X292539Y5141D02*
X300413D01*
X296476Y1204D02*
Y9078D01*
X1200Y5141D02*
X9074D01*
X5137Y1204D02*
Y9078D01*
X1200Y276795D02*
X9074D01*
X5137Y272858D02*
Y280732D01*
X193523Y25810D02*
X198248D01*
X195885Y23448D02*
Y28173D01*
X207303Y25810D02*
X212027D01*
X209665Y23448D02*
Y28173D01*
X221082Y25810D02*
X225807D01*
X223444Y23448D02*
Y28173D01*
X234862Y25810D02*
X239586D01*
X237224Y23448D02*
Y28173D01*
X248641Y25810D02*
X253366D01*
X251003Y23448D02*
Y28173D01*
X120688Y25810D02*
X125413D01*
X123051Y23448D02*
Y28173D01*
X134468Y25810D02*
X139192D01*
X136830Y23448D02*
Y28173D01*
X148248Y25810D02*
X152972D01*
X150610Y23448D02*
Y28173D01*
X162027Y25810D02*
X166752D01*
X164389Y23448D02*
Y28173D01*
X175807Y25810D02*
X180531D01*
X178169Y23448D02*
Y28173D01*
X47854Y25810D02*
X52578D01*
X50216Y23448D02*
Y28173D01*
X61633Y25810D02*
X66358D01*
X63996Y23448D02*
Y28173D01*
X75413Y25810D02*
X80137D01*
X77775Y23448D02*
Y28173D01*
X89192Y25810D02*
X93917D01*
X91555Y23448D02*
Y28173D01*
X102972Y25810D02*
X107696D01*
X105334Y23448D02*
Y28173D01*
X280665Y124944D02*
X285783D01*
X283224Y122385D02*
Y127503D01*
X280665Y64944D02*
X285783D01*
X283224Y62385D02*
Y67503D01*
X250665Y54944D02*
X255783D01*
X253224Y52385D02*
Y57503D01*
X250665Y84944D02*
X255783D01*
X253224Y82385D02*
Y87503D01*
X250665Y124944D02*
X255783D01*
X253224Y122385D02*
Y127503D01*
X222539Y124944D02*
X227657D01*
X225098Y122385D02*
Y127503D01*
X222539Y64944D02*
X227657D01*
X225098Y62385D02*
Y67503D01*
X192539Y54944D02*
X197657D01*
X195098Y52385D02*
Y57503D01*
X192539Y84944D02*
X197657D01*
X195098Y82385D02*
Y87503D01*
X192539Y124944D02*
X197657D01*
X195098Y122385D02*
Y127503D01*
X163484Y124944D02*
X168602D01*
X166043Y122385D02*
Y127503D01*
X163484Y64944D02*
X168602D01*
X166043Y62385D02*
Y67503D01*
X133484Y54944D02*
X138602D01*
X136043Y52385D02*
Y57503D01*
X133484Y84944D02*
X138602D01*
X136043Y82385D02*
Y87503D01*
X133484Y124944D02*
X138602D01*
X136043Y122385D02*
Y127503D01*
X104429Y124944D02*
X109547D01*
X106988Y122385D02*
Y127503D01*
X104429Y64944D02*
X109547D01*
X106988Y62385D02*
Y67503D01*
X74429Y54944D02*
X79547D01*
X76988Y52385D02*
Y57503D01*
X74429Y84944D02*
X79547D01*
X76988Y82385D02*
Y87503D01*
X74429Y124944D02*
X79547D01*
X76988Y122385D02*
Y127503D01*
X45409Y124944D02*
X50527D01*
X47968Y122385D02*
Y127503D01*
X45409Y64944D02*
X50527D01*
X47968Y62385D02*
Y67503D01*
X15409Y54944D02*
X20527D01*
X17968Y52385D02*
Y57503D01*
X15409Y84944D02*
X20527D01*
X17968Y82385D02*
Y87503D01*
X15409Y124944D02*
X20527D01*
X17968Y122385D02*
Y127503D01*
X11436Y244984D02*
X15767D01*
X13602Y242818D02*
Y247149D01*
X11436Y234984D02*
X15767D01*
X13602Y232818D02*
Y237149D01*
X248816Y166362D02*
X251616D01*
X250216Y164962D02*
Y167762D01*
X256296Y166362D02*
X259096D01*
X257696Y164962D02*
Y167762D01*
X275588Y166362D02*
X278388D01*
X276988Y164962D02*
Y167762D01*
X269288Y166362D02*
X272089D01*
X270689Y164962D02*
Y167762D01*
X193954Y177385D02*
X195454D01*
X194704Y176635D02*
Y178135D01*
X262596Y166362D02*
X265396D01*
X263996Y164962D02*
Y167762D01*
X236218Y166362D02*
X239018D01*
X237618Y164962D02*
Y167762D01*
X95804Y220436D02*
X98604D01*
X97204Y219036D02*
Y221836D01*
X100135Y212169D02*
X102935D01*
X101535Y210769D02*
Y213569D01*
X84781Y212169D02*
X87581D01*
X86181Y210769D02*
Y213569D01*
X69426Y212169D02*
X72226D01*
X70826Y210769D02*
Y213569D01*
X124092Y210259D02*
X126892D01*
X125492Y208859D02*
Y211659D01*
X180175Y164787D02*
X181675D01*
X180925Y164037D02*
Y165537D01*
X189230Y164787D02*
X190730D01*
X189980Y164037D02*
Y165537D01*
X189230Y197858D02*
X190730D01*
X189980Y197108D02*
Y198608D01*
X180175Y197858D02*
X181675D01*
X180925Y197108D02*
Y198608D01*
X142517Y188409D02*
X145317D01*
X143917Y187009D02*
Y189809D01*
X175844Y189196D02*
X177344D01*
X176594Y188446D02*
Y189946D01*
X175844Y181322D02*
X177344D01*
X176594Y180572D02*
Y182072D01*
X193954Y185259D02*
X195454D01*
X194704Y184509D02*
Y186009D01*
X175844Y177385D02*
X177344D01*
X176594Y176635D02*
Y178135D01*
X175844Y185259D02*
X177344D01*
X176594Y184509D02*
Y186009D01*
X193954Y181322D02*
X195454D01*
X194704Y180572D02*
Y182072D01*
X193954Y189196D02*
X195454D01*
X194704Y188446D02*
Y189946D01*
X231100Y215574D02*
X233899D01*
X232500Y214174D02*
Y216974D01*
X236611Y237621D02*
X239411D01*
X238011Y236221D02*
Y239021D01*
X253934Y233291D02*
X256734D01*
X255334Y231891D02*
Y234691D01*
M02*
