G04*
G04 #@! TF.GenerationSoftware,Altium Limited,Altium Designer,20.0.10 (225)*
G04*
G04 Layer_Color=8388736*
%FSLAX25Y25*%
%MOIN*%
G70*
G01*
G75*
%ADD18R,0.04724X0.04724*%
%ADD20R,0.09843X0.06693*%
%ADD25R,0.07874X0.16535*%
%ADD26R,0.04724X0.08661*%
%ADD30R,0.10512X0.10000*%
%ADD31R,0.03000X0.05000*%
%ADD35R,0.04724X0.04724*%
%ADD36R,0.01981X0.02769*%
%ADD37R,0.11509X0.05918*%
G04:AMPARAMS|DCode=38|XSize=85.56mil|YSize=31.62mil|CornerRadius=6.95mil|HoleSize=0mil|Usage=FLASHONLY|Rotation=270.000|XOffset=0mil|YOffset=0mil|HoleType=Round|Shape=RoundedRectangle|*
%AMROUNDEDRECTD38*
21,1,0.08556,0.01772,0,0,270.0*
21,1,0.07165,0.03162,0,0,270.0*
1,1,0.01391,-0.00886,-0.03583*
1,1,0.01391,-0.00886,0.03583*
1,1,0.01391,0.00886,0.03583*
1,1,0.01391,0.00886,-0.03583*
%
%ADD38ROUNDEDRECTD38*%
%ADD39R,0.06607X0.01587*%
%ADD40R,0.02769X0.01981*%
%ADD41R,0.10642X0.30328*%
%ADD42R,0.09658X0.13320*%
%ADD43R,0.04540X0.04147*%
%ADD44R,0.03162X0.03162*%
%ADD45R,0.03950X0.03162*%
%ADD46R,0.05721X0.07296*%
%ADD47C,0.00800*%
%ADD48R,0.07887X0.07887*%
%ADD49C,0.07887*%
%ADD50C,0.08477*%
%ADD51C,0.07296*%
G36*
X139940Y246787D02*
X97263D01*
Y281196D01*
X139940D01*
Y246787D01*
D02*
G37*
G36*
X134232Y215291D02*
X129744D01*
Y229228D01*
X134232D01*
Y215291D01*
D02*
G37*
G36*
X127539D02*
X123051D01*
Y229228D01*
X127539D01*
Y215291D01*
D02*
G37*
G36*
X120846D02*
X116358D01*
Y229228D01*
X120846D01*
Y215291D01*
D02*
G37*
G36*
X114153D02*
X109665D01*
Y229228D01*
X114153D01*
Y215291D01*
D02*
G37*
G36*
X107460D02*
X102972D01*
Y229228D01*
X107460D01*
Y215291D01*
D02*
G37*
D18*
X16358Y143330D02*
D03*
Y135062D02*
D03*
X75401Y143330D02*
D03*
Y135062D02*
D03*
X134381D02*
D03*
Y143330D02*
D03*
X251169Y143330D02*
D03*
Y135062D02*
D03*
X192043Y143330D02*
D03*
Y135062D02*
D03*
D20*
X88177Y138050D02*
D03*
X103925D02*
D03*
X204775D02*
D03*
X220523D02*
D03*
X146870Y137657D02*
D03*
X162618D02*
D03*
X264051Y138050D02*
D03*
X279799D02*
D03*
X29188D02*
D03*
X44936D02*
D03*
D25*
X275488Y269440D02*
D03*
X231393D02*
D03*
D26*
X245566Y247472D02*
D03*
X253440D02*
D03*
X261315D02*
D03*
D30*
X72257Y244708D02*
D03*
D31*
X63002D02*
D03*
D35*
X4350Y208488D02*
D03*
X12618D02*
D03*
D36*
X111240Y139787D02*
D03*
Y137031D02*
D03*
X170295Y139393D02*
D03*
Y136637D02*
D03*
X228169Y139787D02*
D03*
Y137031D02*
D03*
X287425Y139787D02*
D03*
Y137031D02*
D03*
X52578Y139787D02*
D03*
Y137031D02*
D03*
X261240Y235850D02*
D03*
Y233094D02*
D03*
D37*
X132401Y187858D02*
D03*
Y176755D02*
D03*
D38*
X272441Y175909D02*
D03*
X267441D02*
D03*
X262440D02*
D03*
X257440D02*
D03*
X252441D02*
D03*
X247441D02*
D03*
X242441D02*
D03*
X237440D02*
D03*
Y195397D02*
D03*
X242441D02*
D03*
X247441D02*
D03*
X252441D02*
D03*
X257440D02*
D03*
X262440D02*
D03*
X267441D02*
D03*
X272441D02*
D03*
D39*
X241799Y224236D02*
D03*
Y222661D02*
D03*
Y221086D02*
D03*
Y219511D02*
D03*
Y217936D02*
D03*
Y216361D02*
D03*
Y214787D02*
D03*
Y213212D02*
D03*
Y211637D02*
D03*
Y210062D02*
D03*
X264933D02*
D03*
Y211637D02*
D03*
Y213212D02*
D03*
Y214787D02*
D03*
Y216361D02*
D03*
Y217936D02*
D03*
Y219511D02*
D03*
Y221086D02*
D03*
Y222661D02*
D03*
Y224236D02*
D03*
D40*
X255334Y237621D02*
D03*
X252578D02*
D03*
X243917D02*
D03*
X246673D02*
D03*
X14192Y256125D02*
D03*
X11436D02*
D03*
D41*
X184755Y233200D02*
D03*
Y180051D02*
D03*
D42*
X111240Y179051D02*
D03*
X84035D02*
D03*
D43*
X81614Y207110D02*
D03*
Y201992D02*
D03*
X89811Y207232D02*
D03*
Y202114D02*
D03*
X97811Y207232D02*
D03*
Y202114D02*
D03*
D44*
X76988Y225417D02*
D03*
Y234078D02*
D03*
D45*
X51988Y236047D02*
D03*
X56318D02*
D03*
D46*
X38011Y244905D02*
D03*
X51594D02*
D03*
D47*
X296476Y276795D02*
D03*
Y5141D02*
D03*
X5137D02*
D03*
Y276795D02*
D03*
D48*
X195885Y25810D02*
D03*
X123051D02*
D03*
X50216D02*
D03*
D49*
X209665D02*
D03*
X223444D02*
D03*
X237224D02*
D03*
X251003D02*
D03*
X136830D02*
D03*
X150610D02*
D03*
X164389D02*
D03*
X178169D02*
D03*
X63996D02*
D03*
X77775D02*
D03*
X91555D02*
D03*
X105334D02*
D03*
D50*
X283224Y124944D02*
D03*
Y64944D02*
D03*
X253224Y54944D02*
D03*
Y84944D02*
D03*
Y124944D02*
D03*
X225098D02*
D03*
Y64944D02*
D03*
X195098Y54944D02*
D03*
Y84944D02*
D03*
Y124944D02*
D03*
X166043D02*
D03*
Y64944D02*
D03*
X136043Y54944D02*
D03*
Y84944D02*
D03*
Y124944D02*
D03*
X106988D02*
D03*
Y64944D02*
D03*
X76988Y54944D02*
D03*
Y84944D02*
D03*
Y124944D02*
D03*
X47968D02*
D03*
Y64944D02*
D03*
X17968Y54944D02*
D03*
Y84944D02*
D03*
Y124944D02*
D03*
D51*
X13602Y244984D02*
D03*
Y234984D02*
D03*
M02*
