G04*
G04 #@! TF.GenerationSoftware,Altium Limited,Altium Designer,20.0.10 (225)*
G04*
G04 Layer_Color=2752767*
%FSLAX25Y25*%
%MOIN*%
G70*
G01*
G75*
%ADD68C,0.00200*%
%ADD69C,0.00267*%
D68*
X295676Y275995D02*
Y277595D01*
X297276D01*
Y275995D01*
X295676D01*
Y4341D02*
Y5941D01*
X297276D01*
Y4341D01*
X295676D01*
X4337D02*
Y5941D01*
X5937D01*
Y4341D01*
X4337D01*
Y275995D02*
Y277595D01*
X5937D01*
Y275995D01*
X4337D01*
X283224Y124144D02*
X282424Y125744D01*
X284024D01*
X283224Y124144D01*
Y64144D02*
X282424Y65744D01*
X284024D01*
X283224Y64144D01*
X253224Y54144D02*
X252424Y55744D01*
X254024D01*
X253224Y54144D01*
Y84144D02*
X252424Y85744D01*
X254024D01*
X253224Y84144D01*
Y124144D02*
X252424Y125744D01*
X254024D01*
X253224Y124144D01*
X225098D02*
X224298Y125744D01*
X225898D01*
X225098Y124144D01*
Y64144D02*
X224298Y65744D01*
X225898D01*
X225098Y64144D01*
X195098Y54144D02*
X194298Y55744D01*
X195898D01*
X195098Y54144D01*
Y84144D02*
X194298Y85744D01*
X195898D01*
X195098Y84144D01*
Y124144D02*
X194298Y125744D01*
X195898D01*
X195098Y124144D01*
X166043D02*
X165243Y125744D01*
X166843D01*
X166043Y124144D01*
Y64144D02*
X165243Y65744D01*
X166843D01*
X166043Y64144D01*
X136043Y54144D02*
X135243Y55744D01*
X136843D01*
X136043Y54144D01*
Y84144D02*
X135243Y85744D01*
X136843D01*
X136043Y84144D01*
Y124144D02*
X135243Y125744D01*
X136843D01*
X136043Y124144D01*
X106988D02*
X106188Y125744D01*
X107788D01*
X106988Y124144D01*
Y64144D02*
X106188Y65744D01*
X107788D01*
X106988Y64144D01*
X76988Y54144D02*
X76188Y55744D01*
X77788D01*
X76988Y54144D01*
Y84144D02*
X76188Y85744D01*
X77788D01*
X76988Y84144D01*
Y124144D02*
X76188Y125744D01*
X77788D01*
X76988Y124144D01*
X47968D02*
X47168Y125744D01*
X48768D01*
X47968Y124144D01*
Y64144D02*
X47168Y65744D01*
X48768D01*
X47968Y64144D01*
X17968Y54144D02*
X17168Y55744D01*
X18768D01*
X17968Y54144D01*
Y84144D02*
X17168Y85744D01*
X18768D01*
X17968Y84144D01*
Y124144D02*
X17168Y125744D01*
X18768D01*
X17968Y124144D01*
X13602Y244184D02*
X14002Y244584D01*
X14402D01*
X14002Y244984D01*
X14402Y245384D01*
X14002D01*
X13602Y245784D01*
X13202Y245384D01*
X12802D01*
X13202Y244984D01*
X12802Y244584D01*
X13202D01*
X13602Y244184D01*
Y234184D02*
X14002Y234584D01*
X14402D01*
X14002Y234984D01*
X14402Y235384D01*
X14002D01*
X13602Y235784D01*
X13202Y235384D01*
X12802D01*
X13202Y234984D01*
X12802Y234584D01*
X13202D01*
X13602Y234184D01*
X249416Y165562D02*
X249816Y166362D01*
X249416Y167162D01*
X250216Y166762D01*
X251016Y167162D01*
X250616Y166362D01*
X251016Y165562D01*
X250216Y165962D01*
X249416Y165562D01*
X256896D02*
X257296Y166362D01*
X256896Y167162D01*
X257696Y166762D01*
X258496Y167162D01*
X258096Y166362D01*
X258496Y165562D01*
X257696Y165962D01*
X256896Y165562D01*
X276188D02*
X276588Y166362D01*
X276188Y167162D01*
X276988Y166762D01*
X277788Y167162D01*
X277388Y166362D01*
X277788Y165562D01*
X276988Y165962D01*
X276188Y165562D01*
X269888D02*
X270288Y166362D01*
X269888Y167162D01*
X270689Y166762D01*
X271488Y167162D01*
X271089Y166362D01*
X271488Y165562D01*
X270689Y165962D01*
X269888Y165562D01*
X194304Y176985D02*
Y176585D01*
X195104D01*
Y176985D01*
X195504D01*
Y177785D01*
X195104D01*
Y178185D01*
X194304D01*
Y177785D01*
X193904D01*
Y176985D01*
X194304D01*
X263196Y165562D02*
X263596Y166362D01*
X263196Y167162D01*
X263996Y166762D01*
X264796Y167162D01*
X264396Y166362D01*
X264796Y165562D01*
X263996Y165962D01*
X263196Y165562D01*
X236818D02*
X237218Y166362D01*
X236818Y167162D01*
X237618Y166762D01*
X238418Y167162D01*
X238018Y166362D01*
X238418Y165562D01*
X237618Y165962D01*
X236818Y165562D01*
X96404Y219636D02*
X96804Y220436D01*
X96404Y221236D01*
X97204Y220836D01*
X98004Y221236D01*
X97604Y220436D01*
X98004Y219636D01*
X97204Y220036D01*
X96404Y219636D01*
X100735Y211369D02*
X101135Y212169D01*
X100735Y212969D01*
X101535Y212569D01*
X102335Y212969D01*
X101935Y212169D01*
X102335Y211369D01*
X101535Y211769D01*
X100735Y211369D01*
X85381D02*
X85781Y212169D01*
X85381Y212969D01*
X86181Y212569D01*
X86981Y212969D01*
X86581Y212169D01*
X86981Y211369D01*
X86181Y211769D01*
X85381Y211369D01*
X70026D02*
X70426Y212169D01*
X70026Y212969D01*
X70826Y212569D01*
X71626Y212969D01*
X71226Y212169D01*
X71626Y211369D01*
X70826Y211769D01*
X70026Y211369D01*
X124692Y209459D02*
X125092Y210259D01*
X124692Y211059D01*
X125492Y210659D01*
X126292Y211059D01*
X125892Y210259D01*
X126292Y209459D01*
X125492Y209859D01*
X124692Y209459D01*
X180525Y164387D02*
Y163987D01*
X181325D01*
Y164387D01*
X181725D01*
Y165187D01*
X181325D01*
Y165587D01*
X180525D01*
Y165187D01*
X180125D01*
Y164387D01*
X180525D01*
X189580D02*
Y163987D01*
X190380D01*
Y164387D01*
X190780D01*
Y165187D01*
X190380D01*
Y165587D01*
X189580D01*
Y165187D01*
X189180D01*
Y164387D01*
X189580D01*
Y197458D02*
Y197058D01*
X190380D01*
Y197458D01*
X190780D01*
Y198258D01*
X190380D01*
Y198658D01*
X189580D01*
Y198258D01*
X189180D01*
Y197458D01*
X189580D01*
X180525D02*
Y197058D01*
X181325D01*
Y197458D01*
X181725D01*
Y198258D01*
X181325D01*
Y198658D01*
X180525D01*
Y198258D01*
X180125D01*
Y197458D01*
X180525D01*
X143117Y187609D02*
X143517Y188409D01*
X143117Y189209D01*
X143917Y188809D01*
X144717Y189209D01*
X144317Y188409D01*
X144717Y187609D01*
X143917Y188009D01*
X143117Y187609D01*
X176194Y188796D02*
Y188396D01*
X176994D01*
Y188796D01*
X177394D01*
Y189596D01*
X176994D01*
Y189996D01*
X176194D01*
Y189596D01*
X175794D01*
Y188796D01*
X176194D01*
Y180922D02*
Y180522D01*
X176994D01*
Y180922D01*
X177394D01*
Y181722D01*
X176994D01*
Y182122D01*
X176194D01*
Y181722D01*
X175794D01*
Y180922D01*
X176194D01*
X194304Y184859D02*
Y184459D01*
X195104D01*
Y184859D01*
X195504D01*
Y185659D01*
X195104D01*
Y186059D01*
X194304D01*
Y185659D01*
X193904D01*
Y184859D01*
X194304D01*
X176194Y176985D02*
Y176585D01*
X176994D01*
Y176985D01*
X177394D01*
Y177785D01*
X176994D01*
Y178185D01*
X176194D01*
Y177785D01*
X175794D01*
Y176985D01*
X176194D01*
Y184859D02*
Y184459D01*
X176994D01*
Y184859D01*
X177394D01*
Y185659D01*
X176994D01*
Y186059D01*
X176194D01*
Y185659D01*
X175794D01*
Y184859D01*
X176194D01*
X194304Y180922D02*
Y180522D01*
X195104D01*
Y180922D01*
X195504D01*
Y181722D01*
X195104D01*
Y182122D01*
X194304D01*
Y181722D01*
X193904D01*
Y180922D01*
X194304D01*
Y188796D02*
Y188396D01*
X195104D01*
Y188796D01*
X195504D01*
Y189596D01*
X195104D01*
Y189996D01*
X194304D01*
Y189596D01*
X193904D01*
Y188796D01*
X194304D01*
X231699Y214774D02*
X232100Y215574D01*
X231699Y216374D01*
X232500Y215974D01*
X233299Y216374D01*
X232899Y215574D01*
X233299Y214774D01*
X232500Y215174D01*
X231699Y214774D01*
X237211Y236821D02*
X237611Y237621D01*
X237211Y238421D01*
X238011Y238021D01*
X238811Y238421D01*
X238411Y237621D01*
X238811Y236821D01*
X238011Y237221D01*
X237211Y236821D01*
X254534Y232491D02*
X254934Y233291D01*
X254534Y234091D01*
X255334Y233691D01*
X256134Y234091D01*
X255734Y233291D01*
X256134Y232491D01*
X255334Y232891D01*
X254534Y232491D01*
D69*
X196685Y25810D02*
G03*
X196685Y25810I-800J0D01*
G01*
X210465D02*
G03*
X210465Y25810I-800J0D01*
G01*
X224244D02*
G03*
X224244Y25810I-800J0D01*
G01*
X238024D02*
G03*
X238024Y25810I-800J0D01*
G01*
X251803D02*
G03*
X251803Y25810I-800J0D01*
G01*
X123851D02*
G03*
X123851Y25810I-800J0D01*
G01*
X137630D02*
G03*
X137630Y25810I-800J0D01*
G01*
X151410D02*
G03*
X151410Y25810I-800J0D01*
G01*
X165189D02*
G03*
X165189Y25810I-800J0D01*
G01*
X178969D02*
G03*
X178969Y25810I-800J0D01*
G01*
X51016D02*
G03*
X51016Y25810I-800J0D01*
G01*
X64796D02*
G03*
X64796Y25810I-800J0D01*
G01*
X78575D02*
G03*
X78575Y25810I-800J0D01*
G01*
X92355D02*
G03*
X92355Y25810I-800J0D01*
G01*
X106134D02*
G03*
X106134Y25810I-800J0D01*
G01*
M02*
