G04*
G04 #@! TF.GenerationSoftware,Altium Limited,Altium Designer,20.0.10 (225)*
G04*
G04 Layer_Color=8388736*
%FSLAX25Y25*%
%MOIN*%
G70*
G01*
G75*
G36*
X17099Y143528D02*
X17095D01*
X17080D01*
X17057D01*
X17030Y143532D01*
X16999Y143535D01*
X16964Y143539D01*
X16926Y143551D01*
X16888Y143562D01*
X16884D01*
X16880Y143566D01*
X16857Y143574D01*
X16826Y143589D01*
X16780Y143612D01*
X16730Y143639D01*
X16673Y143677D01*
X16615Y143716D01*
X16554Y143766D01*
X16550D01*
X16546Y143773D01*
X16523Y143793D01*
X16488Y143823D01*
X16442Y143869D01*
X16388Y143927D01*
X16323Y143996D01*
X16250Y144081D01*
X16170Y144173D01*
X16166Y144177D01*
X16154Y144192D01*
X16139Y144211D01*
X16112Y144238D01*
X16085Y144273D01*
X16051Y144311D01*
X15978Y144396D01*
X15889Y144488D01*
X15801Y144580D01*
X15759Y144626D01*
X15717Y144664D01*
X15674Y144699D01*
X15636Y144730D01*
X15632D01*
X15628Y144737D01*
X15617Y144745D01*
X15601Y144753D01*
X15563Y144776D01*
X15513Y144803D01*
X15455Y144829D01*
X15394Y144852D01*
X15325Y144868D01*
X15259Y144876D01*
X15256D01*
X15252D01*
X15229Y144872D01*
X15194Y144868D01*
X15152Y144860D01*
X15102Y144841D01*
X15052Y144818D01*
X14998Y144787D01*
X14949Y144741D01*
X14945Y144734D01*
X14929Y144718D01*
X14910Y144687D01*
X14883Y144649D01*
X14860Y144599D01*
X14841Y144542D01*
X14826Y144472D01*
X14822Y144396D01*
Y144372D01*
X14826Y144357D01*
X14829Y144319D01*
X14837Y144269D01*
X14856Y144211D01*
X14879Y144150D01*
X14914Y144092D01*
X14960Y144038D01*
X14968Y144035D01*
X14983Y144019D01*
X15014Y143996D01*
X15056Y143973D01*
X15110Y143946D01*
X15171Y143927D01*
X15244Y143912D01*
X15329Y143904D01*
X15294Y143585D01*
X15290D01*
X15279D01*
X15259Y143589D01*
X15236Y143593D01*
X15206Y143601D01*
X15171Y143605D01*
X15094Y143628D01*
X15006Y143658D01*
X14918Y143701D01*
X14829Y143758D01*
X14791Y143789D01*
X14753Y143827D01*
X14749Y143831D01*
X14745Y143839D01*
X14733Y143850D01*
X14722Y143866D01*
X14710Y143889D01*
X14691Y143916D01*
X14676Y143946D01*
X14657Y143981D01*
X14641Y144019D01*
X14622Y144062D01*
X14607Y144111D01*
X14595Y144161D01*
X14572Y144276D01*
X14568Y144338D01*
X14564Y144403D01*
Y144438D01*
X14568Y144465D01*
X14572Y144495D01*
X14576Y144530D01*
X14580Y144568D01*
X14591Y144611D01*
X14614Y144703D01*
X14649Y144799D01*
X14672Y144849D01*
X14699Y144895D01*
X14733Y144937D01*
X14768Y144979D01*
X14772Y144983D01*
X14776Y144987D01*
X14787Y144998D01*
X14803Y145014D01*
X14826Y145029D01*
X14849Y145048D01*
X14906Y145087D01*
X14979Y145125D01*
X15064Y145160D01*
X15160Y145187D01*
X15213Y145190D01*
X15267Y145194D01*
X15275D01*
X15294D01*
X15325Y145190D01*
X15363Y145187D01*
X15409Y145179D01*
X15459Y145167D01*
X15513Y145152D01*
X15567Y145129D01*
X15574Y145125D01*
X15594Y145117D01*
X15620Y145102D01*
X15659Y145079D01*
X15705Y145052D01*
X15759Y145018D01*
X15812Y144972D01*
X15874Y144922D01*
X15882Y144914D01*
X15905Y144895D01*
X15939Y144860D01*
X15962Y144837D01*
X15989Y144810D01*
X16020Y144780D01*
X16054Y144741D01*
X16089Y144703D01*
X16131Y144660D01*
X16173Y144614D01*
X16219Y144561D01*
X16266Y144507D01*
X16319Y144446D01*
X16323Y144442D01*
X16331Y144434D01*
X16342Y144419D01*
X16358Y144399D01*
X16396Y144353D01*
X16446Y144296D01*
X16500Y144238D01*
X16554Y144177D01*
X16600Y144127D01*
X16619Y144108D01*
X16638Y144088D01*
X16642Y144085D01*
X16654Y144077D01*
X16669Y144062D01*
X16692Y144042D01*
X16742Y144000D01*
X16803Y143958D01*
Y145198D01*
X17099D01*
Y143528D01*
D02*
G37*
G36*
Y142468D02*
X15125D01*
X15129Y142464D01*
X15144Y142449D01*
X15164Y142422D01*
X15190Y142387D01*
X15225Y142345D01*
X15259Y142295D01*
X15302Y142237D01*
X15340Y142172D01*
Y142168D01*
X15344Y142165D01*
X15359Y142141D01*
X15379Y142107D01*
X15402Y142065D01*
X15428Y142015D01*
X15451Y141961D01*
X15478Y141903D01*
X15501Y141850D01*
X15198D01*
Y141853D01*
X15194Y141861D01*
X15187Y141876D01*
X15175Y141892D01*
X15164Y141915D01*
X15152Y141942D01*
X15117Y142003D01*
X15075Y142072D01*
X15025Y142149D01*
X14968Y142226D01*
X14906Y142299D01*
X14902Y142303D01*
X14899Y142307D01*
X14875Y142330D01*
X14841Y142364D01*
X14799Y142406D01*
X14745Y142453D01*
X14687Y142499D01*
X14626Y142541D01*
X14564Y142575D01*
Y142779D01*
X17099D01*
Y142468D01*
D02*
G37*
G36*
X15897Y141274D02*
X15928D01*
X15997Y141270D01*
X16074Y141262D01*
X16162Y141247D01*
X16250Y141231D01*
X16335Y141208D01*
X16339D01*
X16346Y141205D01*
X16358Y141201D01*
X16373Y141197D01*
X16411Y141182D01*
X16465Y141162D01*
X16523Y141139D01*
X16584Y141109D01*
X16646Y141074D01*
X16703Y141036D01*
X16711Y141032D01*
X16726Y141016D01*
X16753Y140997D01*
X16788Y140966D01*
X16822Y140936D01*
X16861Y140893D01*
X16899Y140851D01*
X16934Y140805D01*
X16938Y140801D01*
X16945Y140782D01*
X16961Y140755D01*
X16980Y140721D01*
X16999Y140678D01*
X17018Y140629D01*
X17038Y140571D01*
X17057Y140506D01*
Y140498D01*
X17064Y140475D01*
X17068Y140440D01*
X17076Y140390D01*
X17084Y140333D01*
X17091Y140264D01*
X17095Y140187D01*
X17099Y140102D01*
Y139196D01*
X14576D01*
Y140164D01*
X14580Y140229D01*
X14584Y140298D01*
X14591Y140375D01*
X14603Y140448D01*
X14614Y140509D01*
Y140513D01*
X14618Y140521D01*
Y140529D01*
X14626Y140544D01*
X14638Y140586D01*
X14657Y140636D01*
X14680Y140694D01*
X14710Y140755D01*
X14749Y140817D01*
X14795Y140878D01*
Y140882D01*
X14803Y140886D01*
X14826Y140913D01*
X14864Y140947D01*
X14914Y140989D01*
X14975Y141039D01*
X15048Y141089D01*
X15133Y141135D01*
X15229Y141178D01*
X15233D01*
X15240Y141182D01*
X15256Y141185D01*
X15275Y141193D01*
X15298Y141201D01*
X15329Y141208D01*
X15363Y141220D01*
X15402Y141228D01*
X15444Y141235D01*
X15490Y141247D01*
X15590Y141262D01*
X15701Y141274D01*
X15824Y141278D01*
X15828D01*
X15835D01*
X15851D01*
X15874D01*
X15897Y141274D01*
D02*
G37*
G36*
X76142Y144426D02*
X74168D01*
X74172Y144422D01*
X74188Y144407D01*
X74207Y144380D01*
X74234Y144346D01*
X74268Y144303D01*
X74303Y144254D01*
X74345Y144196D01*
X74383Y144131D01*
Y144127D01*
X74387Y144123D01*
X74403Y144100D01*
X74422Y144065D01*
X74445Y144023D01*
X74472Y143973D01*
X74495Y143919D01*
X74522Y143862D01*
X74545Y143808D01*
X74241D01*
Y143812D01*
X74238Y143820D01*
X74230Y143835D01*
X74218Y143850D01*
X74207Y143873D01*
X74195Y143900D01*
X74161Y143962D01*
X74119Y144031D01*
X74069Y144108D01*
X74011Y144184D01*
X73949Y144257D01*
X73946Y144261D01*
X73942Y144265D01*
X73919Y144288D01*
X73884Y144323D01*
X73842Y144365D01*
X73788Y144411D01*
X73731Y144457D01*
X73669Y144499D01*
X73608Y144534D01*
Y144737D01*
X76142D01*
Y144426D01*
D02*
G37*
G36*
Y142468D02*
X74168D01*
X74172Y142464D01*
X74188Y142449D01*
X74207Y142422D01*
X74234Y142387D01*
X74268Y142345D01*
X74303Y142295D01*
X74345Y142237D01*
X74383Y142172D01*
Y142168D01*
X74387Y142165D01*
X74403Y142141D01*
X74422Y142107D01*
X74445Y142065D01*
X74472Y142015D01*
X74495Y141961D01*
X74522Y141903D01*
X74545Y141850D01*
X74241D01*
Y141853D01*
X74238Y141861D01*
X74230Y141876D01*
X74218Y141892D01*
X74207Y141915D01*
X74195Y141942D01*
X74161Y142003D01*
X74119Y142072D01*
X74069Y142149D01*
X74011Y142226D01*
X73949Y142299D01*
X73946Y142303D01*
X73942Y142307D01*
X73919Y142330D01*
X73884Y142364D01*
X73842Y142406D01*
X73788Y142453D01*
X73731Y142499D01*
X73669Y142541D01*
X73608Y142575D01*
Y142779D01*
X76142D01*
Y142468D01*
D02*
G37*
G36*
X74940Y141274D02*
X74971D01*
X75040Y141270D01*
X75117Y141262D01*
X75205Y141247D01*
X75294Y141231D01*
X75378Y141208D01*
X75382D01*
X75389Y141205D01*
X75401Y141201D01*
X75416Y141197D01*
X75455Y141182D01*
X75509Y141162D01*
X75566Y141139D01*
X75628Y141109D01*
X75689Y141074D01*
X75747Y141036D01*
X75754Y141032D01*
X75770Y141016D01*
X75797Y140997D01*
X75831Y140966D01*
X75866Y140936D01*
X75904Y140893D01*
X75942Y140851D01*
X75977Y140805D01*
X75981Y140801D01*
X75989Y140782D01*
X76004Y140755D01*
X76023Y140721D01*
X76042Y140678D01*
X76061Y140629D01*
X76081Y140571D01*
X76100Y140506D01*
Y140498D01*
X76108Y140475D01*
X76112Y140440D01*
X76119Y140390D01*
X76127Y140333D01*
X76135Y140264D01*
X76138Y140187D01*
X76142Y140102D01*
Y139196D01*
X73619D01*
Y140164D01*
X73623Y140229D01*
X73627Y140298D01*
X73635Y140375D01*
X73646Y140448D01*
X73658Y140509D01*
Y140513D01*
X73662Y140521D01*
Y140529D01*
X73669Y140544D01*
X73681Y140586D01*
X73700Y140636D01*
X73723Y140694D01*
X73754Y140755D01*
X73792Y140817D01*
X73838Y140878D01*
Y140882D01*
X73846Y140886D01*
X73869Y140913D01*
X73907Y140947D01*
X73957Y140989D01*
X74019Y141039D01*
X74092Y141089D01*
X74176Y141135D01*
X74272Y141178D01*
X74276D01*
X74284Y141182D01*
X74299Y141185D01*
X74318Y141193D01*
X74341Y141201D01*
X74372Y141208D01*
X74406Y141220D01*
X74445Y141228D01*
X74487Y141235D01*
X74533Y141247D01*
X74633Y141262D01*
X74744Y141274D01*
X74867Y141278D01*
X74871D01*
X74879D01*
X74894D01*
X74917D01*
X74940Y141274D01*
D02*
G37*
G36*
X99407Y140581D02*
X99430D01*
X99461Y140577D01*
X99530Y140566D01*
X99607Y140543D01*
X99687Y140512D01*
X99768Y140474D01*
X99806Y140447D01*
X99845Y140416D01*
X99848D01*
X99852Y140408D01*
X99875Y140385D01*
X99906Y140347D01*
X99944Y140297D01*
X99987Y140232D01*
X100021Y140155D01*
X100056Y140063D01*
X100075Y139959D01*
X99768Y139936D01*
Y139940D01*
Y139944D01*
X99760Y139967D01*
X99749Y139997D01*
X99737Y140036D01*
X99699Y140124D01*
X99676Y140163D01*
X99649Y140197D01*
X99645Y140205D01*
X99626Y140220D01*
X99599Y140239D01*
X99564Y140266D01*
X99518Y140289D01*
X99464Y140312D01*
X99403Y140328D01*
X99338Y140331D01*
X99311D01*
X99284Y140328D01*
X99249Y140320D01*
X99207Y140312D01*
X99161Y140297D01*
X99119Y140274D01*
X99073Y140247D01*
X99065Y140243D01*
X99050Y140228D01*
X99023Y140201D01*
X98992Y140166D01*
X98954Y140124D01*
X98915Y140070D01*
X98877Y140005D01*
X98842Y139932D01*
Y139928D01*
X98839Y139925D01*
X98835Y139909D01*
X98831Y139894D01*
X98823Y139874D01*
X98816Y139848D01*
X98808Y139817D01*
X98800Y139782D01*
X98792Y139744D01*
X98785Y139702D01*
X98777Y139652D01*
X98769Y139602D01*
X98765Y139544D01*
X98762Y139483D01*
X98758Y139418D01*
Y139352D01*
X98762Y139356D01*
X98777Y139375D01*
X98800Y139406D01*
X98835Y139444D01*
X98873Y139487D01*
X98919Y139529D01*
X98973Y139567D01*
X99031Y139602D01*
X99038Y139606D01*
X99057Y139613D01*
X99092Y139629D01*
X99134Y139644D01*
X99184Y139660D01*
X99242Y139675D01*
X99303Y139682D01*
X99368Y139686D01*
X99399D01*
X99422Y139682D01*
X99449Y139679D01*
X99480Y139675D01*
X99553Y139660D01*
X99633Y139629D01*
X99679Y139613D01*
X99722Y139590D01*
X99768Y139564D01*
X99814Y139533D01*
X99856Y139498D01*
X99898Y139456D01*
X99902Y139452D01*
X99906Y139444D01*
X99918Y139433D01*
X99933Y139414D01*
X99948Y139391D01*
X99967Y139364D01*
X99987Y139333D01*
X100010Y139298D01*
X100029Y139256D01*
X100048Y139214D01*
X100067Y139164D01*
X100083Y139114D01*
X100098Y139057D01*
X100110Y138999D01*
X100113Y138934D01*
X100117Y138868D01*
Y138865D01*
Y138857D01*
Y138845D01*
Y138830D01*
X100113Y138807D01*
Y138784D01*
X100106Y138723D01*
X100090Y138657D01*
X100075Y138580D01*
X100048Y138504D01*
X100013Y138427D01*
Y138423D01*
X100010Y138419D01*
X100002Y138408D01*
X99994Y138392D01*
X99971Y138358D01*
X99941Y138312D01*
X99898Y138262D01*
X99848Y138212D01*
X99795Y138162D01*
X99729Y138116D01*
X99722Y138112D01*
X99699Y138101D01*
X99660Y138081D01*
X99614Y138062D01*
X99553Y138043D01*
X99484Y138024D01*
X99407Y138012D01*
X99326Y138008D01*
X99311D01*
X99288Y138012D01*
X99261D01*
X99230Y138016D01*
X99192Y138024D01*
X99150Y138031D01*
X99103Y138043D01*
X99054Y138058D01*
X99000Y138077D01*
X98950Y138101D01*
X98896Y138127D01*
X98842Y138162D01*
X98789Y138200D01*
X98739Y138242D01*
X98693Y138293D01*
X98689Y138296D01*
X98681Y138308D01*
X98670Y138323D01*
X98654Y138346D01*
X98635Y138377D01*
X98616Y138415D01*
X98593Y138461D01*
X98574Y138515D01*
X98550Y138577D01*
X98527Y138646D01*
X98508Y138723D01*
X98489Y138807D01*
X98474Y138899D01*
X98462Y139003D01*
X98454Y139110D01*
X98451Y139229D01*
Y139233D01*
Y139237D01*
Y139249D01*
Y139260D01*
Y139298D01*
X98454Y139348D01*
X98458Y139410D01*
X98466Y139479D01*
X98474Y139556D01*
X98485Y139636D01*
X98497Y139725D01*
X98516Y139813D01*
X98539Y139901D01*
X98566Y139986D01*
X98597Y140074D01*
X98631Y140151D01*
X98673Y140228D01*
X98720Y140293D01*
X98723Y140297D01*
X98731Y140305D01*
X98743Y140320D01*
X98762Y140339D01*
X98789Y140362D01*
X98816Y140385D01*
X98850Y140412D01*
X98888Y140439D01*
X98931Y140466D01*
X98981Y140493D01*
X99031Y140516D01*
X99088Y140539D01*
X99150Y140558D01*
X99215Y140573D01*
X99284Y140581D01*
X99357Y140585D01*
X99384D01*
X99407Y140581D01*
D02*
G37*
G36*
X97084Y140570D02*
X97153Y140566D01*
X97229Y140558D01*
X97303Y140547D01*
X97364Y140535D01*
X97368D01*
X97376Y140531D01*
X97383D01*
X97399Y140524D01*
X97441Y140512D01*
X97491Y140493D01*
X97548Y140470D01*
X97610Y140439D01*
X97671Y140401D01*
X97733Y140355D01*
X97736D01*
X97740Y140347D01*
X97767Y140324D01*
X97802Y140285D01*
X97844Y140235D01*
X97894Y140174D01*
X97944Y140101D01*
X97990Y140017D01*
X98032Y139921D01*
Y139917D01*
X98036Y139909D01*
X98040Y139894D01*
X98048Y139874D01*
X98055Y139851D01*
X98063Y139821D01*
X98074Y139786D01*
X98082Y139748D01*
X98090Y139706D01*
X98101Y139660D01*
X98117Y139560D01*
X98128Y139448D01*
X98132Y139325D01*
Y139322D01*
Y139314D01*
Y139298D01*
Y139276D01*
X98128Y139252D01*
Y139222D01*
X98124Y139153D01*
X98117Y139076D01*
X98101Y138988D01*
X98086Y138899D01*
X98063Y138815D01*
Y138811D01*
X98059Y138803D01*
X98055Y138792D01*
X98051Y138776D01*
X98036Y138738D01*
X98017Y138684D01*
X97994Y138627D01*
X97963Y138565D01*
X97928Y138504D01*
X97890Y138446D01*
X97886Y138438D01*
X97871Y138423D01*
X97852Y138396D01*
X97821Y138362D01*
X97790Y138327D01*
X97748Y138289D01*
X97706Y138250D01*
X97660Y138216D01*
X97656Y138212D01*
X97637Y138204D01*
X97610Y138189D01*
X97575Y138170D01*
X97533Y138150D01*
X97483Y138131D01*
X97425Y138112D01*
X97360Y138093D01*
X97352D01*
X97329Y138085D01*
X97295Y138081D01*
X97245Y138074D01*
X97187Y138066D01*
X97118Y138058D01*
X97041Y138054D01*
X96957Y138050D01*
X96051D01*
Y140573D01*
X97018D01*
X97084Y140570D01*
D02*
G37*
G36*
X216366Y138938D02*
X216708D01*
Y138653D01*
X216366D01*
Y138050D01*
X216055D01*
Y138653D01*
X214961D01*
Y138938D01*
X216113Y140570D01*
X216366D01*
Y138938D01*
D02*
G37*
G36*
X213682Y140570D02*
X213751Y140566D01*
X213828Y140558D01*
X213901Y140547D01*
X213962Y140535D01*
X213966D01*
X213974Y140531D01*
X213982D01*
X213997Y140524D01*
X214039Y140512D01*
X214089Y140493D01*
X214147Y140470D01*
X214208Y140439D01*
X214270Y140401D01*
X214331Y140355D01*
X214335D01*
X214339Y140347D01*
X214366Y140324D01*
X214400Y140285D01*
X214442Y140235D01*
X214492Y140174D01*
X214542Y140101D01*
X214588Y140017D01*
X214631Y139921D01*
Y139917D01*
X214634Y139909D01*
X214638Y139894D01*
X214646Y139874D01*
X214654Y139851D01*
X214661Y139821D01*
X214673Y139786D01*
X214681Y139748D01*
X214688Y139706D01*
X214700Y139660D01*
X214715Y139560D01*
X214726Y139448D01*
X214730Y139325D01*
Y139322D01*
Y139314D01*
Y139298D01*
Y139276D01*
X214726Y139252D01*
Y139222D01*
X214723Y139153D01*
X214715Y139076D01*
X214700Y138988D01*
X214684Y138899D01*
X214661Y138815D01*
Y138811D01*
X214657Y138803D01*
X214654Y138792D01*
X214650Y138776D01*
X214634Y138738D01*
X214615Y138684D01*
X214592Y138627D01*
X214561Y138565D01*
X214527Y138504D01*
X214489Y138446D01*
X214485Y138438D01*
X214469Y138423D01*
X214450Y138396D01*
X214419Y138362D01*
X214389Y138327D01*
X214346Y138289D01*
X214304Y138250D01*
X214258Y138216D01*
X214254Y138212D01*
X214235Y138204D01*
X214208Y138189D01*
X214174Y138170D01*
X214131Y138150D01*
X214081Y138131D01*
X214024Y138112D01*
X213959Y138093D01*
X213951D01*
X213928Y138085D01*
X213893Y138081D01*
X213843Y138074D01*
X213786Y138066D01*
X213717Y138058D01*
X213640Y138054D01*
X213555Y138050D01*
X212649D01*
Y140573D01*
X213617D01*
X213682Y140570D01*
D02*
G37*
G36*
X158710Y139846D02*
X157704D01*
X157566Y139166D01*
X157570Y139170D01*
X157578Y139174D01*
X157589Y139181D01*
X157604Y139193D01*
X157627Y139204D01*
X157650Y139216D01*
X157712Y139247D01*
X157781Y139277D01*
X157862Y139300D01*
X157950Y139320D01*
X158042Y139327D01*
X158073D01*
X158096Y139323D01*
X158127Y139320D01*
X158157Y139316D01*
X158196Y139308D01*
X158234Y139300D01*
X158323Y139270D01*
X158369Y139254D01*
X158415Y139231D01*
X158465Y139204D01*
X158511Y139174D01*
X158557Y139139D01*
X158599Y139097D01*
X158603Y139093D01*
X158610Y139085D01*
X158622Y139074D01*
X158633Y139055D01*
X158653Y139032D01*
X158672Y139005D01*
X158691Y138974D01*
X158714Y138939D01*
X158737Y138897D01*
X158756Y138855D01*
X158776Y138805D01*
X158795Y138755D01*
X158806Y138698D01*
X158818Y138640D01*
X158826Y138575D01*
X158829Y138509D01*
Y138505D01*
Y138494D01*
Y138475D01*
X158826Y138452D01*
X158822Y138421D01*
X158818Y138386D01*
X158814Y138348D01*
X158806Y138306D01*
X158779Y138214D01*
X158745Y138118D01*
X158722Y138064D01*
X158695Y138014D01*
X158664Y137964D01*
X158630Y137918D01*
X158626Y137914D01*
X158618Y137906D01*
X158603Y137891D01*
X158584Y137872D01*
X158561Y137849D01*
X158530Y137822D01*
X158495Y137795D01*
X158453Y137768D01*
X158411Y137738D01*
X158361Y137711D01*
X158303Y137684D01*
X158246Y137661D01*
X158180Y137642D01*
X158115Y137626D01*
X158042Y137618D01*
X157965Y137615D01*
X157931D01*
X157908Y137618D01*
X157881Y137622D01*
X157846Y137626D01*
X157808Y137630D01*
X157766Y137638D01*
X157677Y137661D01*
X157585Y137695D01*
X157539Y137718D01*
X157493Y137745D01*
X157447Y137772D01*
X157405Y137807D01*
X157401Y137810D01*
X157397Y137814D01*
X157386Y137826D01*
X157370Y137841D01*
X157355Y137860D01*
X157336Y137883D01*
X157316Y137910D01*
X157293Y137941D01*
X157251Y138014D01*
X157209Y138102D01*
X157178Y138202D01*
X157167Y138260D01*
X157159Y138317D01*
X157485Y138340D01*
Y138337D01*
Y138329D01*
X157489Y138317D01*
X157493Y138302D01*
X157504Y138260D01*
X157520Y138206D01*
X157539Y138148D01*
X157570Y138091D01*
X157604Y138033D01*
X157650Y137983D01*
X157658Y137979D01*
X157674Y137964D01*
X157700Y137949D01*
X157739Y137926D01*
X157785Y137906D01*
X157839Y137887D01*
X157900Y137872D01*
X157965Y137868D01*
X157988D01*
X158004Y137872D01*
X158046Y137876D01*
X158100Y137887D01*
X158157Y137910D01*
X158223Y137937D01*
X158284Y137979D01*
X158315Y138002D01*
X158345Y138033D01*
Y138037D01*
X158353Y138041D01*
X158369Y138064D01*
X158395Y138102D01*
X158422Y138152D01*
X158449Y138217D01*
X158476Y138294D01*
X158491Y138383D01*
X158499Y138482D01*
Y138486D01*
Y138494D01*
Y138509D01*
X158495Y138525D01*
Y138548D01*
X158491Y138575D01*
X158480Y138636D01*
X158465Y138701D01*
X158438Y138770D01*
X158399Y138840D01*
X158349Y138901D01*
X158342Y138909D01*
X158323Y138924D01*
X158292Y138951D01*
X158246Y138978D01*
X158192Y139005D01*
X158123Y139032D01*
X158046Y139047D01*
X157961Y139055D01*
X157935D01*
X157908Y139051D01*
X157869Y139047D01*
X157827Y139035D01*
X157781Y139024D01*
X157735Y139005D01*
X157689Y138982D01*
X157685Y138978D01*
X157670Y138970D01*
X157647Y138955D01*
X157620Y138935D01*
X157593Y138909D01*
X157562Y138878D01*
X157531Y138843D01*
X157504Y138805D01*
X157213Y138847D01*
X157458Y140141D01*
X158710D01*
Y139846D01*
D02*
G37*
G36*
X155777Y140176D02*
X155846Y140172D01*
X155922Y140164D01*
X155995Y140153D01*
X156057Y140141D01*
X156061D01*
X156068Y140138D01*
X156076D01*
X156091Y140130D01*
X156134Y140118D01*
X156184Y140099D01*
X156241Y140076D01*
X156303Y140045D01*
X156364Y140007D01*
X156425Y139961D01*
X156429D01*
X156433Y139953D01*
X156460Y139930D01*
X156495Y139892D01*
X156537Y139842D01*
X156587Y139780D01*
X156637Y139707D01*
X156683Y139623D01*
X156725Y139527D01*
Y139523D01*
X156729Y139515D01*
X156733Y139500D01*
X156740Y139481D01*
X156748Y139458D01*
X156756Y139427D01*
X156767Y139392D01*
X156775Y139354D01*
X156783Y139312D01*
X156794Y139266D01*
X156809Y139166D01*
X156821Y139055D01*
X156825Y138932D01*
Y138928D01*
Y138920D01*
Y138905D01*
Y138882D01*
X156821Y138859D01*
Y138828D01*
X156817Y138759D01*
X156809Y138682D01*
X156794Y138594D01*
X156779Y138505D01*
X156756Y138421D01*
Y138417D01*
X156752Y138409D01*
X156748Y138398D01*
X156744Y138383D01*
X156729Y138344D01*
X156710Y138290D01*
X156687Y138233D01*
X156656Y138171D01*
X156621Y138110D01*
X156583Y138052D01*
X156579Y138045D01*
X156564Y138029D01*
X156545Y138002D01*
X156514Y137968D01*
X156483Y137933D01*
X156441Y137895D01*
X156399Y137856D01*
X156352Y137822D01*
X156349Y137818D01*
X156330Y137810D01*
X156303Y137795D01*
X156268Y137776D01*
X156226Y137757D01*
X156176Y137738D01*
X156118Y137718D01*
X156053Y137699D01*
X156045D01*
X156022Y137691D01*
X155988Y137688D01*
X155938Y137680D01*
X155880Y137672D01*
X155811Y137664D01*
X155734Y137661D01*
X155650Y137657D01*
X154744D01*
Y140180D01*
X155711D01*
X155777Y140176D01*
D02*
G37*
G36*
X133948Y145210D02*
X133990D01*
X134040Y145206D01*
X134093Y145202D01*
X134209Y145190D01*
X134328Y145175D01*
X134447Y145152D01*
X134500Y145137D01*
X134554Y145121D01*
X134558D01*
X134566Y145117D01*
X134581Y145114D01*
X134600Y145106D01*
X134623Y145094D01*
X134646Y145083D01*
X134708Y145052D01*
X134777Y145014D01*
X134846Y144968D01*
X134915Y144914D01*
X134977Y144849D01*
Y144845D01*
X134984Y144841D01*
X134988Y144829D01*
X135000Y144818D01*
X135023Y144776D01*
X135049Y144726D01*
X135076Y144657D01*
X135099Y144580D01*
X135115Y144492D01*
X135123Y144392D01*
Y144357D01*
X135119Y144330D01*
X135115Y144300D01*
X135107Y144265D01*
X135099Y144227D01*
X135092Y144184D01*
X135061Y144092D01*
X135038Y144042D01*
X135015Y143996D01*
X134984Y143946D01*
X134950Y143900D01*
X134911Y143858D01*
X134865Y143816D01*
X134861Y143812D01*
X134850Y143804D01*
X134831Y143793D01*
X134804Y143777D01*
X134769Y143758D01*
X134727Y143739D01*
X134677Y143716D01*
X134616Y143693D01*
X134550Y143670D01*
X134474Y143647D01*
X134389Y143628D01*
X134297Y143608D01*
X134193Y143593D01*
X134086Y143581D01*
X133963Y143574D01*
X133836Y143570D01*
X133832D01*
X133817D01*
X133794D01*
X133763D01*
X133725Y143574D01*
X133683D01*
X133633Y143578D01*
X133579Y143581D01*
X133464Y143593D01*
X133345Y143608D01*
X133226Y143628D01*
X133172Y143643D01*
X133118Y143658D01*
X133114D01*
X133107Y143662D01*
X133091Y143670D01*
X133072Y143677D01*
X133049Y143685D01*
X133022Y143697D01*
X132961Y143727D01*
X132891Y143766D01*
X132822Y143812D01*
X132757Y143866D01*
X132696Y143931D01*
Y143935D01*
X132688Y143939D01*
X132680Y143950D01*
X132673Y143965D01*
X132650Y144004D01*
X132619Y144058D01*
X132592Y144123D01*
X132569Y144204D01*
X132554Y144292D01*
X132546Y144392D01*
Y144426D01*
X132550Y144465D01*
X132557Y144511D01*
X132565Y144564D01*
X132580Y144626D01*
X132604Y144687D01*
X132630Y144745D01*
X132634Y144753D01*
X132646Y144772D01*
X132665Y144799D01*
X132688Y144837D01*
X132722Y144876D01*
X132765Y144918D01*
X132811Y144960D01*
X132865Y144998D01*
X132872Y145002D01*
X132891Y145014D01*
X132926Y145033D01*
X132968Y145056D01*
X133022Y145079D01*
X133087Y145106D01*
X133160Y145133D01*
X133241Y145156D01*
X133245D01*
X133252Y145160D01*
X133264D01*
X133283Y145164D01*
X133302Y145171D01*
X133329Y145175D01*
X133364Y145179D01*
X133398Y145187D01*
X133441Y145190D01*
X133483Y145194D01*
X133533Y145202D01*
X133587Y145206D01*
X133644Y145210D01*
X133702D01*
X133836Y145213D01*
X133840D01*
X133855D01*
X133878D01*
X133909D01*
X133948Y145210D01*
D02*
G37*
G36*
X135080Y142468D02*
X133107D01*
X133110Y142464D01*
X133126Y142449D01*
X133145Y142422D01*
X133172Y142387D01*
X133206Y142345D01*
X133241Y142295D01*
X133283Y142237D01*
X133322Y142172D01*
Y142168D01*
X133325Y142165D01*
X133341Y142141D01*
X133360Y142107D01*
X133383Y142065D01*
X133410Y142015D01*
X133433Y141961D01*
X133460Y141903D01*
X133483Y141850D01*
X133179D01*
Y141853D01*
X133176Y141861D01*
X133168Y141876D01*
X133156Y141892D01*
X133145Y141915D01*
X133133Y141942D01*
X133099Y142003D01*
X133057Y142072D01*
X133007Y142149D01*
X132949Y142226D01*
X132888Y142299D01*
X132884Y142303D01*
X132880Y142307D01*
X132857Y142330D01*
X132822Y142364D01*
X132780Y142406D01*
X132726Y142453D01*
X132669Y142499D01*
X132607Y142541D01*
X132546Y142575D01*
Y142779D01*
X135080D01*
Y142468D01*
D02*
G37*
G36*
X133878Y141274D02*
X133909D01*
X133978Y141270D01*
X134055Y141262D01*
X134143Y141247D01*
X134232Y141231D01*
X134316Y141208D01*
X134320D01*
X134328Y141205D01*
X134339Y141201D01*
X134354Y141197D01*
X134393Y141182D01*
X134447Y141162D01*
X134504Y141139D01*
X134566Y141109D01*
X134627Y141074D01*
X134685Y141036D01*
X134692Y141032D01*
X134708Y141016D01*
X134735Y140997D01*
X134769Y140966D01*
X134804Y140936D01*
X134842Y140893D01*
X134881Y140851D01*
X134915Y140805D01*
X134919Y140801D01*
X134927Y140782D01*
X134942Y140755D01*
X134961Y140721D01*
X134980Y140678D01*
X135000Y140629D01*
X135019Y140571D01*
X135038Y140506D01*
Y140498D01*
X135046Y140475D01*
X135049Y140440D01*
X135057Y140390D01*
X135065Y140333D01*
X135073Y140264D01*
X135076Y140187D01*
X135080Y140102D01*
Y139196D01*
X132557D01*
Y140164D01*
X132561Y140229D01*
X132565Y140298D01*
X132573Y140375D01*
X132584Y140448D01*
X132596Y140509D01*
Y140513D01*
X132600Y140521D01*
Y140529D01*
X132607Y140544D01*
X132619Y140586D01*
X132638Y140636D01*
X132661Y140694D01*
X132692Y140755D01*
X132730Y140817D01*
X132776Y140878D01*
Y140882D01*
X132784Y140886D01*
X132807Y140913D01*
X132845Y140947D01*
X132895Y140989D01*
X132957Y141039D01*
X133030Y141089D01*
X133114Y141135D01*
X133210Y141178D01*
X133214D01*
X133222Y141182D01*
X133237Y141185D01*
X133256Y141193D01*
X133279Y141201D01*
X133310Y141208D01*
X133345Y141220D01*
X133383Y141228D01*
X133425Y141235D01*
X133471Y141247D01*
X133571Y141262D01*
X133683Y141274D01*
X133805Y141278D01*
X133809D01*
X133817D01*
X133832D01*
X133855D01*
X133878Y141274D01*
D02*
G37*
G36*
X275204Y140581D02*
X275254Y140573D01*
X275312Y140562D01*
X275377Y140547D01*
X275442Y140524D01*
X275507Y140493D01*
X275511D01*
X275515Y140489D01*
X275538Y140477D01*
X275569Y140458D01*
X275607Y140431D01*
X275649Y140397D01*
X275696Y140355D01*
X275738Y140305D01*
X275776Y140251D01*
X275780Y140243D01*
X275792Y140224D01*
X275807Y140193D01*
X275822Y140155D01*
X275838Y140105D01*
X275853Y140051D01*
X275865Y139994D01*
X275868Y139928D01*
Y139921D01*
Y139901D01*
X275865Y139871D01*
X275857Y139832D01*
X275845Y139786D01*
X275830Y139736D01*
X275811Y139682D01*
X275780Y139633D01*
X275776Y139625D01*
X275765Y139610D01*
X275742Y139586D01*
X275715Y139556D01*
X275676Y139521D01*
X275634Y139487D01*
X275580Y139448D01*
X275519Y139418D01*
X275523D01*
X275531Y139414D01*
X275542D01*
X275557Y139406D01*
X275596Y139394D01*
X275646Y139372D01*
X275699Y139345D01*
X275757Y139306D01*
X275815Y139260D01*
X275865Y139202D01*
X275868Y139195D01*
X275884Y139172D01*
X275903Y139137D01*
X275930Y139091D01*
X275953Y139034D01*
X275972Y138964D01*
X275987Y138884D01*
X275991Y138795D01*
Y138792D01*
Y138780D01*
Y138765D01*
X275987Y138742D01*
X275984Y138711D01*
X275980Y138680D01*
X275972Y138642D01*
X275960Y138603D01*
X275934Y138515D01*
X275915Y138465D01*
X275888Y138419D01*
X275861Y138373D01*
X275830Y138327D01*
X275792Y138281D01*
X275749Y138235D01*
X275746Y138231D01*
X275738Y138223D01*
X275726Y138216D01*
X275707Y138200D01*
X275684Y138181D01*
X275653Y138162D01*
X275619Y138143D01*
X275584Y138124D01*
X275542Y138101D01*
X275496Y138081D01*
X275446Y138062D01*
X275392Y138043D01*
X275335Y138028D01*
X275273Y138020D01*
X275208Y138012D01*
X275143Y138008D01*
X275112D01*
X275089Y138012D01*
X275058Y138016D01*
X275027Y138020D01*
X274989Y138024D01*
X274951Y138031D01*
X274862Y138054D01*
X274770Y138093D01*
X274724Y138112D01*
X274682Y138139D01*
X274636Y138170D01*
X274593Y138204D01*
X274590Y138208D01*
X274586Y138212D01*
X274574Y138223D01*
X274559Y138239D01*
X274544Y138262D01*
X274524Y138285D01*
X274501Y138312D01*
X274482Y138342D01*
X274436Y138419D01*
X274398Y138507D01*
X274363Y138607D01*
X274352Y138661D01*
X274344Y138719D01*
X274655Y138761D01*
Y138757D01*
X274659Y138749D01*
Y138734D01*
X274667Y138719D01*
X274678Y138673D01*
X274697Y138615D01*
X274720Y138554D01*
X274751Y138488D01*
X274789Y138431D01*
X274832Y138381D01*
X274839Y138377D01*
X274855Y138362D01*
X274882Y138346D01*
X274920Y138323D01*
X274962Y138304D01*
X275016Y138285D01*
X275077Y138269D01*
X275143Y138266D01*
X275166D01*
X275181Y138269D01*
X275219Y138273D01*
X275269Y138285D01*
X275331Y138304D01*
X275392Y138327D01*
X275454Y138365D01*
X275511Y138415D01*
X275519Y138423D01*
X275534Y138442D01*
X275557Y138473D01*
X275588Y138519D01*
X275615Y138573D01*
X275638Y138638D01*
X275653Y138711D01*
X275661Y138792D01*
Y138795D01*
Y138799D01*
Y138811D01*
X275657Y138826D01*
X275653Y138865D01*
X275642Y138915D01*
X275626Y138968D01*
X275600Y139030D01*
X275565Y139087D01*
X275519Y139141D01*
X275511Y139149D01*
X275496Y139164D01*
X275465Y139183D01*
X275423Y139210D01*
X275373Y139237D01*
X275312Y139256D01*
X275246Y139272D01*
X275169Y139279D01*
X275135D01*
X275108Y139276D01*
X275077Y139272D01*
X275039Y139268D01*
X274997Y139260D01*
X274951Y139249D01*
X274985Y139521D01*
X275004D01*
X275020Y139517D01*
X275070D01*
X275104Y139521D01*
X275154Y139529D01*
X275208Y139541D01*
X275266Y139560D01*
X275327Y139583D01*
X275388Y139617D01*
X275396Y139621D01*
X275415Y139636D01*
X275438Y139663D01*
X275469Y139698D01*
X275500Y139740D01*
X275523Y139794D01*
X275542Y139859D01*
X275550Y139936D01*
Y139940D01*
Y139944D01*
Y139963D01*
X275542Y139994D01*
X275534Y140036D01*
X275523Y140078D01*
X275500Y140124D01*
X275473Y140174D01*
X275434Y140216D01*
X275431Y140220D01*
X275415Y140235D01*
X275388Y140255D01*
X275354Y140274D01*
X275312Y140297D01*
X275262Y140312D01*
X275204Y140328D01*
X275139Y140331D01*
X275108D01*
X275074Y140324D01*
X275035Y140316D01*
X274985Y140305D01*
X274935Y140282D01*
X274885Y140255D01*
X274835Y140216D01*
X274832Y140212D01*
X274816Y140197D01*
X274797Y140170D01*
X274774Y140132D01*
X274747Y140086D01*
X274724Y140028D01*
X274701Y139959D01*
X274686Y139878D01*
X274375Y139932D01*
Y139936D01*
X274378Y139947D01*
X274382Y139963D01*
X274386Y139982D01*
X274394Y140009D01*
X274401Y140040D01*
X274428Y140109D01*
X274459Y140186D01*
X274505Y140266D01*
X274559Y140343D01*
X274628Y140412D01*
X274632Y140416D01*
X274636Y140420D01*
X274647Y140427D01*
X274667Y140439D01*
X274686Y140451D01*
X274709Y140466D01*
X274766Y140500D01*
X274839Y140531D01*
X274928Y140558D01*
X275024Y140577D01*
X275077Y140585D01*
X275166D01*
X275204Y140581D01*
D02*
G37*
G36*
X272958Y140570D02*
X273027Y140566D01*
X273104Y140558D01*
X273177Y140547D01*
X273238Y140535D01*
X273242D01*
X273250Y140531D01*
X273257D01*
X273272Y140524D01*
X273315Y140512D01*
X273365Y140493D01*
X273422Y140470D01*
X273484Y140439D01*
X273545Y140401D01*
X273607Y140355D01*
X273610D01*
X273614Y140347D01*
X273641Y140324D01*
X273676Y140285D01*
X273718Y140235D01*
X273768Y140174D01*
X273818Y140101D01*
X273864Y140017D01*
X273906Y139921D01*
Y139917D01*
X273910Y139909D01*
X273914Y139894D01*
X273921Y139874D01*
X273929Y139851D01*
X273937Y139821D01*
X273948Y139786D01*
X273956Y139748D01*
X273964Y139706D01*
X273975Y139660D01*
X273991Y139560D01*
X274002Y139448D01*
X274006Y139325D01*
Y139322D01*
Y139314D01*
Y139298D01*
Y139276D01*
X274002Y139252D01*
Y139222D01*
X273998Y139153D01*
X273991Y139076D01*
X273975Y138988D01*
X273960Y138899D01*
X273937Y138815D01*
Y138811D01*
X273933Y138803D01*
X273929Y138792D01*
X273925Y138776D01*
X273910Y138738D01*
X273891Y138684D01*
X273868Y138627D01*
X273837Y138565D01*
X273802Y138504D01*
X273764Y138446D01*
X273760Y138438D01*
X273745Y138423D01*
X273726Y138396D01*
X273695Y138362D01*
X273664Y138327D01*
X273622Y138289D01*
X273580Y138250D01*
X273534Y138216D01*
X273530Y138212D01*
X273511Y138204D01*
X273484Y138189D01*
X273449Y138170D01*
X273407Y138150D01*
X273357Y138131D01*
X273299Y138112D01*
X273234Y138093D01*
X273226D01*
X273203Y138085D01*
X273169Y138081D01*
X273119Y138074D01*
X273061Y138066D01*
X272992Y138058D01*
X272915Y138054D01*
X272831Y138050D01*
X271925D01*
Y140573D01*
X272892D01*
X272958Y140570D01*
D02*
G37*
G36*
X251200Y143267D02*
X251226Y143263D01*
X251261Y143259D01*
X251338Y143244D01*
X251422Y143213D01*
X251468Y143198D01*
X251514Y143175D01*
X251560Y143148D01*
X251606Y143117D01*
X251649Y143082D01*
X251691Y143040D01*
X251695Y143036D01*
X251699Y143028D01*
X251710Y143017D01*
X251726Y142998D01*
X251741Y142975D01*
X251760Y142948D01*
X251779Y142917D01*
X251799Y142879D01*
X251822Y142836D01*
X251841Y142790D01*
X251860Y142740D01*
X251875Y142687D01*
X251891Y142633D01*
X251902Y142572D01*
X251906Y142506D01*
X251910Y142437D01*
Y142403D01*
X251906Y142376D01*
X251902Y142345D01*
X251898Y142307D01*
X251891Y142268D01*
X251883Y142222D01*
X251856Y142126D01*
X251837Y142076D01*
X251818Y142026D01*
X251791Y141976D01*
X251764Y141926D01*
X251729Y141880D01*
X251691Y141834D01*
X251687Y141830D01*
X251679Y141823D01*
X251668Y141815D01*
X251653Y141800D01*
X251630Y141780D01*
X251603Y141761D01*
X251572Y141742D01*
X251537Y141723D01*
X251499Y141700D01*
X251457Y141681D01*
X251365Y141642D01*
X251311Y141627D01*
X251257Y141619D01*
X251200Y141612D01*
X251138Y141608D01*
X251134D01*
X251127D01*
X251115D01*
X251096Y141612D01*
X251077D01*
X251050Y141615D01*
X250996Y141623D01*
X250931Y141638D01*
X250862Y141662D01*
X250793Y141688D01*
X250727Y141731D01*
X250723D01*
X250719Y141738D01*
X250700Y141754D01*
X250670Y141784D01*
X250635Y141823D01*
X250597Y141873D01*
X250558Y141934D01*
X250524Y142007D01*
X250497Y142088D01*
Y142084D01*
X250493Y142080D01*
X250485Y142057D01*
X250466Y142023D01*
X250447Y141980D01*
X250416Y141930D01*
X250382Y141884D01*
X250343Y141838D01*
X250297Y141800D01*
X250289Y141796D01*
X250274Y141784D01*
X250247Y141769D01*
X250209Y141754D01*
X250163Y141738D01*
X250109Y141723D01*
X250051Y141711D01*
X249986Y141708D01*
X249982D01*
X249974D01*
X249959D01*
X249940Y141711D01*
X249917Y141715D01*
X249890Y141719D01*
X249825Y141731D01*
X249752Y141754D01*
X249675Y141792D01*
X249633Y141811D01*
X249594Y141838D01*
X249556Y141869D01*
X249521Y141903D01*
X249518Y141907D01*
X249514Y141911D01*
X249502Y141923D01*
X249491Y141938D01*
X249479Y141961D01*
X249460Y141984D01*
X249445Y142011D01*
X249425Y142045D01*
X249391Y142119D01*
X249364Y142211D01*
X249341Y142314D01*
X249337Y142368D01*
X249333Y142429D01*
Y142460D01*
X249337Y142483D01*
Y142514D01*
X249345Y142545D01*
X249356Y142622D01*
X249379Y142706D01*
X249414Y142794D01*
X249437Y142840D01*
X249460Y142883D01*
X249491Y142925D01*
X249525Y142963D01*
X249529Y142967D01*
X249533Y142971D01*
X249545Y142982D01*
X249560Y142994D01*
X249579Y143009D01*
X249602Y143028D01*
X249656Y143067D01*
X249725Y143102D01*
X249806Y143136D01*
X249894Y143159D01*
X249944Y143163D01*
X249994Y143167D01*
X250001D01*
X250025D01*
X250055Y143163D01*
X250097Y143155D01*
X250147Y143144D01*
X250197Y143128D01*
X250251Y143105D01*
X250301Y143075D01*
X250305Y143071D01*
X250320Y143059D01*
X250343Y143036D01*
X250374Y143006D01*
X250405Y142967D01*
X250435Y142917D01*
X250470Y142860D01*
X250497Y142794D01*
Y142798D01*
X250501Y142806D01*
X250504Y142817D01*
X250512Y142833D01*
X250531Y142875D01*
X250554Y142925D01*
X250589Y142982D01*
X250631Y143040D01*
X250685Y143098D01*
X250743Y143148D01*
X250750Y143151D01*
X250773Y143167D01*
X250808Y143186D01*
X250858Y143209D01*
X250915Y143232D01*
X250985Y143251D01*
X251061Y143267D01*
X251146Y143271D01*
X251150D01*
X251161D01*
X251177D01*
X251200Y143267D01*
D02*
G37*
G36*
X250666Y141274D02*
X250696D01*
X250766Y141270D01*
X250842Y141262D01*
X250931Y141247D01*
X251019Y141231D01*
X251103Y141208D01*
X251107D01*
X251115Y141205D01*
X251127Y141201D01*
X251142Y141197D01*
X251180Y141182D01*
X251234Y141162D01*
X251292Y141139D01*
X251353Y141109D01*
X251414Y141074D01*
X251472Y141036D01*
X251480Y141032D01*
X251495Y141016D01*
X251522Y140997D01*
X251557Y140966D01*
X251591Y140936D01*
X251630Y140893D01*
X251668Y140851D01*
X251702Y140805D01*
X251706Y140801D01*
X251714Y140782D01*
X251729Y140755D01*
X251749Y140721D01*
X251768Y140678D01*
X251787Y140629D01*
X251806Y140571D01*
X251825Y140506D01*
Y140498D01*
X251833Y140475D01*
X251837Y140440D01*
X251845Y140391D01*
X251852Y140333D01*
X251860Y140264D01*
X251864Y140187D01*
X251868Y140102D01*
Y139196D01*
X249345D01*
Y140164D01*
X249349Y140229D01*
X249353Y140298D01*
X249360Y140375D01*
X249372Y140448D01*
X249383Y140509D01*
Y140513D01*
X249387Y140521D01*
Y140529D01*
X249395Y140544D01*
X249406Y140586D01*
X249425Y140636D01*
X249448Y140694D01*
X249479Y140755D01*
X249518Y140817D01*
X249564Y140878D01*
Y140882D01*
X249571Y140886D01*
X249594Y140913D01*
X249633Y140947D01*
X249683Y140989D01*
X249744Y141039D01*
X249817Y141089D01*
X249902Y141135D01*
X249998Y141178D01*
X250001D01*
X250009Y141182D01*
X250025Y141185D01*
X250044Y141193D01*
X250067Y141201D01*
X250097Y141208D01*
X250132Y141220D01*
X250170Y141228D01*
X250213Y141235D01*
X250259Y141247D01*
X250359Y141262D01*
X250470Y141274D01*
X250593Y141278D01*
X250597D01*
X250604D01*
X250620D01*
X250643D01*
X250666Y141274D01*
D02*
G37*
G36*
X191547Y143267D02*
X191597D01*
X191647Y143263D01*
X191705Y143259D01*
X191828Y143244D01*
X191958Y143224D01*
X192085Y143198D01*
X192143Y143182D01*
X192200Y143163D01*
X192204D01*
X192212Y143159D01*
X192227Y143151D01*
X192246Y143144D01*
X192273Y143132D01*
X192300Y143121D01*
X192361Y143086D01*
X192435Y143040D01*
X192507Y142986D01*
X192577Y142925D01*
X192638Y142852D01*
Y142848D01*
X192646Y142844D01*
X192649Y142833D01*
X192661Y142814D01*
X192673Y142794D01*
X192684Y142771D01*
X192711Y142714D01*
X192738Y142641D01*
X192761Y142560D01*
X192776Y142464D01*
X192784Y142364D01*
Y142337D01*
X192780Y142314D01*
Y142291D01*
X192776Y142261D01*
X192765Y142191D01*
X192745Y142115D01*
X192715Y142034D01*
X192676Y141957D01*
X192623Y141880D01*
X192619Y141876D01*
X192615Y141873D01*
X192592Y141850D01*
X192553Y141819D01*
X192504Y141780D01*
X192438Y141742D01*
X192358Y141708D01*
X192265Y141677D01*
X192158Y141658D01*
X192135Y141953D01*
X192139D01*
X192143D01*
X192154Y141957D01*
X192169Y141961D01*
X192208Y141969D01*
X192250Y141984D01*
X192300Y142003D01*
X192350Y142026D01*
X192400Y142057D01*
X192438Y142095D01*
X192442Y142099D01*
X192454Y142115D01*
X192469Y142138D01*
X192484Y142172D01*
X192500Y142211D01*
X192515Y142257D01*
X192527Y142311D01*
X192531Y142372D01*
Y142395D01*
X192527Y142422D01*
X192523Y142456D01*
X192515Y142495D01*
X192504Y142537D01*
X192488Y142579D01*
X192465Y142622D01*
X192461Y142625D01*
X192454Y142641D01*
X192438Y142660D01*
X192419Y142683D01*
X192396Y142714D01*
X192365Y142740D01*
X192331Y142771D01*
X192292Y142798D01*
X192289Y142802D01*
X192273Y142810D01*
X192246Y142821D01*
X192212Y142840D01*
X192169Y142856D01*
X192120Y142875D01*
X192062Y142894D01*
X191997Y142913D01*
X191993D01*
X191989Y142917D01*
X191978D01*
X191966Y142921D01*
X191928Y142929D01*
X191878Y142936D01*
X191820Y142944D01*
X191759Y142952D01*
X191690Y142959D01*
X191617D01*
X191613D01*
X191601D01*
X191582D01*
X191555D01*
X191563Y142956D01*
X191578Y142940D01*
X191609Y142921D01*
X191640Y142890D01*
X191678Y142856D01*
X191720Y142810D01*
X191759Y142760D01*
X191797Y142702D01*
X191801Y142694D01*
X191812Y142675D01*
X191824Y142641D01*
X191839Y142598D01*
X191858Y142549D01*
X191870Y142491D01*
X191882Y142426D01*
X191885Y142357D01*
Y142326D01*
X191882Y142303D01*
X191878Y142276D01*
X191874Y142245D01*
X191858Y142172D01*
X191832Y142088D01*
X191812Y142045D01*
X191789Y141999D01*
X191762Y141957D01*
X191732Y141911D01*
X191697Y141869D01*
X191659Y141827D01*
X191655Y141823D01*
X191647Y141819D01*
X191636Y141807D01*
X191617Y141792D01*
X191594Y141777D01*
X191567Y141758D01*
X191536Y141738D01*
X191498Y141719D01*
X191459Y141700D01*
X191413Y141681D01*
X191363Y141662D01*
X191309Y141646D01*
X191252Y141631D01*
X191194Y141619D01*
X191129Y141615D01*
X191060Y141612D01*
X191056D01*
X191044D01*
X191021D01*
X190995Y141615D01*
X190964Y141619D01*
X190925Y141623D01*
X190883Y141631D01*
X190837Y141639D01*
X190741Y141665D01*
X190687Y141684D01*
X190637Y141708D01*
X190584Y141731D01*
X190534Y141761D01*
X190488Y141796D01*
X190442Y141834D01*
X190438Y141838D01*
X190430Y141846D01*
X190419Y141857D01*
X190403Y141876D01*
X190388Y141896D01*
X190369Y141923D01*
X190346Y141953D01*
X190322Y141992D01*
X190303Y142030D01*
X190280Y142072D01*
X190242Y142168D01*
X190230Y142222D01*
X190219Y142280D01*
X190211Y142341D01*
X190207Y142403D01*
Y142426D01*
X190211Y142445D01*
Y142464D01*
X190215Y142491D01*
X190223Y142552D01*
X190242Y142622D01*
X190265Y142694D01*
X190296Y142775D01*
X190342Y142852D01*
Y142856D01*
X190349Y142860D01*
X190357Y142871D01*
X190365Y142886D01*
X190395Y142921D01*
X190438Y142967D01*
X190495Y143017D01*
X190557Y143071D01*
X190633Y143121D01*
X190722Y143163D01*
X190726D01*
X190733Y143167D01*
X190749Y143175D01*
X190768Y143178D01*
X190791Y143190D01*
X190822Y143198D01*
X190860Y143205D01*
X190902Y143217D01*
X190948Y143228D01*
X191002Y143236D01*
X191060Y143247D01*
X191121Y143255D01*
X191190Y143259D01*
X191263Y143267D01*
X191344Y143271D01*
X191428D01*
X191432D01*
X191451D01*
X191474D01*
X191509D01*
X191547Y143267D01*
D02*
G37*
G36*
X191540Y141274D02*
X191570D01*
X191640Y141270D01*
X191716Y141262D01*
X191805Y141247D01*
X191893Y141231D01*
X191978Y141208D01*
X191981D01*
X191989Y141205D01*
X192001Y141201D01*
X192016Y141197D01*
X192054Y141182D01*
X192108Y141162D01*
X192166Y141139D01*
X192227Y141109D01*
X192289Y141074D01*
X192346Y141036D01*
X192354Y141032D01*
X192369Y141016D01*
X192396Y140997D01*
X192431Y140966D01*
X192465Y140936D01*
X192504Y140893D01*
X192542Y140851D01*
X192577Y140805D01*
X192580Y140801D01*
X192588Y140782D01*
X192603Y140755D01*
X192623Y140721D01*
X192642Y140679D01*
X192661Y140629D01*
X192680Y140571D01*
X192699Y140506D01*
Y140498D01*
X192707Y140475D01*
X192711Y140440D01*
X192719Y140391D01*
X192726Y140333D01*
X192734Y140264D01*
X192738Y140187D01*
X192742Y140103D01*
Y139196D01*
X190219D01*
Y140164D01*
X190223Y140229D01*
X190226Y140298D01*
X190234Y140375D01*
X190246Y140448D01*
X190257Y140509D01*
Y140513D01*
X190261Y140521D01*
Y140529D01*
X190269Y140544D01*
X190280Y140586D01*
X190299Y140636D01*
X190322Y140694D01*
X190353Y140755D01*
X190392Y140817D01*
X190438Y140878D01*
Y140882D01*
X190445Y140886D01*
X190468Y140913D01*
X190507Y140947D01*
X190557Y140989D01*
X190618Y141039D01*
X190691Y141089D01*
X190776Y141135D01*
X190872Y141178D01*
X190875D01*
X190883Y141182D01*
X190899Y141185D01*
X190918Y141193D01*
X190941Y141201D01*
X190971Y141208D01*
X191006Y141220D01*
X191044Y141228D01*
X191087Y141235D01*
X191133Y141247D01*
X191233Y141262D01*
X191344Y141274D01*
X191467Y141278D01*
X191471D01*
X191478D01*
X191494D01*
X191517D01*
X191540Y141274D01*
D02*
G37*
G36*
X41129Y140301D02*
X41125Y140297D01*
X41118Y140289D01*
X41106Y140274D01*
X41087Y140255D01*
X41068Y140228D01*
X41041Y140197D01*
X41010Y140159D01*
X40979Y140120D01*
X40945Y140074D01*
X40906Y140021D01*
X40864Y139967D01*
X40826Y139905D01*
X40784Y139840D01*
X40737Y139771D01*
X40695Y139694D01*
X40649Y139617D01*
X40645Y139613D01*
X40637Y139598D01*
X40626Y139575D01*
X40611Y139544D01*
X40591Y139506D01*
X40568Y139460D01*
X40542Y139406D01*
X40515Y139348D01*
X40488Y139287D01*
X40457Y139218D01*
X40426Y139145D01*
X40396Y139068D01*
X40338Y138911D01*
X40284Y138742D01*
Y138738D01*
X40280Y138726D01*
X40277Y138711D01*
X40269Y138688D01*
X40261Y138657D01*
X40254Y138623D01*
X40246Y138580D01*
X40234Y138538D01*
X40227Y138488D01*
X40215Y138435D01*
X40196Y138319D01*
X40181Y138189D01*
X40169Y138050D01*
X39850D01*
Y138054D01*
Y138066D01*
Y138081D01*
X39854Y138104D01*
Y138131D01*
X39858Y138166D01*
X39862Y138208D01*
X39866Y138250D01*
X39873Y138300D01*
X39881Y138358D01*
X39889Y138415D01*
X39900Y138477D01*
X39912Y138546D01*
X39927Y138615D01*
X39966Y138769D01*
Y138772D01*
X39969Y138788D01*
X39977Y138811D01*
X39985Y138842D01*
X39996Y138880D01*
X40012Y138922D01*
X40027Y138972D01*
X40046Y139030D01*
X40069Y139087D01*
X40092Y139153D01*
X40146Y139291D01*
X40211Y139437D01*
X40284Y139583D01*
X40288Y139586D01*
X40296Y139602D01*
X40307Y139621D01*
X40323Y139648D01*
X40342Y139682D01*
X40365Y139721D01*
X40392Y139763D01*
X40419Y139813D01*
X40488Y139917D01*
X40565Y140028D01*
X40645Y140139D01*
X40734Y140247D01*
X39497D01*
Y140543D01*
X41129D01*
Y140301D01*
D02*
G37*
G36*
X38096Y140570D02*
X38165Y140566D01*
X38241Y140558D01*
X38314Y140547D01*
X38376Y140535D01*
X38380D01*
X38387Y140531D01*
X38395D01*
X38410Y140524D01*
X38453Y140512D01*
X38502Y140493D01*
X38560Y140470D01*
X38622Y140439D01*
X38683Y140401D01*
X38744Y140355D01*
X38748D01*
X38752Y140347D01*
X38779Y140324D01*
X38813Y140285D01*
X38856Y140235D01*
X38906Y140174D01*
X38956Y140101D01*
X39002Y140017D01*
X39044Y139921D01*
Y139917D01*
X39048Y139909D01*
X39052Y139894D01*
X39059Y139874D01*
X39067Y139851D01*
X39075Y139821D01*
X39086Y139786D01*
X39094Y139748D01*
X39101Y139706D01*
X39113Y139660D01*
X39128Y139560D01*
X39140Y139448D01*
X39144Y139325D01*
Y139322D01*
Y139314D01*
Y139298D01*
Y139276D01*
X39140Y139252D01*
Y139222D01*
X39136Y139153D01*
X39128Y139076D01*
X39113Y138988D01*
X39098Y138899D01*
X39075Y138815D01*
Y138811D01*
X39071Y138803D01*
X39067Y138792D01*
X39063Y138776D01*
X39048Y138738D01*
X39029Y138684D01*
X39006Y138627D01*
X38975Y138565D01*
X38940Y138504D01*
X38902Y138446D01*
X38898Y138438D01*
X38883Y138423D01*
X38864Y138396D01*
X38833Y138362D01*
X38802Y138327D01*
X38760Y138289D01*
X38717Y138250D01*
X38671Y138216D01*
X38668Y138212D01*
X38648Y138204D01*
X38622Y138189D01*
X38587Y138170D01*
X38545Y138150D01*
X38495Y138131D01*
X38437Y138112D01*
X38372Y138093D01*
X38364D01*
X38341Y138085D01*
X38307Y138081D01*
X38257Y138074D01*
X38199Y138066D01*
X38130Y138058D01*
X38053Y138054D01*
X37969Y138050D01*
X37062D01*
Y140573D01*
X38030D01*
X38096Y140570D01*
D02*
G37*
G36*
X250806Y259870D02*
X250468D01*
X249140Y261852D01*
Y259870D01*
X248821D01*
Y262393D01*
X249163D01*
X250487Y260412D01*
Y262393D01*
X250806D01*
Y259870D01*
D02*
G37*
G36*
X252327Y262431D02*
X252361D01*
X252400Y262428D01*
X252446Y262420D01*
X252492Y262416D01*
X252600Y262393D01*
X252711Y262366D01*
X252818Y262324D01*
X252872Y262301D01*
X252922Y262270D01*
X252926Y262266D01*
X252934Y262263D01*
X252945Y262251D01*
X252964Y262239D01*
X253010Y262201D01*
X253064Y262147D01*
X253129Y262082D01*
X253191Y261998D01*
X253256Y261901D01*
X253310Y261790D01*
Y261786D01*
X253314Y261775D01*
X253321Y261759D01*
X253329Y261736D01*
X253341Y261706D01*
X253352Y261671D01*
X253364Y261633D01*
X253375Y261587D01*
X253387Y261541D01*
X253398Y261487D01*
X253421Y261372D01*
X253437Y261249D01*
X253440Y261114D01*
Y261110D01*
Y261095D01*
Y261076D01*
X253437Y261049D01*
Y261015D01*
X253433Y260972D01*
X253429Y260930D01*
X253421Y260880D01*
X253402Y260773D01*
X253379Y260657D01*
X253341Y260538D01*
X253291Y260427D01*
Y260423D01*
X253283Y260415D01*
X253275Y260400D01*
X253264Y260377D01*
X253249Y260354D01*
X253229Y260327D01*
X253179Y260262D01*
X253122Y260189D01*
X253049Y260116D01*
X252960Y260043D01*
X252865Y259981D01*
X252861D01*
X252853Y259974D01*
X252838Y259966D01*
X252815Y259959D01*
X252792Y259947D01*
X252761Y259932D01*
X252722Y259920D01*
X252684Y259905D01*
X252642Y259889D01*
X252596Y259878D01*
X252492Y259851D01*
X252377Y259836D01*
X252254Y259828D01*
X252216D01*
X252189Y259832D01*
X252158Y259836D01*
X252119Y259839D01*
X252077Y259843D01*
X252031Y259851D01*
X251931Y259874D01*
X251824Y259909D01*
X251770Y259932D01*
X251716Y259959D01*
X251666Y259989D01*
X251617Y260024D01*
X251613Y260028D01*
X251605Y260031D01*
X251593Y260043D01*
X251574Y260058D01*
X251555Y260078D01*
X251528Y260104D01*
X251501Y260131D01*
X251474Y260162D01*
X251444Y260200D01*
X251417Y260239D01*
X251386Y260285D01*
X251355Y260335D01*
X251328Y260385D01*
X251302Y260442D01*
X251255Y260565D01*
X251586Y260642D01*
Y260638D01*
X251590Y260630D01*
X251593Y260615D01*
X251601Y260596D01*
X251613Y260573D01*
X251624Y260546D01*
X251651Y260488D01*
X251686Y260423D01*
X251732Y260354D01*
X251782Y260293D01*
X251843Y260239D01*
X251851Y260235D01*
X251874Y260220D01*
X251908Y260200D01*
X251958Y260174D01*
X252016Y260151D01*
X252089Y260131D01*
X252169Y260116D01*
X252262Y260112D01*
X252289D01*
X252308Y260116D01*
X252334D01*
X252361Y260120D01*
X252431Y260131D01*
X252507Y260147D01*
X252588Y260174D01*
X252669Y260208D01*
X252745Y260254D01*
X252749D01*
X252753Y260262D01*
X252776Y260281D01*
X252811Y260312D01*
X252853Y260354D01*
X252895Y260408D01*
X252941Y260469D01*
X252983Y260546D01*
X253018Y260630D01*
Y260634D01*
X253022Y260642D01*
X253026Y260653D01*
X253030Y260673D01*
X253037Y260692D01*
X253041Y260719D01*
X253057Y260780D01*
X253072Y260853D01*
X253083Y260934D01*
X253091Y261022D01*
X253095Y261114D01*
Y261118D01*
Y261130D01*
Y261145D01*
Y261168D01*
X253091Y261195D01*
Y261229D01*
X253087Y261264D01*
X253083Y261302D01*
X253072Y261391D01*
X253057Y261487D01*
X253033Y261583D01*
X253003Y261675D01*
Y261679D01*
X252999Y261686D01*
X252991Y261698D01*
X252983Y261713D01*
X252964Y261759D01*
X252934Y261809D01*
X252891Y261871D01*
X252841Y261928D01*
X252784Y261986D01*
X252715Y262036D01*
X252711D01*
X252707Y262040D01*
X252695Y262047D01*
X252680Y262055D01*
X252638Y262070D01*
X252584Y262093D01*
X252523Y262113D01*
X252450Y262132D01*
X252369Y262147D01*
X252285Y262151D01*
X252258D01*
X252238Y262147D01*
X252216D01*
X252185Y262143D01*
X252119Y262132D01*
X252046Y262113D01*
X251966Y262082D01*
X251889Y262044D01*
X251812Y261990D01*
X251809Y261986D01*
X251805Y261982D01*
X251782Y261959D01*
X251747Y261921D01*
X251705Y261871D01*
X251662Y261802D01*
X251617Y261721D01*
X251578Y261621D01*
X251547Y261510D01*
X251213Y261594D01*
Y261598D01*
X251217Y261613D01*
X251225Y261633D01*
X251233Y261663D01*
X251248Y261694D01*
X251263Y261736D01*
X251278Y261779D01*
X251302Y261825D01*
X251351Y261928D01*
X251421Y262032D01*
X251497Y262132D01*
X251543Y262178D01*
X251593Y262220D01*
X251597Y262224D01*
X251605Y262228D01*
X251620Y262239D01*
X251643Y262255D01*
X251670Y262270D01*
X251701Y262289D01*
X251735Y262309D01*
X251778Y262328D01*
X251824Y262347D01*
X251874Y262366D01*
X251931Y262385D01*
X251989Y262401D01*
X252116Y262428D01*
X252185Y262431D01*
X252258Y262435D01*
X252296D01*
X252327Y262431D01*
D02*
G37*
G36*
X247531Y260419D02*
X247534Y260423D01*
X247550Y260438D01*
X247577Y260458D01*
X247611Y260485D01*
X247654Y260519D01*
X247704Y260554D01*
X247761Y260596D01*
X247826Y260634D01*
X247830D01*
X247834Y260638D01*
X247857Y260653D01*
X247892Y260673D01*
X247934Y260696D01*
X247984Y260723D01*
X248038Y260746D01*
X248095Y260773D01*
X248149Y260796D01*
Y260492D01*
X248145D01*
X248137Y260488D01*
X248122Y260481D01*
X248107Y260469D01*
X248084Y260458D01*
X248057Y260446D01*
X247995Y260412D01*
X247926Y260369D01*
X247849Y260319D01*
X247773Y260262D01*
X247700Y260200D01*
X247696Y260197D01*
X247692Y260193D01*
X247669Y260170D01*
X247634Y260135D01*
X247592Y260093D01*
X247546Y260039D01*
X247500Y259981D01*
X247458Y259920D01*
X247423Y259859D01*
X247220D01*
Y262393D01*
X247531D01*
Y260419D01*
D02*
G37*
G36*
X64385Y244746D02*
X64416Y244743D01*
X64446Y244739D01*
X64485Y244735D01*
X64523Y244727D01*
X64611Y244704D01*
X64704Y244666D01*
X64750Y244647D01*
X64792Y244620D01*
X64838Y244589D01*
X64880Y244554D01*
X64884Y244551D01*
X64888Y244547D01*
X64899Y244535D01*
X64915Y244520D01*
X64930Y244497D01*
X64949Y244474D01*
X64972Y244447D01*
X64991Y244416D01*
X65038Y244339D01*
X65076Y244251D01*
X65111Y244151D01*
X65122Y244097D01*
X65130Y244040D01*
X64819Y243998D01*
Y244001D01*
X64815Y244009D01*
Y244024D01*
X64807Y244040D01*
X64796Y244086D01*
X64776Y244144D01*
X64754Y244205D01*
X64723Y244270D01*
X64684Y244328D01*
X64642Y244378D01*
X64634Y244382D01*
X64619Y244397D01*
X64592Y244412D01*
X64554Y244435D01*
X64512Y244455D01*
X64458Y244474D01*
X64396Y244489D01*
X64331Y244493D01*
X64308D01*
X64293Y244489D01*
X64254Y244485D01*
X64204Y244474D01*
X64143Y244455D01*
X64082Y244431D01*
X64020Y244393D01*
X63962Y244343D01*
X63955Y244336D01*
X63939Y244316D01*
X63916Y244286D01*
X63886Y244239D01*
X63859Y244186D01*
X63836Y244121D01*
X63820Y244047D01*
X63813Y243967D01*
Y243963D01*
Y243959D01*
Y243948D01*
X63816Y243932D01*
X63820Y243894D01*
X63832Y243844D01*
X63847Y243790D01*
X63874Y243729D01*
X63909Y243671D01*
X63955Y243617D01*
X63962Y243610D01*
X63978Y243594D01*
X64008Y243575D01*
X64051Y243548D01*
X64101Y243521D01*
X64162Y243502D01*
X64227Y243487D01*
X64304Y243479D01*
X64339D01*
X64366Y243483D01*
X64396Y243487D01*
X64435Y243491D01*
X64477Y243498D01*
X64523Y243510D01*
X64489Y243237D01*
X64469D01*
X64454Y243241D01*
X64404D01*
X64369Y243237D01*
X64319Y243230D01*
X64266Y243218D01*
X64208Y243199D01*
X64147Y243176D01*
X64085Y243141D01*
X64078Y243137D01*
X64058Y243122D01*
X64035Y243095D01*
X64005Y243061D01*
X63974Y243018D01*
X63951Y242965D01*
X63932Y242899D01*
X63924Y242823D01*
Y242819D01*
Y242815D01*
Y242796D01*
X63932Y242765D01*
X63939Y242723D01*
X63951Y242681D01*
X63974Y242634D01*
X64001Y242584D01*
X64039Y242542D01*
X64043Y242538D01*
X64058Y242523D01*
X64085Y242504D01*
X64120Y242485D01*
X64162Y242462D01*
X64212Y242446D01*
X64270Y242431D01*
X64335Y242427D01*
X64366D01*
X64400Y242435D01*
X64439Y242442D01*
X64489Y242454D01*
X64538Y242477D01*
X64588Y242504D01*
X64638Y242542D01*
X64642Y242546D01*
X64657Y242561D01*
X64677Y242588D01*
X64700Y242627D01*
X64727Y242673D01*
X64750Y242730D01*
X64773Y242799D01*
X64788Y242880D01*
X65099Y242826D01*
Y242823D01*
X65095Y242811D01*
X65091Y242796D01*
X65087Y242776D01*
X65080Y242750D01*
X65072Y242719D01*
X65045Y242650D01*
X65015Y242573D01*
X64969Y242492D01*
X64915Y242415D01*
X64846Y242346D01*
X64842Y242343D01*
X64838Y242339D01*
X64826Y242331D01*
X64807Y242319D01*
X64788Y242308D01*
X64765Y242293D01*
X64707Y242258D01*
X64634Y242227D01*
X64546Y242200D01*
X64450Y242181D01*
X64396Y242174D01*
X64308D01*
X64270Y242177D01*
X64220Y242185D01*
X64162Y242197D01*
X64097Y242212D01*
X64031Y242235D01*
X63966Y242266D01*
X63962D01*
X63959Y242270D01*
X63936Y242281D01*
X63905Y242300D01*
X63866Y242327D01*
X63824Y242362D01*
X63778Y242404D01*
X63736Y242454D01*
X63697Y242508D01*
X63694Y242515D01*
X63682Y242535D01*
X63667Y242565D01*
X63651Y242604D01*
X63636Y242654D01*
X63621Y242707D01*
X63609Y242765D01*
X63605Y242830D01*
Y242838D01*
Y242857D01*
X63609Y242888D01*
X63617Y242926D01*
X63628Y242972D01*
X63644Y243022D01*
X63663Y243076D01*
X63694Y243126D01*
X63697Y243134D01*
X63709Y243149D01*
X63732Y243172D01*
X63759Y243203D01*
X63797Y243237D01*
X63840Y243272D01*
X63893Y243310D01*
X63955Y243341D01*
X63951D01*
X63943Y243345D01*
X63932D01*
X63916Y243353D01*
X63878Y243364D01*
X63828Y243387D01*
X63774Y243414D01*
X63717Y243452D01*
X63659Y243498D01*
X63609Y243556D01*
X63605Y243564D01*
X63590Y243587D01*
X63571Y243621D01*
X63544Y243667D01*
X63521Y243725D01*
X63502Y243794D01*
X63486Y243875D01*
X63482Y243963D01*
Y243967D01*
Y243978D01*
Y243994D01*
X63486Y244017D01*
X63490Y244047D01*
X63494Y244078D01*
X63502Y244117D01*
X63513Y244155D01*
X63540Y244243D01*
X63559Y244293D01*
X63586Y244339D01*
X63613Y244385D01*
X63644Y244431D01*
X63682Y244478D01*
X63724Y244524D01*
X63728Y244528D01*
X63736Y244535D01*
X63747Y244543D01*
X63767Y244558D01*
X63790Y244577D01*
X63820Y244597D01*
X63855Y244616D01*
X63889Y244635D01*
X63932Y244658D01*
X63978Y244677D01*
X64028Y244696D01*
X64082Y244716D01*
X64139Y244731D01*
X64201Y244739D01*
X64266Y244746D01*
X64331Y244750D01*
X64362D01*
X64385Y244746D01*
D02*
G37*
G36*
X69507Y242185D02*
X68540D01*
X68474Y242189D01*
X68405Y242193D01*
X68328Y242200D01*
X68256Y242212D01*
X68194Y242224D01*
X68190D01*
X68183Y242227D01*
X68175D01*
X68160Y242235D01*
X68117Y242247D01*
X68067Y242266D01*
X68010Y242289D01*
X67948Y242319D01*
X67887Y242358D01*
X67826Y242404D01*
X67822D01*
X67818Y242412D01*
X67791Y242435D01*
X67756Y242473D01*
X67714Y242523D01*
X67664Y242584D01*
X67614Y242657D01*
X67568Y242742D01*
X67526Y242838D01*
Y242842D01*
X67522Y242849D01*
X67518Y242865D01*
X67511Y242884D01*
X67503Y242907D01*
X67495Y242938D01*
X67484Y242972D01*
X67476Y243011D01*
X67468Y243053D01*
X67457Y243099D01*
X67441Y243199D01*
X67430Y243310D01*
X67426Y243433D01*
Y243437D01*
Y243445D01*
Y243460D01*
Y243483D01*
X67430Y243506D01*
Y243537D01*
X67434Y243606D01*
X67441Y243683D01*
X67457Y243771D01*
X67472Y243859D01*
X67495Y243944D01*
Y243948D01*
X67499Y243955D01*
X67503Y243967D01*
X67507Y243982D01*
X67522Y244021D01*
X67541Y244074D01*
X67564Y244132D01*
X67595Y244193D01*
X67630Y244255D01*
X67668Y244313D01*
X67672Y244320D01*
X67687Y244336D01*
X67706Y244362D01*
X67737Y244397D01*
X67768Y244431D01*
X67810Y244470D01*
X67852Y244508D01*
X67898Y244543D01*
X67902Y244547D01*
X67922Y244554D01*
X67948Y244570D01*
X67983Y244589D01*
X68025Y244608D01*
X68075Y244627D01*
X68133Y244647D01*
X68198Y244666D01*
X68206D01*
X68229Y244673D01*
X68263Y244677D01*
X68313Y244685D01*
X68371Y244693D01*
X68440Y244700D01*
X68517Y244704D01*
X68601Y244708D01*
X69507D01*
Y242185D01*
D02*
G37*
G36*
X66236Y242734D02*
X66240Y242738D01*
X66255Y242753D01*
X66282Y242773D01*
X66316Y242799D01*
X66359Y242834D01*
X66408Y242869D01*
X66466Y242911D01*
X66531Y242949D01*
X66535D01*
X66539Y242953D01*
X66562Y242969D01*
X66597Y242988D01*
X66639Y243011D01*
X66689Y243038D01*
X66743Y243061D01*
X66800Y243088D01*
X66854Y243111D01*
Y242807D01*
X66850D01*
X66842Y242803D01*
X66827Y242796D01*
X66812Y242784D01*
X66789Y242773D01*
X66762Y242761D01*
X66700Y242727D01*
X66631Y242684D01*
X66554Y242634D01*
X66478Y242577D01*
X66405Y242515D01*
X66401Y242512D01*
X66397Y242508D01*
X66374Y242485D01*
X66339Y242450D01*
X66297Y242408D01*
X66251Y242354D01*
X66205Y242297D01*
X66163Y242235D01*
X66128Y242174D01*
X65925D01*
Y244708D01*
X66236D01*
Y242734D01*
D02*
G37*
G36*
X8484Y206706D02*
X7516D01*
X7451Y206710D01*
X7382Y206714D01*
X7305Y206721D01*
X7232Y206733D01*
X7170Y206744D01*
X7167D01*
X7159Y206748D01*
X7151D01*
X7136Y206756D01*
X7094Y206767D01*
X7044Y206786D01*
X6986Y206809D01*
X6925Y206840D01*
X6863Y206879D01*
X6802Y206925D01*
X6798D01*
X6794Y206932D01*
X6767Y206955D01*
X6733Y206994D01*
X6690Y207044D01*
X6640Y207105D01*
X6591Y207178D01*
X6544Y207263D01*
X6502Y207359D01*
Y207362D01*
X6498Y207370D01*
X6495Y207385D01*
X6487Y207405D01*
X6479Y207428D01*
X6472Y207458D01*
X6460Y207493D01*
X6452Y207531D01*
X6445Y207574D01*
X6433Y207620D01*
X6418Y207719D01*
X6406Y207831D01*
X6402Y207954D01*
Y207958D01*
Y207965D01*
Y207981D01*
Y208004D01*
X6406Y208027D01*
Y208057D01*
X6410Y208127D01*
X6418Y208203D01*
X6433Y208292D01*
X6448Y208380D01*
X6472Y208465D01*
Y208468D01*
X6475Y208476D01*
X6479Y208488D01*
X6483Y208503D01*
X6498Y208541D01*
X6518Y208595D01*
X6541Y208653D01*
X6571Y208714D01*
X6606Y208775D01*
X6644Y208833D01*
X6648Y208841D01*
X6664Y208856D01*
X6683Y208883D01*
X6713Y208918D01*
X6744Y208952D01*
X6786Y208991D01*
X6829Y209029D01*
X6875Y209064D01*
X6879Y209067D01*
X6898Y209075D01*
X6925Y209090D01*
X6959Y209110D01*
X7001Y209129D01*
X7051Y209148D01*
X7109Y209167D01*
X7174Y209186D01*
X7182D01*
X7205Y209194D01*
X7240Y209198D01*
X7289Y209206D01*
X7347Y209213D01*
X7416Y209221D01*
X7493Y209225D01*
X7577Y209229D01*
X8484D01*
Y206706D01*
D02*
G37*
G36*
X6111Y209225D02*
Y209209D01*
Y209186D01*
X6107Y209159D01*
X6103Y209129D01*
X6099Y209094D01*
X6088Y209056D01*
X6076Y209017D01*
Y209014D01*
X6072Y209010D01*
X6064Y208987D01*
X6049Y208956D01*
X6026Y208910D01*
X5999Y208860D01*
X5961Y208802D01*
X5923Y208745D01*
X5872Y208683D01*
Y208680D01*
X5865Y208676D01*
X5846Y208653D01*
X5815Y208618D01*
X5769Y208572D01*
X5711Y208518D01*
X5642Y208453D01*
X5558Y208380D01*
X5466Y208299D01*
X5462Y208295D01*
X5446Y208284D01*
X5427Y208269D01*
X5400Y208242D01*
X5366Y208215D01*
X5327Y208180D01*
X5243Y208107D01*
X5151Y208019D01*
X5059Y207931D01*
X5012Y207889D01*
X4974Y207846D01*
X4939Y207804D01*
X4909Y207766D01*
Y207762D01*
X4901Y207758D01*
X4893Y207746D01*
X4886Y207731D01*
X4863Y207693D01*
X4836Y207643D01*
X4809Y207585D01*
X4786Y207524D01*
X4770Y207455D01*
X4763Y207389D01*
Y207385D01*
Y207382D01*
X4767Y207359D01*
X4770Y207324D01*
X4778Y207282D01*
X4797Y207232D01*
X4820Y207182D01*
X4851Y207128D01*
X4897Y207078D01*
X4905Y207074D01*
X4920Y207059D01*
X4951Y207040D01*
X4989Y207013D01*
X5039Y206990D01*
X5097Y206971D01*
X5166Y206955D01*
X5243Y206951D01*
X5266D01*
X5281Y206955D01*
X5320Y206959D01*
X5370Y206967D01*
X5427Y206986D01*
X5488Y207009D01*
X5546Y207044D01*
X5600Y207090D01*
X5604Y207098D01*
X5619Y207113D01*
X5642Y207143D01*
X5665Y207186D01*
X5692Y207240D01*
X5711Y207301D01*
X5727Y207374D01*
X5734Y207458D01*
X6053Y207424D01*
Y207420D01*
Y207408D01*
X6049Y207389D01*
X6045Y207366D01*
X6038Y207335D01*
X6034Y207301D01*
X6011Y207224D01*
X5980Y207136D01*
X5938Y207048D01*
X5880Y206959D01*
X5850Y206921D01*
X5811Y206882D01*
X5807Y206879D01*
X5800Y206875D01*
X5788Y206863D01*
X5773Y206852D01*
X5750Y206840D01*
X5723Y206821D01*
X5692Y206806D01*
X5658Y206786D01*
X5619Y206771D01*
X5577Y206752D01*
X5527Y206736D01*
X5477Y206725D01*
X5362Y206702D01*
X5300Y206698D01*
X5235Y206694D01*
X5201D01*
X5174Y206698D01*
X5143Y206702D01*
X5108Y206706D01*
X5070Y206710D01*
X5028Y206721D01*
X4936Y206744D01*
X4840Y206779D01*
X4790Y206802D01*
X4744Y206829D01*
X4701Y206863D01*
X4659Y206898D01*
X4655Y206902D01*
X4651Y206906D01*
X4640Y206917D01*
X4625Y206932D01*
X4609Y206955D01*
X4590Y206978D01*
X4552Y207036D01*
X4513Y207109D01*
X4479Y207193D01*
X4452Y207290D01*
X4448Y207343D01*
X4444Y207397D01*
Y207405D01*
Y207424D01*
X4448Y207455D01*
X4452Y207493D01*
X4459Y207539D01*
X4471Y207589D01*
X4486Y207643D01*
X4509Y207697D01*
X4513Y207704D01*
X4521Y207723D01*
X4536Y207750D01*
X4559Y207789D01*
X4586Y207835D01*
X4621Y207889D01*
X4667Y207942D01*
X4717Y208004D01*
X4724Y208011D01*
X4744Y208034D01*
X4778Y208069D01*
X4801Y208092D01*
X4828Y208119D01*
X4859Y208150D01*
X4897Y208184D01*
X4936Y208219D01*
X4978Y208261D01*
X5024Y208303D01*
X5078Y208349D01*
X5131Y208395D01*
X5193Y208449D01*
X5197Y208453D01*
X5204Y208461D01*
X5220Y208472D01*
X5239Y208488D01*
X5285Y208526D01*
X5343Y208576D01*
X5400Y208630D01*
X5462Y208683D01*
X5512Y208730D01*
X5531Y208749D01*
X5550Y208768D01*
X5554Y208772D01*
X5562Y208783D01*
X5577Y208799D01*
X5596Y208822D01*
X5638Y208872D01*
X5680Y208933D01*
X4440D01*
Y209229D01*
X6111D01*
Y209225D01*
D02*
G37*
%LPC*%
G36*
X15820Y140932D02*
X15816D01*
X15801D01*
X15782D01*
X15755D01*
X15720Y140928D01*
X15682Y140924D01*
X15640Y140920D01*
X15597Y140917D01*
X15498Y140901D01*
X15398Y140878D01*
X15302Y140844D01*
X15256Y140824D01*
X15213Y140801D01*
X15210D01*
X15206Y140794D01*
X15194Y140790D01*
X15179Y140778D01*
X15141Y140751D01*
X15098Y140713D01*
X15048Y140667D01*
X15002Y140613D01*
X14960Y140552D01*
X14925Y140486D01*
X14922Y140479D01*
X14918Y140460D01*
X14910Y140429D01*
X14899Y140383D01*
X14887Y140321D01*
X14879Y140248D01*
X14875Y140160D01*
X14872Y140056D01*
Y139530D01*
X16803D01*
Y140106D01*
X16799Y140148D01*
X16795Y140206D01*
X16792Y140268D01*
X16784Y140333D01*
X16772Y140394D01*
X16757Y140452D01*
X16753Y140460D01*
X16749Y140475D01*
X16738Y140502D01*
X16723Y140533D01*
X16703Y140571D01*
X16684Y140609D01*
X16657Y140644D01*
X16627Y140678D01*
X16623Y140682D01*
X16603Y140698D01*
X16577Y140721D01*
X16542Y140748D01*
X16496Y140774D01*
X16442Y140805D01*
X16377Y140836D01*
X16308Y140863D01*
X16304D01*
X16300Y140867D01*
X16289Y140870D01*
X16273Y140874D01*
X16254Y140878D01*
X16231Y140886D01*
X16173Y140897D01*
X16101Y140909D01*
X16016Y140920D01*
X15924Y140928D01*
X15820Y140932D01*
D02*
G37*
G36*
X74863D02*
X74860D01*
X74844D01*
X74825D01*
X74798D01*
X74764Y140928D01*
X74725Y140924D01*
X74683Y140920D01*
X74641Y140917D01*
X74541Y140901D01*
X74441Y140878D01*
X74345Y140844D01*
X74299Y140824D01*
X74257Y140801D01*
X74253D01*
X74249Y140794D01*
X74238Y140790D01*
X74222Y140778D01*
X74184Y140751D01*
X74142Y140713D01*
X74092Y140667D01*
X74046Y140613D01*
X74003Y140552D01*
X73969Y140486D01*
X73965Y140479D01*
X73961Y140460D01*
X73953Y140429D01*
X73942Y140383D01*
X73930Y140321D01*
X73923Y140248D01*
X73919Y140160D01*
X73915Y140056D01*
Y139530D01*
X75846D01*
Y140106D01*
X75843Y140148D01*
X75839Y140206D01*
X75835Y140268D01*
X75827Y140333D01*
X75816Y140394D01*
X75800Y140452D01*
X75797Y140460D01*
X75793Y140475D01*
X75781Y140502D01*
X75766Y140533D01*
X75747Y140571D01*
X75727Y140609D01*
X75701Y140644D01*
X75670Y140678D01*
X75666Y140682D01*
X75647Y140698D01*
X75620Y140721D01*
X75585Y140748D01*
X75539Y140774D01*
X75486Y140805D01*
X75420Y140836D01*
X75351Y140863D01*
X75347D01*
X75344Y140867D01*
X75332Y140870D01*
X75317Y140874D01*
X75297Y140878D01*
X75274Y140886D01*
X75217Y140897D01*
X75144Y140909D01*
X75059Y140920D01*
X74967Y140928D01*
X74863Y140932D01*
D02*
G37*
G36*
X99307Y139414D02*
X99288D01*
X99272Y139410D01*
X99234Y139406D01*
X99184Y139394D01*
X99130Y139375D01*
X99069Y139348D01*
X99011Y139310D01*
X98954Y139260D01*
X98946Y139252D01*
X98931Y139233D01*
X98908Y139199D01*
X98881Y139156D01*
X98854Y139099D01*
X98831Y139030D01*
X98816Y138953D01*
X98808Y138865D01*
Y138857D01*
Y138838D01*
X98812Y138807D01*
X98816Y138769D01*
X98823Y138719D01*
X98835Y138669D01*
X98850Y138615D01*
X98873Y138557D01*
X98877Y138550D01*
X98885Y138534D01*
X98900Y138507D01*
X98923Y138477D01*
X98950Y138438D01*
X98981Y138404D01*
X99019Y138365D01*
X99061Y138335D01*
X99065Y138331D01*
X99084Y138323D01*
X99107Y138312D01*
X99138Y138300D01*
X99176Y138285D01*
X99222Y138273D01*
X99269Y138266D01*
X99318Y138262D01*
X99338D01*
X99353Y138266D01*
X99388Y138269D01*
X99437Y138281D01*
X99488Y138300D01*
X99545Y138327D01*
X99603Y138365D01*
X99656Y138419D01*
X99664Y138427D01*
X99679Y138450D01*
X99703Y138484D01*
X99729Y138531D01*
X99752Y138592D01*
X99775Y138669D01*
X99791Y138753D01*
X99799Y138849D01*
Y138853D01*
Y138861D01*
Y138876D01*
X99795Y138891D01*
Y138915D01*
X99791Y138941D01*
X99783Y138999D01*
X99764Y139064D01*
X99741Y139133D01*
X99706Y139199D01*
X99660Y139260D01*
X99653Y139268D01*
X99637Y139283D01*
X99607Y139310D01*
X99564Y139337D01*
X99514Y139364D01*
X99453Y139391D01*
X99384Y139406D01*
X99307Y139414D01*
D02*
G37*
G36*
X96911Y140278D02*
X96385D01*
Y138346D01*
X96961D01*
X97003Y138350D01*
X97061Y138354D01*
X97122Y138358D01*
X97187Y138365D01*
X97249Y138377D01*
X97306Y138392D01*
X97314Y138396D01*
X97329Y138400D01*
X97356Y138411D01*
X97387Y138427D01*
X97425Y138446D01*
X97464Y138465D01*
X97498Y138492D01*
X97533Y138523D01*
X97537Y138527D01*
X97552Y138546D01*
X97575Y138573D01*
X97602Y138607D01*
X97629Y138653D01*
X97660Y138707D01*
X97690Y138772D01*
X97717Y138842D01*
Y138845D01*
X97721Y138849D01*
X97725Y138861D01*
X97729Y138876D01*
X97733Y138895D01*
X97740Y138918D01*
X97752Y138976D01*
X97763Y139049D01*
X97775Y139133D01*
X97782Y139226D01*
X97786Y139329D01*
Y139333D01*
Y139348D01*
Y139368D01*
Y139394D01*
X97782Y139429D01*
X97779Y139468D01*
X97775Y139510D01*
X97771Y139552D01*
X97756Y139652D01*
X97733Y139752D01*
X97698Y139848D01*
X97679Y139894D01*
X97656Y139936D01*
Y139940D01*
X97648Y139944D01*
X97644Y139955D01*
X97633Y139971D01*
X97606Y140009D01*
X97567Y140051D01*
X97521Y140101D01*
X97468Y140147D01*
X97406Y140189D01*
X97341Y140224D01*
X97333Y140228D01*
X97314Y140232D01*
X97283Y140239D01*
X97237Y140251D01*
X97176Y140262D01*
X97103Y140270D01*
X97014Y140274D01*
X96911Y140278D01*
D02*
G37*
G36*
X216055Y140067D02*
X215264Y138938D01*
X216055D01*
Y140067D01*
D02*
G37*
G36*
X213509Y140278D02*
X212983D01*
Y138346D01*
X213559D01*
X213601Y138350D01*
X213659Y138354D01*
X213720Y138358D01*
X213786Y138365D01*
X213847Y138377D01*
X213905Y138392D01*
X213913Y138396D01*
X213928Y138400D01*
X213955Y138411D01*
X213985Y138427D01*
X214024Y138446D01*
X214062Y138465D01*
X214097Y138492D01*
X214131Y138523D01*
X214135Y138527D01*
X214151Y138546D01*
X214174Y138573D01*
X214200Y138607D01*
X214227Y138653D01*
X214258Y138707D01*
X214289Y138772D01*
X214316Y138842D01*
Y138845D01*
X214319Y138849D01*
X214323Y138861D01*
X214327Y138876D01*
X214331Y138895D01*
X214339Y138918D01*
X214350Y138976D01*
X214362Y139049D01*
X214373Y139133D01*
X214381Y139226D01*
X214385Y139329D01*
Y139333D01*
Y139348D01*
Y139368D01*
Y139394D01*
X214381Y139429D01*
X214377Y139468D01*
X214373Y139510D01*
X214369Y139552D01*
X214354Y139652D01*
X214331Y139752D01*
X214297Y139848D01*
X214277Y139894D01*
X214254Y139936D01*
Y139940D01*
X214247Y139944D01*
X214243Y139955D01*
X214231Y139971D01*
X214204Y140009D01*
X214166Y140051D01*
X214120Y140101D01*
X214066Y140147D01*
X214005Y140189D01*
X213939Y140224D01*
X213932Y140228D01*
X213913Y140232D01*
X213882Y140239D01*
X213836Y140251D01*
X213774Y140262D01*
X213701Y140270D01*
X213613Y140274D01*
X213509Y140278D01*
D02*
G37*
G36*
X155604Y139884D02*
X155078D01*
Y137952D01*
X155654D01*
X155696Y137956D01*
X155754Y137960D01*
X155815Y137964D01*
X155880Y137972D01*
X155942Y137983D01*
X155999Y137999D01*
X156007Y138002D01*
X156022Y138006D01*
X156049Y138018D01*
X156080Y138033D01*
X156118Y138052D01*
X156157Y138072D01*
X156191Y138098D01*
X156226Y138129D01*
X156230Y138133D01*
X156245Y138152D01*
X156268Y138179D01*
X156295Y138214D01*
X156322Y138260D01*
X156352Y138313D01*
X156383Y138379D01*
X156410Y138448D01*
Y138452D01*
X156414Y138455D01*
X156418Y138467D01*
X156422Y138482D01*
X156425Y138502D01*
X156433Y138525D01*
X156445Y138582D01*
X156456Y138655D01*
X156468Y138740D01*
X156475Y138832D01*
X156479Y138935D01*
Y138939D01*
Y138955D01*
Y138974D01*
Y139001D01*
X156475Y139035D01*
X156472Y139074D01*
X156468Y139116D01*
X156464Y139158D01*
X156449Y139258D01*
X156425Y139358D01*
X156391Y139454D01*
X156372Y139500D01*
X156349Y139542D01*
Y139546D01*
X156341Y139550D01*
X156337Y139561D01*
X156326Y139577D01*
X156299Y139615D01*
X156260Y139657D01*
X156214Y139707D01*
X156160Y139753D01*
X156099Y139796D01*
X156034Y139830D01*
X156026Y139834D01*
X156007Y139838D01*
X155976Y139846D01*
X155930Y139857D01*
X155869Y139869D01*
X155796Y139876D01*
X155707Y139880D01*
X155604Y139884D01*
D02*
G37*
G36*
X133948Y144895D02*
X133836D01*
X133828D01*
X133809D01*
X133779D01*
X133736Y144891D01*
X133686D01*
X133629Y144887D01*
X133567Y144883D01*
X133498Y144876D01*
X133360Y144860D01*
X133226Y144833D01*
X133160Y144818D01*
X133103Y144799D01*
X133053Y144776D01*
X133010Y144749D01*
X133007D01*
X133003Y144741D01*
X132980Y144722D01*
X132945Y144691D01*
X132907Y144649D01*
X132868Y144595D01*
X132834Y144534D01*
X132811Y144465D01*
X132807Y144426D01*
X132803Y144388D01*
Y144369D01*
X132807Y144353D01*
X132811Y144315D01*
X132826Y144265D01*
X132849Y144211D01*
X132880Y144154D01*
X132926Y144096D01*
X132957Y144069D01*
X132987Y144046D01*
X132991D01*
X132999Y144038D01*
X133014Y144031D01*
X133034Y144023D01*
X133060Y144012D01*
X133091Y143996D01*
X133133Y143981D01*
X133179Y143969D01*
X133233Y143954D01*
X133295Y143939D01*
X133364Y143927D01*
X133444Y143912D01*
X133529Y143904D01*
X133621Y143896D01*
X133725Y143889D01*
X133836D01*
X133844D01*
X133863D01*
X133894D01*
X133936Y143893D01*
X133986D01*
X134044Y143896D01*
X134109Y143900D01*
X134174Y143908D01*
X134312Y143923D01*
X134450Y143950D01*
X134512Y143965D01*
X134570Y143985D01*
X134623Y144008D01*
X134666Y144031D01*
X134669D01*
X134673Y144038D01*
X134696Y144058D01*
X134731Y144088D01*
X134765Y144131D01*
X134804Y144184D01*
X134838Y144246D01*
X134861Y144315D01*
X134865Y144353D01*
X134869Y144392D01*
Y144411D01*
X134865Y144426D01*
X134857Y144465D01*
X134842Y144515D01*
X134819Y144572D01*
X134785Y144630D01*
X134762Y144660D01*
X134731Y144691D01*
X134700Y144722D01*
X134666Y144749D01*
X134662D01*
X134654Y144756D01*
X134643Y144764D01*
X134623Y144772D01*
X134600Y144783D01*
X134566Y144795D01*
X134527Y144806D01*
X134485Y144822D01*
X134431Y144837D01*
X134374Y144849D01*
X134305Y144860D01*
X134228Y144872D01*
X134143Y144883D01*
X134051Y144887D01*
X133948Y144895D01*
D02*
G37*
G36*
X133801Y140932D02*
X133798D01*
X133782D01*
X133763D01*
X133736D01*
X133702Y140928D01*
X133663Y140924D01*
X133621Y140920D01*
X133579Y140917D01*
X133479Y140901D01*
X133379Y140878D01*
X133283Y140844D01*
X133237Y140824D01*
X133195Y140801D01*
X133191D01*
X133187Y140794D01*
X133176Y140790D01*
X133160Y140778D01*
X133122Y140751D01*
X133080Y140713D01*
X133030Y140667D01*
X132984Y140613D01*
X132941Y140552D01*
X132907Y140486D01*
X132903Y140479D01*
X132899Y140460D01*
X132891Y140429D01*
X132880Y140383D01*
X132868Y140321D01*
X132861Y140248D01*
X132857Y140160D01*
X132853Y140056D01*
Y139530D01*
X134785D01*
Y140106D01*
X134781Y140148D01*
X134777Y140206D01*
X134773Y140268D01*
X134765Y140333D01*
X134754Y140394D01*
X134739Y140452D01*
X134735Y140460D01*
X134731Y140475D01*
X134719Y140502D01*
X134704Y140533D01*
X134685Y140571D01*
X134666Y140609D01*
X134639Y140644D01*
X134608Y140678D01*
X134604Y140682D01*
X134585Y140698D01*
X134558Y140721D01*
X134523Y140748D01*
X134477Y140774D01*
X134424Y140805D01*
X134358Y140836D01*
X134289Y140863D01*
X134285D01*
X134282Y140867D01*
X134270Y140870D01*
X134255Y140874D01*
X134236Y140878D01*
X134212Y140886D01*
X134155Y140897D01*
X134082Y140909D01*
X133997Y140920D01*
X133905Y140928D01*
X133801Y140932D01*
D02*
G37*
G36*
X272785Y140278D02*
X272259D01*
Y138346D01*
X272835D01*
X272877Y138350D01*
X272935Y138354D01*
X272996Y138358D01*
X273061Y138365D01*
X273123Y138377D01*
X273180Y138392D01*
X273188Y138396D01*
X273203Y138400D01*
X273230Y138411D01*
X273261Y138427D01*
X273299Y138446D01*
X273338Y138465D01*
X273372Y138492D01*
X273407Y138523D01*
X273411Y138527D01*
X273426Y138546D01*
X273449Y138573D01*
X273476Y138607D01*
X273503Y138653D01*
X273534Y138707D01*
X273564Y138772D01*
X273591Y138842D01*
Y138845D01*
X273595Y138849D01*
X273599Y138861D01*
X273603Y138876D01*
X273607Y138895D01*
X273614Y138918D01*
X273626Y138976D01*
X273637Y139049D01*
X273649Y139133D01*
X273657Y139226D01*
X273660Y139329D01*
Y139333D01*
Y139348D01*
Y139368D01*
Y139394D01*
X273657Y139429D01*
X273653Y139468D01*
X273649Y139510D01*
X273645Y139552D01*
X273630Y139652D01*
X273607Y139752D01*
X273572Y139848D01*
X273553Y139894D01*
X273530Y139936D01*
Y139940D01*
X273522Y139944D01*
X273518Y139955D01*
X273507Y139971D01*
X273480Y140009D01*
X273442Y140051D01*
X273395Y140101D01*
X273342Y140147D01*
X273280Y140189D01*
X273215Y140224D01*
X273207Y140228D01*
X273188Y140232D01*
X273157Y140239D01*
X273111Y140251D01*
X273050Y140262D01*
X272977Y140270D01*
X272888Y140274D01*
X272785Y140278D01*
D02*
G37*
G36*
X249990Y142848D02*
X249986D01*
X249982D01*
X249963D01*
X249928Y142840D01*
X249890Y142833D01*
X249848Y142817D01*
X249798Y142798D01*
X249752Y142767D01*
X249706Y142729D01*
X249702Y142725D01*
X249687Y142710D01*
X249667Y142683D01*
X249644Y142648D01*
X249625Y142606D01*
X249606Y142556D01*
X249590Y142502D01*
X249587Y142437D01*
Y142406D01*
X249594Y142376D01*
X249602Y142333D01*
X249614Y142287D01*
X249637Y142237D01*
X249663Y142188D01*
X249702Y142141D01*
X249706Y142138D01*
X249721Y142122D01*
X249748Y142107D01*
X249779Y142084D01*
X249817Y142065D01*
X249867Y142045D01*
X249917Y142030D01*
X249974Y142026D01*
X249982D01*
X250005D01*
X250036Y142034D01*
X250078Y142042D01*
X250124Y142053D01*
X250170Y142072D01*
X250220Y142099D01*
X250266Y142138D01*
X250270Y142141D01*
X250282Y142157D01*
X250301Y142184D01*
X250320Y142218D01*
X250343Y142261D01*
X250359Y142314D01*
X250374Y142372D01*
X250378Y142437D01*
Y142468D01*
X250370Y142499D01*
X250362Y142541D01*
X250351Y142587D01*
X250332Y142637D01*
X250305Y142687D01*
X250266Y142733D01*
X250262Y142737D01*
X250247Y142752D01*
X250224Y142771D01*
X250190Y142790D01*
X250151Y142814D01*
X250101Y142829D01*
X250047Y142844D01*
X249990Y142848D01*
D02*
G37*
G36*
X251150Y142952D02*
X251146D01*
X251138D01*
X251127D01*
X251111Y142948D01*
X251073Y142944D01*
X251019Y142932D01*
X250961Y142917D01*
X250900Y142890D01*
X250838Y142852D01*
X250781Y142802D01*
X250773Y142794D01*
X250758Y142775D01*
X250735Y142744D01*
X250704Y142702D01*
X250677Y142648D01*
X250654Y142583D01*
X250639Y142510D01*
X250631Y142429D01*
Y142410D01*
X250635Y142395D01*
X250639Y142353D01*
X250650Y142303D01*
X250666Y142245D01*
X250693Y142184D01*
X250727Y142126D01*
X250777Y142069D01*
X250785Y142061D01*
X250804Y142045D01*
X250835Y142023D01*
X250877Y141999D01*
X250931Y141972D01*
X250992Y141949D01*
X251065Y141934D01*
X251142Y141926D01*
X251146D01*
X251165D01*
X251188Y141930D01*
X251222Y141934D01*
X251261Y141942D01*
X251307Y141953D01*
X251353Y141969D01*
X251399Y141988D01*
X251403Y141992D01*
X251418Y141999D01*
X251441Y142015D01*
X251468Y142034D01*
X251499Y142061D01*
X251534Y142092D01*
X251564Y142130D01*
X251591Y142172D01*
X251595Y142180D01*
X251603Y142195D01*
X251610Y142218D01*
X251622Y142253D01*
X251637Y142295D01*
X251645Y142337D01*
X251653Y142387D01*
X251657Y142441D01*
Y142464D01*
X251653Y142479D01*
X251649Y142518D01*
X251637Y142572D01*
X251622Y142629D01*
X251595Y142691D01*
X251560Y142748D01*
X251514Y142806D01*
X251507Y142814D01*
X251487Y142829D01*
X251457Y142852D01*
X251414Y142879D01*
X251365Y142906D01*
X251299Y142929D01*
X251230Y142944D01*
X251150Y142952D01*
D02*
G37*
G36*
X250589Y140932D02*
X250585D01*
X250570D01*
X250551D01*
X250524D01*
X250489Y140928D01*
X250451Y140924D01*
X250409Y140920D01*
X250366Y140917D01*
X250266Y140901D01*
X250167Y140878D01*
X250071Y140844D01*
X250025Y140824D01*
X249982Y140801D01*
X249978D01*
X249974Y140794D01*
X249963Y140790D01*
X249948Y140778D01*
X249909Y140751D01*
X249867Y140713D01*
X249817Y140667D01*
X249771Y140613D01*
X249729Y140552D01*
X249694Y140486D01*
X249690Y140479D01*
X249687Y140460D01*
X249679Y140429D01*
X249667Y140383D01*
X249656Y140321D01*
X249648Y140248D01*
X249644Y140160D01*
X249640Y140056D01*
Y139530D01*
X251572D01*
Y140106D01*
X251568Y140148D01*
X251564Y140206D01*
X251560Y140268D01*
X251553Y140333D01*
X251541Y140394D01*
X251526Y140452D01*
X251522Y140460D01*
X251518Y140475D01*
X251507Y140502D01*
X251491Y140533D01*
X251472Y140571D01*
X251453Y140609D01*
X251426Y140644D01*
X251395Y140678D01*
X251392Y140682D01*
X251372Y140698D01*
X251345Y140721D01*
X251311Y140748D01*
X251265Y140775D01*
X251211Y140805D01*
X251146Y140836D01*
X251077Y140863D01*
X251073D01*
X251069Y140867D01*
X251057Y140870D01*
X251042Y140874D01*
X251023Y140878D01*
X251000Y140886D01*
X250942Y140897D01*
X250869Y140909D01*
X250785Y140920D01*
X250693Y140928D01*
X250589Y140932D01*
D02*
G37*
G36*
X191048Y142925D02*
X191044D01*
X191037D01*
X191021D01*
X191002Y142921D01*
X190979D01*
X190956Y142917D01*
X190895Y142906D01*
X190825Y142890D01*
X190756Y142863D01*
X190687Y142829D01*
X190622Y142783D01*
X190614Y142775D01*
X190599Y142756D01*
X190572Y142729D01*
X190541Y142687D01*
X190515Y142637D01*
X190488Y142579D01*
X190472Y142514D01*
X190465Y142441D01*
Y142422D01*
X190468Y142406D01*
X190472Y142368D01*
X190484Y142318D01*
X190507Y142261D01*
X190538Y142203D01*
X190576Y142141D01*
X190603Y142111D01*
X190633Y142080D01*
X190641Y142072D01*
X190664Y142057D01*
X190703Y142034D01*
X190753Y142007D01*
X190814Y141976D01*
X190891Y141953D01*
X190975Y141938D01*
X191071Y141930D01*
X191075D01*
X191083D01*
X191094D01*
X191110Y141934D01*
X191156Y141938D01*
X191209Y141949D01*
X191275Y141965D01*
X191340Y141992D01*
X191402Y142026D01*
X191463Y142072D01*
X191471Y142080D01*
X191486Y142099D01*
X191509Y142130D01*
X191536Y142172D01*
X191567Y142226D01*
X191590Y142287D01*
X191605Y142357D01*
X191613Y142433D01*
Y142453D01*
X191609Y142468D01*
X191605Y142506D01*
X191594Y142556D01*
X191574Y142610D01*
X191551Y142671D01*
X191513Y142729D01*
X191463Y142783D01*
X191455Y142790D01*
X191436Y142806D01*
X191402Y142829D01*
X191355Y142856D01*
X191294Y142879D01*
X191225Y142902D01*
X191140Y142917D01*
X191048Y142925D01*
D02*
G37*
G36*
X191463Y140932D02*
X191459D01*
X191444D01*
X191425D01*
X191398D01*
X191363Y140928D01*
X191325Y140924D01*
X191282Y140920D01*
X191240Y140917D01*
X191140Y140901D01*
X191041Y140878D01*
X190945Y140844D01*
X190899Y140824D01*
X190856Y140801D01*
X190852D01*
X190849Y140794D01*
X190837Y140790D01*
X190822Y140778D01*
X190783Y140751D01*
X190741Y140713D01*
X190691Y140667D01*
X190645Y140613D01*
X190603Y140552D01*
X190568Y140487D01*
X190564Y140479D01*
X190561Y140460D01*
X190553Y140429D01*
X190541Y140383D01*
X190530Y140321D01*
X190522Y140248D01*
X190518Y140160D01*
X190515Y140056D01*
Y139530D01*
X192446D01*
Y140106D01*
X192442Y140148D01*
X192438Y140206D01*
X192435Y140268D01*
X192427Y140333D01*
X192415Y140394D01*
X192400Y140452D01*
X192396Y140460D01*
X192392Y140475D01*
X192381Y140502D01*
X192365Y140533D01*
X192346Y140571D01*
X192327Y140609D01*
X192300Y140644D01*
X192269Y140679D01*
X192265Y140682D01*
X192246Y140698D01*
X192219Y140721D01*
X192185Y140748D01*
X192139Y140775D01*
X192085Y140805D01*
X192020Y140836D01*
X191951Y140863D01*
X191947D01*
X191943Y140867D01*
X191931Y140870D01*
X191916Y140874D01*
X191897Y140878D01*
X191874Y140886D01*
X191816Y140897D01*
X191743Y140909D01*
X191659Y140920D01*
X191567Y140928D01*
X191463Y140932D01*
D02*
G37*
G36*
X37923Y140278D02*
X37397D01*
Y138346D01*
X37973D01*
X38015Y138350D01*
X38072Y138354D01*
X38134Y138358D01*
X38199Y138365D01*
X38261Y138377D01*
X38318Y138392D01*
X38326Y138396D01*
X38341Y138400D01*
X38368Y138411D01*
X38399Y138427D01*
X38437Y138446D01*
X38476Y138465D01*
X38510Y138492D01*
X38545Y138523D01*
X38549Y138527D01*
X38564Y138546D01*
X38587Y138573D01*
X38614Y138607D01*
X38641Y138653D01*
X38671Y138707D01*
X38702Y138772D01*
X38729Y138842D01*
Y138845D01*
X38733Y138849D01*
X38737Y138861D01*
X38741Y138876D01*
X38744Y138895D01*
X38752Y138918D01*
X38764Y138976D01*
X38775Y139049D01*
X38787Y139133D01*
X38794Y139226D01*
X38798Y139329D01*
Y139333D01*
Y139348D01*
Y139368D01*
Y139394D01*
X38794Y139429D01*
X38791Y139468D01*
X38787Y139510D01*
X38783Y139552D01*
X38767Y139652D01*
X38744Y139752D01*
X38710Y139848D01*
X38691Y139894D01*
X38668Y139936D01*
Y139940D01*
X38660Y139944D01*
X38656Y139955D01*
X38645Y139971D01*
X38618Y140009D01*
X38579Y140051D01*
X38533Y140101D01*
X38480Y140147D01*
X38418Y140189D01*
X38353Y140224D01*
X38345Y140228D01*
X38326Y140232D01*
X38295Y140239D01*
X38249Y140251D01*
X38188Y140262D01*
X38115Y140270D01*
X38026Y140274D01*
X37923Y140278D01*
D02*
G37*
G36*
X69173Y244412D02*
X68597D01*
X68555Y244408D01*
X68498Y244405D01*
X68436Y244401D01*
X68371Y244393D01*
X68309Y244382D01*
X68252Y244366D01*
X68244Y244362D01*
X68229Y244359D01*
X68202Y244347D01*
X68171Y244332D01*
X68133Y244313D01*
X68094Y244293D01*
X68060Y244266D01*
X68025Y244236D01*
X68021Y244232D01*
X68006Y244213D01*
X67983Y244186D01*
X67956Y244151D01*
X67929Y244105D01*
X67898Y244051D01*
X67868Y243986D01*
X67841Y243917D01*
Y243913D01*
X67837Y243909D01*
X67833Y243898D01*
X67829Y243882D01*
X67826Y243863D01*
X67818Y243840D01*
X67806Y243783D01*
X67795Y243710D01*
X67783Y243625D01*
X67775Y243533D01*
X67772Y243429D01*
Y243425D01*
Y243410D01*
Y243391D01*
Y243364D01*
X67775Y243329D01*
X67779Y243291D01*
X67783Y243249D01*
X67787Y243207D01*
X67802Y243107D01*
X67826Y243007D01*
X67860Y242911D01*
X67879Y242865D01*
X67902Y242823D01*
Y242819D01*
X67910Y242815D01*
X67914Y242803D01*
X67925Y242788D01*
X67952Y242750D01*
X67991Y242707D01*
X68037Y242657D01*
X68090Y242611D01*
X68152Y242569D01*
X68217Y242535D01*
X68225Y242531D01*
X68244Y242527D01*
X68275Y242519D01*
X68321Y242508D01*
X68382Y242496D01*
X68455Y242489D01*
X68543Y242485D01*
X68647Y242481D01*
X69173D01*
Y244412D01*
D02*
G37*
G36*
X8150Y208933D02*
X7574D01*
X7531Y208929D01*
X7474Y208925D01*
X7412Y208922D01*
X7347Y208914D01*
X7286Y208902D01*
X7228Y208887D01*
X7220Y208883D01*
X7205Y208879D01*
X7178Y208868D01*
X7147Y208852D01*
X7109Y208833D01*
X7071Y208814D01*
X7036Y208787D01*
X7001Y208756D01*
X6998Y208752D01*
X6982Y208733D01*
X6959Y208706D01*
X6932Y208672D01*
X6905Y208626D01*
X6875Y208572D01*
X6844Y208507D01*
X6817Y208438D01*
Y208434D01*
X6813Y208430D01*
X6809Y208418D01*
X6806Y208403D01*
X6802Y208384D01*
X6794Y208361D01*
X6783Y208303D01*
X6771Y208230D01*
X6760Y208146D01*
X6752Y208054D01*
X6748Y207950D01*
Y207946D01*
Y207931D01*
Y207911D01*
Y207885D01*
X6752Y207850D01*
X6756Y207812D01*
X6760Y207769D01*
X6763Y207727D01*
X6779Y207627D01*
X6802Y207527D01*
X6836Y207432D01*
X6856Y207385D01*
X6879Y207343D01*
Y207339D01*
X6886Y207335D01*
X6890Y207324D01*
X6902Y207309D01*
X6928Y207270D01*
X6967Y207228D01*
X7013Y207178D01*
X7067Y207132D01*
X7128Y207090D01*
X7193Y207055D01*
X7201Y207051D01*
X7220Y207048D01*
X7251Y207040D01*
X7297Y207028D01*
X7359Y207017D01*
X7432Y207009D01*
X7520Y207005D01*
X7624Y207001D01*
X8150D01*
Y208933D01*
D02*
G37*
%LPD*%
M02*
