G04*
G04 #@! TF.GenerationSoftware,Altium Limited,Altium Designer,20.0.10 (225)*
G04*
G04 Layer_Color=32768*
%FSLAX25Y25*%
%MOIN*%
G70*
G01*
G75*
%ADD12C,0.00787*%
%ADD14C,0.00394*%
%ADD67C,0.00197*%
D12*
X227063Y242747D02*
X279818D01*
D14*
X110551Y138409D02*
X111929D01*
X111240Y137720D02*
Y139098D01*
X112224Y135653D02*
Y141165D01*
X110255Y135653D02*
Y141165D01*
X112224D01*
X110255Y135653D02*
X112224D01*
X169606Y138015D02*
X170984D01*
X170295Y137326D02*
Y138704D01*
X171279Y135259D02*
Y140771D01*
X169310Y135259D02*
Y140771D01*
X171279D01*
X169310Y135259D02*
X171279D01*
X227480Y138409D02*
X228858D01*
X228169Y137720D02*
Y139098D01*
X229153Y135653D02*
Y141165D01*
X227185Y135653D02*
Y141165D01*
X229153D01*
X227185Y135653D02*
X229153D01*
X286736Y138409D02*
X288114D01*
X287425Y137720D02*
Y139098D01*
X288409Y135653D02*
Y141165D01*
X286440Y135653D02*
Y141165D01*
X288409D01*
X286440Y135653D02*
X288409D01*
X51889Y138409D02*
X53267D01*
X52578Y137720D02*
Y139098D01*
X53562Y135653D02*
Y141165D01*
X51594Y135653D02*
Y141165D01*
X53562D01*
X51594Y135653D02*
X53562D01*
X260255Y237228D02*
X262224D01*
X260255Y231716D02*
X262224D01*
Y237228D01*
X260255Y231716D02*
Y237228D01*
X261240Y233783D02*
Y235161D01*
X260551Y234472D02*
X261929D01*
X253956Y236932D02*
Y238310D01*
X253267Y237621D02*
X254645D01*
X251200Y236637D02*
X256712D01*
X251200Y238606D02*
X256712D01*
Y236637D02*
Y238606D01*
X251200Y236637D02*
Y238606D01*
X245295Y236932D02*
Y238310D01*
X244606Y237621D02*
X245984D01*
X242539Y238606D02*
X248051D01*
X242539Y236637D02*
X248051D01*
X242539D02*
Y238606D01*
X248051Y236637D02*
Y238606D01*
X42834Y244905D02*
X46771D01*
X44803Y242936D02*
Y246873D01*
X12814Y255436D02*
Y256814D01*
X12126Y256125D02*
X13503D01*
X10059Y255141D02*
X15570D01*
X10059Y257110D02*
X15570D01*
Y255141D02*
Y257110D01*
X10059Y255141D02*
Y257110D01*
D67*
X27381Y228094D02*
Y251873D01*
X-178Y228094D02*
X27381D01*
X-178D02*
Y251873D01*
X27381D01*
X34763Y240869D02*
Y248940D01*
X54842Y240869D02*
Y248940D01*
X34763D02*
X54842D01*
X34763Y240869D02*
X54842D01*
M02*
