G04*
G04 #@! TF.GenerationSoftware,Altium Limited,Altium Designer,20.0.10 (225)*
G04*
G04 Layer_Color=32768*
%FSLAX25Y25*%
%MOIN*%
G70*
G01*
G75*
%ADD14C,0.00394*%
%ADD15C,0.00500*%
%ADD67C,0.00197*%
D14*
X13405Y132306D02*
X19310D01*
X13405Y135259D02*
Y146086D01*
X19310Y132306D02*
Y146086D01*
X13405Y132306D02*
Y135259D01*
Y146086D02*
X19310D01*
X16358Y138212D02*
Y140180D01*
X15373Y139196D02*
X17342D01*
X72448Y132306D02*
X78354D01*
X72448Y135259D02*
Y146086D01*
X78354Y132306D02*
Y146086D01*
X72448Y132306D02*
Y135259D01*
Y146086D02*
X78354D01*
X75401Y138212D02*
Y140180D01*
X74417Y139196D02*
X76385D01*
X96051Y136082D02*
Y140019D01*
X94082Y138050D02*
X98019D01*
X83059Y132539D02*
Y143562D01*
Y132539D02*
X109043D01*
Y143562D01*
X83059D02*
X109043D01*
X212649Y136082D02*
Y140019D01*
X210681Y138050D02*
X214618D01*
X199657Y132539D02*
Y143562D01*
Y132539D02*
X225641D01*
Y143562D01*
X199657D02*
X225641D01*
X154744Y135688D02*
Y139625D01*
X152775Y137657D02*
X156712D01*
X141752Y132145D02*
Y143169D01*
Y132145D02*
X167736D01*
Y143169D01*
X141752D02*
X167736D01*
X133397Y139196D02*
X135366D01*
X134381Y138212D02*
Y140180D01*
X131429Y146086D02*
X137334D01*
X131429Y132306D02*
Y135259D01*
X137334Y132306D02*
Y146086D01*
X131429Y135259D02*
Y146086D01*
Y132306D02*
X137334D01*
X271925Y136082D02*
Y140019D01*
X269956Y138050D02*
X273893D01*
X258933Y132539D02*
Y143562D01*
Y132539D02*
X284917D01*
Y143562D01*
X258933D02*
X284917D01*
X248216Y132306D02*
X254122D01*
X248216Y135259D02*
Y146086D01*
X254122Y132306D02*
Y146086D01*
X248216Y132306D02*
Y135259D01*
Y146086D02*
X254122D01*
X251169Y138212D02*
Y140181D01*
X250184Y139196D02*
X252153D01*
X189090Y132306D02*
X194996D01*
X189090Y135259D02*
Y146086D01*
X194996Y132306D02*
Y146086D01*
X189090Y132306D02*
Y135259D01*
Y146086D02*
X194996D01*
X192043Y138212D02*
Y140181D01*
X191059Y139196D02*
X193027D01*
X188208Y7602D02*
Y37818D01*
Y7602D02*
X259468D01*
Y37818D01*
X188208D02*
X259468D01*
X221476Y25810D02*
X225413D01*
X223444Y23842D02*
Y27779D01*
X115374Y7602D02*
Y37818D01*
Y7602D02*
X186633D01*
Y37818D01*
X115374D02*
X186633D01*
X148641Y25810D02*
X152578D01*
X150610Y23842D02*
Y27779D01*
X42539Y7602D02*
Y37818D01*
Y7602D02*
X113799D01*
Y37818D01*
X42539D02*
X113799D01*
X75807Y25810D02*
X79744D01*
X77775Y23842D02*
Y27779D01*
X266255Y89944D02*
X270192D01*
X268224Y87976D02*
Y91913D01*
X246570Y131283D02*
X289878D01*
Y48606D02*
Y131283D01*
X246570Y48606D02*
Y131283D01*
Y48606D02*
X289878D01*
X208129Y89944D02*
X212066D01*
X210098Y87976D02*
Y91913D01*
X188444Y131283D02*
X231751D01*
Y48606D02*
Y131283D01*
X188444Y48606D02*
Y131283D01*
Y48606D02*
X231751D01*
X149074Y89944D02*
X153011D01*
X151043Y87976D02*
Y91913D01*
X129389Y131283D02*
X172696D01*
Y48606D02*
Y131283D01*
X129389Y48606D02*
Y131283D01*
Y48606D02*
X172696D01*
X90019Y89944D02*
X93956D01*
X91988Y87976D02*
Y91913D01*
X70334Y131283D02*
X113641D01*
Y48606D02*
Y131283D01*
X70334Y48606D02*
Y131283D01*
Y48606D02*
X113641D01*
X30999Y89944D02*
X34936D01*
X32968Y87976D02*
Y91913D01*
X11315Y131283D02*
X54622D01*
Y48606D02*
Y131283D01*
X11315Y48606D02*
Y131283D01*
Y48606D02*
X54622D01*
X37062Y136082D02*
Y140019D01*
X35094Y138050D02*
X39031D01*
X24070Y132539D02*
Y143562D01*
Y132539D02*
X50055D01*
Y143562D01*
X24070D02*
X50055D01*
X13602Y238015D02*
Y241952D01*
X11633Y239984D02*
X15570D01*
X126496Y173645D02*
Y190968D01*
X138307D01*
Y173645D02*
Y190968D01*
X126496Y173645D02*
X138307D01*
X132401Y180338D02*
Y184275D01*
X130433Y182306D02*
X134370D01*
X254941Y183684D02*
Y187621D01*
X252972Y185653D02*
X256909D01*
X275610Y170889D02*
Y200417D01*
X234271Y170889D02*
X275610D01*
X234271D02*
Y200417D01*
X275610D01*
X251397Y217149D02*
X255334D01*
X253366Y215180D02*
Y219117D01*
X253440Y263929D02*
Y267865D01*
X251472Y265897D02*
X255409D01*
X226866Y242669D02*
X279818D01*
X226866D02*
Y282629D01*
X279818D01*
Y242669D02*
Y282629D01*
X147854Y182503D02*
X161633Y168724D01*
X145885Y184472D02*
Y245495D01*
Y184472D02*
X163602Y166755D01*
X177381D01*
Y162818D02*
Y166755D01*
Y162818D02*
X191161D01*
Y166755D01*
X206909D01*
X224625Y184472D01*
Y245495D01*
X191161D02*
X224625D01*
X191161D02*
Y249432D01*
X177381D02*
X191161D01*
X177381Y245495D02*
Y249432D01*
X145885Y245495D02*
X177381D01*
X185255Y204157D02*
Y208094D01*
X183287Y206125D02*
X187224D01*
X116633Y243125D02*
X120570D01*
X118602Y241157D02*
Y245094D01*
X95964Y282495D02*
X141240D01*
X101870Y214582D02*
Y236236D01*
X95964D02*
Y282495D01*
Y236236D02*
X98917D01*
X101870D01*
X141240D02*
Y282495D01*
X101870Y214582D02*
X135334D01*
Y236236D02*
X141240D01*
X135334Y214582D02*
Y236236D01*
X116535Y166846D02*
Y170783D01*
X78740Y166846D02*
X116535D01*
X78740D02*
Y191255D01*
X116535D01*
Y170783D02*
Y191255D01*
X95669Y179051D02*
X99606D01*
X97637Y177082D02*
Y181019D01*
X78470Y199137D02*
Y209883D01*
X84721Y199137D02*
Y209883D01*
X78470D02*
X84721D01*
X80698Y199137D02*
X82204D01*
X78470D02*
X80698D01*
X82204D02*
X84405D01*
X84721D01*
X79645Y204551D02*
X83582D01*
X81614Y202582D02*
Y206519D01*
X86667Y199259D02*
Y210005D01*
X92918Y199259D02*
Y210005D01*
X86667D02*
X92918D01*
X88895Y199259D02*
X90401D01*
X86667D02*
X88895D01*
X90401D02*
X92602D01*
X92918D01*
X87842Y204673D02*
X91779D01*
X89811Y202704D02*
Y206641D01*
X94667Y199259D02*
Y210005D01*
X100918Y199259D02*
Y210005D01*
X94667D02*
X100918D01*
X96895Y199259D02*
X98401D01*
X94667D02*
X96895D01*
X98401D02*
X100602D01*
X100918D01*
X95842Y204673D02*
X99779D01*
X97811Y202704D02*
Y206641D01*
X61315Y239487D02*
X77381D01*
Y243724D01*
X61315Y249886D02*
X77381D01*
X61315Y239487D02*
Y249886D01*
X77381Y243724D02*
Y245692D01*
Y249886D01*
X67539Y244708D02*
X71476D01*
X69507Y242740D02*
Y246676D01*
X76988Y227779D02*
Y231716D01*
X75019Y229747D02*
X78956D01*
X74625Y223055D02*
X80137D01*
X73838Y223063D02*
Y223448D01*
Y236440D01*
Y223063D02*
X73846Y223055D01*
X74625D01*
X73838Y236440D02*
X80137D01*
Y223055D02*
Y236440D01*
X58582Y234176D02*
Y237917D01*
X49724Y234176D02*
X58582D01*
X49724D02*
Y237917D01*
X58582D01*
X52185Y236047D02*
X54153D01*
X56122D01*
X54153D02*
Y238015D01*
Y234078D02*
Y236047D01*
Y235456D02*
Y236637D01*
X15373Y205535D02*
Y211440D01*
X1594Y205535D02*
X12421D01*
X1594Y211440D02*
X15373D01*
X12421Y205535D02*
X15373D01*
X1594D02*
Y211440D01*
X7500Y208488D02*
X9468D01*
X8484Y207503D02*
Y209472D01*
D15*
X26397Y229078D02*
Y250889D01*
X807D02*
X26397D01*
X807Y229078D02*
Y250889D01*
Y229078D02*
X26397D01*
D67*
X238307Y206716D02*
Y227582D01*
X268425D01*
Y206716D02*
Y227582D01*
X238307Y206716D02*
X268425D01*
M02*
