G04*
G04 #@! TF.GenerationSoftware,Altium Limited,Altium Designer,20.0.10 (225)*
G04*
G04 Layer_Color=16711935*
%FSLAX25Y25*%
%MOIN*%
G70*
G01*
G75*
%ADD47C,0.00800*%
%ADD48R,0.07887X0.07887*%
%ADD49C,0.07887*%
%ADD50C,0.08477*%
%ADD51C,0.07296*%
D47*
X296476Y276795D02*
D03*
Y5141D02*
D03*
X5137D02*
D03*
Y276795D02*
D03*
D48*
X195885Y25810D02*
D03*
X123051D02*
D03*
X50216D02*
D03*
D49*
X209665D02*
D03*
X223444D02*
D03*
X237224D02*
D03*
X251003D02*
D03*
X136830D02*
D03*
X150610D02*
D03*
X164389D02*
D03*
X178169D02*
D03*
X63996D02*
D03*
X77775D02*
D03*
X91555D02*
D03*
X105334D02*
D03*
D50*
X283224Y124944D02*
D03*
Y64944D02*
D03*
X253224Y54944D02*
D03*
Y84944D02*
D03*
Y124944D02*
D03*
X225098D02*
D03*
Y64944D02*
D03*
X195098Y54944D02*
D03*
Y84944D02*
D03*
Y124944D02*
D03*
X166043D02*
D03*
Y64944D02*
D03*
X136043Y54944D02*
D03*
Y84944D02*
D03*
Y124944D02*
D03*
X106988D02*
D03*
Y64944D02*
D03*
X76988Y54944D02*
D03*
Y84944D02*
D03*
Y124944D02*
D03*
X47968D02*
D03*
Y64944D02*
D03*
X17968Y54944D02*
D03*
Y84944D02*
D03*
Y124944D02*
D03*
D51*
X13602Y244984D02*
D03*
Y234984D02*
D03*
M02*
