G04*
G04 #@! TF.GenerationSoftware,Altium Limited,Altium Designer,20.0.10 (225)*
G04*
G04 Layer_Physical_Order=2*
G04 Layer_Color=16711680*
%FSLAX25Y25*%
%MOIN*%
G70*
G01*
G75*
%ADD55C,0.01500*%
%ADD59R,0.07087X0.07087*%
%ADD60C,0.07087*%
%ADD61C,0.07677*%
%ADD62C,0.06496*%
%ADD63C,0.05000*%
%ADD64C,0.02500*%
%ADD65C,0.04000*%
%ADD66C,0.04500*%
G36*
X97460Y225023D02*
X113614Y208869D01*
X114957Y120885D01*
X113220Y119114D01*
X96742Y119052D01*
X94704Y121081D01*
X94704Y130929D01*
X64389Y161243D01*
Y218724D01*
X70688Y225023D01*
X97460Y225023D01*
D02*
G37*
G36*
X241161Y241558D02*
X251397D01*
X258065Y234891D01*
X258309Y234248D01*
X258090Y230535D01*
X257696Y230141D01*
X253759D01*
X234468Y210850D01*
X217145D01*
X202578Y196283D01*
X202972Y195889D01*
Y165180D01*
X195885Y158094D01*
X168720D01*
X121082Y205732D01*
Y213606D01*
X123051Y214787D01*
X129350D01*
X137224Y206913D01*
X205334D01*
X233681Y235259D01*
Y240377D01*
X234862Y241558D01*
X241161Y241558D01*
D02*
G37*
G36*
X243917Y169117D02*
Y121480D01*
X241161Y118724D01*
X223444D01*
X217539Y124629D01*
Y159669D01*
X226546Y169369D01*
X229581Y170692D01*
X234862Y170692D01*
X242342D01*
X243917Y169117D01*
D02*
G37*
D55*
X253224Y124944D02*
X254153Y125873D01*
X250216Y165574D02*
Y166362D01*
X254153Y125873D02*
Y161637D01*
X250216Y165574D02*
X254153Y161637D01*
X270689Y166362D02*
X275807Y161243D01*
X267933Y103566D02*
X275807Y111440D01*
Y161243D01*
X260059Y108487D02*
X268917Y117346D01*
X263996Y166362D02*
X268917Y161440D01*
Y117346D02*
Y161440D01*
X255137Y113409D02*
X262027Y120299D01*
X257696Y166362D02*
X262027Y162031D01*
Y120299D02*
Y162031D01*
X206633Y113409D02*
X255137D01*
X92736Y103566D02*
X267933D01*
X152499Y108487D02*
X260059D01*
X195098Y124944D02*
X206633Y113409D01*
X76988Y119314D02*
Y124944D01*
Y119314D02*
X92736Y103566D01*
X136043Y124944D02*
X152499Y108487D01*
X17968Y124944D02*
X44267Y98645D01*
X282696D01*
X292539Y108487D01*
X276988Y166362D02*
X292539Y150810D01*
Y108487D02*
Y150810D01*
D59*
X195885Y25810D02*
D03*
X123051D02*
D03*
X50216D02*
D03*
D60*
X209665D02*
D03*
X223444D02*
D03*
X237224D02*
D03*
X251003D02*
D03*
X136830D02*
D03*
X150610D02*
D03*
X164389D02*
D03*
X178169D02*
D03*
X63996D02*
D03*
X77775D02*
D03*
X91555D02*
D03*
X105334D02*
D03*
D61*
X283224Y124944D02*
D03*
Y64944D02*
D03*
X253224Y54944D02*
D03*
Y84944D02*
D03*
Y124944D02*
D03*
X225098D02*
D03*
Y64944D02*
D03*
X195098Y54944D02*
D03*
Y84944D02*
D03*
Y124944D02*
D03*
X166043D02*
D03*
Y64944D02*
D03*
X136043Y54944D02*
D03*
Y84944D02*
D03*
Y124944D02*
D03*
X106988D02*
D03*
Y64944D02*
D03*
X76988Y54944D02*
D03*
Y84944D02*
D03*
Y124944D02*
D03*
X47968D02*
D03*
Y64944D02*
D03*
X17968Y54944D02*
D03*
Y84944D02*
D03*
Y124944D02*
D03*
D62*
X13602Y244984D02*
D03*
Y234984D02*
D03*
D63*
X250216Y166362D02*
D03*
X257696D02*
D03*
X276988D02*
D03*
X270689D02*
D03*
X263996D02*
D03*
X237618D02*
D03*
X97204Y220436D02*
D03*
X101535Y212169D02*
D03*
X86181D02*
D03*
X70826D02*
D03*
X125492Y210259D02*
D03*
X143917Y188409D02*
D03*
X232500Y215574D02*
D03*
X238011Y237621D02*
D03*
X255334Y233291D02*
D03*
D64*
X194704Y177385D02*
D03*
X180925Y164787D02*
D03*
X189980D02*
D03*
Y197858D02*
D03*
X180925D02*
D03*
X176594Y189196D02*
D03*
Y181322D02*
D03*
X194704Y185259D02*
D03*
X176594Y177385D02*
D03*
Y185259D02*
D03*
X194704Y181322D02*
D03*
Y189196D02*
D03*
D65*
X260059Y25810D02*
X283224Y48976D01*
X251003Y25810D02*
X260059D01*
X283224Y48976D02*
Y64944D01*
X17968Y77743D02*
Y84944D01*
X63523Y26283D02*
Y32188D01*
X17968Y77743D02*
X63523Y32188D01*
Y26283D02*
X63996Y25810D01*
X87275Y34009D02*
X90964Y30320D01*
X87275Y34009D02*
Y44657D01*
X76988Y54944D02*
X87275Y44657D01*
X47968Y64944D02*
X77775Y35137D01*
Y25810D02*
Y35137D01*
X90964Y26401D02*
Y30320D01*
Y26401D02*
X91555Y25810D01*
X106988Y41873D02*
Y64944D01*
Y41873D02*
X123051Y25810D01*
X136043Y54944D02*
X136436Y54550D01*
Y26204D02*
Y54550D01*
Y26204D02*
X136830Y25810D01*
X150610D02*
Y61382D01*
X136043Y75949D02*
Y84944D01*
Y75949D02*
X150610Y61382D01*
X166043Y28299D02*
Y64944D01*
X164389Y26646D02*
X166043Y28299D01*
X164389Y25810D02*
Y26646D01*
X178169Y38015D02*
X195098Y54944D01*
X178169Y25810D02*
Y38015D01*
X195098Y71873D02*
X206436Y60535D01*
X197429Y27354D02*
Y39440D01*
X206436Y48448D01*
Y60535D01*
X225098Y53014D02*
Y64944D01*
X195885Y25810D02*
X197429Y27354D01*
X209665Y25810D02*
Y37581D01*
X225098Y53014D01*
X223444Y36440D02*
X241948Y54944D01*
X223444Y25810D02*
Y36440D01*
X241948Y54944D02*
X253224D01*
X195098Y71873D02*
Y84944D01*
X237224Y31966D02*
X247800Y42543D01*
X259468D01*
X237224Y25810D02*
Y31966D01*
X259468Y42543D02*
X267145Y50220D01*
Y60124D01*
X253224Y74045D02*
Y84944D01*
Y74045D02*
X267145Y60124D01*
D66*
X17968Y54944D02*
X45809Y27104D01*
X48923D01*
X50216Y25810D01*
X97238Y37835D02*
Y51083D01*
X104839Y26305D02*
Y30233D01*
Y26305D02*
X105334Y25810D01*
X76988Y71333D02*
Y84944D01*
Y71333D02*
X97238Y51083D01*
Y37835D02*
X104839Y30233D01*
M02*
