G04*
G04 #@! TF.GenerationSoftware,Altium Limited,Altium Designer,20.0.10 (225)*
G04*
G04 Layer_Color=8388736*
%FSLAX25Y25*%
%MOIN*%
G70*
G01*
G75*
%ADD55R,0.03150X0.05512*%
%ADD56R,0.04194X0.03494*%
%ADD57R,0.04724X0.03543*%
%ADD58R,0.04528X0.02559*%
%ADD59R,0.03494X0.04194*%
%ADD60R,0.08268X0.04724*%
%ADD61R,0.05512X0.03150*%
%ADD62R,0.06299X0.02362*%
%ADD63R,0.05512X0.13780*%
%ADD64R,0.09252X0.08740*%
%ADD65R,0.05630X0.05630*%
%ADD66R,0.03937X0.08268*%
%ADD67R,0.08268X0.03937*%
%ADD68R,0.03150X0.06299*%
%ADD69R,0.04331X0.03543*%
%ADD70R,0.15748X0.24803*%
%ADD71R,0.13386X0.17717*%
%ADD72R,0.04331X0.02362*%
%ADD73R,0.13386X0.06693*%
%ADD74R,0.05118X0.06693*%
%ADD75R,0.06496X0.05118*%
%ADD76R,0.12205X0.08268*%
%ADD77R,0.02559X0.04528*%
%ADD78R,0.06693X0.06693*%
%ADD79R,0.24803X0.15748*%
%ADD80R,0.17717X0.13386*%
G04:AMPARAMS|DCode=81|XSize=66.93mil|YSize=53.15mil|CornerRadius=0mil|HoleSize=0mil|Usage=FLASHONLY|Rotation=225.000|XOffset=0mil|YOffset=0mil|HoleType=Round|Shape=Rectangle|*
%AMROTATEDRECTD81*
4,1,4,0.00487,0.04245,0.04245,0.00487,-0.00487,-0.04245,-0.04245,-0.00487,0.00487,0.04245,0.0*
%
%ADD81ROTATEDRECTD81*%

G04:AMPARAMS|DCode=82|XSize=34.94mil|YSize=41.94mil|CornerRadius=0mil|HoleSize=0mil|Usage=FLASHONLY|Rotation=315.000|XOffset=0mil|YOffset=0mil|HoleType=Round|Shape=Rectangle|*
%AMROTATEDRECTD82*
4,1,4,-0.02718,-0.00248,0.00248,0.02718,0.02718,0.00248,-0.00248,-0.02718,-0.02718,-0.00248,0.0*
%
%ADD82ROTATEDRECTD82*%

%ADD83R,0.05118X0.01575*%
%ADD84R,0.01575X0.05118*%
%ADD85R,0.07874X0.07480*%
%ADD86R,0.08661X0.06693*%
%ADD87R,0.01968X0.05709*%
%ADD88R,0.02756X0.05748*%
%ADD89O,0.07087X0.05118*%
%ADD90C,0.04331*%
%ADD91C,0.08268*%
%ADD92C,0.12205*%
%ADD93C,0.10236*%
%ADD94C,0.01575*%
%ADD95C,0.00394*%
%ADD96O,0.14567X0.07480*%
%ADD97O,0.08268X0.16142*%
%ADD98O,0.16142X0.08268*%
%ADD99C,0.08661*%
%ADD100O,0.07480X0.14567*%
D55*
X338976Y83071D02*
D03*
X331496D02*
D03*
X161024Y140354D02*
D03*
X153543D02*
D03*
X266339Y181102D02*
D03*
X273819D02*
D03*
X49728Y128165D02*
D03*
X57209D02*
D03*
X43878Y5543D02*
D03*
X36398D02*
D03*
X43878Y12543D02*
D03*
X36398D02*
D03*
X43878Y19543D02*
D03*
X36398D02*
D03*
X208858Y141339D02*
D03*
X201378D02*
D03*
D56*
X337796Y71260D02*
D03*
X331496D02*
D03*
X223760Y238591D02*
D03*
X230060D02*
D03*
X246063Y238583D02*
D03*
X252363D02*
D03*
X281693Y174213D02*
D03*
X275393D02*
D03*
X281693Y167992D02*
D03*
X275393D02*
D03*
X274410Y161811D02*
D03*
X268110D02*
D03*
X281569Y101023D02*
D03*
X287868D02*
D03*
X66863Y8043D02*
D03*
X60563D02*
D03*
X208071Y151969D02*
D03*
X201771D02*
D03*
X208071Y147244D02*
D03*
X201771D02*
D03*
X193701Y150394D02*
D03*
X187401D02*
D03*
X338189Y53150D02*
D03*
X331889D02*
D03*
X113619Y121165D02*
D03*
X107318D02*
D03*
D57*
X337972Y58071D02*
D03*
Y65551D02*
D03*
X330532Y61811D02*
D03*
X251744Y251905D02*
D03*
Y244425D02*
D03*
X259185Y248165D02*
D03*
X224410Y243701D02*
D03*
Y251181D02*
D03*
X216968Y247441D02*
D03*
X57189Y113925D02*
D03*
Y121405D02*
D03*
X49748Y117665D02*
D03*
X66434Y13303D02*
D03*
Y20783D02*
D03*
X58992Y17043D02*
D03*
D58*
X161024Y133465D02*
D03*
X150000D02*
D03*
X265354Y251181D02*
D03*
X276378D02*
D03*
X206976Y250665D02*
D03*
X195953D02*
D03*
D59*
X243701Y245669D02*
D03*
Y251969D02*
D03*
X230410Y244882D02*
D03*
Y251182D02*
D03*
X234252Y97245D02*
D03*
Y103544D02*
D03*
Y115749D02*
D03*
Y109449D02*
D03*
X90650Y131984D02*
D03*
Y138284D02*
D03*
X63484Y120768D02*
D03*
Y114468D02*
D03*
X51083Y18111D02*
D03*
Y11811D02*
D03*
X105968Y9015D02*
D03*
Y15315D02*
D03*
X140969Y32315D02*
D03*
Y26015D02*
D03*
X130468Y161515D02*
D03*
Y167815D02*
D03*
X235236Y193503D02*
D03*
Y199803D02*
D03*
X242913Y139764D02*
D03*
Y133464D02*
D03*
X237795Y133464D02*
D03*
Y139764D02*
D03*
X232677Y133464D02*
D03*
Y139764D02*
D03*
X227559Y133464D02*
D03*
Y139764D02*
D03*
D60*
X264567Y234409D02*
D03*
Y224409D02*
D03*
Y214409D02*
D03*
Y204409D02*
D03*
Y194409D02*
D03*
D61*
X271654Y151969D02*
D03*
Y144488D02*
D03*
X288189Y116142D02*
D03*
Y108661D02*
D03*
X281102Y116142D02*
D03*
Y108661D02*
D03*
X266929Y84055D02*
D03*
Y76575D02*
D03*
X260236Y84055D02*
D03*
Y76575D02*
D03*
X253543Y84055D02*
D03*
Y76575D02*
D03*
X83760Y131496D02*
D03*
Y138976D02*
D03*
X212992Y121063D02*
D03*
Y128543D02*
D03*
X219685Y121063D02*
D03*
Y128543D02*
D03*
X173031Y159153D02*
D03*
Y151673D02*
D03*
X123969Y160925D02*
D03*
Y168405D02*
D03*
X196949Y191240D02*
D03*
Y183760D02*
D03*
X190256Y191240D02*
D03*
Y183760D02*
D03*
X227854Y194193D02*
D03*
Y201673D02*
D03*
X260236Y30709D02*
D03*
Y38189D02*
D03*
D62*
X271555Y116023D02*
D03*
Y111023D02*
D03*
Y106023D02*
D03*
Y101023D02*
D03*
X249902D02*
D03*
Y106023D02*
D03*
Y111023D02*
D03*
Y116023D02*
D03*
X99642Y127165D02*
D03*
Y132165D02*
D03*
Y137165D02*
D03*
Y142165D02*
D03*
X121295D02*
D03*
Y137165D02*
D03*
Y132165D02*
D03*
Y127165D02*
D03*
X222244Y116161D02*
D03*
Y111161D02*
D03*
Y106161D02*
D03*
Y101161D02*
D03*
X200591D02*
D03*
Y106161D02*
D03*
Y111161D02*
D03*
Y116161D02*
D03*
D63*
X106835Y111165D02*
D03*
X115102D02*
D03*
D64*
X76055Y111165D02*
D03*
X93260D02*
D03*
D65*
X75012Y67453D02*
D03*
Y60228D02*
D03*
Y53004D02*
D03*
X67787Y67453D02*
D03*
Y60228D02*
D03*
Y53004D02*
D03*
X60563Y67453D02*
D03*
Y60228D02*
D03*
Y53004D02*
D03*
D66*
X38260Y97630D02*
D03*
X43260D02*
D03*
X48260D02*
D03*
X53260D02*
D03*
X58260D02*
D03*
X63260D02*
D03*
X68260D02*
D03*
X73260D02*
D03*
X78260D02*
D03*
X83260D02*
D03*
X88260D02*
D03*
X93260D02*
D03*
X98260D02*
D03*
X103260D02*
D03*
Y30701D02*
D03*
X98260D02*
D03*
X93260D02*
D03*
X88260D02*
D03*
X83260D02*
D03*
X78260D02*
D03*
X73260D02*
D03*
X68260D02*
D03*
X63260D02*
D03*
X58260D02*
D03*
X53260D02*
D03*
X48260D02*
D03*
X43260D02*
D03*
X38260D02*
D03*
D67*
X107197Y86665D02*
D03*
Y81665D02*
D03*
Y76665D02*
D03*
Y71665D02*
D03*
Y66665D02*
D03*
Y61665D02*
D03*
Y56665D02*
D03*
Y51665D02*
D03*
Y46665D02*
D03*
Y41665D02*
D03*
D68*
X118110Y18055D02*
D03*
X129921D02*
D03*
X135827D02*
D03*
D69*
X141339Y15102D02*
D03*
X112598D02*
D03*
X141339Y7228D02*
D03*
X112598D02*
D03*
D70*
X159646Y27953D02*
D03*
X210433D02*
D03*
D71*
X187598Y63189D02*
D03*
D72*
X191469Y111300D02*
D03*
Y115631D02*
D03*
D73*
X151969Y173382D02*
D03*
D74*
X161024Y148185D02*
D03*
X151969D02*
D03*
X142913D02*
D03*
D75*
X96969Y203165D02*
D03*
Y182653D02*
D03*
X131614Y203165D02*
D03*
Y182653D02*
D03*
D76*
X110780Y160165D02*
D03*
X87157D02*
D03*
D77*
X71949Y189764D02*
D03*
Y178740D02*
D03*
X252854Y38189D02*
D03*
Y27165D02*
D03*
D78*
X71949Y202756D02*
D03*
X86122D02*
D03*
D79*
X20614Y206957D02*
D03*
Y156169D02*
D03*
D80*
X55850Y179004D02*
D03*
D81*
X199759Y159453D02*
D03*
X210059Y169753D02*
D03*
X193634Y165577D02*
D03*
X203934Y175878D02*
D03*
D82*
X196716Y177031D02*
D03*
X192261Y172576D02*
D03*
D83*
X224504Y177992D02*
D03*
Y176024D02*
D03*
Y174055D02*
D03*
Y172087D02*
D03*
Y170118D02*
D03*
Y168150D02*
D03*
Y166181D02*
D03*
Y164213D02*
D03*
Y162244D02*
D03*
Y160276D02*
D03*
Y158307D02*
D03*
Y156339D02*
D03*
X257968D02*
D03*
Y158307D02*
D03*
Y160276D02*
D03*
Y162244D02*
D03*
Y164213D02*
D03*
Y166181D02*
D03*
Y168150D02*
D03*
Y170118D02*
D03*
Y172087D02*
D03*
Y174055D02*
D03*
Y176024D02*
D03*
Y177992D02*
D03*
D84*
X230410Y150433D02*
D03*
X232378D02*
D03*
X234347D02*
D03*
X236315D02*
D03*
X238283D02*
D03*
X240252D02*
D03*
X242220D02*
D03*
X244189D02*
D03*
X246158D02*
D03*
X248126D02*
D03*
X250095D02*
D03*
X252063D02*
D03*
Y183898D02*
D03*
X250095D02*
D03*
X248126D02*
D03*
X246158D02*
D03*
X244189D02*
D03*
X242220D02*
D03*
X240252D02*
D03*
X238283D02*
D03*
X236315D02*
D03*
X234347D02*
D03*
X232378D02*
D03*
X230410D02*
D03*
D85*
X253937Y7874D02*
D03*
X224016D02*
D03*
D86*
X251181Y18612D02*
D03*
X226772D02*
D03*
D87*
X233858Y19094D02*
D03*
X236417D02*
D03*
X238976D02*
D03*
X241535D02*
D03*
X244094D02*
D03*
D88*
X243898Y40354D02*
D03*
X240158D02*
D03*
X236417D02*
D03*
Y31102D02*
D03*
X240158D02*
D03*
X243898D02*
D03*
D89*
X314173Y16929D02*
D03*
Y22835D02*
D03*
Y28740D02*
D03*
Y34646D02*
D03*
Y40551D02*
D03*
Y46457D02*
D03*
X281102Y82284D02*
D03*
Y76378D02*
D03*
Y70472D02*
D03*
Y64567D02*
D03*
Y58661D02*
D03*
Y52756D02*
D03*
D90*
X346063Y101181D02*
D03*
Y115354D02*
D03*
X331890D02*
D03*
D91*
X158788Y98552D02*
D03*
X172708Y112471D02*
D03*
X18126Y235665D02*
D03*
X37811D02*
D03*
X18110Y278740D02*
D03*
X37795D02*
D03*
X157874Y310236D02*
D03*
X79134D02*
D03*
X138189Y231496D02*
D03*
X98819D02*
D03*
X177559Y353543D02*
D03*
X59449D02*
D03*
X25469Y132008D02*
D03*
Y112323D02*
D03*
D92*
X249965Y346665D02*
D03*
X269965D02*
D03*
X199465D02*
D03*
X219465D02*
D03*
X27953Y331732D02*
D03*
Y351732D02*
D03*
D93*
X244965Y330665D02*
D03*
X274965Y320665D02*
D03*
Y260665D02*
D03*
X244965Y300665D02*
D03*
Y260665D02*
D03*
X196465Y330665D02*
D03*
X226465Y320665D02*
D03*
Y260665D02*
D03*
X196465Y300665D02*
D03*
Y260665D02*
D03*
D94*
X75012Y63841D02*
D03*
Y56616D02*
D03*
X71400Y67453D02*
D03*
Y60228D02*
D03*
Y53004D02*
D03*
X67787Y63841D02*
D03*
Y56616D02*
D03*
X64175Y67453D02*
D03*
Y60228D02*
D03*
Y53004D02*
D03*
X60563Y63841D02*
D03*
Y56616D02*
D03*
D95*
X121063Y11165D02*
D03*
X132874D02*
D03*
D96*
X180709Y55512D02*
D03*
D97*
X203937Y43307D02*
D03*
X23370Y181563D02*
D03*
D98*
X185039Y30709D02*
D03*
X35969Y162665D02*
D03*
D99*
X185039Y12992D02*
D03*
X5654Y181563D02*
D03*
D100*
X48173Y185894D02*
D03*
M02*
