G04*
G04 #@! TF.GenerationSoftware,Altium Limited,Altium Designer,20.0.10 (225)*
G04*
G04 Layer_Physical_Order=1*
G04 Layer_Color=255*
%FSLAX25Y25*%
%MOIN*%
G70*
G01*
G75*
%ADD18C,0.01000*%
%ADD91C,0.08268*%
%ADD101R,0.02756X0.05118*%
%ADD102R,0.03800X0.03100*%
%ADD103R,0.04331X0.03150*%
%ADD104R,0.04134X0.02165*%
%ADD105R,0.03100X0.03800*%
%ADD106R,0.07874X0.04331*%
%ADD107R,0.05118X0.02756*%
%ADD108R,0.05906X0.01968*%
%ADD109R,0.05118X0.13386*%
%ADD110R,0.08858X0.08346*%
%ADD111R,0.05236X0.05236*%
%ADD112R,0.03543X0.07874*%
%ADD113R,0.07874X0.03543*%
%ADD114R,0.02756X0.05906*%
%ADD115R,0.03937X0.03150*%
%ADD116R,0.15354X0.24410*%
%ADD117R,0.12992X0.17323*%
%ADD118R,0.03937X0.01968*%
%ADD119R,0.12992X0.06299*%
%ADD120R,0.04724X0.06299*%
%ADD121R,0.06102X0.04724*%
%ADD122R,0.11811X0.07874*%
%ADD123R,0.02165X0.04134*%
%ADD124R,0.06299X0.06299*%
%ADD125R,0.24410X0.15354*%
%ADD126R,0.17323X0.12992*%
G04:AMPARAMS|DCode=127|XSize=62.99mil|YSize=49.21mil|CornerRadius=0mil|HoleSize=0mil|Usage=FLASHONLY|Rotation=225.000|XOffset=0mil|YOffset=0mil|HoleType=Round|Shape=Rectangle|*
%AMROTATEDRECTD127*
4,1,4,0.00487,0.03967,0.03967,0.00487,-0.00487,-0.03967,-0.03967,-0.00487,0.00487,0.03967,0.0*
%
%ADD127ROTATEDRECTD127*%

G04:AMPARAMS|DCode=128|XSize=31mil|YSize=38mil|CornerRadius=0mil|HoleSize=0mil|Usage=FLASHONLY|Rotation=315.000|XOffset=0mil|YOffset=0mil|HoleType=Round|Shape=Rectangle|*
%AMROTATEDRECTD128*
4,1,4,-0.02439,-0.00248,0.00248,0.02439,0.02439,0.00248,-0.00248,-0.02439,-0.02439,-0.00248,0.0*
%
%ADD128ROTATEDRECTD128*%

%ADD129R,0.04724X0.01181*%
%ADD130R,0.01181X0.04724*%
%ADD131R,0.07480X0.07087*%
%ADD132R,0.08268X0.06299*%
%ADD133R,0.01575X0.05315*%
%ADD134R,0.02362X0.05354*%
%ADD135C,0.01500*%
%ADD136C,0.02000*%
%ADD137C,0.00800*%
%ADD138C,0.03500*%
%ADD139C,0.01200*%
%ADD140C,0.01473*%
%ADD141C,0.03000*%
%ADD142C,0.01100*%
%ADD143C,0.02500*%
%ADD144C,0.06000*%
%ADD145O,0.06693X0.04724*%
%ADD146C,0.03937*%
%ADD147C,0.07874*%
%ADD148C,0.11811*%
%ADD149C,0.09843*%
%ADD150C,0.01181*%
%ADD151O,0.14173X0.07087*%
%ADD152O,0.07874X0.15748*%
%ADD153O,0.15748X0.07874*%
%ADD154O,0.07087X0.14173*%
%ADD155C,0.02362*%
%ADD156C,0.01772*%
%ADD157C,0.01968*%
G36*
X227790Y265748D02*
X230084Y264798D01*
X231218Y263664D01*
X231890Y262042D01*
Y259612D01*
X230939Y257317D01*
X229806Y256184D01*
X228183Y255512D01*
X218588Y255512D01*
X218444Y255452D01*
X216835Y253843D01*
X217010Y251080D01*
X219858Y248875D01*
X219920Y248827D01*
X220351Y247736D01*
X220326Y247582D01*
X220240Y247255D01*
X219868Y246193D01*
X219130Y245669D01*
X214961Y245669D01*
X210236D01*
X209842Y246063D01*
X209842Y246850D01*
X209055Y247638D01*
X206299D01*
X204331Y249606D01*
X204331Y252047D01*
X205475Y254106D01*
X221654Y264173D01*
X222824Y264901D01*
X225787Y265748D01*
X227790Y265748D01*
D02*
G37*
G36*
X280315Y264173D02*
X280315Y251969D01*
X277953Y249606D01*
X272441Y249606D01*
X269685Y252362D01*
Y264567D01*
X271260Y266142D01*
X278346D01*
X280315Y264173D01*
D02*
G37*
G36*
X200000Y266142D02*
X201969Y264173D01*
X201969Y251575D01*
X199606Y249213D01*
X192913D01*
X190551Y251575D01*
Y264173D01*
X192520Y266142D01*
X200000Y266142D01*
D02*
G37*
G36*
X253543Y253937D02*
X254331Y253150D01*
X254331Y248819D01*
X253543Y248031D01*
X250394Y248031D01*
X248425Y246063D01*
X248425Y237402D01*
X247244Y236220D01*
X243307Y236221D01*
X241732Y237795D01*
X241732Y247244D01*
X242520Y248031D01*
X247684Y248031D01*
Y251877D01*
X249213Y253937D01*
X253543Y253937D01*
D02*
G37*
G36*
X248606Y264901D02*
X249776Y264173D01*
X267717Y253010D01*
X267717Y250224D01*
X265130Y247638D01*
X262374D01*
X261587Y246850D01*
X261587Y246063D01*
X261193Y245669D01*
X256469D01*
X256075Y246063D01*
X256075Y254949D01*
X255512Y255512D01*
X243246Y255512D01*
X241623Y256184D01*
X240490Y257317D01*
X239539Y259612D01*
Y262042D01*
X240212Y263664D01*
X241345Y264798D01*
X243639Y265748D01*
X245642Y265748D01*
X248606Y264901D01*
D02*
G37*
G36*
X232685Y243232D02*
X231504Y242051D01*
X228354D01*
X226780Y240476D01*
Y237327D01*
X225598Y236146D01*
X222055D01*
X220874Y237327D01*
Y244413D01*
X223630Y247169D01*
X232685D01*
Y243232D01*
D02*
G37*
G36*
X102756Y290945D02*
X104331Y288583D01*
X161206Y231707D01*
X168369Y228740D01*
X230006D01*
X245777Y212969D01*
Y192988D01*
X245277Y192938D01*
X245249Y193079D01*
X244789Y193768D01*
X244100Y194228D01*
X243287Y194390D01*
X242475Y194228D01*
X241786Y193768D01*
X241576Y193454D01*
X241069Y193792D01*
X240256Y193954D01*
X239443Y193792D01*
X238754Y193332D01*
X238309Y192665D01*
X238249Y192600D01*
X237871Y192512D01*
X237487Y192826D01*
Y196104D01*
X232985D01*
Y190903D01*
X233254D01*
X233405Y190403D01*
X233058Y190171D01*
X232663Y189579D01*
X232524Y188882D01*
X232663Y188184D01*
X232917Y187803D01*
Y187260D01*
X231915D01*
Y196223D01*
X231861Y196496D01*
X231706Y196728D01*
X231474Y196883D01*
X231201Y196938D01*
X223024Y196938D01*
X219169Y196938D01*
X183047D01*
X182773Y196883D01*
X182542Y196728D01*
X179687Y193874D01*
X179532Y193642D01*
X179478Y193368D01*
X179478Y168271D01*
X176947Y165741D01*
X176938Y165726D01*
X176923Y165715D01*
X176860Y165611D01*
X176793Y165509D01*
X176789Y165491D01*
X176780Y165476D01*
X176779Y165467D01*
X176573Y165230D01*
X176323Y165065D01*
X176296Y165054D01*
X175984Y165116D01*
X175172Y164954D01*
X174862Y165260D01*
X174804Y165346D01*
X174755Y165436D01*
X174726Y165460D01*
X174705Y165491D01*
X174619Y165547D01*
X174539Y165612D01*
X174503Y165623D01*
X174472Y165644D01*
X174371Y165663D01*
X174272Y165693D01*
X174235Y165689D01*
X174198Y165696D01*
X169937Y165661D01*
X169922Y165658D01*
X169908Y165660D01*
X169786Y165630D01*
X169664Y165605D01*
X169651Y165596D01*
X169637Y165593D01*
X169537Y165518D01*
X169433Y165448D01*
X169425Y165436D01*
X169413Y165427D01*
X169349Y165320D01*
X169326Y165286D01*
X169145Y165137D01*
X168854Y164968D01*
X168110Y165116D01*
X167298Y164954D01*
X166609Y164494D01*
X166148Y163805D01*
X165808Y163620D01*
X165683Y163670D01*
X165550Y163694D01*
X165418Y163721D01*
X165413Y163720D01*
X165409Y163721D01*
X165277Y163692D01*
X165145Y163666D01*
X165141Y163664D01*
X165136Y163663D01*
X165025Y163586D01*
X164913Y163511D01*
X163654Y162252D01*
X163579Y162140D01*
X163503Y162029D01*
X163502Y162025D01*
X163499Y162021D01*
X163473Y161888D01*
X163445Y161757D01*
X163446Y161752D01*
X163445Y161747D01*
X163471Y161615D01*
X163496Y161483D01*
X163545Y161357D01*
X163361Y161017D01*
X162672Y160557D01*
X162211Y159868D01*
X161871Y159683D01*
X161746Y159733D01*
X161614Y159757D01*
X161481Y159784D01*
X161476Y159783D01*
X161472Y159783D01*
X161340Y159756D01*
X161208Y159729D01*
X161204Y159727D01*
X161199Y159725D01*
X161088Y159649D01*
X160976Y159574D01*
X159717Y158315D01*
X159642Y158203D01*
X159566Y158092D01*
X159565Y158088D01*
X159562Y158084D01*
X159536Y157951D01*
X159508Y157820D01*
X159509Y157815D01*
X159508Y157810D01*
X159534Y157678D01*
X159558Y157545D01*
X159608Y157420D01*
X159424Y157080D01*
X158735Y156620D01*
X158274Y155931D01*
X157934Y155746D01*
X157809Y155796D01*
X157676Y155820D01*
X157544Y155847D01*
X157539Y155846D01*
X157535Y155847D01*
X157403Y155818D01*
X157271Y155792D01*
X157267Y155790D01*
X157262Y155789D01*
X157151Y155712D01*
X157039Y155637D01*
X156535Y155133D01*
X156509Y155094D01*
X156474Y155063D01*
X156182Y154684D01*
X156141Y154600D01*
X156089Y154522D01*
X156080Y154476D01*
X156059Y154434D01*
X156053Y154341D01*
X156034Y154249D01*
Y144367D01*
X156021Y144311D01*
X155831Y144211D01*
X155527Y144334D01*
X155331Y144513D01*
Y147435D01*
X148606D01*
Y144035D01*
X150716D01*
X151165Y143913D01*
X151165Y143535D01*
Y141104D01*
X153543D01*
Y140354D01*
X154293D01*
Y136795D01*
X155921D01*
X156034Y136342D01*
Y133015D01*
X156089Y132741D01*
X156244Y132510D01*
X156951Y131802D01*
X157183Y131647D01*
X157457Y131593D01*
X157730Y131647D01*
X157764Y131661D01*
X158256Y131681D01*
X158256Y131681D01*
X158256Y131681D01*
X163781D01*
X163817Y131657D01*
X164317Y131450D01*
X164591Y131396D01*
X164864Y131450D01*
X165096Y131605D01*
X165927Y132437D01*
X166082Y132668D01*
X166137Y132942D01*
X166137Y152685D01*
X169430Y155978D01*
X170236D01*
X170259Y155983D01*
X170283Y155980D01*
X170395Y156010D01*
X170509Y156033D01*
X170529Y156046D01*
X170552Y156052D01*
X170644Y156123D01*
X170741Y156188D01*
X170755Y156208D01*
X170773Y156222D01*
X170832Y156323D01*
X170852Y156354D01*
X171235Y156700D01*
X172047Y156538D01*
X172860Y156700D01*
X173242Y156354D01*
X173263Y156323D01*
X173321Y156222D01*
X173340Y156208D01*
X173353Y156188D01*
X173450Y156123D01*
X173542Y156052D01*
X173565Y156046D01*
X173585Y156033D01*
X173699Y156010D01*
X173811Y155980D01*
X173835Y155983D01*
X173858Y155978D01*
X176024Y155978D01*
X176297Y156033D01*
X176529Y156188D01*
X186800Y166458D01*
X186955Y166690D01*
X187009Y166964D01*
X187009Y181382D01*
X189506D01*
Y183760D01*
Y186138D01*
X187009D01*
Y188445D01*
X187202Y188574D01*
X187357Y188806D01*
X187411Y189079D01*
Y189161D01*
X193516D01*
Y189161D01*
X193689D01*
Y189161D01*
X200209D01*
Y189161D01*
X200696Y189273D01*
X200709Y189271D01*
X200970Y189219D01*
X201243Y189273D01*
X201475Y189428D01*
X203224Y191178D01*
X218935D01*
X224004Y191178D01*
X228911D01*
Y181595D01*
X228966Y181321D01*
X229118Y181093D01*
Y180835D01*
X229404D01*
X229549Y180737D01*
X229823Y180683D01*
X230787D01*
Y180535D01*
X231628D01*
Y180834D01*
X231701D01*
Y181138D01*
X231747Y181207D01*
X231801Y181480D01*
Y183898D01*
X232917D01*
X233026Y183351D01*
X233055Y183307D01*
Y180834D01*
X233128D01*
Y180535D01*
X233968D01*
Y180835D01*
X252027D01*
X252114Y180728D01*
Y174618D01*
X252223Y174071D01*
X252533Y173608D01*
X253096Y173045D01*
X253096Y173045D01*
X253559Y172735D01*
X254106Y172626D01*
X254106Y172626D01*
X254906D01*
Y170795D01*
Y166858D01*
Y162921D01*
Y158984D01*
Y155047D01*
X261032D01*
Y158745D01*
X261331D01*
X261917Y158861D01*
X262413Y159193D01*
X263500Y160280D01*
X265509D01*
Y159560D01*
X268149D01*
X268301Y159060D01*
X268183Y158981D01*
X267723Y158292D01*
X267561Y157480D01*
X267723Y156667D01*
X268183Y155978D01*
X268872Y155518D01*
X269684Y155356D01*
X270497Y155518D01*
X271186Y155978D01*
X271646Y156667D01*
X271733Y157103D01*
X274190Y159560D01*
X277011D01*
Y164062D01*
X271809D01*
Y161942D01*
X271173Y161305D01*
X270711Y161496D01*
Y164062D01*
X265509D01*
Y163342D01*
X262866D01*
X262280Y163225D01*
X261784Y162894D01*
X261493Y162603D01*
X261032Y162795D01*
Y164890D01*
Y168587D01*
X265554D01*
X265684Y168561D01*
X272638D01*
X272679Y168356D01*
X272793Y168186D01*
Y165741D01*
X277994D01*
Y170243D01*
X275329D01*
X275176Y170472D01*
X274546Y171102D01*
X275176Y171733D01*
X275329Y171962D01*
X277994D01*
Y176463D01*
X272793D01*
Y174019D01*
X272679Y173848D01*
X272638Y173643D01*
X266624D01*
X266495Y173669D01*
X261032D01*
Y174433D01*
X261331D01*
Y175274D01*
X261032D01*
Y175347D01*
X258559D01*
X258516Y175376D01*
X257968Y175484D01*
Y176563D01*
X258516Y176672D01*
X258559Y176701D01*
X261032D01*
Y176774D01*
X261331D01*
Y177614D01*
X261032D01*
Y179283D01*
X261297Y179673D01*
X264260D01*
Y177842D01*
X268417D01*
Y184362D01*
X268022D01*
Y186567D01*
X268300Y186983D01*
X268462Y187795D01*
X268300Y188608D01*
X267840Y189297D01*
X267151Y189757D01*
X266339Y189919D01*
X265526Y189757D01*
X264837Y189297D01*
X264377Y188608D01*
X264215Y187795D01*
X264377Y186983D01*
X264655Y186567D01*
Y184362D01*
X264260D01*
Y182531D01*
X258988D01*
X258441Y182423D01*
X257978Y182113D01*
X256958Y181093D01*
X256648Y180630D01*
X256540Y180083D01*
Y179283D01*
X254972D01*
Y180136D01*
X256254Y181418D01*
X256254Y181418D01*
X256563Y181881D01*
X256672Y182428D01*
Y192293D01*
X259467Y195088D01*
X259929Y194897D01*
Y191543D01*
X269205D01*
Y191735D01*
X274260D01*
X274409Y191715D01*
X275102Y191806D01*
X275747Y192074D01*
X276301Y192499D01*
X276726Y193052D01*
X276993Y193698D01*
X277084Y194390D01*
X276993Y195082D01*
X276726Y195727D01*
X276301Y196281D01*
X276281Y196301D01*
X275727Y196726D01*
X275082Y196993D01*
X274390Y197084D01*
X269205D01*
Y197276D01*
X263710D01*
X263559Y197776D01*
X263741Y197898D01*
X265577Y199734D01*
X265887Y200197D01*
X265996Y200744D01*
Y201543D01*
X269205D01*
Y207276D01*
X259929D01*
Y201543D01*
X262638D01*
X262845Y201043D01*
X262139Y200337D01*
X261266D01*
X260719Y200228D01*
X260256Y199918D01*
X255434Y195097D01*
X254972Y195289D01*
Y204566D01*
X261950Y211543D01*
X269205D01*
Y217276D01*
X263710D01*
X263559Y217776D01*
X263741Y217898D01*
X265577Y219734D01*
X265887Y220197D01*
X265996Y220744D01*
Y221543D01*
X269205D01*
Y227276D01*
X259929D01*
Y221543D01*
X262638D01*
X262845Y221043D01*
X262139Y220337D01*
X261266D01*
X260719Y220228D01*
X260256Y219918D01*
X260256Y219918D01*
X251497Y211160D01*
X251035Y211351D01*
Y228740D01*
X295539D01*
Y129665D01*
X295648Y129119D01*
X295958Y128655D01*
X296422Y128345D01*
X296969Y128236D01*
X298031D01*
Y118422D01*
X297569Y118231D01*
X284437Y131364D01*
X283973Y131673D01*
X283426Y131782D01*
X279172D01*
X269305Y141648D01*
X269497Y142110D01*
X270903D01*
Y143738D01*
X268094D01*
Y143513D01*
X267633Y143321D01*
X266511Y144443D01*
X266047Y144753D01*
X265501Y144861D01*
X252435D01*
X250688Y146609D01*
X250879Y147071D01*
X251685D01*
Y147370D01*
X253354D01*
Y148441D01*
X253693Y148863D01*
X261417D01*
X262003Y148979D01*
X262500Y149311D01*
X263626Y150437D01*
X268394D01*
Y149890D01*
X274913D01*
Y150437D01*
X276100D01*
X276746Y150006D01*
X277558Y149845D01*
X278371Y150006D01*
X279060Y150466D01*
X279520Y151155D01*
X279682Y151968D01*
X279520Y152781D01*
X279060Y153470D01*
X278371Y153930D01*
X277558Y154091D01*
X276746Y153930D01*
X276102Y153499D01*
X274913D01*
Y154047D01*
X268394D01*
Y153499D01*
X262992D01*
X262406Y153383D01*
X261910Y153051D01*
X260783Y151925D01*
X253852D01*
X253654Y151964D01*
X253354D01*
Y153496D01*
X251685D01*
Y153795D01*
X250845D01*
Y153496D01*
X250771D01*
Y151203D01*
X250648Y151019D01*
X250532Y150433D01*
X249628D01*
X249537Y150890D01*
X249417Y151068D01*
Y153496D01*
X249344D01*
Y153795D01*
X248504D01*
Y153496D01*
X229118D01*
Y151862D01*
X226750D01*
X226203Y151753D01*
X225739Y151444D01*
X225739Y151444D01*
X220249Y145954D01*
X219940Y145490D01*
X219831Y144943D01*
Y143282D01*
X219758Y143234D01*
X219298Y142545D01*
X219136Y141732D01*
X219298Y140920D01*
X219758Y140231D01*
X220447Y139770D01*
X221260Y139609D01*
X222073Y139770D01*
X222761Y140231D01*
X223222Y140920D01*
X223383Y141732D01*
X223222Y142545D01*
X222761Y143234D01*
X222689Y143282D01*
Y144351D01*
X227342Y149004D01*
X229118D01*
Y147370D01*
X230003D01*
X230194Y146908D01*
X229203Y145917D01*
X228145D01*
X227598Y145808D01*
X227134Y145499D01*
X226549Y144913D01*
X226239Y144449D01*
X226130Y143902D01*
Y142365D01*
X225308D01*
Y137163D01*
X229810D01*
Y142365D01*
X228988D01*
Y143059D01*
X229795D01*
X230342Y143168D01*
X230748Y143439D01*
X230965Y143382D01*
X231248Y143213D01*
Y142365D01*
X230426D01*
Y137163D01*
X234928D01*
Y142365D01*
X234106D01*
Y143067D01*
X235357Y144318D01*
X235357Y144318D01*
X235667Y144782D01*
X235775Y145328D01*
X235775Y145329D01*
Y146930D01*
X235943Y146982D01*
X236368Y146591D01*
X236366Y146583D01*
Y142365D01*
X235544D01*
Y137163D01*
X240046D01*
Y142365D01*
X239224D01*
Y143707D01*
X239724Y143914D01*
X240841Y142797D01*
X240663Y142365D01*
X240663D01*
Y137163D01*
X245164D01*
X245164Y137163D01*
Y137163D01*
X245664Y137198D01*
X245743Y137081D01*
X246431Y136621D01*
X247244Y136459D01*
X248057Y136621D01*
X248746Y137081D01*
X249206Y137770D01*
X249332Y138407D01*
X249832Y138614D01*
X250933Y137513D01*
Y136221D01*
X251042Y135674D01*
X251352Y135210D01*
X258414Y128148D01*
Y99854D01*
X255512D01*
X254965Y99745D01*
X254501Y99436D01*
X254354Y99289D01*
X253854Y99496D01*
Y100273D01*
X250652D01*
Y99039D01*
X253397D01*
X253605Y98539D01*
X249014Y93949D01*
X224409D01*
X223863Y93840D01*
X223399Y93530D01*
X223399Y93530D01*
X211613Y81744D01*
X162598D01*
X162051Y81635D01*
X161588Y81325D01*
X144265Y64003D01*
X143955Y63539D01*
X143847Y62992D01*
Y27444D01*
X143219D01*
Y28616D01*
X138718D01*
Y23622D01*
X133945D01*
Y25591D01*
X138259Y29905D01*
X138718Y29715D01*
Y29715D01*
X143219D01*
Y34916D01*
X138718D01*
Y34254D01*
X137927D01*
X137185Y34107D01*
X136556Y33686D01*
X130635Y27766D01*
X130215Y27136D01*
X130068Y26395D01*
Y23622D01*
X118504D01*
X116929Y25197D01*
Y30263D01*
X141955Y55289D01*
X141955Y55289D01*
X142265Y55752D01*
X142374Y56299D01*
Y66461D01*
X142721Y66981D01*
X142868Y67716D01*
X142721Y68452D01*
X142305Y69076D01*
X141681Y69493D01*
X140945Y69639D01*
X140209Y69493D01*
X139585Y69076D01*
X139169Y68452D01*
X139022Y67716D01*
X139169Y66981D01*
X139516Y66461D01*
Y56891D01*
X117391Y34766D01*
X116929Y34958D01*
Y102329D01*
X116929Y102586D01*
X117323Y102829D01*
X117393Y102843D01*
X117596Y102883D01*
X117828Y103038D01*
X123721Y108931D01*
X128740Y108931D01*
X129014Y108985D01*
X129245Y109140D01*
X131792Y111687D01*
X131947Y111919D01*
X132001Y112192D01*
Y113154D01*
Y126735D01*
X132134Y145598D01*
X132133Y145603D01*
X132134Y145608D01*
X132106Y145740D01*
X132081Y145871D01*
X132078Y145876D01*
X132077Y145881D01*
X131541Y147148D01*
X131465Y147259D01*
X131389Y147372D01*
X125622Y153178D01*
X125620Y153180D01*
X125618Y153183D01*
X122354Y156408D01*
X121729Y157041D01*
X121925Y157501D01*
X132031Y157394D01*
X137967Y152960D01*
X137967Y145965D01*
X138021Y145691D01*
X138176Y145459D01*
X138670Y144966D01*
X138697Y144947D01*
X138718Y144922D01*
X140846Y143151D01*
X140940Y143100D01*
X141029Y143041D01*
X141062Y143034D01*
X141091Y143018D01*
X141198Y143007D01*
X141303Y142986D01*
X144961D01*
X145019Y142998D01*
X145079Y142996D01*
X145155Y143025D01*
X145234Y143041D01*
X145284Y143074D01*
X145339Y143095D01*
X146442Y143784D01*
X146501Y143839D01*
X146568Y143885D01*
X146601Y143934D01*
X146645Y143975D01*
X146678Y144049D01*
X146723Y144116D01*
X146735Y144175D01*
X146759Y144229D01*
X146762Y144310D01*
X146777Y144390D01*
X146777Y154818D01*
X146773Y154842D01*
X146776Y154867D01*
X146746Y154978D01*
X146723Y155092D01*
X146710Y155112D01*
X146703Y155136D01*
X146051Y156451D01*
X146036Y156471D01*
X146028Y156494D01*
X145951Y156580D01*
X145880Y156672D01*
X145859Y156684D01*
X145843Y156703D01*
X135644Y164454D01*
X135539Y164505D01*
X135438Y164563D01*
X133605Y165176D01*
X133490Y165191D01*
X133376Y165213D01*
X133373Y165213D01*
X133019Y165566D01*
Y167065D01*
X130468D01*
Y167815D01*
X129718D01*
Y170715D01*
X127999D01*
X127527Y170783D01*
X127447Y170783D01*
X126133D01*
X125865Y171283D01*
X126070Y171590D01*
X126090Y171691D01*
X121941D01*
X121961Y171590D01*
X122166Y171283D01*
X121899Y170783D01*
X120409D01*
Y169156D01*
X123969D01*
Y168405D01*
X124718D01*
Y166027D01*
X127418D01*
X127527Y166027D01*
X127919Y165764D01*
Y165192D01*
X119455Y165159D01*
X119435Y165252D01*
X119409Y165383D01*
X119406Y165388D01*
X119404Y165394D01*
X119328Y165504D01*
X119254Y165614D01*
X117730Y167139D01*
X117498Y167294D01*
X117224Y167348D01*
X104035D01*
X103762Y167294D01*
X103530Y167139D01*
X101957Y165566D01*
X101883Y165455D01*
X101807Y165346D01*
X101806Y165340D01*
X101802Y165334D01*
X101776Y165203D01*
X101748Y165073D01*
X101557Y154192D01*
X101564Y154155D01*
X101560Y154117D01*
X101588Y154019D01*
X101607Y153918D01*
X101627Y153886D01*
X101637Y153850D01*
X101702Y153769D01*
X101757Y153683D01*
X101788Y153662D01*
X101812Y153632D01*
X108245Y148229D01*
X115031Y142529D01*
X116355Y141292D01*
X116468Y141221D01*
X116580Y141149D01*
X116586Y141148D01*
X116592Y141145D01*
X116724Y141123D01*
X116855Y141100D01*
X116861Y141101D01*
X116867Y141100D01*
X116997Y141130D01*
X117127Y141158D01*
X117142Y141165D01*
X117642Y140837D01*
Y140480D01*
X124585D01*
X124587Y140477D01*
X124588Y140474D01*
X124663Y140361D01*
X124737Y140247D01*
X124741Y140245D01*
X124743Y140242D01*
X124856Y140166D01*
X124968Y140090D01*
X124971Y140089D01*
X124975Y140087D01*
X125108Y140060D01*
X125240Y140032D01*
X125264Y140032D01*
X125819Y139553D01*
X126710Y138661D01*
X126507Y128951D01*
X126002Y128748D01*
X125308Y129442D01*
X125077Y129597D01*
X124803Y129651D01*
X118331Y129651D01*
X118058Y129597D01*
X116505Y128954D01*
X116273Y128799D01*
X110912Y123438D01*
X110836Y123325D01*
X110762Y123272D01*
X110427Y123203D01*
X110246Y123201D01*
X103810Y128693D01*
X103713Y128748D01*
X103620Y128810D01*
X103592Y128815D01*
X103567Y128829D01*
X103456Y128842D01*
X103347Y128864D01*
X103068D01*
X102843Y129364D01*
X103880Y130529D01*
X103940Y130632D01*
X104007Y130730D01*
X104011Y130751D01*
X104021Y130769D01*
X104038Y130887D01*
X104061Y131004D01*
Y133169D01*
X104056Y133194D01*
X104059Y133220D01*
X104029Y133330D01*
X104007Y133443D01*
X103992Y133464D01*
X103986Y133488D01*
X103915Y133579D01*
X103852Y133675D01*
X103831Y133689D01*
X103815Y133709D01*
X102695Y134681D01*
X102882Y135181D01*
X103595D01*
Y136415D01*
X95689D01*
Y135181D01*
X95265Y134997D01*
X93455Y134990D01*
X93200Y135489D01*
Y137534D01*
X90650D01*
X88100D01*
Y135470D01*
X88100Y135384D01*
X87893Y134970D01*
X87005Y134967D01*
X81595Y134967D01*
X81510Y134950D01*
X81425Y134946D01*
X81375Y134923D01*
X81321Y134912D01*
X81250Y134864D01*
X81172Y134828D01*
X79696Y133746D01*
X79659Y133705D01*
X79613Y133675D01*
X79565Y133603D01*
X79507Y133540D01*
X79488Y133488D01*
X79458Y133443D01*
X79441Y133359D01*
X79412Y133278D01*
X79414Y133223D01*
X79404Y133169D01*
Y130561D01*
X79404Y129035D01*
X79458Y128762D01*
X79613Y128530D01*
X80930Y127213D01*
X80979Y127140D01*
X81051Y127092D01*
X81581Y126562D01*
X81813Y126407D01*
X82087Y126352D01*
X91959Y126352D01*
X92066Y126374D01*
X92174Y126385D01*
X92202Y126401D01*
X92233Y126407D01*
X92323Y126467D01*
X92418Y126519D01*
X92438Y126544D01*
X92465Y126562D01*
X92525Y126652D01*
X92593Y126736D01*
X93225Y127949D01*
X94248Y128642D01*
X95464Y128665D01*
X95674Y128169D01*
X95437Y127934D01*
X95405Y127887D01*
X95364Y127850D01*
X95290Y127750D01*
X95254Y127672D01*
X95206Y127600D01*
X95195Y127547D01*
X95172Y127497D01*
X95168Y127411D01*
X95152Y127327D01*
X95152Y125394D01*
X95206Y125120D01*
X95361Y124888D01*
X96148Y124101D01*
X96380Y123946D01*
X96653Y123892D01*
X101254D01*
Y118825D01*
X89764D01*
X89490Y118770D01*
X89258Y118615D01*
X86896Y116253D01*
X86741Y116022D01*
X86687Y115748D01*
Y112205D01*
X86187Y112053D01*
X85825Y112596D01*
X85103Y113078D01*
X85002Y113098D01*
Y111024D01*
Y108949D01*
X85103Y108969D01*
X85825Y109451D01*
X86187Y109994D01*
X86687Y109842D01*
Y107087D01*
X86741Y106813D01*
X86896Y106581D01*
X90260Y103218D01*
X90069Y102756D01*
X59689D01*
Y105520D01*
X59689Y105520D01*
X59580Y106067D01*
X59270Y106530D01*
X54948Y110853D01*
X54595Y111089D01*
X54504Y111150D01*
X54496Y111187D01*
X54622Y111650D01*
X54783Y111650D01*
X54783Y111650D01*
X54800Y111650D01*
X60055D01*
Y111986D01*
X61234D01*
Y111867D01*
X65735D01*
Y117069D01*
X61234D01*
Y115864D01*
X60055D01*
Y116201D01*
X54323D01*
Y112070D01*
X54323Y111705D01*
X54117Y111245D01*
X54013Y111256D01*
X53937Y111272D01*
X53539Y111272D01*
X51156D01*
X51108Y111344D01*
X50419Y111804D01*
X49606Y111966D01*
X48794Y111804D01*
X48105Y111344D01*
X47644Y110655D01*
X47483Y109843D01*
X47644Y109030D01*
X47895Y108655D01*
X48071Y108268D01*
X47895Y107880D01*
X47644Y107506D01*
X47483Y106693D01*
X47644Y105880D01*
X48105Y105191D01*
X48794Y104731D01*
X49606Y104569D01*
X50419Y104731D01*
X51108Y105191D01*
X51156Y105264D01*
X51770D01*
X51831Y105203D01*
Y102756D01*
X3543D01*
X1969Y104331D01*
Y177413D01*
X2468Y177660D01*
X3114Y177165D01*
X4339Y176657D01*
X5654Y176484D01*
X6968Y176657D01*
X8193Y177165D01*
X9245Y177972D01*
X10052Y179024D01*
X10559Y180248D01*
X10732Y181563D01*
X10559Y182878D01*
X10052Y184102D01*
X9245Y185154D01*
X8193Y185961D01*
X6968Y186469D01*
X5654Y186642D01*
X4339Y186469D01*
X3114Y185961D01*
X2468Y185466D01*
X1969Y185713D01*
X1969Y205796D01*
X2468Y205948D01*
X2758Y205514D01*
X3480Y205032D01*
X3581Y205012D01*
Y207087D01*
Y209161D01*
X3480Y209141D01*
X2758Y208659D01*
X2468Y208225D01*
X1969Y208377D01*
Y291338D01*
X29528Y291339D01*
X102756Y290945D01*
D02*
G37*
G36*
X231201Y186961D02*
X231087D01*
Y181480D01*
X231004Y181398D01*
X229823D01*
X229626Y181595D01*
Y191732D01*
X229331Y191892D01*
X224004D01*
X218935Y191892D01*
X202928D01*
X200970Y189934D01*
X200508Y190125D01*
Y190490D01*
X196949D01*
Y191240D01*
X196199D01*
Y193618D01*
X191006D01*
Y191240D01*
X190256D01*
Y190490D01*
X186697D01*
Y189079D01*
X186294D01*
X186294Y166964D01*
X176024Y156693D01*
X173858Y156693D01*
X173689Y157193D01*
X174102Y157810D01*
X174122Y157911D01*
X169973D01*
X169993Y157810D01*
X170405Y157193D01*
X170236Y156693D01*
X169134D01*
X165422Y152981D01*
X165422Y132942D01*
X164591Y132110D01*
X164091Y132317D01*
Y132714D01*
X161024D01*
X157957D01*
Y132514D01*
X157457Y132307D01*
X156749Y133015D01*
Y154249D01*
X157040Y154628D01*
X157544Y155132D01*
X158050Y154930D01*
X158182Y154267D01*
X158664Y153546D01*
X159385Y153064D01*
X159486Y153043D01*
Y155118D01*
X160236D01*
Y155868D01*
X162311D01*
X162291Y155969D01*
X161809Y156691D01*
X161087Y157173D01*
X160424Y157305D01*
X160222Y157810D01*
X161481Y159069D01*
X161987Y158868D01*
X162119Y158204D01*
X162601Y157483D01*
X163322Y157001D01*
X163423Y156981D01*
Y159055D01*
X164173D01*
Y159805D01*
X166248D01*
X166228Y159906D01*
X165746Y160628D01*
X165024Y161110D01*
X164361Y161242D01*
X164159Y161747D01*
X165418Y163006D01*
X165924Y162804D01*
X166056Y162141D01*
X166538Y161420D01*
X167259Y160938D01*
X167360Y160917D01*
Y162992D01*
X168110D01*
Y163742D01*
X170185D01*
X170165Y163843D01*
X169763Y164445D01*
X169942Y164947D01*
X174204Y164981D01*
X174357Y164483D01*
X173930Y163843D01*
X173910Y163742D01*
X178059D01*
X178039Y163843D01*
X177557Y164565D01*
X177483Y164614D01*
X177453Y165235D01*
X180192Y167975D01*
X180192Y193368D01*
X183047Y196223D01*
X219169D01*
X223024Y196223D01*
X231201Y196223D01*
Y186961D01*
D02*
G37*
G36*
X118749Y165109D02*
X118761Y164442D01*
X133378Y164499D01*
X135211Y163885D01*
X145410Y156134D01*
X146063Y154818D01*
X146063Y144390D01*
X144961Y143701D01*
X141303D01*
X139175Y145471D01*
X138681Y145965D01*
X138681Y153318D01*
X132272Y158106D01*
X119540Y158241D01*
X121848Y155903D01*
X125115Y152674D01*
X130883Y146869D01*
X131419Y145603D01*
X131287Y126737D01*
Y113154D01*
Y112192D01*
X128740Y109646D01*
X123425Y109646D01*
X117323Y103543D01*
X113484D01*
X111710Y105022D01*
Y116732D01*
X112598Y117864D01*
X117667D01*
X120472Y115396D01*
X120473Y113091D01*
X121251Y112312D01*
X126092D01*
X127147Y113367D01*
X127147Y125403D01*
X127431Y138951D01*
X126305Y140076D01*
X125534Y140744D01*
X125248Y140747D01*
Y141415D01*
X121295D01*
Y142165D01*
X120545D01*
Y144150D01*
X117342D01*
Y142031D01*
X116842Y141814D01*
X115505Y143064D01*
X108705Y148776D01*
X102271Y154179D01*
X102462Y165061D01*
X104035Y166634D01*
X117224D01*
X118749Y165109D01*
D02*
G37*
G36*
X103347Y133169D02*
Y131004D01*
X101945Y129429D01*
X98032Y129429D01*
X94023Y129352D01*
X92675Y128440D01*
X91959Y127067D01*
X82087Y127067D01*
X80118Y129035D01*
X80118Y130561D01*
Y133169D01*
X81595Y134252D01*
X87008Y134252D01*
X102036Y134307D01*
X103347Y133169D01*
D02*
G37*
G36*
X125886Y127854D02*
X125886Y125591D01*
X124803Y124508D01*
X116929D01*
Y119882D01*
X115945Y118898D01*
X112205D01*
X111417Y119685D01*
Y122933D01*
X116778Y128294D01*
X118331Y128937D01*
X124803Y128937D01*
X125886Y127854D01*
D02*
G37*
G36*
X275325Y126942D02*
X275789Y126632D01*
X276336Y126524D01*
X276336Y126524D01*
X281692D01*
X289533Y118682D01*
X289341Y118220D01*
X284929D01*
Y118080D01*
X284362D01*
Y118220D01*
X277842D01*
Y117962D01*
X271555D01*
X270813Y117815D01*
X270654Y117708D01*
X267902D01*
Y114338D01*
X270654D01*
X270813Y114232D01*
X271555Y114084D01*
X277842D01*
Y114063D01*
X284362D01*
Y114203D01*
X284929D01*
Y114063D01*
X288707D01*
X290755Y112015D01*
X291353Y111616D01*
X291384Y111595D01*
X291465Y111539D01*
X291313Y111042D01*
X291259Y111039D01*
X291267Y111039D01*
X291313Y111041D01*
X291313Y111041D01*
X291267Y111039D01*
X291267Y111039D01*
X291259Y111039D01*
X288939D01*
Y109411D01*
X291748D01*
Y110596D01*
X291748Y110598D01*
Y110598D01*
X291748Y111012D01*
X291756Y111059D01*
X291816Y111124D01*
X292314Y111381D01*
X292913Y111262D01*
X293726Y111424D01*
X293799Y111473D01*
X294240Y111237D01*
Y75587D01*
X290555Y71902D01*
X285027D01*
X284938Y72118D01*
X284414Y72800D01*
X284091Y73048D01*
Y73678D01*
X284485Y73980D01*
X285023Y74682D01*
X285362Y75500D01*
X285379Y75628D01*
X281102D01*
X276826D01*
X276842Y75500D01*
X277181Y74682D01*
X277720Y73980D01*
X278113Y73678D01*
Y73048D01*
X277790Y72800D01*
X277267Y72118D01*
X276938Y71324D01*
X276826Y70472D01*
X276938Y69620D01*
X277267Y68827D01*
X277790Y68145D01*
X278207Y67825D01*
Y67214D01*
X277790Y66895D01*
X277267Y66213D01*
X276938Y65419D01*
X276826Y64567D01*
X276938Y63715D01*
X277267Y62921D01*
X277790Y62239D01*
X278207Y61919D01*
Y61309D01*
X277790Y60989D01*
X277267Y60307D01*
X276938Y59513D01*
X276826Y58661D01*
X276938Y57809D01*
X277267Y57015D01*
X277790Y56334D01*
X278207Y56014D01*
Y55403D01*
X277790Y55084D01*
X277267Y54402D01*
X276938Y53608D01*
X276826Y52756D01*
X276938Y51904D01*
X277267Y51110D01*
X277790Y50428D01*
X278472Y49905D01*
X279266Y49576D01*
X280118Y49464D01*
X282087D01*
X282939Y49576D01*
X283733Y49905D01*
X284414Y50428D01*
X284938Y51110D01*
X285266Y51904D01*
X285379Y52756D01*
X285266Y53608D01*
X284938Y54402D01*
X284414Y55084D01*
X283998Y55403D01*
Y56014D01*
X284414Y56334D01*
X284802Y56839D01*
X291732D01*
X292279Y56947D01*
X292743Y57257D01*
X297569Y62084D01*
X298031Y61893D01*
Y7874D01*
X298031Y3937D01*
X295669Y1575D01*
X146850D01*
X144488Y3937D01*
Y23622D01*
X143219D01*
Y24586D01*
X144519D01*
X145066Y24695D01*
X145530Y25005D01*
X146286Y25761D01*
X146596Y26225D01*
X146705Y26772D01*
Y62400D01*
X163190Y78886D01*
X212205D01*
X212752Y78995D01*
X213215Y79304D01*
X225001Y91091D01*
X228397D01*
X228549Y90591D01*
X228168Y90336D01*
X227751Y89712D01*
X227605Y88976D01*
X227751Y88241D01*
X228168Y87617D01*
X228792Y87200D01*
X229528Y87054D01*
X230263Y87200D01*
X230783Y87547D01*
X249663D01*
X249854Y87085D01*
X248806Y86037D01*
X248651Y85805D01*
X248597Y85532D01*
Y81398D01*
X248651Y81124D01*
X248806Y80892D01*
X250245Y79453D01*
X250038Y78953D01*
X249984D01*
Y77325D01*
X253543D01*
Y76575D01*
X254293D01*
Y74197D01*
X259486D01*
Y76575D01*
X260986D01*
Y74197D01*
X266179D01*
Y76575D01*
X266929D01*
Y77325D01*
X270488D01*
X270488Y78953D01*
X270965Y79010D01*
X277270D01*
X277516Y78510D01*
X277181Y78074D01*
X276842Y77256D01*
X276826Y77128D01*
X281102D01*
X285379D01*
X285362Y77256D01*
X285023Y78074D01*
X284689Y78510D01*
X284935Y79010D01*
X284941D01*
X285214Y79064D01*
X285446Y79219D01*
X286430Y80203D01*
X286585Y80435D01*
X286640Y80709D01*
X286640Y86516D01*
X286585Y86789D01*
X286430Y87021D01*
X285450Y88001D01*
X285336Y88077D01*
X285223Y88154D01*
X285220Y88155D01*
X285219Y88156D01*
X285085Y88182D01*
X284949Y88210D01*
X268293Y88311D01*
X267742Y88679D01*
X266929Y88841D01*
X266116Y88679D01*
X265589Y88327D01*
X261539Y88352D01*
X261049Y88679D01*
X260236Y88841D01*
X259424Y88679D01*
X258956Y88367D01*
X254785Y88393D01*
X254356Y88679D01*
X253543Y88841D01*
X253323Y88797D01*
X253077Y89258D01*
X256877Y93059D01*
X288976D01*
X289523Y93168D01*
X289987Y93478D01*
X293011Y96502D01*
X293321Y96966D01*
X293430Y97513D01*
Y101001D01*
X293434Y101023D01*
X293296Y101721D01*
X292900Y102312D01*
X292309Y102707D01*
X291612Y102846D01*
X290969Y102718D01*
X290860Y102744D01*
X290469Y103011D01*
Y103274D01*
X285268D01*
Y98772D01*
X290469D01*
X290572Y98315D01*
Y98105D01*
X288384Y95917D01*
X256286D01*
X256286Y95917D01*
X255739Y95808D01*
X255390Y95576D01*
X255072Y95964D01*
X256104Y96996D01*
X259257D01*
X259804Y97105D01*
X260267Y97415D01*
X260853Y98001D01*
X261163Y98464D01*
X261272Y99011D01*
Y128740D01*
X261163Y129287D01*
X260853Y129751D01*
X253791Y136812D01*
Y138105D01*
X253791Y138105D01*
X253682Y138652D01*
X253373Y139116D01*
X252647Y139841D01*
X252838Y140303D01*
X261965D01*
X275325Y126942D01*
D02*
G37*
G36*
X109929Y122532D02*
Y105135D01*
X108340Y103248D01*
X103839Y103248D01*
X91240D01*
X87402Y107087D01*
Y115748D01*
X89764Y118110D01*
X101969D01*
Y124606D01*
X96653D01*
X95866Y125394D01*
X95866Y127327D01*
X95939Y127426D01*
X96670Y128150D01*
X102067Y128150D01*
X103347D01*
X109929Y122532D01*
D02*
G37*
G36*
X284945Y87496D02*
X285925Y86516D01*
X285925Y80709D01*
X284941Y79724D01*
X250984D01*
X249311Y81398D01*
Y85532D01*
X251478Y87698D01*
X284945Y87496D01*
D02*
G37*
G36*
X79921Y71260D02*
Y48819D01*
X77559Y46850D01*
X52756D01*
X46850Y40945D01*
X40157Y40945D01*
Y1969D01*
X33858D01*
X33071Y2756D01*
X33071Y50394D01*
X56693Y74016D01*
X58661Y74016D01*
X77165Y74016D01*
X79921Y71260D01*
D02*
G37*
G36*
X50394Y26147D02*
X52308Y23283D01*
X55118Y20472D01*
X60236D01*
X61811Y18898D01*
Y16142D01*
X61024Y15354D01*
X50000D01*
X49213Y16142D01*
Y23228D01*
X46457Y25984D01*
Y34646D01*
X50394D01*
X50394Y26147D01*
D02*
G37*
G36*
X45276Y25754D02*
X45948Y24131D01*
X47343Y22736D01*
Y14567D01*
X52362Y14567D01*
X53543Y13386D01*
Y10236D01*
X53543Y5906D01*
X55118Y4331D01*
Y3667D01*
X52569Y2362D01*
X51863Y2362D01*
X46457Y2362D01*
X43307Y2362D01*
X42126Y3543D01*
X42126Y25984D01*
X41339Y26772D01*
Y35039D01*
X45276D01*
X45276Y25754D01*
D02*
G37*
G36*
X378740Y125000D02*
Y4921D01*
X375590Y1772D01*
X304331Y1772D01*
X301181Y4921D01*
X301181Y125787D01*
X302756Y127362D01*
X305906Y127362D01*
X376378D01*
X378740Y125000D01*
D02*
G37*
%LPC*%
G36*
X18860Y283621D02*
Y279490D01*
X22991D01*
X22920Y280029D01*
X22423Y281230D01*
X21631Y282261D01*
X20600Y283053D01*
X19399Y283550D01*
X18860Y283621D01*
D02*
G37*
G36*
X17360D02*
X16821Y283550D01*
X15620Y283053D01*
X14589Y282261D01*
X13798Y281230D01*
X13300Y280029D01*
X13229Y279490D01*
X17360D01*
Y283621D01*
D02*
G37*
G36*
X22991Y277990D02*
X18860D01*
Y273859D01*
X19399Y273930D01*
X20600Y274428D01*
X21631Y275219D01*
X22423Y276250D01*
X22920Y277451D01*
X22991Y277990D01*
D02*
G37*
G36*
X17360D02*
X13229D01*
X13300Y277451D01*
X13798Y276250D01*
X14589Y275219D01*
X15620Y274428D01*
X16821Y273930D01*
X17360Y273859D01*
Y277990D01*
D02*
G37*
G36*
X18860Y245775D02*
Y244451D01*
X20185D01*
X20165Y244552D01*
X19683Y245273D01*
X18961Y245755D01*
X18860Y245775D01*
D02*
G37*
G36*
X17360D02*
X17259Y245755D01*
X16538Y245273D01*
X16056Y244552D01*
X16036Y244451D01*
X17360D01*
Y245775D01*
D02*
G37*
G36*
X20185Y242951D02*
X18860D01*
Y241626D01*
X18961Y241646D01*
X19683Y242128D01*
X20165Y242850D01*
X20185Y242951D01*
D02*
G37*
G36*
X17360D02*
X16036D01*
X16056Y242850D01*
X16538Y242128D01*
X17259Y241646D01*
X17360Y241626D01*
Y242951D01*
D02*
G37*
G36*
X26734Y237901D02*
Y236577D01*
X28059D01*
X28039Y236678D01*
X27557Y237399D01*
X26835Y237881D01*
X26734Y237901D01*
D02*
G37*
G36*
X25234D02*
X25133Y237881D01*
X24412Y237399D01*
X23930Y236678D01*
X23910Y236577D01*
X25234D01*
Y237901D01*
D02*
G37*
G36*
X18876Y240546D02*
Y236415D01*
X23007D01*
X22936Y236954D01*
X22438Y238155D01*
X21647Y239187D01*
X20616Y239978D01*
X19415Y240475D01*
X18876Y240546D01*
D02*
G37*
G36*
X17376D02*
X16837Y240475D01*
X15636Y239978D01*
X14605Y239187D01*
X13814Y238155D01*
X13316Y236954D01*
X13245Y236415D01*
X17376D01*
Y240546D01*
D02*
G37*
G36*
X28059Y235077D02*
X26734D01*
Y233752D01*
X26835Y233772D01*
X27557Y234254D01*
X28039Y234976D01*
X28059Y235077D01*
D02*
G37*
G36*
X25234D02*
X23910D01*
X23930Y234976D01*
X24412Y234254D01*
X25133Y233772D01*
X25234Y233752D01*
Y235077D01*
D02*
G37*
G36*
X23007Y234915D02*
X18876D01*
Y230785D01*
X19415Y230855D01*
X20616Y231353D01*
X21647Y232144D01*
X22438Y233176D01*
X22936Y234377D01*
X23007Y234915D01*
D02*
G37*
G36*
X17376D02*
X13245D01*
X13316Y234377D01*
X13814Y233176D01*
X14605Y232144D01*
X15636Y231353D01*
X16837Y230855D01*
X17376Y230785D01*
Y234915D01*
D02*
G37*
G36*
X229097Y225697D02*
Y224372D01*
X230421D01*
X230401Y224473D01*
X229919Y225195D01*
X229198Y225677D01*
X229097Y225697D01*
D02*
G37*
G36*
X227596D02*
X227495Y225677D01*
X226774Y225195D01*
X226292Y224473D01*
X226272Y224372D01*
X227596D01*
Y225697D01*
D02*
G37*
G36*
X208624Y225303D02*
Y223978D01*
X209949D01*
X209929Y224079D01*
X209447Y224801D01*
X208725Y225283D01*
X208624Y225303D01*
D02*
G37*
G36*
X207124D02*
X207023Y225283D01*
X206301Y224801D01*
X205820Y224079D01*
X205799Y223978D01*
X207124D01*
Y225303D01*
D02*
G37*
G36*
X200750D02*
Y223978D01*
X202075D01*
X202055Y224079D01*
X201572Y224801D01*
X200851Y225283D01*
X200750Y225303D01*
D02*
G37*
G36*
X199250D02*
X199149Y225283D01*
X198427Y224801D01*
X197945Y224079D01*
X197925Y223978D01*
X199250D01*
Y225303D01*
D02*
G37*
G36*
X169254D02*
Y223978D01*
X170579D01*
X170559Y224079D01*
X170076Y224801D01*
X169355Y225283D01*
X169254Y225303D01*
D02*
G37*
G36*
X167754D02*
X167653Y225283D01*
X166931Y224801D01*
X166449Y224079D01*
X166429Y223978D01*
X167754D01*
Y225303D01*
D02*
G37*
G36*
X161380D02*
Y223978D01*
X162705D01*
X162685Y224079D01*
X162202Y224801D01*
X161481Y225283D01*
X161380Y225303D01*
D02*
G37*
G36*
X159880D02*
X159779Y225283D01*
X159057Y224801D01*
X158575Y224079D01*
X158555Y223978D01*
X159880D01*
Y225303D01*
D02*
G37*
G36*
X21222Y224909D02*
Y223585D01*
X22547D01*
X22527Y223686D01*
X22045Y224407D01*
X21324Y224889D01*
X21222Y224909D01*
D02*
G37*
G36*
X19722D02*
X19621Y224889D01*
X18900Y224407D01*
X18418Y223686D01*
X18398Y223585D01*
X19722D01*
Y224909D01*
D02*
G37*
G36*
X230421Y222872D02*
X229097D01*
Y221547D01*
X229198Y221568D01*
X229919Y222049D01*
X230401Y222771D01*
X230421Y222872D01*
D02*
G37*
G36*
X227596D02*
X226272D01*
X226292Y222771D01*
X226774Y222049D01*
X227495Y221568D01*
X227596Y221547D01*
Y222872D01*
D02*
G37*
G36*
X209949Y222478D02*
X208624D01*
Y221154D01*
X208725Y221174D01*
X209447Y221656D01*
X209929Y222377D01*
X209949Y222478D01*
D02*
G37*
G36*
X207124D02*
X205799D01*
X205820Y222377D01*
X206301Y221656D01*
X207023Y221174D01*
X207124Y221154D01*
Y222478D01*
D02*
G37*
G36*
X202075D02*
X200750D01*
Y221154D01*
X200851Y221174D01*
X201572Y221656D01*
X202055Y222377D01*
X202075Y222478D01*
D02*
G37*
G36*
X199250D02*
X197925D01*
X197945Y222377D01*
X198427Y221656D01*
X199149Y221174D01*
X199250Y221154D01*
Y222478D01*
D02*
G37*
G36*
X170579D02*
X169254D01*
Y221154D01*
X169355Y221174D01*
X170076Y221656D01*
X170559Y222377D01*
X170579Y222478D01*
D02*
G37*
G36*
X167754D02*
X166429D01*
X166449Y222377D01*
X166931Y221656D01*
X167653Y221174D01*
X167754Y221154D01*
Y222478D01*
D02*
G37*
G36*
X162705D02*
X161380D01*
Y221154D01*
X161481Y221174D01*
X162202Y221656D01*
X162685Y222377D01*
X162705Y222478D01*
D02*
G37*
G36*
X159880D02*
X158555D01*
X158575Y222377D01*
X159057Y221656D01*
X159779Y221174D01*
X159880Y221154D01*
Y222478D01*
D02*
G37*
G36*
X22547Y222085D02*
X21222D01*
Y220760D01*
X21324Y220780D01*
X22045Y221262D01*
X22527Y221984D01*
X22547Y222085D01*
D02*
G37*
G36*
X19722D02*
X18398D01*
X18418Y221984D01*
X18900Y221262D01*
X19621Y220780D01*
X19722Y220760D01*
Y222085D01*
D02*
G37*
G36*
X227522Y213492D02*
Y212167D01*
X228846D01*
X228826Y212268D01*
X228344Y212990D01*
X227623Y213472D01*
X227522Y213492D01*
D02*
G37*
G36*
X226022D02*
X225921Y213472D01*
X225199Y212990D01*
X224717Y212268D01*
X224697Y212167D01*
X226022D01*
Y213492D01*
D02*
G37*
G36*
X211774D02*
Y212167D01*
X213098D01*
X213078Y212268D01*
X212596Y212990D01*
X211875Y213472D01*
X211774Y213492D01*
D02*
G37*
G36*
X210274D02*
X210173Y213472D01*
X209451Y212990D01*
X208969Y212268D01*
X208949Y212167D01*
X210274D01*
Y213492D01*
D02*
G37*
G36*
X196026D02*
Y212167D01*
X197350D01*
X197330Y212268D01*
X196848Y212990D01*
X196127Y213472D01*
X196026Y213492D01*
D02*
G37*
G36*
X194526D02*
X194425Y213472D01*
X193703Y212990D01*
X193221Y212268D01*
X193201Y212167D01*
X194526D01*
Y213492D01*
D02*
G37*
G36*
X228846Y210667D02*
X227522D01*
Y209343D01*
X227623Y209363D01*
X228344Y209845D01*
X228826Y210566D01*
X228846Y210667D01*
D02*
G37*
G36*
X226022D02*
X224697D01*
X224717Y210566D01*
X225199Y209845D01*
X225921Y209363D01*
X226022Y209343D01*
Y210667D01*
D02*
G37*
G36*
X213098D02*
X211774D01*
Y209343D01*
X211875Y209363D01*
X212596Y209845D01*
X213078Y210566D01*
X213098Y210667D01*
D02*
G37*
G36*
X210274D02*
X208949D01*
X208969Y210566D01*
X209451Y209845D01*
X210173Y209363D01*
X210274Y209343D01*
Y210667D01*
D02*
G37*
G36*
X197350D02*
X196026D01*
Y209343D01*
X196127Y209363D01*
X196848Y209845D01*
X197330Y210566D01*
X197350Y210667D01*
D02*
G37*
G36*
X194526D02*
X193201D01*
X193221Y210566D01*
X193703Y209845D01*
X194425Y209363D01*
X194526Y209343D01*
Y210667D01*
D02*
G37*
G36*
X40907Y209161D02*
Y207837D01*
X42232D01*
X42212Y207938D01*
X41730Y208659D01*
X41008Y209141D01*
X40907Y209161D01*
D02*
G37*
G36*
X39408D02*
X39307Y209141D01*
X38585Y208659D01*
X38103Y207938D01*
X38083Y207837D01*
X39408D01*
Y209161D01*
D02*
G37*
G36*
X5081D02*
Y207837D01*
X6405D01*
X6385Y207938D01*
X5903Y208659D01*
X5182Y209141D01*
X5081Y209161D01*
D02*
G37*
G36*
X33819Y215634D02*
X21364D01*
Y207707D01*
X33819D01*
Y215634D01*
D02*
G37*
G36*
X19864D02*
X7409D01*
Y207707D01*
X19864D01*
Y215634D01*
D02*
G37*
G36*
X235789Y207980D02*
Y206656D01*
X237114D01*
X237094Y206756D01*
X236612Y207478D01*
X235890Y207960D01*
X235789Y207980D01*
D02*
G37*
G36*
X234289D02*
X234188Y207960D01*
X233467Y207478D01*
X232985Y206756D01*
X232965Y206656D01*
X234289D01*
Y207980D01*
D02*
G37*
G36*
X42232Y206337D02*
X40907D01*
Y205012D01*
X41008Y205032D01*
X41730Y205514D01*
X42212Y206236D01*
X42232Y206337D01*
D02*
G37*
G36*
X39408D02*
X38083D01*
X38103Y206236D01*
X38585Y205514D01*
X39307Y205032D01*
X39408Y205012D01*
Y206337D01*
D02*
G37*
G36*
X6405D02*
X5081D01*
Y205012D01*
X5182Y205032D01*
X5903Y205514D01*
X6385Y206236D01*
X6405Y206337D01*
D02*
G37*
G36*
X237114Y205155D02*
X235789D01*
Y203831D01*
X235890Y203851D01*
X236612Y204333D01*
X237094Y205054D01*
X237114Y205155D01*
D02*
G37*
G36*
X234289D02*
X232965D01*
X232985Y205054D01*
X233467Y204333D01*
X234188Y203851D01*
X234289Y203831D01*
Y205155D01*
D02*
G37*
G36*
X231413Y204051D02*
X228604D01*
Y202423D01*
X231413D01*
Y204051D01*
D02*
G37*
G36*
X227104D02*
X224295D01*
Y202423D01*
X227104D01*
Y204051D01*
D02*
G37*
G36*
X237786Y202703D02*
X235986D01*
Y200554D01*
X237786D01*
Y202703D01*
D02*
G37*
G36*
X234486D02*
X232686D01*
Y200554D01*
X234486D01*
Y202703D01*
D02*
G37*
G36*
X231413Y200923D02*
X228604D01*
Y199295D01*
X231413D01*
Y200923D01*
D02*
G37*
G36*
X227104D02*
X224295D01*
Y199295D01*
X227104D01*
Y200923D01*
D02*
G37*
G36*
X101143Y209376D02*
X81010D01*
X80911Y209356D01*
X80810Y209347D01*
X80775Y209329D01*
X80737Y209321D01*
X80653Y209265D01*
X80563Y209219D01*
X80538Y209189D01*
X80505Y209167D01*
X80449Y209083D01*
X80384Y209005D01*
X79196Y206840D01*
X79185Y206802D01*
X79163Y206769D01*
X79143Y206670D01*
X79112Y206574D01*
X79116Y206535D01*
X79108Y206496D01*
Y200984D01*
X79163Y200711D01*
X79318Y200479D01*
X81089Y198707D01*
X81321Y198553D01*
X81595Y198498D01*
X100886D01*
X101159Y198553D01*
X101391Y198707D01*
X102621Y199938D01*
X102776Y200169D01*
X102831Y200443D01*
Y207382D01*
X102813Y207472D01*
X102807Y207564D01*
X102786Y207608D01*
X102776Y207655D01*
X102725Y207732D01*
X102685Y207815D01*
X101711Y209094D01*
X101675Y209126D01*
X101648Y209167D01*
X101571Y209218D01*
X101502Y209279D01*
X101456Y209295D01*
X101416Y209321D01*
X101326Y209339D01*
X101239Y209369D01*
X101190Y209366D01*
X101143Y209376D01*
D02*
G37*
G36*
X33819Y206207D02*
X21364D01*
Y198280D01*
X33819D01*
Y206207D01*
D02*
G37*
G36*
X19864D02*
X7409D01*
Y198280D01*
X19864D01*
Y206207D01*
D02*
G37*
G36*
X104232Y239199D02*
X93504D01*
X93230Y239144D01*
X92999Y238989D01*
X89849Y235840D01*
X89694Y235608D01*
X89640Y235335D01*
Y228445D01*
X89694Y228171D01*
X89849Y227940D01*
X93294Y224495D01*
X93526Y224340D01*
X93799Y224286D01*
X109153Y224286D01*
X125121Y208317D01*
X123904Y207100D01*
X123749Y206868D01*
X123695Y206594D01*
Y200984D01*
X123749Y200711D01*
X123904Y200479D01*
X126660Y197723D01*
X126892Y197568D01*
X127165Y197514D01*
X135236Y197514D01*
X135510Y197568D01*
X135741Y197723D01*
X137611Y199593D01*
X137766Y199825D01*
X137821Y200098D01*
X137821Y206594D01*
X137820Y206600D01*
X137821Y206605D01*
X137793Y206736D01*
X137766Y206868D01*
X137763Y206873D01*
X137762Y206878D01*
X137686Y206988D01*
X137611Y207100D01*
X137607Y207103D01*
X137604Y207107D01*
X104730Y238997D01*
X104617Y239070D01*
X104506Y239144D01*
X104500Y239145D01*
X104496Y239148D01*
X104364Y239173D01*
X104232Y239199D01*
D02*
G37*
G36*
X237786Y199054D02*
X235986D01*
Y196904D01*
X237786D01*
Y199054D01*
D02*
G37*
G36*
X234486D02*
X232686D01*
Y196904D01*
X234486D01*
Y199054D01*
D02*
G37*
G36*
X21222Y196957D02*
Y195632D01*
X22547D01*
X22527Y195733D01*
X22045Y196454D01*
X21324Y196936D01*
X21222Y196957D01*
D02*
G37*
G36*
X19722D02*
X19621Y196936D01*
X18900Y196454D01*
X18418Y195733D01*
X18398Y195632D01*
X19722D01*
Y196957D01*
D02*
G37*
G36*
X22547Y194132D02*
X21222D01*
Y192807D01*
X21324Y192827D01*
X22045Y193309D01*
X22527Y194031D01*
X22547Y194132D01*
D02*
G37*
G36*
X19722D02*
X18398D01*
X18418Y194031D01*
X18900Y193309D01*
X19621Y192827D01*
X19722Y192807D01*
Y194132D01*
D02*
G37*
G36*
X97600Y192626D02*
Y191301D01*
X98925D01*
X98905Y191402D01*
X98423Y192124D01*
X97701Y192606D01*
X97600Y192626D01*
D02*
G37*
G36*
X96100D02*
X95999Y192606D01*
X95278Y192124D01*
X94796Y191402D01*
X94776Y191301D01*
X96100D01*
Y192626D01*
D02*
G37*
G36*
X98925Y189801D02*
X97600D01*
Y188477D01*
X97701Y188497D01*
X98423Y188979D01*
X98905Y189700D01*
X98925Y189801D01*
D02*
G37*
G36*
X96100D02*
X94776D01*
X94796Y189700D01*
X95278Y188979D01*
X95999Y188497D01*
X96100Y188477D01*
Y189801D01*
D02*
G37*
G36*
X40392Y286504D02*
X34880D01*
X34606Y286450D01*
X34375Y286295D01*
X33568Y285488D01*
X33554Y285467D01*
X33535Y285453D01*
X31488Y283110D01*
X31430Y283010D01*
X31365Y282913D01*
X31361Y282890D01*
X31348Y282868D01*
X31334Y282753D01*
X31311Y282640D01*
Y233434D01*
X31365Y233161D01*
X32275Y230965D01*
X32430Y230733D01*
X57596Y205567D01*
X57611Y205557D01*
X57621Y205542D01*
X65955Y197989D01*
X66473Y197021D01*
X66473Y188128D01*
X66527Y187854D01*
X66682Y187623D01*
X68294Y186011D01*
X68526Y185856D01*
X68799Y185801D01*
X76059Y185801D01*
X76332Y185856D01*
X76564Y186011D01*
X77905Y187351D01*
X78060Y187583D01*
X78114Y187856D01*
X78114Y197994D01*
X78114Y207541D01*
X78060Y207815D01*
X77905Y208047D01*
X76625Y209326D01*
X76393Y209481D01*
X76120Y209536D01*
X67272D01*
X65408Y210308D01*
X44553Y231163D01*
X44256Y231879D01*
Y282640D01*
X44201Y282913D01*
X44047Y283145D01*
X40897Y286295D01*
X40665Y286450D01*
X40392Y286504D01*
D02*
G37*
G36*
X205868Y185933D02*
Y184608D01*
X207193D01*
X207173Y184709D01*
X206691Y185431D01*
X205969Y185913D01*
X205868Y185933D01*
D02*
G37*
G36*
X204368D02*
X204267Y185913D01*
X203546Y185431D01*
X203064Y184709D01*
X203044Y184608D01*
X204368D01*
Y185933D01*
D02*
G37*
G36*
X200508Y186138D02*
X197699D01*
Y184510D01*
X200508D01*
Y186138D01*
D02*
G37*
G36*
X101020Y186016D02*
X97719D01*
Y183404D01*
X101020D01*
Y186016D01*
D02*
G37*
G36*
X96219D02*
X92917D01*
Y183404D01*
X96219D01*
Y186016D01*
D02*
G37*
G36*
X24120Y190381D02*
Y182313D01*
X28350D01*
Y185500D01*
X28180Y186789D01*
X27683Y187990D01*
X26891Y189021D01*
X25860Y189813D01*
X24659Y190310D01*
X24120Y190381D01*
D02*
G37*
G36*
X22620D02*
X22081Y190310D01*
X20880Y189813D01*
X19849Y189021D01*
X19058Y187990D01*
X18560Y186789D01*
X18391Y185500D01*
Y182313D01*
X22620D01*
Y190381D01*
D02*
G37*
G36*
X36577Y183571D02*
Y182246D01*
X37901D01*
X37881Y182347D01*
X37399Y183069D01*
X36678Y183551D01*
X36577Y183571D01*
D02*
G37*
G36*
X35077D02*
X34976Y183551D01*
X34254Y183069D01*
X33772Y182347D01*
X33752Y182246D01*
X35077D01*
Y183571D01*
D02*
G37*
G36*
X276197Y184661D02*
X274569D01*
Y181852D01*
X276197D01*
Y184661D01*
D02*
G37*
G36*
X152718Y183177D02*
Y181852D01*
X154043D01*
X154023Y181953D01*
X153541Y182675D01*
X152820Y183157D01*
X152718Y183177D01*
D02*
G37*
G36*
X151218D02*
X151118Y183157D01*
X150396Y182675D01*
X149914Y181953D01*
X149894Y181852D01*
X151218D01*
Y183177D01*
D02*
G37*
G36*
X273069Y184661D02*
X271441D01*
Y181852D01*
X273069D01*
Y184661D01*
D02*
G37*
G36*
X207193Y183108D02*
X205868D01*
Y181784D01*
X205969Y181804D01*
X206691Y182286D01*
X207173Y183007D01*
X207193Y183108D01*
D02*
G37*
G36*
X204368D02*
X203044D01*
X203064Y183007D01*
X203546Y182286D01*
X204267Y181804D01*
X204368Y181784D01*
Y183108D01*
D02*
G37*
G36*
X200508Y183010D02*
X197699D01*
Y181382D01*
X200508D01*
Y183010D01*
D02*
G37*
G36*
X196199Y186138D02*
X191006D01*
Y183760D01*
Y181382D01*
X196199D01*
Y183760D01*
Y186138D01*
D02*
G37*
G36*
X37901Y180746D02*
X36577D01*
Y179421D01*
X36678Y179441D01*
X37399Y179924D01*
X37881Y180645D01*
X37901Y180746D01*
D02*
G37*
G36*
X35077D02*
X33752D01*
X33772Y180645D01*
X34254Y179924D01*
X34976Y179441D01*
X35077Y179421D01*
Y180746D01*
D02*
G37*
G36*
X101020Y181904D02*
X97719D01*
Y179291D01*
X101020D01*
Y181904D01*
D02*
G37*
G36*
X96219D02*
X92917D01*
Y179291D01*
X96219D01*
Y181904D01*
D02*
G37*
G36*
X204422Y180836D02*
X202637Y179052D01*
X201278Y180411D01*
X200847Y180699D01*
X200339Y180800D01*
X199158D01*
X198650Y180699D01*
X198220Y180411D01*
X197616Y179808D01*
X196963Y180461D01*
X193285Y176783D01*
X196468Y173600D01*
X199774Y176906D01*
X200369Y176794D01*
X200372Y176786D01*
X198976Y175391D01*
X203447Y170920D01*
X207565Y175038D01*
X209742D01*
X209949Y174538D01*
X208142Y172731D01*
X210589Y170284D01*
X213036Y167837D01*
X215440Y170240D01*
X213492Y172189D01*
X213699Y172689D01*
X218569D01*
X218761Y172227D01*
X207903Y161369D01*
X203288D01*
X200246Y164411D01*
X194800Y158966D01*
X196025Y157741D01*
X195814Y157529D01*
X195814Y157529D01*
X192691Y154406D01*
X192381Y153942D01*
X192272Y153395D01*
Y152645D01*
X191100D01*
Y148143D01*
X196302D01*
Y152645D01*
X195678D01*
X195471Y153145D01*
X197800Y155473D01*
X198312Y155454D01*
X198981Y154785D01*
X198871Y154518D01*
X198871Y154334D01*
X198871Y154334D01*
Y152718D01*
X201021D01*
Y154518D01*
X199948D01*
X199757Y154980D01*
X203288Y158511D01*
X208495D01*
X209042Y158620D01*
X209506Y158930D01*
X220941Y170365D01*
X221441Y170158D01*
Y167610D01*
X220642D01*
X220095Y167501D01*
X219631Y167192D01*
X215722Y163283D01*
X215412Y162819D01*
X215304Y162272D01*
Y156153D01*
X210827D01*
X210280Y156045D01*
X209817Y155735D01*
X209817Y155735D01*
X208461Y154379D01*
X208354Y154219D01*
X205470D01*
Y149718D01*
X205470D01*
Y149495D01*
X205470D01*
Y144993D01*
X206526D01*
X206780Y144598D01*
Y138079D01*
X207327D01*
Y137087D01*
X206896Y136443D01*
X206735Y135630D01*
X206896Y134817D01*
X207357Y134128D01*
X208046Y133668D01*
X208858Y133507D01*
X209671Y133668D01*
X210360Y134128D01*
X210820Y134817D01*
X210982Y135630D01*
X210820Y136443D01*
X210389Y137087D01*
Y138079D01*
X210937D01*
Y142407D01*
X214606Y146076D01*
X215106Y145869D01*
Y143676D01*
X215034Y143628D01*
X214574Y142939D01*
X214412Y142126D01*
X214574Y141313D01*
X215034Y140624D01*
X215723Y140164D01*
X216535Y140003D01*
X217348Y140164D01*
X218037Y140624D01*
X218497Y141313D01*
X218659Y142126D01*
X218497Y142939D01*
X218037Y143628D01*
X217965Y143676D01*
Y145555D01*
X223652Y151243D01*
X223962Y151706D01*
X224071Y152253D01*
Y154910D01*
X224504D01*
X225051Y155018D01*
X225094Y155047D01*
X227567D01*
Y158984D01*
Y162622D01*
X227866D01*
Y163463D01*
X227567D01*
Y163536D01*
X225274D01*
X225090Y163659D01*
X224504Y163775D01*
Y164752D01*
X225051Y164861D01*
X225094Y164890D01*
X227567D01*
Y164963D01*
X227866D01*
Y165803D01*
X227567D01*
Y170795D01*
Y174732D01*
Y179283D01*
X221441D01*
Y175343D01*
X213739D01*
X211778Y177303D01*
X211348Y177591D01*
X210840Y177692D01*
X207565D01*
X204422Y180836D01*
D02*
G37*
G36*
X154043Y180352D02*
X152718D01*
Y179028D01*
X152820Y179048D01*
X153541Y179530D01*
X154023Y180251D01*
X154043Y180352D01*
D02*
G37*
G36*
X151218D02*
X149894D01*
X149914Y180251D01*
X150396Y179530D01*
X151118Y179048D01*
X151218Y179028D01*
Y180352D01*
D02*
G37*
G36*
X276197D02*
X274569D01*
Y177543D01*
X276197D01*
Y180352D01*
D02*
G37*
G36*
X273069D02*
X271441D01*
Y177543D01*
X273069D01*
Y180352D01*
D02*
G37*
G36*
X141929Y239199D02*
X132480D01*
X132207Y239144D01*
X131975Y238989D01*
X129318Y236332D01*
X129163Y236100D01*
X129108Y235827D01*
Y229823D01*
X129163Y229549D01*
X129318Y229318D01*
X139148Y219488D01*
X139148Y192324D01*
X136614Y189789D01*
X128445D01*
X128171Y189735D01*
X127940Y189580D01*
X124692Y186332D01*
X124537Y186100D01*
X124482Y185827D01*
Y180610D01*
X124537Y180337D01*
X124692Y180105D01*
X127447Y177349D01*
X127679Y177194D01*
X127953Y177140D01*
X140157D01*
X140431Y177194D01*
X140663Y177349D01*
X140818Y177581D01*
X140823Y177608D01*
X149521Y186306D01*
X149676Y186538D01*
X149730Y186811D01*
Y231398D01*
X149676Y231671D01*
X149521Y231903D01*
X142434Y238989D01*
X142203Y239144D01*
X141929Y239199D01*
D02*
G37*
G36*
X97600Y176878D02*
Y175553D01*
X98925D01*
X98905Y175654D01*
X98423Y176376D01*
X97701Y176858D01*
X97600Y176878D01*
D02*
G37*
G36*
X96100D02*
X95999Y176858D01*
X95278Y176376D01*
X94796Y175654D01*
X94776Y175553D01*
X96100D01*
Y176878D01*
D02*
G37*
G36*
X36577Y176484D02*
Y175159D01*
X37901D01*
X37881Y175260D01*
X37399Y175982D01*
X36678Y176464D01*
X36577Y176484D01*
D02*
G37*
G36*
X35077D02*
X34976Y176464D01*
X34254Y175982D01*
X33772Y175260D01*
X33752Y175159D01*
X35077D01*
Y176484D01*
D02*
G37*
G36*
X159465Y177532D02*
X152718D01*
Y174132D01*
X159465D01*
Y177532D01*
D02*
G37*
G36*
X151218D02*
X144472D01*
Y174132D01*
X151218D01*
Y177532D01*
D02*
G37*
G36*
X164530Y175303D02*
Y173978D01*
X165854D01*
X165834Y174079D01*
X165352Y174801D01*
X164630Y175283D01*
X164530Y175303D01*
D02*
G37*
G36*
X163030D02*
X162928Y175283D01*
X162207Y174801D01*
X161725Y174079D01*
X161705Y173978D01*
X163030D01*
Y175303D01*
D02*
G37*
G36*
X192508Y176429D02*
X190988Y174909D01*
X192261Y173636D01*
X193781Y175157D01*
X192508Y176429D01*
D02*
G37*
G36*
X232246Y174516D02*
Y173191D01*
X233571D01*
X233551Y173292D01*
X233069Y174013D01*
X232347Y174495D01*
X232246Y174516D01*
D02*
G37*
G36*
X230746D02*
X230645Y174495D01*
X229924Y174013D01*
X229441Y173292D01*
X229421Y173191D01*
X230746D01*
Y174516D01*
D02*
G37*
G36*
X124766D02*
Y173191D01*
X126090D01*
X126070Y173292D01*
X125588Y174013D01*
X124867Y174495D01*
X124766Y174516D01*
D02*
G37*
G36*
X123266D02*
X123165Y174495D01*
X122443Y174013D01*
X121961Y173292D01*
X121941Y173191D01*
X123266D01*
Y174516D01*
D02*
G37*
G36*
X87758Y174122D02*
Y172797D01*
X89082D01*
X89062Y172898D01*
X88580Y173620D01*
X87859Y174102D01*
X87758Y174122D01*
D02*
G37*
G36*
X86258D02*
X86157Y174102D01*
X85435Y173620D01*
X84953Y172898D01*
X84933Y172797D01*
X86258D01*
Y174122D01*
D02*
G37*
G36*
X28350Y180813D02*
X24120D01*
Y172745D01*
X24659Y172816D01*
X25860Y173313D01*
X26891Y174105D01*
X27683Y175136D01*
X28180Y176337D01*
X28350Y177626D01*
Y180813D01*
D02*
G37*
G36*
X22620D02*
X18391D01*
Y177626D01*
X18560Y176337D01*
X19058Y175136D01*
X19849Y174105D01*
X20880Y173313D01*
X22081Y172816D01*
X22620Y172745D01*
Y180813D01*
D02*
G37*
G36*
X98925Y174053D02*
X97600D01*
Y172729D01*
X97701Y172749D01*
X98423Y173231D01*
X98905Y173952D01*
X98925Y174053D01*
D02*
G37*
G36*
X96100D02*
X94776D01*
X94796Y173952D01*
X95278Y173231D01*
X95999Y172749D01*
X96100Y172729D01*
Y174053D01*
D02*
G37*
G36*
X37901Y173659D02*
X36577D01*
Y172335D01*
X36678Y172355D01*
X37399Y172837D01*
X37881Y173558D01*
X37901Y173659D01*
D02*
G37*
G36*
X35077D02*
X33752D01*
X33772Y173558D01*
X34254Y172837D01*
X34976Y172355D01*
X35077Y172335D01*
Y173659D01*
D02*
G37*
G36*
X54565Y197073D02*
X44211Y197073D01*
X44117Y197054D01*
X44021Y197047D01*
X43981Y197027D01*
X43937Y197018D01*
X43857Y196965D01*
X43771Y196922D01*
X43742Y196888D01*
X43706Y196863D01*
X43652Y196783D01*
X43589Y196711D01*
X41504Y193036D01*
X41491Y192993D01*
X41466Y192956D01*
X41447Y192862D01*
X41417Y192771D01*
X41420Y192727D01*
X41412Y192683D01*
X41412Y176870D01*
X41466Y176597D01*
X41621Y176365D01*
X46345Y171640D01*
X46577Y171485D01*
X46850Y171431D01*
X49040D01*
X49581Y171070D01*
X50394Y170908D01*
X51206Y171070D01*
X51747Y171431D01*
X51993D01*
X52534Y171070D01*
X53347Y170908D01*
X54159Y171070D01*
X54700Y171431D01*
X54946D01*
X55487Y171070D01*
X56299Y170908D01*
X57112Y171070D01*
X57653Y171431D01*
X63809D01*
X63878Y171445D01*
X63949D01*
X67912Y172233D01*
X68009Y172273D01*
X68109Y172304D01*
X72566Y174686D01*
X72594Y174709D01*
X72627Y174722D01*
X73369Y175218D01*
X73394Y175243D01*
X73425Y175260D01*
X73492Y175341D01*
X73566Y175416D01*
X73580Y175448D01*
X73602Y175476D01*
X74154Y176508D01*
X74164Y176542D01*
X74184Y176571D01*
X74204Y176674D01*
X74235Y176775D01*
X74231Y176810D01*
X74238Y176845D01*
X74238Y180004D01*
X74234Y180026D01*
X74237Y180049D01*
X74207Y180162D01*
X74184Y180277D01*
X74171Y180296D01*
X74165Y180318D01*
X73732Y181202D01*
Y181508D01*
X73582D01*
X72794Y183117D01*
X72715Y183221D01*
X72638Y183326D01*
X72630Y183331D01*
X72624Y183339D01*
X72512Y183404D01*
X72401Y183473D01*
X65213Y186144D01*
Y186201D01*
X65061D01*
X59957Y188098D01*
X55190Y196704D01*
X55126Y196781D01*
X55071Y196863D01*
X55037Y196886D01*
X55010Y196917D01*
X54922Y196963D01*
X54839Y197018D01*
X54799Y197026D01*
X54763Y197045D01*
X54663Y197053D01*
X54565Y197073D01*
D02*
G37*
G36*
X165854Y172478D02*
X164530D01*
Y171154D01*
X164630Y171174D01*
X165352Y171656D01*
X165834Y172377D01*
X165854Y172478D01*
D02*
G37*
G36*
X163030D02*
X161705D01*
X161725Y172377D01*
X162207Y171656D01*
X162928Y171174D01*
X163030Y171154D01*
Y172478D01*
D02*
G37*
G36*
X189927Y173849D02*
X188407Y172328D01*
X189680Y171055D01*
X191200Y172576D01*
X189927Y173849D01*
D02*
G37*
G36*
X233571Y171691D02*
X232246D01*
Y170366D01*
X232347Y170386D01*
X233069Y170869D01*
X233551Y171590D01*
X233571Y171691D01*
D02*
G37*
G36*
X230746D02*
X229421D01*
X229441Y171590D01*
X229924Y170869D01*
X230645Y170386D01*
X230746Y170366D01*
Y171691D01*
D02*
G37*
G36*
X89082Y171297D02*
X87758D01*
Y169973D01*
X87859Y169993D01*
X88580Y170475D01*
X89062Y171196D01*
X89082Y171297D01*
D02*
G37*
G36*
X86258D02*
X84933D01*
X84953Y171196D01*
X85435Y170475D01*
X86157Y169993D01*
X86258Y169973D01*
Y171297D01*
D02*
G37*
G36*
X159465Y172632D02*
X152718D01*
Y169232D01*
X159465D01*
Y172632D01*
D02*
G37*
G36*
X151218D02*
X144472D01*
Y169232D01*
X151218D01*
Y172632D01*
D02*
G37*
G36*
X131219Y170715D02*
Y168565D01*
X133019D01*
Y170715D01*
X131219D01*
D02*
G37*
G36*
X138939Y169791D02*
Y168466D01*
X140264D01*
X140243Y168568D01*
X139761Y169289D01*
X139040Y169771D01*
X138939Y169791D01*
D02*
G37*
G36*
X137439D02*
X137338Y169771D01*
X136617Y169289D01*
X136134Y168568D01*
X136114Y168466D01*
X137439D01*
Y169791D01*
D02*
G37*
G36*
X284294Y176463D02*
X279093D01*
Y171962D01*
X281735D01*
X282250Y171446D01*
X282264Y171428D01*
Y170777D01*
X282250Y170758D01*
X281735Y170243D01*
X279093D01*
Y165741D01*
X284294D01*
Y168008D01*
X284400Y168167D01*
X284404Y168189D01*
X284411Y168196D01*
X289440D01*
X289460Y168182D01*
X290158Y168044D01*
X290855Y168182D01*
X291446Y168577D01*
X291841Y169169D01*
X291980Y169866D01*
X291841Y170563D01*
X291481Y171102D01*
X291841Y171641D01*
X291980Y172339D01*
X291841Y173036D01*
X291446Y173627D01*
X290855Y174022D01*
X290158Y174161D01*
X289460Y174022D01*
X289440Y174009D01*
X284411D01*
X284404Y174016D01*
X284400Y174038D01*
X284294Y174196D01*
Y176463D01*
D02*
G37*
G36*
X207082Y171670D02*
X204678Y169266D01*
X206594Y167349D01*
X208998Y169753D01*
X207082Y171670D01*
D02*
G37*
G36*
X194842Y174096D02*
X192791Y172045D01*
X190741Y169995D01*
X191949Y168786D01*
X191717Y168555D01*
X193634Y166638D01*
X196038Y169042D01*
X194186Y170894D01*
X196115Y172823D01*
X194842Y174096D01*
D02*
G37*
G36*
X152718Y167429D02*
Y166104D01*
X154043D01*
X154023Y166205D01*
X153541Y166927D01*
X152820Y167409D01*
X152718Y167429D01*
D02*
G37*
G36*
X151218D02*
X151118Y167409D01*
X150396Y166927D01*
X149914Y166205D01*
X149894Y166104D01*
X151218D01*
Y167429D01*
D02*
G37*
G36*
X123219Y167656D02*
X120409D01*
Y166027D01*
X123219D01*
Y167656D01*
D02*
G37*
G36*
X140264Y166966D02*
X138939D01*
Y165642D01*
X139040Y165662D01*
X139761Y166144D01*
X140243Y166866D01*
X140264Y166966D01*
D02*
G37*
G36*
X137439D02*
X136114D01*
X136134Y166866D01*
X136617Y166144D01*
X137338Y165662D01*
X137439Y165642D01*
Y166966D01*
D02*
G37*
G36*
X210059Y168693D02*
X207655Y166289D01*
X209572Y164372D01*
X211976Y166776D01*
X210059Y168693D01*
D02*
G37*
G36*
X197099Y167981D02*
X194695Y165577D01*
X196611Y163661D01*
X199015Y166065D01*
X197099Y167981D01*
D02*
G37*
G36*
X39906Y167645D02*
X36718D01*
Y163415D01*
X44786D01*
X44715Y163954D01*
X44218Y165155D01*
X43427Y166186D01*
X42395Y166978D01*
X41194Y167475D01*
X39906Y167645D01*
D02*
G37*
G36*
X52325Y164673D02*
Y163348D01*
X53649D01*
X53629Y163449D01*
X53147Y164171D01*
X52426Y164653D01*
X52325Y164673D01*
D02*
G37*
G36*
X50825D02*
X50724Y164653D01*
X50002Y164171D01*
X49520Y163449D01*
X49500Y163348D01*
X50825D01*
Y164673D01*
D02*
G37*
G36*
X154043Y164604D02*
X152718D01*
Y163280D01*
X152820Y163300D01*
X153541Y163782D01*
X154023Y164503D01*
X154043Y164604D01*
D02*
G37*
G36*
X151218D02*
X149894D01*
X149914Y164503D01*
X150396Y163782D01*
X151118Y163300D01*
X151218Y163280D01*
Y164604D01*
D02*
G37*
G36*
X190657Y167494D02*
X188253Y165090D01*
X190170Y163173D01*
X192573Y165577D01*
X190657Y167494D01*
D02*
G37*
G36*
X75947Y162311D02*
Y160986D01*
X77271D01*
X77251Y161087D01*
X76769Y161809D01*
X76048Y162291D01*
X75947Y162311D01*
D02*
G37*
G36*
X74447D02*
X74346Y162291D01*
X73624Y161809D01*
X73142Y161087D01*
X73122Y160986D01*
X74447D01*
Y162311D01*
D02*
G37*
G36*
X94063Y165102D02*
X87907D01*
Y160915D01*
X94063D01*
Y165102D01*
D02*
G37*
G36*
X86408D02*
X80252D01*
Y160915D01*
X86408D01*
Y165102D01*
D02*
G37*
G36*
X188152Y161917D02*
Y160592D01*
X189476D01*
X189456Y160694D01*
X188974Y161415D01*
X188253Y161897D01*
X188152Y161917D01*
D02*
G37*
G36*
X186652D02*
X186550Y161897D01*
X185829Y161415D01*
X185347Y160694D01*
X185327Y160592D01*
X186652D01*
Y161917D01*
D02*
G37*
G36*
X53649Y161848D02*
X52325D01*
Y160524D01*
X52426Y160544D01*
X53147Y161026D01*
X53629Y161747D01*
X53649Y161848D01*
D02*
G37*
G36*
X50825D02*
X49500D01*
X49520Y161747D01*
X50002Y161026D01*
X50724Y160544D01*
X50825Y160524D01*
Y161848D01*
D02*
G37*
G36*
X193634Y164517D02*
X191230Y162113D01*
X193147Y160196D01*
X195551Y162600D01*
X193634Y164517D01*
D02*
G37*
G36*
X77271Y159486D02*
X75947D01*
Y158162D01*
X76048Y158182D01*
X76769Y158664D01*
X77251Y159385D01*
X77271Y159486D01*
D02*
G37*
G36*
X74447D02*
X73122D01*
X73142Y159385D01*
X73624Y158664D01*
X74346Y158182D01*
X74447Y158162D01*
Y159486D01*
D02*
G37*
G36*
X189476Y159092D02*
X188152D01*
Y157768D01*
X188253Y157788D01*
X188974Y158270D01*
X189456Y158992D01*
X189476Y159092D01*
D02*
G37*
G36*
X186652D02*
X185327D01*
X185347Y158992D01*
X185829Y158270D01*
X186550Y157788D01*
X186652Y157768D01*
Y159092D01*
D02*
G37*
G36*
X44786Y161915D02*
X36718D01*
Y157686D01*
X39906D01*
X41194Y157855D01*
X42395Y158353D01*
X43427Y159144D01*
X44218Y160176D01*
X44715Y161377D01*
X44786Y161915D01*
D02*
G37*
G36*
X35219Y167645D02*
X32032D01*
X30743Y167475D01*
X29542Y166978D01*
X28510Y166186D01*
X27719Y165155D01*
X27591Y164846D01*
X21364D01*
Y156919D01*
X33819D01*
Y157686D01*
X35219D01*
Y162665D01*
Y167645D01*
D02*
G37*
G36*
X19864Y164846D02*
X7409D01*
Y156919D01*
X19864D01*
Y164846D01*
D02*
G37*
G36*
X39726Y156799D02*
Y155474D01*
X41051D01*
X41031Y155575D01*
X40549Y156297D01*
X39827Y156779D01*
X39726Y156799D01*
D02*
G37*
G36*
X38226D02*
X38125Y156779D01*
X37404Y156297D01*
X36922Y155575D01*
X36902Y155474D01*
X38226D01*
Y156799D01*
D02*
G37*
G36*
X94063Y159415D02*
X87907D01*
Y155228D01*
X94063D01*
Y159415D01*
D02*
G37*
G36*
X86408D02*
X80252D01*
Y155228D01*
X86408D01*
Y159415D01*
D02*
G37*
G36*
X204671Y154518D02*
X202521D01*
Y152718D01*
X204671D01*
Y154518D01*
D02*
G37*
G36*
X41051Y153974D02*
X39726D01*
Y152650D01*
X39827Y152670D01*
X40549Y153152D01*
X41031Y153873D01*
X41051Y153974D01*
D02*
G37*
G36*
X38226D02*
X36902D01*
X36922Y153873D01*
X37404Y153152D01*
X38125Y152670D01*
X38226Y152650D01*
Y153974D01*
D02*
G37*
G36*
X176591Y154051D02*
X173782D01*
Y152423D01*
X176591D01*
Y154051D01*
D02*
G37*
G36*
X172282D02*
X169472D01*
Y152423D01*
X172282D01*
Y154051D01*
D02*
G37*
G36*
X190301Y152944D02*
X188151D01*
Y151144D01*
X190301D01*
Y152944D01*
D02*
G37*
G36*
X186651D02*
X184501D01*
Y151144D01*
X186651D01*
Y152944D01*
D02*
G37*
G36*
X176591Y150923D02*
X173782D01*
Y149295D01*
X176591D01*
Y150923D01*
D02*
G37*
G36*
X172282D02*
X169472D01*
Y149295D01*
X172282D01*
Y150923D01*
D02*
G37*
G36*
X155331Y152335D02*
X152718D01*
Y148935D01*
X155331D01*
Y152335D01*
D02*
G37*
G36*
X151218D02*
X148606D01*
Y148935D01*
X151218D01*
Y152335D01*
D02*
G37*
G36*
X204671Y151218D02*
X201771D01*
X198871D01*
Y149418D01*
Y147994D01*
X201771D01*
X204671D01*
Y149418D01*
Y151218D01*
D02*
G37*
G36*
X190301Y149644D02*
X188151D01*
Y147844D01*
X190301D01*
Y149644D01*
D02*
G37*
G36*
X186651D02*
X184501D01*
Y147844D01*
X186651D01*
Y149644D01*
D02*
G37*
G36*
X33819Y155419D02*
X21364D01*
Y147492D01*
X33819D01*
Y155419D01*
D02*
G37*
G36*
X19864D02*
X7409D01*
Y147492D01*
X19864D01*
Y155419D01*
D02*
G37*
G36*
X275213Y146866D02*
X272404D01*
Y145238D01*
X275213D01*
Y146866D01*
D02*
G37*
G36*
X270903D02*
X268094D01*
Y145238D01*
X270903D01*
Y146866D01*
D02*
G37*
G36*
X275213Y143738D02*
X272404D01*
Y142110D01*
X275213D01*
Y143738D01*
D02*
G37*
G36*
X204671Y146494D02*
X201771D01*
X198871D01*
Y144694D01*
X199000D01*
Y142089D01*
X201378D01*
X203756D01*
Y144694D01*
X204671D01*
Y146494D01*
D02*
G37*
G36*
X103295Y143850D02*
X95988D01*
Y140480D01*
X103295D01*
Y143850D01*
D02*
G37*
G36*
X87319Y141354D02*
X84510D01*
Y139726D01*
X87319D01*
Y141354D01*
D02*
G37*
G36*
X83010D02*
X80201D01*
Y139726D01*
X83010D01*
Y141354D01*
D02*
G37*
G36*
X93200Y141184D02*
X91400D01*
Y139034D01*
X93200D01*
Y141184D01*
D02*
G37*
G36*
X89900D02*
X88100D01*
Y139034D01*
X89900D01*
Y141184D01*
D02*
G37*
G36*
X103595Y139150D02*
X100392D01*
Y137915D01*
X103595D01*
Y139150D01*
D02*
G37*
G36*
X98892D02*
X95689D01*
Y137915D01*
X98892D01*
Y139150D01*
D02*
G37*
G36*
X152793Y139604D02*
X151165D01*
Y136795D01*
X152793D01*
Y139604D01*
D02*
G37*
G36*
X87319Y138226D02*
X84510D01*
Y136598D01*
X87319D01*
Y138226D01*
D02*
G37*
G36*
X83010D02*
X80201D01*
Y136598D01*
X83010D01*
Y138226D01*
D02*
G37*
G36*
X217679Y137901D02*
Y136577D01*
X219004D01*
X218984Y136678D01*
X218502Y137399D01*
X217780Y137881D01*
X217679Y137901D01*
D02*
G37*
G36*
X216179D02*
X216078Y137881D01*
X215357Y137399D01*
X214875Y136678D01*
X214855Y136577D01*
X216179D01*
Y137901D01*
D02*
G37*
G36*
X203756Y140589D02*
X201378D01*
X199000D01*
Y137779D01*
X199867D01*
X200019Y137279D01*
X199609Y137006D01*
X199127Y136284D01*
X199107Y136183D01*
X203256D01*
X203236Y136284D01*
X202754Y137006D01*
X202344Y137279D01*
X202495Y137779D01*
X203756D01*
Y140589D01*
D02*
G37*
G36*
X124949Y138850D02*
X117642D01*
Y135480D01*
X124949D01*
Y138850D01*
D02*
G37*
G36*
X56656Y136327D02*
Y135002D01*
X57980D01*
X57960Y135103D01*
X57478Y135825D01*
X56757Y136307D01*
X56656Y136327D01*
D02*
G37*
G36*
X55155D02*
X55054Y136307D01*
X54333Y135825D01*
X53851Y135103D01*
X53831Y135002D01*
X55155D01*
Y136327D01*
D02*
G37*
G36*
X219004Y135077D02*
X217679D01*
Y133752D01*
X217780Y133772D01*
X218502Y134254D01*
X218984Y134976D01*
X219004Y135077D01*
D02*
G37*
G36*
X216179D02*
X214855D01*
X214875Y134976D01*
X215357Y134254D01*
X216078Y133772D01*
X216179Y133752D01*
Y135077D01*
D02*
G37*
G36*
X203256Y134683D02*
X201931D01*
Y133358D01*
X202032Y133379D01*
X202754Y133861D01*
X203236Y134582D01*
X203256Y134683D01*
D02*
G37*
G36*
X200431D02*
X199107D01*
X199127Y134582D01*
X199609Y133861D01*
X200330Y133379D01*
X200431Y133358D01*
Y134683D01*
D02*
G37*
G36*
X124949Y133850D02*
X117642D01*
Y130480D01*
X124949D01*
Y133850D01*
D02*
G37*
G36*
X47487Y138670D02*
X46674Y138508D01*
X45985Y138048D01*
X45525Y137359D01*
X45364Y136546D01*
X45525Y135733D01*
X45985Y135045D01*
X46674Y134584D01*
X47068Y134506D01*
X49582Y131992D01*
Y131942D01*
X49065Y131425D01*
X47650D01*
Y130104D01*
X30458D01*
X30124Y130604D01*
X30182Y130745D01*
X30349Y132008D01*
X30182Y133271D01*
X29695Y134448D01*
X28919Y135459D01*
X27909Y136234D01*
X26732Y136722D01*
X25469Y136888D01*
X24205Y136722D01*
X23028Y136234D01*
X22018Y135459D01*
X21242Y134448D01*
X20754Y133271D01*
X20588Y132008D01*
X20754Y130745D01*
X21242Y129568D01*
X22018Y128557D01*
X23028Y127781D01*
X24205Y127294D01*
X25469Y127128D01*
X26732Y127294D01*
X27236Y127503D01*
X27944Y126794D01*
X28573Y126374D01*
X29315Y126226D01*
X47650D01*
Y124906D01*
X51807D01*
Y127666D01*
X51898Y127801D01*
X52045Y128543D01*
Y128921D01*
X52891Y129768D01*
X53312Y130397D01*
X53459Y131139D01*
Y132796D01*
X53312Y133537D01*
X52891Y134166D01*
X49210Y137848D01*
X49051Y137954D01*
X48989Y138048D01*
X48300Y138508D01*
X47487Y138670D01*
D02*
G37*
G36*
X62561Y130815D02*
Y129490D01*
X63886D01*
X63866Y129591D01*
X63384Y130313D01*
X62662Y130795D01*
X62561Y130815D01*
D02*
G37*
G36*
X223244Y130921D02*
X220435D01*
Y129293D01*
X223244D01*
Y130921D01*
D02*
G37*
G36*
X212242D02*
X209433D01*
Y129293D01*
X212242D01*
Y130921D01*
D02*
G37*
G36*
X202325Y130027D02*
Y128703D01*
X203649D01*
X203629Y128804D01*
X203147Y129525D01*
X202426Y130007D01*
X202325Y130027D01*
D02*
G37*
G36*
X200825D02*
X200724Y130007D01*
X200002Y129525D01*
X199520Y128804D01*
X199500Y128703D01*
X200825D01*
Y130027D01*
D02*
G37*
G36*
X186577D02*
Y128703D01*
X187901D01*
X187881Y128804D01*
X187399Y129525D01*
X186678Y130007D01*
X186577Y130027D01*
D02*
G37*
G36*
X185077D02*
X184976Y130007D01*
X184254Y129525D01*
X183772Y128804D01*
X183752Y128703D01*
X185077D01*
Y130027D01*
D02*
G37*
G36*
X63886Y127990D02*
X62561D01*
Y126665D01*
X62662Y126686D01*
X63384Y127168D01*
X63866Y127889D01*
X63886Y127990D01*
D02*
G37*
G36*
X57980Y133502D02*
X53831D01*
X53851Y133401D01*
X54333Y132679D01*
X55014Y132224D01*
X55018Y132188D01*
X54831Y131724D01*
X54831D01*
Y128915D01*
X57209D01*
Y128165D01*
X57959D01*
Y124606D01*
X59587D01*
Y127243D01*
X60087Y127395D01*
X60238Y127168D01*
X60960Y126686D01*
X61061Y126665D01*
Y128740D01*
Y130815D01*
X60960Y130795D01*
X60238Y130313D01*
X60087Y130085D01*
X59587Y130237D01*
Y131724D01*
X57110D01*
X57055Y131805D01*
X57185Y132484D01*
X57478Y132679D01*
X57960Y133401D01*
X57980Y133502D01*
D02*
G37*
G36*
X234928Y136065D02*
X230426D01*
Y130863D01*
X231248D01*
Y129897D01*
X231176Y129848D01*
X230715Y129159D01*
X230554Y128347D01*
X230715Y127534D01*
X231176Y126845D01*
X231865Y126385D01*
X232677Y126223D01*
X233490Y126385D01*
X234179Y126845D01*
X234639Y127534D01*
X234801Y128347D01*
X234639Y129159D01*
X234179Y129848D01*
X234106Y129897D01*
Y130863D01*
X234928D01*
Y136065D01*
D02*
G37*
G36*
X245164D02*
X240663D01*
Y130863D01*
X242313D01*
X244744Y128432D01*
X244727Y128347D01*
X244889Y127534D01*
X245349Y126845D01*
X246038Y126385D01*
X246850Y126223D01*
X247663Y126385D01*
X248352Y126845D01*
X248812Y127534D01*
X248974Y128347D01*
X248812Y129159D01*
X248352Y129848D01*
X247663Y130308D01*
X246850Y130470D01*
X246765Y130453D01*
X245164Y132054D01*
Y136065D01*
D02*
G37*
G36*
X223244Y127793D02*
X220435D01*
Y126165D01*
X223244D01*
Y127793D01*
D02*
G37*
G36*
X218935Y130921D02*
X213742D01*
Y128543D01*
Y126165D01*
X218935D01*
Y128543D01*
Y130921D01*
D02*
G37*
G36*
X212242Y127793D02*
X209433D01*
Y126165D01*
X212242D01*
Y127793D01*
D02*
G37*
G36*
X203649Y127203D02*
X202325D01*
Y125878D01*
X202426Y125898D01*
X203147Y126380D01*
X203629Y127102D01*
X203649Y127203D01*
D02*
G37*
G36*
X200825D02*
X199500D01*
X199520Y127102D01*
X200002Y126380D01*
X200724Y125898D01*
X200825Y125878D01*
Y127203D01*
D02*
G37*
G36*
X187901D02*
X186577D01*
Y125878D01*
X186678Y125898D01*
X187399Y126380D01*
X187881Y127102D01*
X187901Y127203D01*
D02*
G37*
G36*
X185077D02*
X183752D01*
X183772Y127102D01*
X184254Y126380D01*
X184976Y125898D01*
X185077Y125878D01*
Y127203D01*
D02*
G37*
G36*
X240046Y136065D02*
X235544D01*
Y130863D01*
X236366D01*
Y125984D01*
X236452Y125551D01*
X236178Y125051D01*
X229726D01*
X228988Y125789D01*
Y130863D01*
X229810D01*
Y136065D01*
X225308D01*
Y130863D01*
X226130D01*
Y125197D01*
X226239Y124650D01*
X226549Y124186D01*
X228123Y122612D01*
X228123Y122612D01*
X228587Y122302D01*
X229134Y122193D01*
X236416D01*
X241878Y116731D01*
Y112640D01*
X241987Y112093D01*
X242297Y111629D01*
X242469Y111458D01*
X242304Y110915D01*
X241806Y110816D01*
X241117Y110355D01*
X241024Y110217D01*
X240498Y110330D01*
X240084Y110950D01*
X239395Y111411D01*
X238583Y111572D01*
X237770Y111411D01*
X237081Y110950D01*
X237033Y110878D01*
X236503D01*
Y112050D01*
X232001D01*
Y110878D01*
X229984D01*
X229984Y110878D01*
X229437Y110769D01*
X228974Y110459D01*
X228974Y110459D01*
X226387Y107872D01*
X225898Y107846D01*
Y107846D01*
X218590D01*
Y104476D01*
X225898D01*
Y104732D01*
X226697D01*
X227244Y104841D01*
X227707Y105151D01*
X230576Y108020D01*
X232001D01*
Y106848D01*
X236503D01*
Y108020D01*
X237033D01*
X237081Y107947D01*
X237770Y107487D01*
X238583Y107325D01*
X239395Y107487D01*
X240084Y107947D01*
X240177Y108086D01*
X240702Y107972D01*
X241117Y107352D01*
X241806Y106892D01*
X242296Y106795D01*
X243007Y106084D01*
X242886Y105848D01*
X242712Y105672D01*
X241975Y105818D01*
X241162Y105657D01*
X240473Y105196D01*
X240425Y105124D01*
X236503D01*
Y106145D01*
X232001D01*
Y104973D01*
X229080D01*
X228533Y104865D01*
X228069Y104555D01*
X226387Y102872D01*
X225898Y102847D01*
Y102847D01*
X218590D01*
Y99476D01*
X225898D01*
Y99732D01*
X226697D01*
X227244Y99841D01*
X227707Y100151D01*
X229672Y102115D01*
X232001D01*
Y100944D01*
X236503D01*
Y102266D01*
X240425D01*
X240473Y102193D01*
X241162Y101733D01*
X241975Y101571D01*
X242787Y101733D01*
X243476Y102193D01*
X243936Y102882D01*
X244098Y103695D01*
X243945Y104462D01*
X244006Y104534D01*
X244051Y104578D01*
X244356Y104767D01*
X244804Y104467D01*
X245449Y104339D01*
X246248D01*
Y104338D01*
X253555D01*
Y107708D01*
X246248D01*
X245864Y107989D01*
X244984Y108869D01*
X245010Y109507D01*
X245104Y109594D01*
X246248D01*
Y109338D01*
X253555D01*
Y112708D01*
X246248D01*
Y112452D01*
X245516D01*
X244736Y113232D01*
Y116349D01*
X245236Y116583D01*
X245518Y116394D01*
X245547Y116389D01*
X246248Y115687D01*
Y114338D01*
X253555D01*
Y117708D01*
X248269D01*
X247252Y118725D01*
X246789Y119035D01*
X246760Y119041D01*
X239224Y126576D01*
Y130863D01*
X240046D01*
Y136065D01*
D02*
G37*
G36*
X56459Y127415D02*
X54831D01*
Y124606D01*
X56459D01*
Y127415D01*
D02*
G37*
G36*
X204687Y124122D02*
Y122797D01*
X206012D01*
X205992Y122898D01*
X205509Y123620D01*
X204788Y124102D01*
X204687Y124122D01*
D02*
G37*
G36*
X203187D02*
X203086Y124102D01*
X202364Y123620D01*
X201882Y122898D01*
X201862Y122797D01*
X203187D01*
Y124122D01*
D02*
G37*
G36*
X60354Y123980D02*
X57939D01*
Y122155D01*
X60354D01*
Y123980D01*
D02*
G37*
G36*
X56439D02*
X54024D01*
Y122155D01*
X56439D01*
Y123980D01*
D02*
G37*
G36*
X72010Y122547D02*
Y121222D01*
X73334D01*
X73314Y121324D01*
X72832Y122045D01*
X72111Y122527D01*
X72010Y122547D01*
D02*
G37*
G36*
X70510D02*
X70409Y122527D01*
X69687Y122045D01*
X69205Y121324D01*
X69185Y121222D01*
X70510D01*
Y122547D01*
D02*
G37*
G36*
X206012Y121297D02*
X204687D01*
Y119973D01*
X204788Y119993D01*
X205509Y120475D01*
X205992Y121196D01*
X206012Y121297D01*
D02*
G37*
G36*
X203187D02*
X201862D01*
X201882Y121196D01*
X202364Y120475D01*
X203086Y119993D01*
X203187Y119973D01*
Y121297D01*
D02*
G37*
G36*
X60354Y120656D02*
X57939D01*
Y118831D01*
X60354D01*
Y120656D01*
D02*
G37*
G36*
X56439D02*
X54024D01*
Y118831D01*
X56439D01*
Y120656D01*
D02*
G37*
G36*
X73334Y119722D02*
X72010D01*
Y118398D01*
X72111Y118418D01*
X72832Y118900D01*
X73314Y119621D01*
X73334Y119722D01*
D02*
G37*
G36*
X70510D02*
X69185D01*
X69205Y119621D01*
X69687Y118900D01*
X70409Y118418D01*
X70510Y118398D01*
Y119722D01*
D02*
G37*
G36*
X71260Y154879D02*
X70447Y154718D01*
X69758Y154257D01*
X69298Y153568D01*
X69136Y152756D01*
X69298Y151943D01*
X69576Y151527D01*
Y129591D01*
X63354Y123369D01*
X61234D01*
Y118167D01*
X65735D01*
Y120987D01*
X72451Y127703D01*
X72451Y127703D01*
X72816Y128249D01*
X72944Y128894D01*
Y151527D01*
X73222Y151943D01*
X73383Y152756D01*
X73222Y153568D01*
X72761Y154257D01*
X72072Y154718D01*
X71260Y154879D01*
D02*
G37*
G36*
X204244Y117847D02*
X196937D01*
Y117590D01*
X196138D01*
X195591Y117482D01*
X195127Y117172D01*
X195127Y117172D01*
X195015Y117060D01*
X194138D01*
Y117316D01*
X188799D01*
Y113946D01*
X194138D01*
Y114202D01*
X195607D01*
X196154Y114311D01*
X196437Y114500D01*
X196937Y114476D01*
Y114476D01*
X204244D01*
Y117847D01*
D02*
G37*
G36*
X52614Y119941D02*
X46882D01*
Y119604D01*
X37843D01*
X37101Y119457D01*
X36472Y119036D01*
X31697Y114262D01*
X29903D01*
X29695Y114763D01*
X28919Y115774D01*
X27909Y116549D01*
X26732Y117037D01*
X25469Y117203D01*
X24205Y117037D01*
X23028Y116549D01*
X22018Y115774D01*
X21242Y114763D01*
X20754Y113586D01*
X20588Y112323D01*
X20754Y111060D01*
X21242Y109883D01*
X22018Y108872D01*
X23028Y108096D01*
X24205Y107609D01*
X25469Y107442D01*
X26732Y107609D01*
X27909Y108096D01*
X28919Y108872D01*
X29695Y109883D01*
X29903Y110384D01*
X32500D01*
X33242Y110532D01*
X33871Y110952D01*
X38646Y115726D01*
X46882D01*
Y115390D01*
X52614D01*
Y119941D01*
D02*
G37*
G36*
X236503Y118350D02*
X232001D01*
Y113148D01*
X236503D01*
Y114064D01*
X237354D01*
X237770Y113786D01*
X238583Y113625D01*
X239395Y113786D01*
X240084Y114246D01*
X240545Y114935D01*
X240706Y115748D01*
X240545Y116561D01*
X240084Y117250D01*
X239395Y117710D01*
X238583Y117871D01*
X237770Y117710D01*
X237354Y117432D01*
X236503D01*
Y118350D01*
D02*
G37*
G36*
X224016Y124829D02*
X210138D01*
X209864Y124774D01*
X209632Y124619D01*
X208255Y123241D01*
X208100Y123010D01*
X208045Y122736D01*
Y117815D01*
X208100Y117542D01*
X208255Y117310D01*
X211896Y113668D01*
X212128Y113513D01*
X212402Y113459D01*
X225394D01*
X225667Y113513D01*
X225899Y113668D01*
X227277Y115046D01*
X227432Y115278D01*
X227486Y115551D01*
Y121358D01*
X227432Y121632D01*
X227277Y121863D01*
X224521Y124619D01*
X224289Y124774D01*
X224016Y124829D01*
D02*
G37*
G36*
X81484Y116339D02*
X76805D01*
Y111915D01*
X81484D01*
Y116339D01*
D02*
G37*
G36*
X75305D02*
X70626D01*
Y111915D01*
X75305D01*
Y116339D01*
D02*
G37*
G36*
X83502Y113098D02*
X83401Y113078D01*
X82679Y112596D01*
X82197Y111875D01*
X82177Y111774D01*
X83502D01*
Y113098D01*
D02*
G37*
G36*
X213348Y112705D02*
Y111380D01*
X214673D01*
X214653Y111481D01*
X214171Y112202D01*
X213449Y112685D01*
X213348Y112705D01*
D02*
G37*
G36*
X211848D02*
X211747Y112685D01*
X211026Y112202D01*
X210544Y111481D01*
X210524Y111380D01*
X211848D01*
Y112705D01*
D02*
G37*
G36*
X225898Y112847D02*
X218590D01*
Y109476D01*
X225898D01*
Y112847D01*
D02*
G37*
G36*
X150000Y135403D02*
X149258Y135256D01*
X149246Y135248D01*
X147232D01*
Y131681D01*
X148061D01*
Y130882D01*
X148209Y130140D01*
X148629Y129511D01*
X150855Y127285D01*
Y118783D01*
X151003Y118042D01*
X151423Y117413D01*
X157735Y111101D01*
X158364Y110680D01*
X159106Y110533D01*
X168274D01*
X168481Y110031D01*
X169257Y109021D01*
X170268Y108245D01*
X171445Y107757D01*
X172708Y107591D01*
X173971Y107757D01*
X175148Y108245D01*
X176159Y109021D01*
X176934Y110031D01*
X177142Y110533D01*
X182509D01*
X188252Y104790D01*
X188881Y104370D01*
X189623Y104223D01*
X198638D01*
X199380Y104370D01*
X199539Y104476D01*
X204244D01*
Y107846D01*
X199539D01*
X199380Y107953D01*
X198638Y108100D01*
X190426D01*
X189373Y109153D01*
X189564Y109615D01*
X194138D01*
Y109871D01*
X194673D01*
X194718Y109841D01*
X195265Y109732D01*
X195265Y109732D01*
X196937D01*
Y109476D01*
X204244D01*
Y112847D01*
X196937D01*
Y112590D01*
X195718D01*
X195673Y112620D01*
X195126Y112729D01*
X194138D01*
Y112985D01*
X188799D01*
Y110380D01*
X188337Y110189D01*
X184683Y113842D01*
X184054Y114263D01*
X183312Y114410D01*
X177142D01*
X176934Y114912D01*
X176159Y115922D01*
X175148Y116698D01*
X173971Y117185D01*
X172708Y117352D01*
X171445Y117186D01*
X170268Y116698D01*
X169257Y115922D01*
X168481Y114912D01*
X168274Y114410D01*
X159909D01*
X154733Y119587D01*
Y128088D01*
X154586Y128830D01*
X154165Y129459D01*
X152405Y131219D01*
X152596Y131681D01*
X152768D01*
Y135248D01*
X150754D01*
X150742Y135256D01*
X150000Y135403D01*
D02*
G37*
G36*
X83502Y110274D02*
X82177D01*
X82197Y110173D01*
X82679Y109451D01*
X83401Y108969D01*
X83502Y108949D01*
Y110274D01*
D02*
G37*
G36*
X214673Y109880D02*
X213348D01*
Y108555D01*
X213449Y108575D01*
X214171Y109057D01*
X214653Y109779D01*
X214673Y109880D01*
D02*
G37*
G36*
X211848D02*
X210524D01*
X210544Y109779D01*
X211026Y109057D01*
X211747Y108575D01*
X211848Y108555D01*
Y109880D01*
D02*
G37*
G36*
X81484Y110415D02*
X76805D01*
Y105992D01*
X81484D01*
Y110415D01*
D02*
G37*
G36*
X75305D02*
X70626D01*
Y105992D01*
X75305D01*
Y110415D01*
D02*
G37*
G36*
X204543Y103146D02*
X201341D01*
Y101911D01*
X204543D01*
Y103146D01*
D02*
G37*
G36*
X199840D02*
X196638D01*
Y101911D01*
X199840D01*
Y103146D01*
D02*
G37*
G36*
X253854Y103007D02*
X250652D01*
Y101773D01*
X253854D01*
Y103007D01*
D02*
G37*
G36*
X249152D02*
X245949D01*
Y101773D01*
X249152D01*
Y103007D01*
D02*
G37*
G36*
X158788Y103532D02*
X157500Y103362D01*
X156298Y102865D01*
X155867Y102534D01*
X158788Y99613D01*
X161709Y102534D01*
X161278Y102865D01*
X160077Y103362D01*
X158788Y103532D01*
D02*
G37*
G36*
X238698Y100137D02*
X237885Y99976D01*
X237197Y99516D01*
X237003Y99225D01*
X236503Y99377D01*
Y99845D01*
X232001D01*
Y94644D01*
X236503D01*
Y95561D01*
X237695D01*
X238340Y95689D01*
X238655Y95899D01*
X238698Y95891D01*
X239511Y96052D01*
X240200Y96513D01*
X240660Y97202D01*
X240822Y98014D01*
X240660Y98827D01*
X240200Y99516D01*
X239511Y99976D01*
X238698Y100137D01*
D02*
G37*
G36*
X204543Y100411D02*
X201341D01*
Y99177D01*
X204543D01*
Y100411D01*
D02*
G37*
G36*
X199840D02*
X196638D01*
Y99177D01*
X199840D01*
Y100411D01*
D02*
G37*
G36*
X146026Y100500D02*
Y99175D01*
X147350D01*
X147330Y99276D01*
X146848Y99998D01*
X146127Y100480D01*
X146026Y100500D01*
D02*
G37*
G36*
X144526D02*
X144425Y100480D01*
X143703Y99998D01*
X143221Y99276D01*
X143201Y99175D01*
X144526D01*
Y100500D01*
D02*
G37*
G36*
X249152Y100273D02*
X245949D01*
Y99039D01*
X249152D01*
Y100273D01*
D02*
G37*
G36*
X147350Y97675D02*
X146026D01*
Y96351D01*
X146127Y96371D01*
X146848Y96853D01*
X147330Y97574D01*
X147350Y97675D01*
D02*
G37*
G36*
X144526D02*
X143201D01*
X143221Y97574D01*
X143703Y96853D01*
X144425Y96371D01*
X144526Y96351D01*
Y97675D01*
D02*
G37*
G36*
X154807Y101473D02*
X154476Y101042D01*
X153978Y99841D01*
X153809Y98552D01*
X153978Y97263D01*
X154476Y96062D01*
X154807Y95631D01*
X157728Y98552D01*
X154807Y101473D01*
D02*
G37*
G36*
X162770D02*
X159849Y98552D01*
X162770Y95631D01*
X163101Y96062D01*
X163598Y97263D01*
X163768Y98552D01*
X163598Y99841D01*
X163101Y101042D01*
X162770Y101473D01*
D02*
G37*
G36*
X158788Y97491D02*
X155867Y94570D01*
X156298Y94240D01*
X157500Y93742D01*
X158788Y93572D01*
X160077Y93742D01*
X161278Y94240D01*
X161709Y94570D01*
X158788Y97491D01*
D02*
G37*
G36*
X159805Y89870D02*
Y88545D01*
X161130D01*
X161110Y88646D01*
X160628Y89368D01*
X159906Y89850D01*
X159805Y89870D01*
D02*
G37*
G36*
X158305D02*
X158204Y89850D01*
X157483Y89368D01*
X157001Y88646D01*
X156981Y88545D01*
X158305D01*
Y89870D01*
D02*
G37*
G36*
X161130Y87045D02*
X159805D01*
Y85721D01*
X159906Y85741D01*
X160628Y86223D01*
X161110Y86944D01*
X161130Y87045D01*
D02*
G37*
G36*
X158305D02*
X156981D01*
X157001Y86944D01*
X157483Y86223D01*
X158204Y85741D01*
X158305Y85721D01*
Y87045D01*
D02*
G37*
%LPD*%
G36*
X102116Y207382D02*
Y200443D01*
X100886Y199213D01*
X81595D01*
X79823Y200984D01*
Y206496D01*
X81010Y208661D01*
X101143D01*
X102116Y207382D01*
D02*
G37*
G36*
X137106Y206594D02*
X137106Y200098D01*
X135236Y198228D01*
X127165Y198228D01*
X124409Y200984D01*
Y206594D01*
X125886Y208071D01*
Y208563D01*
X109449Y225000D01*
X93799Y225000D01*
X90354Y228445D01*
Y235335D01*
X93504Y238484D01*
X104232D01*
X137106Y206594D01*
D02*
G37*
%LPC*%
G36*
X99569Y236377D02*
Y232246D01*
X103700D01*
X103629Y232785D01*
X103131Y233986D01*
X102340Y235017D01*
X101309Y235808D01*
X100108Y236306D01*
X99569Y236377D01*
D02*
G37*
G36*
X98069D02*
X97530Y236306D01*
X96329Y235808D01*
X95298Y235017D01*
X94506Y233986D01*
X94009Y232785D01*
X93938Y232246D01*
X98069D01*
Y236377D01*
D02*
G37*
G36*
X103700Y230746D02*
X99569D01*
Y226615D01*
X100108Y226686D01*
X101309Y227184D01*
X102340Y227975D01*
X103131Y229006D01*
X103629Y230207D01*
X103700Y230746D01*
D02*
G37*
G36*
X98069D02*
X93938D01*
X94009Y230207D01*
X94506Y229006D01*
X95298Y227975D01*
X96329Y227184D01*
X97530Y226686D01*
X98069Y226615D01*
Y230746D01*
D02*
G37*
G36*
X135665Y206528D02*
X132364D01*
Y203915D01*
X135665D01*
Y206528D01*
D02*
G37*
G36*
X130864D02*
X127563D01*
Y203915D01*
X130864D01*
Y206528D01*
D02*
G37*
G36*
X135665Y202415D02*
X132364D01*
Y199803D01*
X135665D01*
Y202415D01*
D02*
G37*
G36*
X130864D02*
X127563D01*
Y199803D01*
X130864D01*
Y202415D01*
D02*
G37*
%LPD*%
G36*
X43541Y282640D02*
Y231737D01*
X43947Y230758D01*
X65003Y209702D01*
X67129Y208821D01*
X76120D01*
X77399Y207541D01*
X77399Y197994D01*
X77399Y187856D01*
X76059Y186516D01*
X68799Y186516D01*
X67187Y188128D01*
X67187Y197200D01*
X66527Y198435D01*
X58101Y206072D01*
X32935Y231238D01*
X32026Y233434D01*
Y282640D01*
X34073Y284982D01*
X34880Y285789D01*
X40392D01*
X43541Y282640D01*
D02*
G37*
%LPC*%
G36*
X38545Y283621D02*
Y279490D01*
X42676D01*
X42605Y280029D01*
X42108Y281230D01*
X41316Y282261D01*
X40285Y283053D01*
X39084Y283550D01*
X38545Y283621D01*
D02*
G37*
G36*
X37045D02*
X36507Y283550D01*
X35306Y283053D01*
X34274Y282261D01*
X33483Y281230D01*
X32985Y280029D01*
X32914Y279490D01*
X37045D01*
Y283621D01*
D02*
G37*
G36*
X42676Y277990D02*
X38545D01*
Y273859D01*
X39084Y273930D01*
X40285Y274428D01*
X41316Y275219D01*
X42108Y276250D01*
X42605Y277451D01*
X42676Y277990D01*
D02*
G37*
G36*
X37045D02*
X32914D01*
X32985Y277451D01*
X33483Y276250D01*
X34274Y275219D01*
X35306Y274428D01*
X36507Y273930D01*
X37045Y273859D01*
Y277990D01*
D02*
G37*
G36*
X38561Y240546D02*
Y236415D01*
X42692D01*
X42621Y236954D01*
X42123Y238155D01*
X41332Y239187D01*
X40301Y239978D01*
X39100Y240475D01*
X38561Y240546D01*
D02*
G37*
G36*
X37061D02*
X36522Y240475D01*
X35321Y239978D01*
X34290Y239187D01*
X33499Y238155D01*
X33001Y236954D01*
X32930Y236415D01*
X37061D01*
Y240546D01*
D02*
G37*
G36*
X42692Y234915D02*
X38561D01*
Y230785D01*
X39100Y230855D01*
X40301Y231353D01*
X41332Y232144D01*
X42123Y233176D01*
X42621Y234377D01*
X42692Y234915D01*
D02*
G37*
G36*
X37061D02*
X32930D01*
X33001Y234377D01*
X33499Y233176D01*
X34290Y232144D01*
X35321Y231353D01*
X36522Y230855D01*
X37061Y230785D01*
Y234915D01*
D02*
G37*
%LPD*%
G36*
X149016Y231398D02*
Y186811D01*
X140157Y177953D01*
Y177854D01*
X127953D01*
X125197Y180610D01*
Y185827D01*
X128445Y189075D01*
X136909D01*
X139862Y192027D01*
X139862Y219783D01*
X129823Y229823D01*
Y235827D01*
X132480Y238484D01*
X141929D01*
X149016Y231398D01*
D02*
G37*
%LPC*%
G36*
X138939Y236377D02*
Y232246D01*
X143070D01*
X142999Y232785D01*
X142501Y233986D01*
X141710Y235017D01*
X140679Y235808D01*
X139478Y236306D01*
X138939Y236377D01*
D02*
G37*
G36*
X137439D02*
X136900Y236306D01*
X135699Y235808D01*
X134668Y235017D01*
X133877Y233986D01*
X133379Y232785D01*
X133308Y232246D01*
X137439D01*
Y236377D01*
D02*
G37*
G36*
X143070Y230746D02*
X138939D01*
Y226615D01*
X139478Y226686D01*
X140679Y227184D01*
X141710Y227975D01*
X142501Y229006D01*
X142999Y230207D01*
X143070Y230746D01*
D02*
G37*
G36*
X137439D02*
X133308D01*
X133379Y230207D01*
X133877Y229006D01*
X134668Y227975D01*
X135699Y227184D01*
X136900Y226686D01*
X137439Y226615D01*
Y230746D01*
D02*
G37*
G36*
X135665Y186016D02*
X132614D01*
Y183653D01*
X135665D01*
Y186016D01*
D02*
G37*
G36*
X130614D02*
X127563D01*
Y183653D01*
X130614D01*
Y186016D01*
D02*
G37*
G36*
X135665Y181653D02*
X132614D01*
Y179291D01*
X135665D01*
Y181653D01*
D02*
G37*
G36*
X130614D02*
X127563D01*
Y179291D01*
X130614D01*
Y181653D01*
D02*
G37*
%LPD*%
G36*
X59461Y187520D02*
X72152Y182803D01*
X73524Y180004D01*
X73524Y176845D01*
X72972Y175812D01*
X72229Y175316D01*
X67772Y172934D01*
X63809Y172146D01*
X46850Y172146D01*
X42126Y176870D01*
X42126Y192683D01*
X44211Y196358D01*
X54565Y196358D01*
X59461Y187520D01*
D02*
G37*
G36*
X226772Y121358D02*
Y115551D01*
X225394Y114173D01*
X212402D01*
X208760Y117815D01*
Y122736D01*
X210138Y124114D01*
X224016D01*
X226772Y121358D01*
D02*
G37*
%LPC*%
G36*
X200508Y193618D02*
X197699D01*
Y191990D01*
X200508D01*
Y193618D01*
D02*
G37*
G36*
X189506D02*
X186697D01*
Y191990D01*
X189506D01*
Y193618D01*
D02*
G37*
G36*
X178059Y162242D02*
X176734D01*
Y160917D01*
X176835Y160938D01*
X177557Y161420D01*
X178039Y162141D01*
X178059Y162242D01*
D02*
G37*
G36*
X175234D02*
X173910D01*
X173930Y162141D01*
X174412Y161420D01*
X175133Y160938D01*
X175234Y160917D01*
Y162242D01*
D02*
G37*
G36*
X170185D02*
X168860D01*
Y160917D01*
X168961Y160938D01*
X169683Y161420D01*
X170165Y162141D01*
X170185Y162242D01*
D02*
G37*
G36*
X172797Y160736D02*
Y159411D01*
X174122D01*
X174102Y159512D01*
X173620Y160234D01*
X172898Y160716D01*
X172797Y160736D01*
D02*
G37*
G36*
X171297D02*
X171196Y160716D01*
X170475Y160234D01*
X169993Y159512D01*
X169973Y159411D01*
X171297D01*
Y160736D01*
D02*
G37*
G36*
X166248Y158305D02*
X164923D01*
Y156981D01*
X165024Y157001D01*
X165746Y157483D01*
X166228Y158204D01*
X166248Y158305D01*
D02*
G37*
G36*
X162311Y154368D02*
X160986D01*
Y153043D01*
X161087Y153064D01*
X161809Y153546D01*
X162291Y154267D01*
X162311Y154368D01*
D02*
G37*
G36*
X163402Y143913D02*
X161774D01*
Y141104D01*
X163402D01*
Y143913D01*
D02*
G37*
G36*
X160274D02*
X158646D01*
Y141104D01*
X160274D01*
Y143913D01*
D02*
G37*
G36*
X163402Y139604D02*
X161774D01*
Y136795D01*
X163402D01*
Y139604D01*
D02*
G37*
G36*
X160274D02*
X158646D01*
Y136795D01*
X160274D01*
Y139604D01*
D02*
G37*
G36*
X164091Y135547D02*
X161774D01*
Y134214D01*
X164091D01*
Y135547D01*
D02*
G37*
G36*
X160274D02*
X157957D01*
Y134214D01*
X160274D01*
Y135547D01*
D02*
G37*
G36*
X125248Y144150D02*
X122045D01*
Y142915D01*
X125248D01*
Y144150D01*
D02*
G37*
G36*
X281065Y123728D02*
Y122404D01*
X282390D01*
X282369Y122505D01*
X281887Y123226D01*
X281166Y123708D01*
X281065Y123728D01*
D02*
G37*
G36*
X279565D02*
X279464Y123708D01*
X278743Y123226D01*
X278260Y122505D01*
X278240Y122404D01*
X279565D01*
Y123728D01*
D02*
G37*
G36*
X269254D02*
Y122404D01*
X270579D01*
X270559Y122505D01*
X270076Y123226D01*
X269355Y123708D01*
X269254Y123728D01*
D02*
G37*
G36*
X267754D02*
X267653Y123708D01*
X266931Y123226D01*
X266449Y122505D01*
X266429Y122404D01*
X267754D01*
Y123728D01*
D02*
G37*
G36*
X282390Y120904D02*
X281065D01*
Y119579D01*
X281166Y119599D01*
X281887Y120081D01*
X282369Y120802D01*
X282390Y120904D01*
D02*
G37*
G36*
X279565D02*
X278240D01*
X278260Y120802D01*
X278743Y120081D01*
X279464Y119599D01*
X279565Y119579D01*
Y120904D01*
D02*
G37*
G36*
X270579D02*
X269254D01*
Y119579D01*
X269355Y119599D01*
X270076Y120081D01*
X270559Y120802D01*
X270579Y120904D01*
D02*
G37*
G36*
X267754D02*
X266429D01*
X266449Y120802D01*
X266931Y120081D01*
X267653Y119599D01*
X267754Y119579D01*
Y120904D01*
D02*
G37*
G36*
X265317Y112705D02*
Y111380D01*
X266642D01*
X266621Y111481D01*
X266139Y112202D01*
X265418Y112685D01*
X265317Y112705D01*
D02*
G37*
G36*
X263817D02*
X263716Y112685D01*
X262994Y112202D01*
X262512Y111481D01*
X262492Y111380D01*
X263817D01*
Y112705D01*
D02*
G37*
G36*
X280352Y111039D02*
X277543D01*
Y109411D01*
X280352D01*
Y111039D01*
D02*
G37*
G36*
X275209Y112708D02*
X267902D01*
Y109338D01*
X275209D01*
Y112708D01*
D02*
G37*
G36*
X266642Y109880D02*
X265317D01*
Y108555D01*
X265418Y108575D01*
X266139Y109057D01*
X266621Y109779D01*
X266642Y109880D01*
D02*
G37*
G36*
X263817D02*
X262492D01*
X262512Y109779D01*
X262994Y109057D01*
X263716Y108575D01*
X263817Y108555D01*
Y109880D01*
D02*
G37*
G36*
X291748Y107911D02*
X288939D01*
Y106283D01*
X291748D01*
Y107911D01*
D02*
G37*
G36*
X287439Y111039D02*
X281852D01*
Y108661D01*
Y106283D01*
X287439D01*
Y108661D01*
Y111039D01*
D02*
G37*
G36*
X280352Y107911D02*
X277543D01*
Y106283D01*
X280352D01*
Y107911D01*
D02*
G37*
G36*
X275209Y107708D02*
X267902D01*
Y104338D01*
X275209D01*
Y107708D01*
D02*
G37*
G36*
X284169Y103274D02*
X278968D01*
Y102693D01*
X275209D01*
Y102708D01*
X267902D01*
Y99338D01*
X275209D01*
Y99353D01*
X278968D01*
Y98772D01*
X284169D01*
Y103274D01*
D02*
G37*
G36*
X265317Y100893D02*
Y99569D01*
X266642D01*
X266621Y99670D01*
X266139Y100391D01*
X265418Y100873D01*
X265317Y100893D01*
D02*
G37*
G36*
X263817D02*
X263716Y100873D01*
X262994Y100391D01*
X262512Y99670D01*
X262492Y99569D01*
X263817D01*
Y100893D01*
D02*
G37*
G36*
X266642Y98069D02*
X265317D01*
Y96744D01*
X265418Y96764D01*
X266139Y97246D01*
X266621Y97968D01*
X266642Y98069D01*
D02*
G37*
G36*
X263817D02*
X262492D01*
X262512Y97968D01*
X262994Y97246D01*
X263716Y96764D01*
X263817Y96744D01*
Y98069D01*
D02*
G37*
G36*
X290908Y78059D02*
Y76734D01*
X292232D01*
X292212Y76835D01*
X291730Y77557D01*
X291008Y78039D01*
X290908Y78059D01*
D02*
G37*
G36*
X289407D02*
X289306Y78039D01*
X288585Y77557D01*
X288103Y76835D01*
X288083Y76734D01*
X289407D01*
Y78059D01*
D02*
G37*
G36*
X270488Y75825D02*
X267679D01*
Y74197D01*
X270488D01*
Y75825D01*
D02*
G37*
G36*
X252793D02*
X249984D01*
Y74197D01*
X252793D01*
Y75825D01*
D02*
G37*
G36*
X292232Y75234D02*
X290908D01*
Y73910D01*
X291008Y73930D01*
X291730Y74412D01*
X292212Y75133D01*
X292232Y75234D01*
D02*
G37*
G36*
X289407D02*
X288083D01*
X288103Y75133D01*
X288585Y74412D01*
X289306Y73930D01*
X289407Y73910D01*
Y75234D01*
D02*
G37*
G36*
X267679Y70972D02*
Y69648D01*
X269004D01*
X268984Y69749D01*
X268502Y70470D01*
X267780Y70952D01*
X267679Y70972D01*
D02*
G37*
G36*
X266179D02*
X266078Y70952D01*
X265357Y70470D01*
X264875Y69749D01*
X264855Y69648D01*
X266179D01*
Y70972D01*
D02*
G37*
G36*
X260986D02*
Y69648D01*
X262311D01*
X262291Y69749D01*
X261809Y70470D01*
X261087Y70952D01*
X260986Y70972D01*
D02*
G37*
G36*
X259486D02*
X259385Y70952D01*
X258664Y70470D01*
X258182Y69749D01*
X258162Y69648D01*
X259486D01*
Y70972D01*
D02*
G37*
G36*
X253900D02*
Y69648D01*
X255224D01*
X255204Y69749D01*
X254722Y70470D01*
X254001Y70952D01*
X253900Y70972D01*
D02*
G37*
G36*
X252400D02*
X252299Y70952D01*
X251577Y70470D01*
X251095Y69749D01*
X251075Y69648D01*
X252400D01*
Y70972D01*
D02*
G37*
G36*
X269004Y68148D02*
X267679D01*
Y66823D01*
X267780Y66843D01*
X268502Y67325D01*
X268984Y68047D01*
X269004Y68148D01*
D02*
G37*
G36*
X266179D02*
X264855D01*
X264875Y68047D01*
X265357Y67325D01*
X266078Y66843D01*
X266179Y66823D01*
Y68148D01*
D02*
G37*
G36*
X262311D02*
X260986D01*
Y66823D01*
X261087Y66843D01*
X261809Y67325D01*
X262291Y68047D01*
X262311Y68148D01*
D02*
G37*
G36*
X259486D02*
X258162D01*
X258182Y68047D01*
X258664Y67325D01*
X259385Y66843D01*
X259486Y66823D01*
Y68148D01*
D02*
G37*
G36*
X255224D02*
X253900D01*
Y66823D01*
X254001Y66843D01*
X254722Y67325D01*
X255204Y68047D01*
X255224Y68148D01*
D02*
G37*
G36*
X252400D02*
X251075D01*
X251095Y68047D01*
X251577Y67325D01*
X252299Y66843D01*
X252400Y66823D01*
Y68148D01*
D02*
G37*
G36*
X194795Y72551D02*
X180402D01*
Y59995D01*
X177165D01*
X176005Y59842D01*
X174924Y59394D01*
X173995Y58682D01*
X173283Y57753D01*
X172835Y56672D01*
X172682Y55512D01*
X172835Y54352D01*
X173283Y53270D01*
X173995Y52342D01*
X174924Y51629D01*
X176005Y51181D01*
X177165Y51029D01*
X184252D01*
X185412Y51181D01*
X186494Y51629D01*
X187422Y52342D01*
X188135Y53270D01*
X188365Y53827D01*
X194795D01*
Y72551D01*
D02*
G37*
G36*
X204687Y52125D02*
Y44057D01*
X208917D01*
Y47244D01*
X208747Y48533D01*
X208249Y49734D01*
X207458Y50765D01*
X206427Y51557D01*
X205226Y52054D01*
X204687Y52125D01*
D02*
G37*
G36*
X203187D02*
X202648Y52054D01*
X201447Y51557D01*
X200416Y50765D01*
X199625Y49734D01*
X199127Y48533D01*
X198957Y47244D01*
Y44057D01*
X203187D01*
Y52125D01*
D02*
G37*
G36*
X260236Y46584D02*
X259397Y46417D01*
X258685Y45941D01*
X258209Y45229D01*
X258043Y44390D01*
Y40383D01*
X254638D01*
Y40957D01*
X251071D01*
Y38767D01*
X250956Y38189D01*
X251071Y37611D01*
Y35421D01*
X254638D01*
Y35995D01*
X260039D01*
X260138Y36015D01*
X260236Y35995D01*
X260814Y36110D01*
X263496D01*
Y40268D01*
X262430D01*
Y44390D01*
X262263Y45229D01*
X261787Y45941D01*
X261076Y46417D01*
X260236Y46584D01*
D02*
G37*
G36*
X188976Y35688D02*
X185789D01*
Y31459D01*
X193857D01*
X193786Y31997D01*
X193289Y33198D01*
X192498Y34230D01*
X191466Y35021D01*
X190265Y35519D01*
X188976Y35688D01*
D02*
G37*
G36*
X263795Y33087D02*
X260986D01*
Y31459D01*
X263795D01*
Y33087D01*
D02*
G37*
G36*
X280671Y32783D02*
Y31459D01*
X281996D01*
X281976Y31560D01*
X281494Y32281D01*
X280772Y32763D01*
X280671Y32783D01*
D02*
G37*
G36*
X279171D02*
X279070Y32763D01*
X278349Y32281D01*
X277867Y31560D01*
X277847Y31459D01*
X279171D01*
Y32783D01*
D02*
G37*
G36*
X272797D02*
Y31459D01*
X274122D01*
X274102Y31560D01*
X273620Y32281D01*
X272898Y32763D01*
X272797Y32783D01*
D02*
G37*
G36*
X271297D02*
X271196Y32763D01*
X270475Y32281D01*
X269993Y31560D01*
X269973Y31459D01*
X271297D01*
Y32783D01*
D02*
G37*
G36*
X259486Y33087D02*
X256677D01*
Y31459D01*
X259486D01*
Y33087D01*
D02*
G37*
G36*
X184289Y35688D02*
X181102D01*
X179814Y35519D01*
X178613Y35021D01*
X177581Y34230D01*
X176790Y33198D01*
X176292Y31997D01*
X176222Y31459D01*
X184289D01*
Y35688D01*
D02*
G37*
G36*
X219110Y41157D02*
X211183D01*
Y28703D01*
X219110D01*
Y41157D01*
D02*
G37*
G36*
X208917Y42557D02*
X203937D01*
X198957D01*
Y39370D01*
X199127Y38081D01*
X199625Y36880D01*
X200416Y35849D01*
X201447Y35058D01*
X201756Y34930D01*
Y28703D01*
X209683D01*
Y41157D01*
X208917D01*
Y42557D01*
D02*
G37*
G36*
X168323Y41157D02*
X160396D01*
Y28703D01*
X168323D01*
Y41157D01*
D02*
G37*
G36*
X158896D02*
X150969D01*
Y28703D01*
X158896D01*
Y41157D01*
D02*
G37*
G36*
X281996Y29959D02*
X280671D01*
Y28634D01*
X280772Y28654D01*
X281494Y29136D01*
X281976Y29858D01*
X281996Y29959D01*
D02*
G37*
G36*
X279171D02*
X277847D01*
X277867Y29858D01*
X278349Y29136D01*
X279070Y28654D01*
X279171Y28634D01*
Y29959D01*
D02*
G37*
G36*
X274122D02*
X272797D01*
Y28634D01*
X272898Y28654D01*
X273620Y29136D01*
X274102Y29858D01*
X274122Y29959D01*
D02*
G37*
G36*
X271297D02*
X269973D01*
X269993Y29858D01*
X270475Y29136D01*
X271196Y28654D01*
X271297Y28634D01*
Y29959D01*
D02*
G37*
G36*
X263795D02*
X260986D01*
Y28331D01*
X263795D01*
Y29959D01*
D02*
G37*
G36*
X259486D02*
X256677D01*
Y28331D01*
X259486D01*
Y29959D01*
D02*
G37*
G36*
X193857D02*
X185789D01*
Y25729D01*
X188976D01*
X190265Y25899D01*
X191466Y26396D01*
X192498Y27187D01*
X193289Y28219D01*
X193786Y29420D01*
X193857Y29959D01*
D02*
G37*
G36*
X184289D02*
X176222D01*
X176292Y29420D01*
X176790Y28219D01*
X177581Y27187D01*
X178613Y26396D01*
X179814Y25899D01*
X181102Y25729D01*
X184289D01*
Y29959D01*
D02*
G37*
G36*
X231496Y80673D02*
X230799Y80534D01*
X230207Y80139D01*
X229812Y79548D01*
X229674Y78851D01*
X229812Y78153D01*
X230172Y77614D01*
X229812Y77075D01*
X229674Y76378D01*
X229812Y75681D01*
X230207Y75089D01*
X230799Y74694D01*
X231496Y74555D01*
X232193Y74694D01*
X232214Y74708D01*
X237251D01*
Y47930D01*
X236417D01*
X235778Y47803D01*
X235236Y47441D01*
X234874Y46899D01*
X234747Y46260D01*
Y43732D01*
X234535D01*
Y36976D01*
X234747D01*
Y34480D01*
X234535D01*
Y27724D01*
X234747D01*
Y26668D01*
X234747Y26668D01*
X234874Y26028D01*
X235236Y25487D01*
X237350Y23374D01*
Y22453D01*
X235646D01*
Y22752D01*
X234608D01*
Y19094D01*
Y15437D01*
X235646D01*
Y15736D01*
X245583D01*
Y20310D01*
X245879Y20549D01*
X246346Y20345D01*
Y14762D01*
X256016D01*
Y22463D01*
X248339D01*
X248148Y22925D01*
X250571Y25348D01*
X251071Y25141D01*
Y24398D01*
X254638D01*
Y29933D01*
X251071D01*
Y28645D01*
X250295D01*
X250295Y28645D01*
X249729Y28533D01*
X249249Y28212D01*
X249249Y28212D01*
X243662Y22625D01*
X243162Y22832D01*
Y23564D01*
X245078Y25480D01*
X245078Y25480D01*
X245441Y26022D01*
X245568Y26661D01*
X245568Y26661D01*
Y27724D01*
X245779D01*
Y34480D01*
X245568D01*
Y36976D01*
X245779D01*
Y43732D01*
X245568D01*
Y46260D01*
X245441Y46899D01*
X245078Y47441D01*
X244537Y47803D01*
X243898Y47930D01*
X243064D01*
Y78851D01*
X242937Y79490D01*
X242575Y80032D01*
X242033Y80393D01*
X241394Y80521D01*
X232214D01*
X232193Y80534D01*
X231496Y80673D01*
D02*
G37*
G36*
X272797Y24909D02*
Y23585D01*
X274122D01*
X274102Y23686D01*
X273620Y24407D01*
X272898Y24889D01*
X272797Y24909D01*
D02*
G37*
G36*
X271297D02*
X271196Y24889D01*
X270475Y24407D01*
X269993Y23686D01*
X269973Y23585D01*
X271297D01*
Y24909D01*
D02*
G37*
G36*
X274122Y22085D02*
X272797D01*
Y20760D01*
X272898Y20780D01*
X273620Y21262D01*
X274102Y21984D01*
X274122Y22085D01*
D02*
G37*
G36*
X271297D02*
X269973D01*
X269993Y21984D01*
X270475Y21262D01*
X271196Y20780D01*
X271297Y20760D01*
Y22085D01*
D02*
G37*
G36*
X233108Y22752D02*
X232071D01*
Y22548D01*
X231606Y22463D01*
X231571Y22463D01*
X221937D01*
Y14762D01*
X231606D01*
Y15351D01*
X232071Y15437D01*
X232106Y15437D01*
X233108D01*
Y19094D01*
Y22752D01*
D02*
G37*
G36*
X219110Y27203D02*
X211183D01*
Y14748D01*
X219110D01*
Y27203D01*
D02*
G37*
G36*
X209683D02*
X201756D01*
Y14748D01*
X209683D01*
Y27203D01*
D02*
G37*
G36*
X168323Y27203D02*
X160396D01*
Y14748D01*
X168323D01*
Y27203D01*
D02*
G37*
G36*
X158896D02*
X150969D01*
Y14748D01*
X158896D01*
Y27203D01*
D02*
G37*
G36*
X242482Y11917D02*
Y10593D01*
X243807D01*
X243787Y10694D01*
X243305Y11415D01*
X242583Y11897D01*
X242482Y11917D01*
D02*
G37*
G36*
X240982D02*
X240881Y11897D01*
X240160Y11415D01*
X239678Y10694D01*
X239658Y10593D01*
X240982D01*
Y11917D01*
D02*
G37*
G36*
X234608D02*
Y10593D01*
X235933D01*
X235913Y10694D01*
X235431Y11415D01*
X234709Y11897D01*
X234608Y11917D01*
D02*
G37*
G36*
X233108D02*
X233007Y11897D01*
X232286Y11415D01*
X231804Y10694D01*
X231784Y10593D01*
X233108D01*
Y11917D01*
D02*
G37*
G36*
X185039Y18071D02*
X183725Y17898D01*
X182500Y17391D01*
X181448Y16583D01*
X180641Y15532D01*
X180133Y14307D01*
X179961Y12992D01*
X180133Y11678D01*
X180641Y10453D01*
X181448Y9401D01*
X182500Y8594D01*
X183725Y8086D01*
X185039Y7913D01*
X186354Y8086D01*
X187579Y8594D01*
X188631Y9401D01*
X189438Y10453D01*
X189945Y11678D01*
X190118Y12992D01*
X189945Y14307D01*
X189438Y15532D01*
X188631Y16583D01*
X187579Y17391D01*
X186354Y17898D01*
X185039Y18071D01*
D02*
G37*
G36*
X243807Y9093D02*
X242482D01*
Y7768D01*
X242583Y7788D01*
X243305Y8270D01*
X243787Y8991D01*
X243807Y9093D01*
D02*
G37*
G36*
X240982D02*
X239658D01*
X239678Y8991D01*
X240160Y8270D01*
X240881Y7788D01*
X240982Y7768D01*
Y9093D01*
D02*
G37*
G36*
X235933D02*
X234608D01*
Y7768D01*
X234709Y7788D01*
X235431Y8270D01*
X235913Y8991D01*
X235933Y9093D01*
D02*
G37*
G36*
X233108D02*
X231784D01*
X231804Y8991D01*
X232286Y8270D01*
X233007Y7788D01*
X233108Y7768D01*
Y9093D01*
D02*
G37*
G36*
X258378Y12118D02*
X249496D01*
Y3630D01*
X258378D01*
Y12118D01*
D02*
G37*
G36*
X228457D02*
X219575D01*
Y3630D01*
X228457D01*
Y12118D01*
D02*
G37*
G36*
X59813Y71071D02*
X56945D01*
Y68203D01*
X59813D01*
Y71071D01*
D02*
G37*
G36*
X78630D02*
X75762D01*
Y68203D01*
X78630D01*
Y71071D01*
D02*
G37*
G36*
X74262D02*
X68537D01*
Y67453D01*
X67037D01*
Y71071D01*
X61313D01*
Y67453D01*
X60563D01*
Y66703D01*
X56945D01*
Y63835D01*
Y60978D01*
X60563D01*
Y59478D01*
X56945D01*
Y56610D01*
Y53754D01*
X60563D01*
Y53004D01*
X61313D01*
Y49386D01*
X67037D01*
Y53004D01*
X68537D01*
Y49386D01*
X74262D01*
Y53004D01*
X75012D01*
Y53754D01*
X78630D01*
Y56610D01*
Y59478D01*
X75012D01*
Y60978D01*
X78630D01*
Y63835D01*
Y66703D01*
X75012D01*
Y67453D01*
X74262D01*
Y71071D01*
D02*
G37*
G36*
X78630Y52254D02*
X75762D01*
Y49386D01*
X78630D01*
Y52254D01*
D02*
G37*
G36*
X59813Y52254D02*
X56945D01*
Y49386D01*
X59813D01*
Y52254D01*
D02*
G37*
G36*
X38776Y23102D02*
X37148D01*
Y20293D01*
X38776D01*
Y23102D01*
D02*
G37*
G36*
X35648D02*
X34020D01*
Y20293D01*
X35648D01*
Y23102D01*
D02*
G37*
G36*
X38776Y18793D02*
X36398D01*
X34020D01*
Y15984D01*
Y13293D01*
X36398D01*
X38776D01*
Y15984D01*
Y18793D01*
D02*
G37*
G36*
Y11793D02*
X37148D01*
Y8984D01*
X38776D01*
Y11793D01*
D02*
G37*
G36*
X35648D02*
X34020D01*
Y8984D01*
X35648D01*
Y11793D01*
D02*
G37*
G36*
X332640Y118250D02*
Y116104D01*
X334785D01*
X334782Y116129D01*
X334483Y116851D01*
X334007Y117472D01*
X333387Y117947D01*
X332665Y118246D01*
X332640Y118250D01*
D02*
G37*
G36*
X331140D02*
X331115Y118246D01*
X330393Y117947D01*
X329773Y117472D01*
X329297Y116851D01*
X328998Y116129D01*
X328994Y116104D01*
X331140D01*
Y118250D01*
D02*
G37*
G36*
X346063Y118249D02*
X345314Y118150D01*
X344616Y117861D01*
X344016Y117401D01*
X343556Y116802D01*
X343267Y116104D01*
X343168Y115354D01*
X343267Y114605D01*
X343556Y113907D01*
X344016Y113307D01*
X344616Y112847D01*
X345314Y112558D01*
X346063Y112460D01*
X346812Y112558D01*
X347510Y112847D01*
X348110Y113307D01*
X348570Y113907D01*
X348859Y114605D01*
X348958Y115354D01*
X348859Y116104D01*
X348570Y116802D01*
X348110Y117401D01*
X347510Y117861D01*
X346812Y118150D01*
X346063Y118249D01*
D02*
G37*
G36*
X331140Y114604D02*
X328994D01*
X328998Y114579D01*
X329297Y113857D01*
X329773Y113237D01*
X330393Y112761D01*
X331115Y112462D01*
X331140Y112459D01*
Y114604D01*
D02*
G37*
G36*
X346063Y104076D02*
X345314Y103977D01*
X344616Y103688D01*
X344016Y103228D01*
X343556Y102629D01*
X343267Y101930D01*
X343168Y101181D01*
X343267Y100432D01*
X343556Y99734D01*
X344016Y99134D01*
X344616Y98674D01*
X345314Y98385D01*
X346063Y98286D01*
X346812Y98385D01*
X347510Y98674D01*
X348110Y99134D01*
X348570Y99734D01*
X348859Y100432D01*
X348958Y101181D01*
X348859Y101930D01*
X348570Y102629D01*
X348110Y103228D01*
X347510Y103688D01*
X346812Y103977D01*
X346063Y104076D01*
D02*
G37*
G36*
X335382Y114604D02*
X332640D01*
Y111862D01*
X333494Y111008D01*
Y86331D01*
X329417D01*
Y79811D01*
X329812D01*
Y73511D01*
X328895D01*
Y69944D01*
X323335D01*
X322691Y69816D01*
X322145Y69451D01*
X313376Y60682D01*
X313011Y60136D01*
X312883Y59491D01*
Y59102D01*
X312605Y58687D01*
X312443Y57874D01*
X312605Y57061D01*
X312628Y57027D01*
Y51591D01*
X311227Y50190D01*
X311110Y50014D01*
X309829Y48734D01*
X309675Y48502D01*
X309620Y48228D01*
Y44685D01*
X309675Y44412D01*
X309829Y44180D01*
X310004Y44005D01*
X310040Y43334D01*
X309853Y43147D01*
X309698Y42915D01*
X309643Y42641D01*
Y38704D01*
X309698Y38431D01*
X309831Y38231D01*
X309854Y38179D01*
X309863Y37999D01*
X309781Y37563D01*
X309337Y37119D01*
X309182Y36888D01*
X309128Y36614D01*
Y32677D01*
X309182Y32404D01*
X309337Y32172D01*
X309961Y31549D01*
X310192Y31394D01*
X310466Y31339D01*
X310686Y30839D01*
X310338Y30386D01*
X310009Y29592D01*
X309897Y28740D01*
X310009Y27888D01*
X310338Y27094D01*
X310861Y26412D01*
X311278Y26093D01*
Y25482D01*
X310861Y25162D01*
X310338Y24481D01*
X310009Y23687D01*
X309897Y22835D01*
X310009Y21983D01*
X310338Y21189D01*
X310861Y20507D01*
X311278Y20187D01*
Y19577D01*
X310861Y19257D01*
X310338Y18575D01*
X310009Y17781D01*
X309897Y16929D01*
X310009Y16077D01*
X310338Y15283D01*
X310861Y14601D01*
X311543Y14078D01*
X312337Y13749D01*
X313189Y13637D01*
X315158D01*
X316009Y13749D01*
X316803Y14078D01*
X317485Y14601D01*
X318008Y15283D01*
X318034Y15344D01*
X318534Y15245D01*
Y12598D01*
X318681Y11857D01*
X319102Y11227D01*
X321788Y8541D01*
X322417Y8121D01*
X323159Y7973D01*
X323183D01*
X323460Y7788D01*
X323561Y7768D01*
Y9843D01*
Y12252D01*
X322411Y13401D01*
Y33843D01*
X323244Y34675D01*
X325255D01*
X325429Y34560D01*
X325530Y34539D01*
Y36614D01*
Y38689D01*
X325429Y38669D01*
X325255Y38553D01*
X323478D01*
X323286Y39015D01*
X330473Y46202D01*
X330838Y46748D01*
X330966Y47392D01*
X330966Y47392D01*
Y50195D01*
X331670Y50899D01*
X334490D01*
Y55400D01*
X329289D01*
Y53280D01*
X328092Y52083D01*
X327727Y51537D01*
X327598Y50893D01*
Y48090D01*
X323661Y44152D01*
X323199Y44344D01*
Y61917D01*
X325016Y63734D01*
X327665D01*
Y59535D01*
X333398D01*
Y59771D01*
X333697Y60127D01*
X335106D01*
Y55795D01*
X335335D01*
X335589Y55400D01*
Y50899D01*
X340790D01*
Y55400D01*
X340790D01*
X340839Y55795D01*
X340839D01*
X340839Y55880D01*
Y60127D01*
X350787D01*
X351432Y60255D01*
X351978Y60620D01*
X360806Y69448D01*
X361171Y69994D01*
X361299Y70639D01*
Y71881D01*
X361299Y71881D01*
X361171Y72526D01*
X360806Y73072D01*
X349616Y84262D01*
X349070Y84627D01*
X348425Y84755D01*
X341055D01*
Y86331D01*
X337372D01*
Y111811D01*
X337224Y112553D01*
X336804Y113182D01*
X335382Y114604D01*
D02*
G37*
G36*
X339234Y38689D02*
Y37364D01*
X340559D01*
X340539Y37465D01*
X340057Y38187D01*
X339335Y38669D01*
X339234Y38689D01*
D02*
G37*
G36*
X337734D02*
X337633Y38669D01*
X336912Y38187D01*
X336430Y37465D01*
X336410Y37364D01*
X337734D01*
Y38689D01*
D02*
G37*
G36*
X332935D02*
Y37364D01*
X334260D01*
X334240Y37465D01*
X333757Y38187D01*
X333036Y38669D01*
X332935Y38689D01*
D02*
G37*
G36*
X331435D02*
X331334Y38669D01*
X330612Y38187D01*
X330131Y37465D01*
X330110Y37364D01*
X331435D01*
Y38689D01*
D02*
G37*
G36*
X327029D02*
Y37364D01*
X328354D01*
X328334Y37465D01*
X327852Y38187D01*
X327131Y38669D01*
X327029Y38689D01*
D02*
G37*
G36*
X340559Y35864D02*
X339234D01*
Y34539D01*
X339335Y34560D01*
X340057Y35042D01*
X340539Y35763D01*
X340559Y35864D01*
D02*
G37*
G36*
X337734D02*
X336410D01*
X336430Y35763D01*
X336912Y35042D01*
X337633Y34560D01*
X337734Y34539D01*
Y35864D01*
D02*
G37*
G36*
X334260D02*
X332935D01*
Y34539D01*
X333036Y34560D01*
X333757Y35042D01*
X334240Y35763D01*
X334260Y35864D01*
D02*
G37*
G36*
X331435D02*
X330110D01*
X330131Y35763D01*
X330612Y35042D01*
X331334Y34560D01*
X331435Y34539D01*
Y35864D01*
D02*
G37*
G36*
X328354D02*
X327029D01*
Y34539D01*
X327131Y34560D01*
X327852Y35042D01*
X328334Y35763D01*
X328354Y35864D01*
D02*
G37*
G36*
X325061Y11917D02*
Y10593D01*
X326386D01*
X326366Y10694D01*
X325884Y11415D01*
X325162Y11897D01*
X325061Y11917D01*
D02*
G37*
G36*
X326386Y9093D02*
X325061D01*
Y7768D01*
X325162Y7788D01*
X325884Y8270D01*
X326366Y8991D01*
X326386Y9093D01*
D02*
G37*
%LPD*%
G36*
X314665Y51378D02*
X317815Y48228D01*
Y44685D01*
X317374Y44245D01*
X310775D01*
X310335Y44685D01*
Y48228D01*
X312303Y50197D01*
X313484Y51378D01*
X314665Y51378D01*
D02*
G37*
G36*
X317543Y42346D02*
X318724Y41165D01*
X318724Y39984D01*
X316821Y38081D01*
X310981Y38081D01*
X310358Y38704D01*
Y42641D01*
X310902Y43185D01*
X316704Y43185D01*
X317543Y42346D01*
D02*
G37*
G36*
X317028Y36319D02*
X318061Y35285D01*
X318129Y34945D01*
X317374Y33122D01*
X316306Y32054D01*
X310466Y32054D01*
X309842Y32677D01*
Y36614D01*
X310387Y37158D01*
X316188Y37158D01*
X317028Y36319D01*
D02*
G37*
D18*
X243287Y192266D02*
X243287Y192266D01*
X243287Y189858D02*
Y192266D01*
X242220Y188791D02*
X243287Y189858D01*
X244189Y183898D02*
Y187957D01*
X247206Y190974D01*
X246158Y183898D02*
Y187496D01*
X249606Y190945D01*
X247206Y190974D02*
Y213561D01*
X249606Y190945D02*
Y232776D01*
X250095Y183898D02*
Y189029D01*
X251575Y190509D01*
Y209217D01*
X249606Y232776D02*
X252363Y235533D01*
X230060Y230708D02*
X247206Y213561D01*
X242220Y183898D02*
Y188791D01*
X251575Y209217D02*
X261266Y218908D01*
X253543Y185378D02*
Y205157D01*
X252063Y183898D02*
X253543Y185378D01*
X282283Y127953D02*
X295669Y114567D01*
Y74995D02*
Y114567D01*
X291146Y70472D02*
X295669Y74995D01*
X297369Y63905D02*
Y116410D01*
X283426Y130353D02*
X297369Y116410D01*
X291732Y58268D02*
X297369Y63905D01*
X216535Y142126D02*
Y146147D01*
X222642Y152253D01*
X226750Y150433D02*
X230410D01*
X221260Y144943D02*
X226750Y150433D01*
X221260Y141732D02*
Y144943D01*
X222642Y152253D02*
Y156248D01*
X210827Y154724D02*
X215958D01*
X216733Y155499D01*
Y162272D01*
X222732Y156339D02*
X224504D01*
X222642Y156248D02*
X222732Y156339D01*
X209471Y153368D02*
X210827Y154724D01*
X209471Y153018D02*
Y153368D01*
X208421Y151969D02*
X209471Y153018D01*
X193701Y150394D02*
Y153395D01*
X196824Y156519D02*
Y156519D01*
X193701Y153395D02*
X196824Y156519D01*
Y156519D02*
X200246Y159940D01*
X208071Y151969D02*
X208421D01*
X208071Y147244D02*
Y151969D01*
X64175Y67453D02*
X67787D01*
X75012Y60228D02*
Y63841D01*
X67787D02*
Y67453D01*
Y53004D02*
X71400D01*
X64175D02*
X67787D01*
X64175Y60228D02*
X67787D01*
Y56616D02*
Y60228D01*
X75012Y56616D02*
Y60228D01*
X71400Y53004D02*
X75012D01*
X60563D02*
X64175D01*
X67787D02*
Y56616D01*
Y60228D02*
X71400D01*
X60563D02*
X64175D01*
X60563Y63841D02*
Y67453D01*
Y56616D02*
Y60228D01*
X67787D02*
Y63841D01*
X75012D02*
Y67453D01*
X67787D02*
X71400D01*
X60563D02*
X64175D01*
X49606Y109843D02*
X53937D01*
X58260Y105520D01*
Y97630D02*
Y105520D01*
X49606Y106693D02*
X52362D01*
X53260Y97630D02*
Y105795D01*
X52362Y106693D02*
X53260Y105795D01*
X276336Y127953D02*
X282283D01*
X287868Y101023D02*
X292001D01*
X288976Y94488D02*
X292001Y97513D01*
Y101023D01*
X246158Y146714D02*
X251139Y141732D01*
X262556D01*
X247244Y138583D02*
Y140819D01*
X248217Y147059D02*
X251843Y143432D01*
X248217Y147059D02*
Y150343D01*
X240252Y145407D02*
X242913Y142746D01*
X244189Y146278D02*
Y150433D01*
X242220Y145843D02*
X247244Y140819D01*
X242220Y145843D02*
Y150433D01*
X244189Y146278D02*
X252362Y138105D01*
Y136221D02*
Y138105D01*
X246158Y146714D02*
Y150433D01*
X242913Y139764D02*
Y142746D01*
X251843Y143432D02*
X265501D01*
X240252Y145407D02*
Y150433D01*
X262556Y141732D02*
X276336Y127953D01*
X278580Y130353D02*
X283426D01*
X281102Y70472D02*
X291146D01*
X265501Y143432D02*
X278580Y130353D01*
X248126Y150433D02*
X248217Y150343D01*
X252362Y136221D02*
X259842Y128740D01*
X242913Y132283D02*
X246850Y128347D01*
X242913Y132283D02*
Y133464D01*
X237795Y125984D02*
X246065Y117715D01*
X246242D01*
X247933Y116023D02*
X249902D01*
X246242Y117715D02*
X247933Y116023D01*
X237795Y125984D02*
Y133464D01*
Y146583D02*
X238283Y147071D01*
X237795Y139764D02*
Y146583D01*
X238283Y147071D02*
Y150433D01*
X227559Y125197D02*
X229134Y123622D01*
X227559Y125197D02*
Y133464D01*
X228145Y144488D02*
X229795D01*
X227559Y143902D02*
X228145Y144488D01*
X227559Y139764D02*
Y143902D01*
X229795Y144488D02*
X232378Y147071D01*
Y150433D01*
X232677Y139764D02*
Y143659D01*
X234347Y145328D02*
Y150433D01*
X232677Y143659D02*
X234347Y145328D01*
X243307Y112640D02*
X244924Y111023D01*
X249902D01*
X243307Y112640D02*
Y117323D01*
X237008Y123622D02*
X243307Y117323D01*
X229134Y123622D02*
X237008D01*
X259842Y99011D02*
Y128740D01*
X259257Y98425D02*
X259842Y99011D01*
X255512Y98425D02*
X259257D01*
X281102Y58661D02*
X281496Y58268D01*
X291732D01*
X250774Y88976D02*
X256286Y94488D01*
X288976D01*
X234402Y103695D02*
X241975D01*
X234252Y103544D02*
X234402Y103695D01*
X140945Y56299D02*
Y67716D01*
X92689Y8043D02*
X140945Y56299D01*
X144519Y26015D02*
X145276Y26772D01*
Y62992D01*
X162598Y80315D01*
X140969Y26015D02*
X144519D01*
X66863Y8043D02*
X92689D01*
X222244Y106161D02*
X226697D01*
X229984Y109449D01*
X234252D01*
X234371D02*
X238583D01*
X234312Y109509D02*
X234371Y109449D01*
X234252D02*
X234312Y109509D01*
X212205Y80315D02*
X224409Y92520D01*
X249606D02*
X255512Y98425D01*
X224409Y92520D02*
X249606D01*
X162598Y80315D02*
X212205D01*
X229528Y88976D02*
X250774D01*
X234347Y183898D02*
Y188882D01*
X253543Y174618D02*
Y180728D01*
Y174618D02*
X254106Y174055D01*
X257968D01*
X261266Y198908D02*
X262731D01*
X255243Y192885D02*
X261266Y198908D01*
X255243Y182428D02*
Y192885D01*
X253543Y180728D02*
X255243Y182428D01*
X262731Y198908D02*
X264567Y200744D01*
Y204409D01*
X253543Y205157D02*
X262795Y214409D01*
X264567D01*
X262731Y218908D02*
X264567Y220744D01*
X261266Y218908D02*
X262731D01*
X264567Y220744D02*
Y224409D01*
X252363Y235533D02*
Y238583D01*
X230060Y230708D02*
Y238591D01*
X191469Y115631D02*
X195607D01*
X196138Y116161D01*
X200591D01*
X191469Y111300D02*
X195126D01*
X195265Y111161D01*
X200591D01*
X208495Y159940D02*
X220642Y172087D01*
X200246Y159940D02*
X208495D01*
X220642Y172087D02*
X224504D01*
X216733Y162272D02*
X220642Y166181D01*
X232677Y128347D02*
Y133464D01*
X240252Y191827D02*
X240256Y191831D01*
X240252Y183898D02*
Y191827D01*
X229080Y103544D02*
X234252D01*
X257968Y180083D02*
X258988Y181102D01*
X257968Y177992D02*
Y180083D01*
X258988Y181102D02*
X266339D01*
X60563Y11547D02*
X62318Y13303D01*
X66434D01*
X60563Y8043D02*
Y11547D01*
X226697Y101161D02*
X229080Y103544D01*
X222244Y101161D02*
X226697D01*
X220642Y166181D02*
X224504D01*
D91*
X185039Y12992D02*
D03*
X5654Y181563D02*
D03*
D101*
X338976Y83071D02*
D03*
X331496D02*
D03*
X161024Y140354D02*
D03*
X153543D02*
D03*
X266339Y181102D02*
D03*
X273819D02*
D03*
X49728Y128165D02*
D03*
X57209D02*
D03*
X43878Y5543D02*
D03*
X36398D02*
D03*
X43878Y12543D02*
D03*
X36398D02*
D03*
X43878Y19543D02*
D03*
X36398D02*
D03*
X208858Y141339D02*
D03*
X201378D02*
D03*
D102*
X337796Y71260D02*
D03*
X331496D02*
D03*
X223760Y238591D02*
D03*
X230060D02*
D03*
X246063Y238583D02*
D03*
X252363D02*
D03*
X281693Y174213D02*
D03*
X275393D02*
D03*
X281693Y167992D02*
D03*
X275393D02*
D03*
X274410Y161811D02*
D03*
X268110D02*
D03*
X281569Y101023D02*
D03*
X287868D02*
D03*
X66863Y8043D02*
D03*
X60563D02*
D03*
X208071Y151969D02*
D03*
X201771D02*
D03*
X208071Y147244D02*
D03*
X201771D02*
D03*
X193701Y150394D02*
D03*
X187401D02*
D03*
X338189Y53150D02*
D03*
X331889D02*
D03*
X113619Y121165D02*
D03*
X107318D02*
D03*
D103*
X337972Y58071D02*
D03*
Y65551D02*
D03*
X330532Y61811D02*
D03*
X251744Y251905D02*
D03*
Y244425D02*
D03*
X259185Y248165D02*
D03*
X224410Y243701D02*
D03*
Y251181D02*
D03*
X216968Y247441D02*
D03*
X57189Y113925D02*
D03*
Y121405D02*
D03*
X49748Y117665D02*
D03*
X66434Y13303D02*
D03*
Y20783D02*
D03*
X58992Y17043D02*
D03*
D104*
X161024Y133465D02*
D03*
X150000D02*
D03*
X265354Y251181D02*
D03*
X276378D02*
D03*
X206976Y250665D02*
D03*
X195953D02*
D03*
D105*
X243701Y245669D02*
D03*
Y251969D02*
D03*
X230410Y244882D02*
D03*
Y251182D02*
D03*
X234252Y97245D02*
D03*
Y103544D02*
D03*
Y115749D02*
D03*
Y109449D02*
D03*
X90650Y131984D02*
D03*
Y138284D02*
D03*
X63484Y120768D02*
D03*
Y114468D02*
D03*
X51083Y18111D02*
D03*
Y11811D02*
D03*
X105968Y9015D02*
D03*
Y15315D02*
D03*
X140969Y32315D02*
D03*
Y26015D02*
D03*
X130468Y161515D02*
D03*
Y167815D02*
D03*
X235236Y193503D02*
D03*
Y199803D02*
D03*
X242913Y139764D02*
D03*
Y133464D02*
D03*
X237795Y133464D02*
D03*
Y139764D02*
D03*
X232677Y133464D02*
D03*
Y139764D02*
D03*
X227559Y133464D02*
D03*
Y139764D02*
D03*
D106*
X264567Y234409D02*
D03*
Y224409D02*
D03*
Y214409D02*
D03*
Y204409D02*
D03*
Y194409D02*
D03*
D107*
X271654Y151969D02*
D03*
Y144488D02*
D03*
X288189Y116142D02*
D03*
Y108661D02*
D03*
X281102Y116142D02*
D03*
Y108661D02*
D03*
X266929Y84055D02*
D03*
Y76575D02*
D03*
X260236Y84055D02*
D03*
Y76575D02*
D03*
X253543Y84055D02*
D03*
Y76575D02*
D03*
X83760Y131496D02*
D03*
Y138976D02*
D03*
X212992Y121063D02*
D03*
Y128543D02*
D03*
X219685Y121063D02*
D03*
Y128543D02*
D03*
X173031Y159153D02*
D03*
Y151673D02*
D03*
X123969Y160925D02*
D03*
Y168405D02*
D03*
X196949Y191240D02*
D03*
Y183760D02*
D03*
X190256Y191240D02*
D03*
Y183760D02*
D03*
X227854Y194193D02*
D03*
Y201673D02*
D03*
X260236Y30709D02*
D03*
Y38189D02*
D03*
D108*
X271555Y116023D02*
D03*
Y111023D02*
D03*
Y106023D02*
D03*
Y101023D02*
D03*
X249902D02*
D03*
Y106023D02*
D03*
Y111023D02*
D03*
Y116023D02*
D03*
X99642Y127165D02*
D03*
Y132165D02*
D03*
Y137165D02*
D03*
Y142165D02*
D03*
X121295D02*
D03*
Y137165D02*
D03*
Y132165D02*
D03*
Y127165D02*
D03*
X222244Y116161D02*
D03*
Y111161D02*
D03*
Y106161D02*
D03*
Y101161D02*
D03*
X200591D02*
D03*
Y106161D02*
D03*
Y111161D02*
D03*
Y116161D02*
D03*
D109*
X106835Y111165D02*
D03*
X115102D02*
D03*
D110*
X76055Y111165D02*
D03*
X93260D02*
D03*
D111*
X75012Y67453D02*
D03*
Y60228D02*
D03*
Y53004D02*
D03*
X67787Y67453D02*
D03*
Y60228D02*
D03*
Y53004D02*
D03*
X60563Y67453D02*
D03*
Y60228D02*
D03*
Y53004D02*
D03*
D112*
X38260Y97630D02*
D03*
X43260D02*
D03*
X48260D02*
D03*
X53260D02*
D03*
X58260D02*
D03*
X63260D02*
D03*
X68260D02*
D03*
X73260D02*
D03*
X78260D02*
D03*
X83260D02*
D03*
X88260D02*
D03*
X93260D02*
D03*
X98260D02*
D03*
X103260D02*
D03*
Y30701D02*
D03*
X98260D02*
D03*
X93260D02*
D03*
X88260D02*
D03*
X83260D02*
D03*
X78260D02*
D03*
X73260D02*
D03*
X68260D02*
D03*
X63260D02*
D03*
X58260D02*
D03*
X53260D02*
D03*
X48260D02*
D03*
X43260D02*
D03*
X38260D02*
D03*
D113*
X107197Y86665D02*
D03*
Y81665D02*
D03*
Y76665D02*
D03*
Y71665D02*
D03*
Y66665D02*
D03*
Y61665D02*
D03*
Y56665D02*
D03*
Y51665D02*
D03*
Y46665D02*
D03*
Y41665D02*
D03*
D114*
X118110Y18055D02*
D03*
X129921D02*
D03*
X135827D02*
D03*
D115*
X141339Y15102D02*
D03*
X112598D02*
D03*
X141339Y7228D02*
D03*
X112598D02*
D03*
D116*
X159646Y27953D02*
D03*
X210433D02*
D03*
D117*
X187598Y63189D02*
D03*
D118*
X191469Y111300D02*
D03*
Y115631D02*
D03*
D119*
X151969Y173382D02*
D03*
D120*
X161024Y148185D02*
D03*
X151969D02*
D03*
X142913D02*
D03*
D121*
X96969Y203165D02*
D03*
Y182653D02*
D03*
X131614Y203165D02*
D03*
Y182653D02*
D03*
D122*
X110780Y160165D02*
D03*
X87157D02*
D03*
D123*
X71949Y189764D02*
D03*
Y178740D02*
D03*
X252854Y38189D02*
D03*
Y27165D02*
D03*
D124*
X71949Y202756D02*
D03*
X86122D02*
D03*
D125*
X20614Y206957D02*
D03*
Y156169D02*
D03*
D126*
X55850Y179004D02*
D03*
D127*
X199759Y159453D02*
D03*
X210059Y169753D02*
D03*
X193634Y165577D02*
D03*
X203934Y175878D02*
D03*
D128*
X196716Y177031D02*
D03*
X192261Y172576D02*
D03*
D129*
X224504Y177992D02*
D03*
Y176024D02*
D03*
Y174055D02*
D03*
Y172087D02*
D03*
Y170118D02*
D03*
Y168150D02*
D03*
Y166181D02*
D03*
Y164213D02*
D03*
Y162244D02*
D03*
Y160276D02*
D03*
Y158307D02*
D03*
Y156339D02*
D03*
X257968D02*
D03*
Y158307D02*
D03*
Y160276D02*
D03*
Y162244D02*
D03*
Y164213D02*
D03*
Y166181D02*
D03*
Y168150D02*
D03*
Y170118D02*
D03*
Y172087D02*
D03*
Y174055D02*
D03*
Y176024D02*
D03*
Y177992D02*
D03*
D130*
X230410Y150433D02*
D03*
X232378D02*
D03*
X234347D02*
D03*
X236315D02*
D03*
X238283D02*
D03*
X240252D02*
D03*
X242220D02*
D03*
X244189D02*
D03*
X246158D02*
D03*
X248126D02*
D03*
X250095D02*
D03*
X252063D02*
D03*
Y183898D02*
D03*
X250095D02*
D03*
X248126D02*
D03*
X246158D02*
D03*
X244189D02*
D03*
X242220D02*
D03*
X240252D02*
D03*
X238283D02*
D03*
X236315D02*
D03*
X234347D02*
D03*
X232378D02*
D03*
X230410D02*
D03*
D131*
X253937Y7874D02*
D03*
X224016D02*
D03*
D132*
X251181Y18612D02*
D03*
X226772D02*
D03*
D133*
X233858Y19094D02*
D03*
X236417D02*
D03*
X238976D02*
D03*
X241535D02*
D03*
X244094D02*
D03*
D134*
X243898Y40354D02*
D03*
X240158D02*
D03*
X236417D02*
D03*
Y31102D02*
D03*
X240158D02*
D03*
X243898D02*
D03*
D135*
X314567Y57874D02*
Y59491D01*
X323335Y68260D01*
X334446D01*
X338976Y83071D02*
X348425D01*
X359615Y71881D01*
X350787Y61811D02*
X359615Y70639D01*
Y71881D01*
X333697Y61811D02*
X350787D01*
X334446Y68260D02*
X337446Y71260D01*
X314173Y34646D02*
X316535D01*
X329282Y47392D01*
Y50893D01*
X331539Y53150D01*
X331889D01*
X337972Y53367D02*
Y58071D01*
Y53367D02*
X338189Y53150D01*
X337446Y71260D02*
X337796D01*
X333697Y61811D02*
X333697Y61811D01*
X330532Y61811D02*
X333697D01*
X331496Y71260D02*
Y83071D01*
X269684Y157361D02*
Y157480D01*
X269751Y157502D02*
X274060Y161811D01*
X269751Y157295D02*
Y157502D01*
X269684Y157361D02*
X269751Y157295D01*
X234253Y115748D02*
X238583D01*
X266339Y181102D02*
Y187795D01*
X240158Y40354D02*
Y44094D01*
Y27165D02*
Y31102D01*
X63484Y121118D02*
X71260Y128894D01*
Y152756D01*
X234252Y115749D02*
X234253Y115748D01*
X237695Y97245D02*
X238465Y98014D01*
X234252Y97245D02*
X237695D01*
X238465Y98014D02*
X238698D01*
X242618Y108854D02*
Y108858D01*
X245449Y106023D02*
X249902D01*
X242618Y108854D02*
X245449Y106023D01*
X274060Y161811D02*
X274410D01*
X63484Y120768D02*
Y121118D01*
D136*
X312598Y48819D02*
X314567Y50787D01*
Y57874D01*
X312598Y48819D02*
X314567Y46850D01*
X314173Y46457D02*
X314567Y46850D01*
X321260Y62720D02*
X324213Y65672D01*
X321260Y43428D02*
Y62720D01*
X324213Y65672D02*
X337851D01*
X322441Y36614D02*
X326279D01*
X331890Y115354D02*
X335433Y111811D01*
Y77953D02*
Y111811D01*
X338563Y65551D02*
X345774Y72762D01*
Y74419D01*
X344602Y75590D02*
X345774Y74419D01*
X337795Y75590D02*
X344602D01*
X335433Y77953D02*
X337795Y75590D01*
X337972Y65551D02*
X338563D01*
X314173Y40551D02*
X314310Y40688D01*
X318520D02*
X321260Y43428D01*
X314310Y40688D02*
X318520D01*
X337851Y65672D02*
X337972Y65551D01*
X324242Y9912D02*
X324311Y9843D01*
X323159Y9912D02*
X324242D01*
X320472Y12598D02*
X323159Y9912D01*
X320472Y12598D02*
Y34646D01*
X322441Y36614D01*
X237008Y247826D02*
X241151Y251969D01*
X237008Y236614D02*
Y247826D01*
X292126Y113386D02*
X292913D01*
X289370Y116142D02*
X292126Y113386D01*
X236990Y251969D02*
X241151D01*
X243701D01*
X230410Y251532D02*
X231838Y252960D01*
X235999D02*
X236990Y251969D01*
X231838Y252960D02*
X235999D01*
X230410Y251182D02*
Y251532D01*
X224410Y251181D02*
X227859D01*
X227859Y251182D01*
X230410D01*
X264567Y234409D02*
X271890D01*
X272047Y234252D01*
X259177Y240158D02*
X263395D01*
X264567Y234409D02*
Y238986D01*
X263395Y240158D02*
X264567Y238986D01*
X254909Y244425D02*
X259177Y240158D01*
X251744Y244425D02*
X254909D01*
X288189Y116142D02*
X289370D01*
X281102D02*
X288189D01*
X280984Y116023D02*
X281102Y116142D01*
X271555Y116023D02*
X280984D01*
X66434Y20783D02*
X74016D01*
X47487Y136546D02*
X47556Y136477D01*
X47839D02*
X51521Y132796D01*
X47556Y136477D02*
X47839D01*
X51521Y131139D02*
Y132796D01*
X49728Y128165D02*
X50106Y128543D01*
Y129724D01*
X51521Y131139D01*
X159106Y112471D02*
X183312D01*
X189623Y106161D01*
X198638D01*
X137927Y32315D02*
X140969D01*
X132006Y26395D02*
X137927Y32315D01*
X132006Y21715D02*
Y26395D01*
X129921Y19630D02*
X132006Y21715D01*
X129921Y18055D02*
Y19630D01*
X105968Y15665D02*
X109823Y19520D01*
X105968Y15315D02*
Y15665D01*
X115593Y18055D02*
X118110D01*
X114128Y19520D02*
X115593Y18055D01*
X109823Y19520D02*
X114128D01*
X101240Y3937D02*
X105968Y8665D01*
X51863Y3937D02*
X101240D01*
X105968Y8665D02*
Y9015D01*
X25469Y132008D02*
X25473D01*
X29315Y128165D01*
X62941Y113925D02*
X63484Y114468D01*
X57189Y113925D02*
X62941D01*
X152794Y118783D02*
X159106Y112471D01*
X150000Y130882D02*
X152794Y128088D01*
Y118783D02*
Y128088D01*
X150000Y130882D02*
Y133465D01*
X29315Y128165D02*
X49728D01*
X25469Y112323D02*
X32500D01*
X37843Y117665D01*
X49748D01*
D137*
X199158Y179473D02*
X200339D01*
X196716Y177031D02*
X199158Y179473D01*
X203934Y175878D02*
Y175878D01*
X200339Y179473D02*
X203934Y175878D01*
Y175878D02*
X204422Y176365D01*
X237847Y190537D02*
X238283Y190100D01*
Y183898D02*
Y190100D01*
X235236Y193154D02*
X237847Y190543D01*
Y190537D02*
Y190543D01*
X235236Y193154D02*
Y193503D01*
X204422Y176365D02*
X210840D01*
X213189Y174016D01*
X224465D01*
X224504Y174055D01*
D138*
X274390Y194409D02*
X274409Y194390D01*
X264567Y194409D02*
X274390D01*
D139*
X277558Y151969D02*
X277558Y151968D01*
X271654Y151969D02*
X277558D01*
X208858Y135630D02*
Y141339D01*
X209663Y143298D02*
X219291Y152927D01*
X208858Y142520D02*
X209636Y143298D01*
X219291Y152927D02*
Y160394D01*
X208858Y141339D02*
Y142520D01*
X209636Y143298D02*
X209663D01*
X219291Y160394D02*
X221142Y162244D01*
X224504D01*
X261417Y150394D02*
X262992Y151969D01*
X253693Y150394D02*
X261417D01*
X252063Y150433D02*
X253654D01*
X253693Y150394D01*
X262992Y151969D02*
X269684D01*
X261331Y160276D02*
X262866Y161811D01*
X268110D01*
X257968Y160276D02*
X261331D01*
X257968Y172138D02*
X266495D01*
X274093Y173263D02*
X275043Y174213D01*
X274093Y172815D02*
Y173263D01*
X275043Y167992D02*
X275393D01*
X275043Y174213D02*
X275393D01*
X273390Y172112D02*
X274093Y172815D01*
Y168942D02*
X275043Y167992D01*
X257968Y170118D02*
X265658D01*
X266521Y172112D02*
X273390D01*
X266495Y172138D02*
X266521Y172112D01*
X265684Y170092D02*
X273390D01*
X274093Y169389D01*
Y168942D02*
Y169389D01*
X265658Y170118D02*
X265684Y170092D01*
D140*
X231496Y78851D02*
X241394D01*
Y46260D02*
X243898D01*
X236417D02*
X238921D01*
X243898Y40354D02*
Y46260D01*
Y31102D02*
Y40354D01*
X236417D02*
Y46260D01*
X238921D02*
Y76378D01*
X231496D02*
X238921D01*
X241394Y46260D02*
Y78851D01*
X236417Y31102D02*
Y40354D01*
X283720Y172339D02*
X290158D01*
X282857Y173201D02*
X283720Y172339D01*
X282043Y174213D02*
X282857Y173399D01*
Y173201D02*
Y173399D01*
X281693Y174213D02*
X282043D01*
X239019Y19138D02*
Y24065D01*
X238976Y19094D02*
X239019Y19138D01*
X236417Y26668D02*
X239019Y24065D01*
X236417Y26668D02*
Y31102D01*
X283720Y169866D02*
X290158D01*
X282857Y168806D02*
Y169003D01*
X283720Y169866D01*
X282043Y167992D02*
X282857Y168806D01*
X281693Y167992D02*
X282043D01*
X243898Y26661D02*
Y31102D01*
X241492Y24256D02*
X243898Y26661D01*
X241492Y19138D02*
Y24256D01*
Y19138D02*
X241535Y19094D01*
X271555Y101023D02*
X281569D01*
D141*
X85106Y41665D02*
X107197D01*
X78740Y48031D02*
X85106Y41665D01*
X38260Y92693D02*
X58512Y72441D01*
X58661D01*
X38260Y92693D02*
Y97630D01*
D142*
X250295Y27165D02*
X252854D01*
X244094Y20965D02*
X250295Y27165D01*
X244094Y19094D02*
Y20965D01*
D143*
X260236Y38189D02*
Y44390D01*
X253150Y38189D02*
X260039D01*
D144*
X244965Y300665D02*
X246965Y302665D01*
Y307980D01*
X269965Y330980D02*
Y346665D01*
X246965Y307980D02*
X269965Y330980D01*
X196465Y300665D02*
Y307980D01*
X219465Y330980D01*
Y346665D01*
X157874Y310236D02*
Y333858D01*
X177559Y353543D01*
X49449Y310236D02*
X79134D01*
X27953Y331732D02*
X49449Y310236D01*
X57638Y351732D02*
X59449Y353543D01*
X27953Y351732D02*
X57638D01*
D145*
X314173Y16929D02*
D03*
Y22835D02*
D03*
Y28740D02*
D03*
Y34646D02*
D03*
Y40551D02*
D03*
Y46457D02*
D03*
X281102Y82284D02*
D03*
Y76378D02*
D03*
Y70472D02*
D03*
Y64567D02*
D03*
Y58661D02*
D03*
Y52756D02*
D03*
D146*
X346063Y101181D02*
D03*
Y115354D02*
D03*
X331890D02*
D03*
D147*
X158788Y98552D02*
D03*
X172708Y112471D02*
D03*
X18126Y235665D02*
D03*
X37811D02*
D03*
X18110Y278740D02*
D03*
X37795D02*
D03*
X157874Y310236D02*
D03*
X79134D02*
D03*
X138189Y231496D02*
D03*
X98819D02*
D03*
X177559Y353543D02*
D03*
X59449D02*
D03*
X25469Y132008D02*
D03*
Y112323D02*
D03*
D148*
X249965Y346665D02*
D03*
X269965D02*
D03*
X199465D02*
D03*
X219465D02*
D03*
X27953Y331732D02*
D03*
Y351732D02*
D03*
D149*
X244965Y330665D02*
D03*
X274965Y320665D02*
D03*
Y260665D02*
D03*
X244965Y300665D02*
D03*
Y260665D02*
D03*
X196465Y330665D02*
D03*
X226465Y320665D02*
D03*
Y260665D02*
D03*
X196465Y300665D02*
D03*
Y260665D02*
D03*
D150*
X75012Y63841D02*
D03*
Y56616D02*
D03*
X71400Y67453D02*
D03*
Y60228D02*
D03*
Y53004D02*
D03*
X67787Y63841D02*
D03*
Y56616D02*
D03*
X64175Y67453D02*
D03*
Y60228D02*
D03*
Y53004D02*
D03*
X60563Y63841D02*
D03*
Y56616D02*
D03*
D151*
X180709Y55512D02*
D03*
D152*
X203937Y43307D02*
D03*
X23370Y181563D02*
D03*
D153*
X185039Y30709D02*
D03*
X35969Y162665D02*
D03*
D154*
X48173Y185894D02*
D03*
D155*
X243287Y192266D02*
D03*
X314567Y57874D02*
D03*
X324311Y9843D02*
D03*
X338484Y36614D02*
D03*
X332185D02*
D03*
X326279D02*
D03*
X237008Y236614D02*
D03*
X292913Y113386D02*
D03*
X35827Y174409D02*
D03*
X124016Y172441D02*
D03*
X138189Y167717D02*
D03*
X151969Y165354D02*
D03*
Y181102D02*
D03*
X163779Y173228D02*
D03*
X75197Y160236D02*
D03*
X87008Y172047D02*
D03*
X96850Y174803D02*
D03*
Y190551D02*
D03*
X25984Y235827D02*
D03*
X18110Y243701D02*
D03*
X4331Y207087D02*
D03*
X20472Y194882D02*
D03*
Y222835D02*
D03*
X40157Y207087D02*
D03*
X35827Y181496D02*
D03*
X51575Y162598D02*
D03*
X38976Y154724D02*
D03*
X61811Y128740D02*
D03*
X55905Y134252D02*
D03*
X84252Y111024D02*
D03*
X71260Y120472D02*
D03*
X145276Y98425D02*
D03*
X159055Y87795D02*
D03*
X241732Y9843D02*
D03*
X233858D02*
D03*
X272047Y22835D02*
D03*
X279921Y30709D02*
D03*
X272047D02*
D03*
X253150Y68898D02*
D03*
X260236D02*
D03*
X266929D02*
D03*
X290158Y75984D02*
D03*
X264567Y98819D02*
D03*
Y110630D02*
D03*
X212598D02*
D03*
X203937Y122047D02*
D03*
X201181Y135433D02*
D03*
X208858Y135630D02*
D03*
X216929Y135827D02*
D03*
X231496Y172441D02*
D03*
X268504Y121653D02*
D03*
X280315D02*
D03*
X195276Y211417D02*
D03*
X211024D02*
D03*
X226772D02*
D03*
X185827Y127953D02*
D03*
X201575D02*
D03*
X187402Y159843D02*
D03*
X205118Y183858D02*
D03*
X235039Y205906D02*
D03*
X228346Y223622D02*
D03*
X207874Y223228D02*
D03*
X200000D02*
D03*
X168504D02*
D03*
X160630D02*
D03*
X223622Y119291D02*
D03*
X218504Y116535D02*
D03*
X212992D02*
D03*
X269684Y157480D02*
D03*
X238583Y115748D02*
D03*
X272047Y234252D02*
D03*
X274409Y194390D02*
D03*
X266339Y187795D02*
D03*
X172047Y158661D02*
D03*
X160236Y155118D02*
D03*
X164173Y159055D02*
D03*
X175984Y162992D02*
D03*
X168110D02*
D03*
X216535Y142126D02*
D03*
X221260Y141732D02*
D03*
X74016Y20783D02*
D03*
X49606Y109843D02*
D03*
Y106693D02*
D03*
X47487Y136546D02*
D03*
X71260Y152756D02*
D03*
X90983Y128997D02*
D03*
X82480Y128642D02*
D03*
X85433D02*
D03*
X88386D02*
D03*
X247244Y138583D02*
D03*
X246850Y128347D02*
D03*
X277558Y151968D02*
D03*
X253543Y86718D02*
D03*
X241975Y103695D02*
D03*
X238698Y98014D02*
D03*
X242618Y108854D02*
D03*
X238583Y109449D02*
D03*
X48425Y5118D02*
D03*
Y9055D02*
D03*
Y12992D02*
D03*
X266929Y86718D02*
D03*
X260236D02*
D03*
X232677Y128347D02*
D03*
X240256Y191831D02*
D03*
X260236Y44390D02*
D03*
X117028Y107874D02*
D03*
Y113779D02*
D03*
X119980Y110827D02*
D03*
X52854Y194783D02*
D03*
X49902D02*
D03*
X46949D02*
D03*
X56299Y173031D02*
D03*
X53347D02*
D03*
X50394D02*
D03*
D156*
X240158Y27165D02*
D03*
Y44094D02*
D03*
X291612Y101023D02*
D03*
X231496Y78851D02*
D03*
X234347Y188882D02*
D03*
X231496Y76378D02*
D03*
X290158Y172339D02*
D03*
Y169866D02*
D03*
D157*
X229528Y88976D02*
D03*
X140945Y67716D02*
D03*
M02*
