G04*
G04 #@! TF.GenerationSoftware,Altium Limited,Altium Designer,20.0.10 (225)*
G04*
G04 Layer_Physical_Order=2*
G04 Layer_Color=32768*
%FSLAX25Y25*%
%MOIN*%
G70*
G01*
G75*
%ADD141C,0.03000*%
%ADD158C,0.04000*%
%ADD159R,0.08465X0.08858*%
%ADD160R,0.08563X0.10039*%
%ADD161R,0.01968X0.01870*%
%ADD162R,0.02067X0.01968*%
%ADD163R,0.01673X0.02067*%
%ADD164R,0.02067X0.01870*%
%ADD165R,0.01968X0.02067*%
%ADD166R,2.94191X0.80667*%
%ADD167R,1.04331X0.68504*%
%ADD168C,0.09425*%
%ADD169C,0.07969*%
G04:AMPARAMS|DCode=170|XSize=69.685mil|YSize=69.685mil|CornerRadius=0mil|HoleSize=0mil|Usage=FLASHONLY|Rotation=0.000|XOffset=0mil|YOffset=0mil|HoleType=Round|Shape=Relief|Width=15mil|Gap=10mil|Entries=4|*
%AMTHD170*
7,0,0,0.06969,0.04969,0.01500,45*
%
%ADD170THD170*%
G04:AMPARAMS|DCode=171|XSize=89.37mil|YSize=89.37mil|CornerRadius=0mil|HoleSize=0mil|Usage=FLASHONLY|Rotation=0.000|XOffset=0mil|YOffset=0mil|HoleType=Round|Shape=Relief|Width=15mil|Gap=10mil|Entries=4|*
%AMTHD171*
7,0,0,0.08937,0.06937,0.01500,45*
%
%ADD171THD171*%
%ADD172C,0.09937*%
%ADD173C,0.12890*%
%ADD174C,0.11118*%
G04:AMPARAMS|DCode=175|XSize=57.874mil|YSize=57.874mil|CornerRadius=0mil|HoleSize=0mil|Usage=FLASHONLY|Rotation=0.000|XOffset=0mil|YOffset=0mil|HoleType=Round|Shape=Relief|Width=15mil|Gap=10mil|Entries=4|*
%AMTHD175*
7,0,0,0.05787,0.03787,0.01500,45*
%
%ADD175THD175*%
%ADD176C,0.09543*%
%ADD177O,0.11906X0.10724*%
%AMTHOVALD178*
21,1,0.07087,0.09724,0,0,270.0*
1,1,0.09724,0.00000,0.03543*
1,1,0.09724,0.00000,-0.03543*
21,0,0.07087,0.07724,0,0,270.0*
1,0,0.07724,0.00000,0.03543*
1,0,0.07724,0.00000,-0.03543*
4,0,4,-0.00530,0.03013,-0.03968,0.06451,-0.02908,0.07512,0.00530,0.04074,-0.00530,0.03013,0.0*
4,0,4,-0.00530,-0.04074,0.02908,-0.07512,0.03968,-0.06451,0.00530,-0.03013,-0.00530,-0.04074,0.0*
4,0,4,-0.00530,0.04074,0.02908,0.07512,0.03968,0.06451,0.00530,0.03013,-0.00530,0.04074,0.0*
4,0,4,-0.00530,-0.03013,-0.03968,-0.06451,-0.02908,-0.07512,0.00530,-0.04074,-0.00530,-0.03013,0.0*
%
%ADD178THOVALD178*%

%AMTHOVALD179*
21,1,0.07874,0.08937,0,0,180.0*
1,1,0.08937,0.03937,0.00000*
1,1,0.08937,-0.03937,0.00000*
21,0,0.07874,0.06937,0,0,180.0*
1,0,0.06937,0.03937,0.00000*
1,0,0.06937,-0.03937,0.00000*
4,0,4,0.03407,0.00530,0.06566,0.03690,0.07627,0.02629,0.04467,-0.00530,0.03407,0.00530,0.0*
4,0,4,-0.04467,0.00530,-0.07627,-0.02629,-0.06566,-0.03690,-0.03407,-0.00530,-0.04467,0.00530,0.0*
4,0,4,0.04467,0.00530,0.07627,-0.02629,0.06566,-0.03690,0.03407,-0.00530,0.04467,0.00530,0.0*
4,0,4,-0.03407,0.00530,-0.06566,0.03690,-0.07627,0.02629,-0.04467,-0.00530,-0.03407,0.00530,0.0*
%
%ADD179THOVALD179*%

%ADD180C,0.14268*%
%ADD181O,0.10724X0.11906*%
%AMTHOVALD182*
21,1,0.07087,0.09724,0,0,180.0*
1,1,0.09724,0.03543,0.00000*
1,1,0.09724,-0.03543,0.00000*
21,0,0.07087,0.07724,0,0,180.0*
1,0,0.07724,0.03543,0.00000*
1,0,0.07724,-0.03543,0.00000*
4,0,4,0.03013,0.00530,0.06451,0.03968,0.07512,0.02908,0.04074,-0.00530,0.03013,0.00530,0.0*
4,0,4,-0.04074,0.00530,-0.07512,-0.02908,-0.06451,-0.03968,-0.03013,-0.00530,-0.04074,0.00530,0.0*
4,0,4,0.04074,0.00530,0.07512,-0.02908,0.06451,-0.03968,0.03013,-0.00530,0.04074,0.00530,0.0*
4,0,4,-0.03013,0.00530,-0.06451,0.03968,-0.07512,0.02908,-0.04074,-0.00530,-0.03013,0.00530,0.0*
%
%ADD182THOVALD182*%

%AMTHOVALD183*
21,1,0.07874,0.08937,0,0,90.0*
1,1,0.08937,0.00000,-0.03937*
1,1,0.08937,0.00000,0.03937*
21,0,0.07874,0.06937,0,0,90.0*
1,0,0.06937,0.00000,-0.03937*
1,0,0.06937,0.00000,0.03937*
4,0,4,0.00530,-0.03407,0.03690,-0.06566,0.02629,-0.07627,-0.00530,-0.04467,0.00530,-0.03407,0.0*
4,0,4,0.00530,0.04467,-0.02629,0.07627,-0.03690,0.06566,-0.00530,0.03407,0.00530,0.04467,0.0*
4,0,4,0.00530,-0.04467,-0.02629,-0.07627,-0.03690,-0.06566,-0.00530,-0.03407,0.00530,-0.04467,0.0*
4,0,4,0.00530,0.03407,0.03690,0.06566,0.02629,0.07627,-0.00530,0.04467,0.00530,0.03407,0.0*
%
%ADD183THOVALD183*%

%ADD184C,0.10331*%
%ADD185C,0.09150*%
%ADD186C,0.07378*%
G04:AMPARAMS|DCode=187|XSize=63.779mil|YSize=63.779mil|CornerRadius=0mil|HoleSize=0mil|Usage=FLASHONLY|Rotation=0.000|XOffset=0mil|YOffset=0mil|HoleType=Round|Shape=Relief|Width=15mil|Gap=10mil|Entries=4|*
%AMTHD187*
7,0,0,0.06378,0.04378,0.01500,45*
%
%ADD187THD187*%
%ADD188C,0.07181*%
D141*
X301181Y1575D02*
Y129527D01*
X298543Y118D02*
Y129665D01*
D158*
X-532Y-335D02*
X380709D01*
Y129665D01*
X296969Y129665D02*
X380709Y129665D01*
X296969Y129665D02*
Y129665D01*
X296969Y377165D01*
X-532D02*
X296969D01*
X-532Y-335D02*
Y377165D01*
D159*
X314272Y39961D02*
D03*
D160*
X281152Y76181D02*
D03*
D161*
X64173Y63829D02*
D03*
D162*
X71408Y63878D02*
D03*
D163*
X71408Y56742D02*
D03*
D164*
X67766Y60285D02*
D03*
D165*
X64173Y56644D02*
D03*
D166*
X148574Y335216D02*
D03*
D167*
X99803Y261024D02*
D03*
D168*
X314173Y16929D02*
D03*
Y22835D02*
D03*
Y28740D02*
D03*
Y34646D02*
D03*
Y40551D02*
D03*
Y46457D02*
D03*
X281102Y82284D02*
D03*
Y76378D02*
D03*
Y70472D02*
D03*
Y64567D02*
D03*
Y58661D02*
D03*
Y52756D02*
D03*
D169*
X346063Y101181D02*
D03*
Y115354D02*
D03*
D170*
X331890D02*
D03*
D171*
X158788Y98552D02*
D03*
X18126Y235665D02*
D03*
X18110Y278740D02*
D03*
D172*
X172708Y112471D02*
D03*
X37811Y235665D02*
D03*
X37795Y278740D02*
D03*
X157874Y310236D02*
D03*
X79134D02*
D03*
X138189Y231496D02*
D03*
X98819D02*
D03*
D173*
X249965Y346665D02*
D03*
X269965D02*
D03*
X199465D02*
D03*
X219465D02*
D03*
X27953Y331732D02*
D03*
Y351732D02*
D03*
D174*
X244965Y330665D02*
D03*
X274965Y320665D02*
D03*
Y260665D02*
D03*
X244965Y300665D02*
D03*
Y260665D02*
D03*
X196465Y330665D02*
D03*
X226465Y320665D02*
D03*
Y260665D02*
D03*
X196465Y300665D02*
D03*
Y260665D02*
D03*
D175*
X75012Y63841D02*
D03*
Y56616D02*
D03*
X71400Y67453D02*
D03*
Y60228D02*
D03*
Y53004D02*
D03*
X67787Y63841D02*
D03*
Y56616D02*
D03*
X64175Y67453D02*
D03*
Y60228D02*
D03*
Y53004D02*
D03*
X60563Y63841D02*
D03*
Y56616D02*
D03*
D176*
X121063Y11165D02*
D03*
X132874D02*
D03*
D177*
X180709Y55512D02*
D03*
D178*
X203937Y43307D02*
D03*
D179*
X185039Y30709D02*
D03*
D180*
Y12992D02*
D03*
X5654Y181563D02*
D03*
D181*
X48173Y185894D02*
D03*
D182*
X35969Y162665D02*
D03*
D183*
X23370Y181563D02*
D03*
D184*
X177559Y353543D02*
D03*
X59449D02*
D03*
D185*
X25469Y132008D02*
D03*
Y112323D02*
D03*
D186*
X243287Y192266D02*
D03*
X314567Y57874D02*
D03*
X292913Y113386D02*
D03*
X208858Y135630D02*
D03*
X223622Y119291D02*
D03*
X218504Y116535D02*
D03*
X212992D02*
D03*
X269684Y157480D02*
D03*
X238583Y115748D02*
D03*
X274409Y194390D02*
D03*
X266339Y187795D02*
D03*
X172047Y158661D02*
D03*
X160236Y155118D02*
D03*
X164173Y159055D02*
D03*
X175984Y162992D02*
D03*
X168110D02*
D03*
X216535Y142126D02*
D03*
X221260Y141732D02*
D03*
X240158Y27165D02*
D03*
X49606Y109843D02*
D03*
Y106693D02*
D03*
X47487Y136546D02*
D03*
X71260Y152756D02*
D03*
X291612Y101023D02*
D03*
X90983Y128997D02*
D03*
X82480Y128642D02*
D03*
X85433D02*
D03*
X88386D02*
D03*
X247244Y138583D02*
D03*
X246850Y128347D02*
D03*
X277558Y151968D02*
D03*
X253543Y86718D02*
D03*
X231496Y78851D02*
D03*
X241975Y103695D02*
D03*
X238698Y98014D02*
D03*
X242618Y108854D02*
D03*
X238583Y109449D02*
D03*
X48425Y5118D02*
D03*
Y9055D02*
D03*
Y12992D02*
D03*
X266929Y86718D02*
D03*
X260236D02*
D03*
X234347Y188882D02*
D03*
X231496Y76378D02*
D03*
X290158Y172339D02*
D03*
Y169866D02*
D03*
X232677Y128347D02*
D03*
X240256Y191831D02*
D03*
X260236Y44390D02*
D03*
X117028Y107874D02*
D03*
Y113779D02*
D03*
X119980Y110827D02*
D03*
X52854Y194783D02*
D03*
X49902D02*
D03*
X46949D02*
D03*
X56299Y173031D02*
D03*
X53347D02*
D03*
X50394D02*
D03*
D187*
X324311Y9843D02*
D03*
X338484Y36614D02*
D03*
X332185D02*
D03*
X326279D02*
D03*
X237008Y236614D02*
D03*
X35827Y174409D02*
D03*
X124016Y172441D02*
D03*
X138189Y167717D02*
D03*
X151969Y165354D02*
D03*
Y181102D02*
D03*
X163779Y173228D02*
D03*
X75197Y160236D02*
D03*
X87008Y172047D02*
D03*
X96850Y174803D02*
D03*
Y190551D02*
D03*
X25984Y235827D02*
D03*
X18110Y243701D02*
D03*
X4331Y207087D02*
D03*
X20472Y194882D02*
D03*
Y222835D02*
D03*
X40157Y207087D02*
D03*
X35827Y181496D02*
D03*
X51575Y162598D02*
D03*
X38976Y154724D02*
D03*
X61811Y128740D02*
D03*
X55905Y134252D02*
D03*
X84252Y111024D02*
D03*
X71260Y120472D02*
D03*
X145276Y98425D02*
D03*
X159055Y87795D02*
D03*
X241732Y9843D02*
D03*
X233858D02*
D03*
X272047Y22835D02*
D03*
X279921Y30709D02*
D03*
X272047D02*
D03*
X253150Y68898D02*
D03*
X260236D02*
D03*
X266929D02*
D03*
X290158Y75984D02*
D03*
X264567Y98819D02*
D03*
Y110630D02*
D03*
X212598D02*
D03*
X203937Y122047D02*
D03*
X201181Y135433D02*
D03*
X216929Y135827D02*
D03*
X231496Y172441D02*
D03*
X268504Y121653D02*
D03*
X280315D02*
D03*
X195276Y211417D02*
D03*
X211024D02*
D03*
X226772D02*
D03*
X185827Y127953D02*
D03*
X201575D02*
D03*
X187402Y159843D02*
D03*
X205118Y183858D02*
D03*
X235039Y205906D02*
D03*
X228346Y223622D02*
D03*
X207874Y223228D02*
D03*
X200000D02*
D03*
X168504D02*
D03*
X160630D02*
D03*
X272047Y234252D02*
D03*
X240158Y44094D02*
D03*
X74016Y20783D02*
D03*
D188*
X229528Y88976D02*
D03*
X140945Y67716D02*
D03*
M02*
