G04*
G04 #@! TF.GenerationSoftware,Altium Limited,Altium Designer,20.0.10 (225)*
G04*
G04 Layer_Color=16711935*
%FSLAX25Y25*%
%MOIN*%
G70*
G01*
G75*
%ADD55R,0.03150X0.05512*%
%ADD56R,0.04194X0.03494*%
%ADD59R,0.03494X0.04194*%
%ADD61R,0.05512X0.03150*%
%ADD89O,0.07087X0.05118*%
%ADD90C,0.04331*%
%ADD91C,0.08268*%
%ADD92C,0.12205*%
%ADD93C,0.10236*%
%ADD94C,0.01575*%
%ADD95C,0.00394*%
%ADD96O,0.14567X0.07480*%
%ADD97O,0.08268X0.16142*%
%ADD98O,0.16142X0.08268*%
%ADD99C,0.08661*%
%ADD100O,0.07480X0.14567*%
%ADD203R,0.05039X0.02677*%
%ADD204R,0.06693X0.03937*%
%ADD205R,0.03937X0.06693*%
%ADD206R,0.04724X0.02756*%
G36*
X308760Y120768D02*
X305217Y117224D01*
X308760Y113681D01*
X312303Y117224D01*
X308760Y120768D01*
D02*
G37*
D55*
X332874Y109449D02*
D03*
X325394D02*
D03*
X307677Y72047D02*
D03*
X315158D02*
D03*
X324213Y15354D02*
D03*
X331693D02*
D03*
D56*
X326377Y101575D02*
D03*
X332677D02*
D03*
X351477Y22441D02*
D03*
X345177D02*
D03*
X307480Y64173D02*
D03*
X313780D02*
D03*
X306299Y78347D02*
D03*
X312599D02*
D03*
X306298Y84252D02*
D03*
X312598D02*
D03*
X371654Y61417D02*
D03*
X365354D02*
D03*
D59*
X349213Y90551D02*
D03*
Y96851D02*
D03*
X353937Y90551D02*
D03*
Y96851D02*
D03*
X359055D02*
D03*
Y90551D02*
D03*
X355512Y84646D02*
D03*
Y78346D02*
D03*
X306693Y96457D02*
D03*
Y90157D02*
D03*
X312598Y90156D02*
D03*
Y96456D02*
D03*
X361319Y16142D02*
D03*
Y9842D02*
D03*
X338878Y9054D02*
D03*
Y15354D02*
D03*
X332185Y22440D02*
D03*
Y28740D02*
D03*
X337697Y22440D02*
D03*
Y28740D02*
D03*
X348783Y61751D02*
D03*
Y68051D02*
D03*
X353937Y68110D02*
D03*
Y61810D02*
D03*
X359449D02*
D03*
Y68110D02*
D03*
X350394Y84646D02*
D03*
Y78346D02*
D03*
D61*
X324409Y21063D02*
D03*
Y28543D02*
D03*
X324803Y39961D02*
D03*
Y47441D02*
D03*
X331496Y39961D02*
D03*
Y47441D02*
D03*
X338189Y39961D02*
D03*
Y47441D02*
D03*
D89*
X314173Y16929D02*
D03*
Y22835D02*
D03*
Y28740D02*
D03*
Y34646D02*
D03*
Y40551D02*
D03*
Y46457D02*
D03*
X281102Y82284D02*
D03*
Y76378D02*
D03*
Y70472D02*
D03*
Y64567D02*
D03*
Y58661D02*
D03*
Y52756D02*
D03*
D90*
X346063Y101181D02*
D03*
Y115354D02*
D03*
X331890D02*
D03*
D91*
X158788Y98552D02*
D03*
X172708Y112471D02*
D03*
X18126Y235665D02*
D03*
X37811D02*
D03*
X18110Y278740D02*
D03*
X37795D02*
D03*
X157874Y310236D02*
D03*
X79134D02*
D03*
X138189Y231496D02*
D03*
X98819D02*
D03*
X177559Y353543D02*
D03*
X59449D02*
D03*
X25469Y132008D02*
D03*
Y112323D02*
D03*
D92*
X249965Y346665D02*
D03*
X269965D02*
D03*
X199465D02*
D03*
X219465D02*
D03*
X27953Y331732D02*
D03*
Y351732D02*
D03*
D93*
X244965Y330665D02*
D03*
X274965Y320665D02*
D03*
Y260665D02*
D03*
X244965Y300665D02*
D03*
Y260665D02*
D03*
X196465Y330665D02*
D03*
X226465Y320665D02*
D03*
Y260665D02*
D03*
X196465Y300665D02*
D03*
Y260665D02*
D03*
D94*
X75012Y63841D02*
D03*
Y56616D02*
D03*
X71400Y67453D02*
D03*
Y60228D02*
D03*
Y53004D02*
D03*
X67787Y63841D02*
D03*
Y56616D02*
D03*
X64175Y67453D02*
D03*
Y60228D02*
D03*
Y53004D02*
D03*
X60563Y63841D02*
D03*
Y56616D02*
D03*
D95*
X121063Y11165D02*
D03*
X132874D02*
D03*
D96*
X180709Y55512D02*
D03*
D97*
X203937Y43307D02*
D03*
X23370Y181563D02*
D03*
D98*
X185039Y30709D02*
D03*
X35969Y162665D02*
D03*
D99*
X185039Y12992D02*
D03*
X5654Y181563D02*
D03*
D100*
X48173Y185894D02*
D03*
D203*
X341968Y96890D02*
D03*
Y91890D02*
D03*
Y86890D02*
D03*
Y81890D02*
D03*
Y76890D02*
D03*
Y71890D02*
D03*
Y66890D02*
D03*
X321024Y96890D02*
D03*
Y91890D02*
D03*
Y86890D02*
D03*
Y81890D02*
D03*
Y76890D02*
D03*
Y71890D02*
D03*
Y66890D02*
D03*
D204*
X368504Y85433D02*
D03*
Y96850D02*
D03*
X366142Y78543D02*
D03*
Y67126D02*
D03*
D205*
X345177Y29134D02*
D03*
X356594D02*
D03*
D206*
X355413Y9055D02*
D03*
Y16535D02*
D03*
X345177D02*
D03*
Y12795D02*
D03*
Y9055D02*
D03*
M02*
