G04*
G04 #@! TF.GenerationSoftware,Altium Limited,Altium Designer,20.0.10 (225)*
G04*
G04 Layer_Color=128*
%FSLAX25Y25*%
%MOIN*%
G70*
G01*
G75*
%ADD14C,0.00394*%
%ADD212C,0.00200*%
D14*
X-532Y-335D02*
X380709D01*
X291968Y377165D02*
X296969D01*
X296969Y129665D02*
X296969Y377165D01*
X296969Y129665D02*
X380709Y129665D01*
X380709Y-335D01*
X-532D02*
Y377165D01*
X1969D01*
X291968D01*
D212*
X312461Y16929D02*
X315886D01*
X314173Y15216D02*
Y18642D01*
X312461Y22835D02*
X315886D01*
X314173Y21122D02*
Y24547D01*
X312461Y28740D02*
X315886D01*
X314173Y27028D02*
Y30453D01*
X312461Y34646D02*
X315886D01*
X314173Y32933D02*
Y36358D01*
X312461Y40551D02*
X315886D01*
X314173Y38839D02*
Y42264D01*
X312461Y46457D02*
X315886D01*
X314173Y44744D02*
Y48169D01*
X345079Y101181D02*
X347047D01*
X346063Y100197D02*
Y102165D01*
X345079Y115354D02*
X347047D01*
X346063Y114370D02*
Y116339D01*
X330906Y115354D02*
X332874D01*
X331890Y114370D02*
Y116339D01*
X156820Y98552D02*
X160757D01*
X158788Y96584D02*
Y100521D01*
X170739Y112471D02*
X174676D01*
X172708Y110503D02*
Y114440D01*
X246520Y346665D02*
X253409D01*
X249965Y343220D02*
Y350110D01*
X266520Y346665D02*
X273409D01*
X269965Y343220D02*
Y350110D01*
X196020Y346665D02*
X202909D01*
X199465Y343220D02*
Y350110D01*
X216020Y346665D02*
X222909D01*
X219465Y343220D02*
Y350110D01*
X242406Y330665D02*
X247524D01*
X244965Y328106D02*
Y333224D01*
X272406Y320665D02*
X277524D01*
X274965Y318106D02*
Y323224D01*
X272406Y260665D02*
X277524D01*
X274965Y258106D02*
Y263224D01*
X242406Y300665D02*
X247524D01*
X244965Y298106D02*
Y303224D01*
X242406Y260665D02*
X247524D01*
X244965Y258106D02*
Y263224D01*
X193905Y330665D02*
X199024D01*
X196465Y328106D02*
Y333224D01*
X223905Y320665D02*
X229024D01*
X226465Y318106D02*
Y323224D01*
X223905Y260665D02*
X229024D01*
X226465Y258106D02*
Y263224D01*
X193905Y300665D02*
X199024D01*
X196465Y298106D02*
Y303224D01*
X193905Y260665D02*
X199024D01*
X196465Y258106D02*
Y263224D01*
X279390Y82284D02*
X282815D01*
X281102Y80571D02*
Y83996D01*
X279390Y76378D02*
X282815D01*
X281102Y74665D02*
Y78091D01*
X279390Y70472D02*
X282815D01*
X281102Y68760D02*
Y72185D01*
X279390Y64567D02*
X282815D01*
X281102Y62854D02*
Y66280D01*
X279390Y58661D02*
X282815D01*
X281102Y56949D02*
Y60374D01*
X279390Y52756D02*
X282815D01*
X281102Y51043D02*
Y54469D01*
X74618Y63841D02*
X75406D01*
X75012Y63447D02*
Y64234D01*
X74618Y56616D02*
X75406D01*
X75012Y56222D02*
Y57010D01*
X71006Y67453D02*
X71793D01*
X71400Y67059D02*
Y67847D01*
X71006Y60228D02*
X71793D01*
X71400Y59835D02*
Y60622D01*
X71006Y53004D02*
X71793D01*
X71400Y52610D02*
Y53398D01*
X67394Y63841D02*
X68181D01*
X67787Y63447D02*
Y64234D01*
X67394Y56616D02*
X68181D01*
X67787Y56222D02*
Y57010D01*
X63781Y67453D02*
X64569D01*
X64175Y67059D02*
Y67847D01*
X63781Y60228D02*
X64569D01*
X64175Y59835D02*
Y60622D01*
X63781Y53004D02*
X64569D01*
X64175Y52610D02*
Y53398D01*
X60169Y63841D02*
X60957D01*
X60563Y63447D02*
Y64234D01*
X60169Y56616D02*
X60957D01*
X60563Y56222D02*
Y57010D01*
X119291Y11165D02*
X122835D01*
X121063Y9394D02*
Y12937D01*
X131102Y11165D02*
X134646D01*
X132874Y9394D02*
Y12937D01*
X178347Y55512D02*
X183071D01*
X180709Y53150D02*
Y57874D01*
X201575Y43307D02*
X206299D01*
X203937Y40945D02*
Y45669D01*
X183071Y30709D02*
X187008D01*
X185039Y28740D02*
Y32677D01*
X180905Y12992D02*
X189173D01*
X185039Y8858D02*
Y17126D01*
X45811Y185894D02*
X50535D01*
X48173Y183531D02*
Y188256D01*
X33606Y162665D02*
X38331D01*
X35969Y160303D02*
Y165027D01*
X21402Y181563D02*
X25339D01*
X23370Y179595D02*
Y183531D01*
X1520Y181563D02*
X9787D01*
X5654Y177429D02*
Y185697D01*
X16158Y235665D02*
X20095D01*
X18126Y233697D02*
Y237634D01*
X35842Y235665D02*
X39779D01*
X37811Y233697D02*
Y237634D01*
X16142Y278740D02*
X20079D01*
X18110Y276772D02*
Y280709D01*
X35827Y278740D02*
X39764D01*
X37795Y276772D02*
Y280709D01*
X155905Y310236D02*
X159843D01*
X157874Y308268D02*
Y312205D01*
X77165Y310236D02*
X81102D01*
X79134Y308268D02*
Y312205D01*
X136221Y231496D02*
X140157D01*
X138189Y229528D02*
Y233465D01*
X96850Y231496D02*
X100787D01*
X98819Y229528D02*
Y233465D01*
X175394Y353543D02*
X179724D01*
X177559Y351378D02*
Y355709D01*
X57284Y353543D02*
X61614D01*
X59449Y351378D02*
Y355709D01*
X24508Y331732D02*
X31398D01*
X27953Y328287D02*
Y335177D01*
X24508Y351732D02*
X31398D01*
X27953Y348287D02*
Y355177D01*
X23894Y132008D02*
X27043D01*
X25469Y130433D02*
Y133583D01*
X23894Y112323D02*
X27043D01*
X25469Y110748D02*
Y113898D01*
X242598Y192266D02*
X243976D01*
X243287Y191577D02*
Y192955D01*
X313878Y57874D02*
X315256D01*
X314567Y57185D02*
Y58563D01*
X323622Y9843D02*
X325000D01*
X324311Y9154D02*
Y10531D01*
X337795Y36614D02*
X339173D01*
X338484Y35925D02*
Y37303D01*
X331496Y36614D02*
X332874D01*
X332185Y35925D02*
Y37303D01*
X325590Y36614D02*
X326969D01*
X326279Y35925D02*
Y37303D01*
X236319Y236614D02*
X237697D01*
X237008Y235925D02*
Y237303D01*
X292224Y113386D02*
X293602D01*
X292913Y112697D02*
Y114075D01*
X35138Y174409D02*
X36516D01*
X35827Y173721D02*
Y175098D01*
X123327Y172441D02*
X124705D01*
X124016Y171752D02*
Y173130D01*
X137500Y167717D02*
X138878D01*
X138189Y167028D02*
Y168405D01*
X151279Y165354D02*
X152657D01*
X151969Y164665D02*
Y166043D01*
X151279Y181102D02*
X152657D01*
X151969Y180413D02*
Y181791D01*
X163091Y173228D02*
X164469D01*
X163779Y172539D02*
Y173917D01*
X74508Y160236D02*
X75886D01*
X75197Y159547D02*
Y160925D01*
X86319Y172047D02*
X87697D01*
X87008Y171358D02*
Y172736D01*
X96161Y174803D02*
X97539D01*
X96850Y174114D02*
Y175492D01*
X96161Y190551D02*
X97539D01*
X96850Y189862D02*
Y191240D01*
X25295Y235827D02*
X26673D01*
X25984Y235138D02*
Y236516D01*
X17421Y243701D02*
X18799D01*
X18110Y243012D02*
Y244390D01*
X3642Y207087D02*
X5020D01*
X4331Y206398D02*
Y207776D01*
X19783Y194882D02*
X21161D01*
X20472Y194193D02*
Y195571D01*
X19783Y222835D02*
X21161D01*
X20472Y222146D02*
Y223524D01*
X39469Y207087D02*
X40846D01*
X40157Y206398D02*
Y207776D01*
X35138Y181496D02*
X36516D01*
X35827Y180807D02*
Y182185D01*
X50886Y162598D02*
X52264D01*
X51575Y161909D02*
Y163287D01*
X38287Y154724D02*
X39665D01*
X38976Y154035D02*
Y155413D01*
X61122Y128740D02*
X62500D01*
X61811Y128051D02*
Y129429D01*
X55216Y134252D02*
X56595D01*
X55905Y133563D02*
Y134941D01*
X83563Y111024D02*
X84941D01*
X84252Y110335D02*
Y111713D01*
X70571Y120472D02*
X71949D01*
X71260Y119783D02*
Y121161D01*
X144587Y98425D02*
X145965D01*
X145276Y97736D02*
Y99114D01*
X158366Y87795D02*
X159744D01*
X159055Y87106D02*
Y88484D01*
X241043Y9843D02*
X242421D01*
X241732Y9154D02*
Y10531D01*
X233169Y9843D02*
X234547D01*
X233858Y9154D02*
Y10531D01*
X271358Y22835D02*
X272736D01*
X272047Y22146D02*
Y23524D01*
X279232Y30709D02*
X280610D01*
X279921Y30020D02*
Y31398D01*
X271358Y30709D02*
X272736D01*
X272047Y30020D02*
Y31398D01*
X252461Y68898D02*
X253839D01*
X253150Y68209D02*
Y69587D01*
X259547Y68898D02*
X260925D01*
X260236Y68209D02*
Y69587D01*
X266240Y68898D02*
X267618D01*
X266929Y68209D02*
Y69587D01*
X289469Y75984D02*
X290846D01*
X290158Y75295D02*
Y76673D01*
X263878Y98819D02*
X265256D01*
X264567Y98130D02*
Y99508D01*
X263878Y110630D02*
X265256D01*
X264567Y109941D02*
Y111319D01*
X211910Y110630D02*
X213287D01*
X212598Y109941D02*
Y111319D01*
X203248Y122047D02*
X204626D01*
X203937Y121358D02*
Y122736D01*
X200492Y135433D02*
X201870D01*
X201181Y134744D02*
Y136122D01*
X208169Y135630D02*
X209547D01*
X208858Y134941D02*
Y136319D01*
X216240Y135827D02*
X217618D01*
X216929Y135138D02*
Y136516D01*
X230807Y172441D02*
X232185D01*
X231496Y171752D02*
Y173130D01*
X267815Y121653D02*
X269193D01*
X268504Y120965D02*
Y122343D01*
X279626Y121653D02*
X281004D01*
X280315Y120965D02*
Y122343D01*
X194587Y211417D02*
X195965D01*
X195276Y210728D02*
Y212106D01*
X210335Y211417D02*
X211713D01*
X211024Y210728D02*
Y212106D01*
X226083Y211417D02*
X227461D01*
X226772Y210728D02*
Y212106D01*
X185138Y127953D02*
X186516D01*
X185827Y127264D02*
Y128642D01*
X200886Y127953D02*
X202264D01*
X201575Y127264D02*
Y128642D01*
X186713Y159843D02*
X188091D01*
X187402Y159153D02*
Y160531D01*
X204429Y183858D02*
X205807D01*
X205118Y183169D02*
Y184547D01*
X234350Y205906D02*
X235728D01*
X235039Y205217D02*
Y206594D01*
X227658Y223622D02*
X229035D01*
X228346Y222933D02*
Y224311D01*
X207185Y223228D02*
X208563D01*
X207874Y222539D02*
Y223917D01*
X199311Y223228D02*
X200689D01*
X200000Y222539D02*
Y223917D01*
X167815Y223228D02*
X169193D01*
X168504Y222539D02*
Y223917D01*
X159941Y223228D02*
X161319D01*
X160630Y222539D02*
Y223917D01*
X222933Y119291D02*
X224311D01*
X223622Y118602D02*
Y119980D01*
X217815Y116535D02*
X219193D01*
X218504Y115847D02*
Y117224D01*
X212303Y116535D02*
X213681D01*
X212992Y115847D02*
Y117224D01*
X268995Y157480D02*
X270373D01*
X269684Y156791D02*
Y158169D01*
X237894Y115748D02*
X239272D01*
X238583Y115059D02*
Y116437D01*
X271358Y234252D02*
X272736D01*
X272047Y233563D02*
Y234941D01*
X273721Y194390D02*
X275098D01*
X274409Y193701D02*
Y195079D01*
X265650Y187795D02*
X267028D01*
X266339Y187106D02*
Y188484D01*
X171358Y158661D02*
X172736D01*
X172047Y157972D02*
Y159350D01*
X159547Y155118D02*
X160925D01*
X160236Y154429D02*
Y155807D01*
X163484Y159055D02*
X164862D01*
X164173Y158366D02*
Y159744D01*
X175295Y162992D02*
X176673D01*
X175984Y162303D02*
Y163681D01*
X167421Y162992D02*
X168799D01*
X168110Y162303D02*
Y163681D01*
X215846Y142126D02*
X217224D01*
X216535Y141437D02*
Y142815D01*
X220571Y141732D02*
X221949D01*
X221260Y141043D02*
Y142421D01*
X239469Y27165D02*
X240846D01*
X240158Y26476D02*
Y27854D01*
X239469Y44094D02*
X240846D01*
X240158Y43406D02*
Y44783D01*
X73327Y20783D02*
X74705D01*
X74016Y20094D02*
Y21472D01*
X48917Y109843D02*
X50295D01*
X49606Y109153D02*
Y110531D01*
X48917Y106693D02*
X50295D01*
X49606Y106004D02*
Y107382D01*
X46798Y136546D02*
X48176D01*
X47487Y135857D02*
Y137235D01*
X70571Y152756D02*
X71949D01*
X71260Y152067D02*
Y153445D01*
X290923Y101023D02*
X292301D01*
X291612Y100334D02*
Y101712D01*
X90294Y128997D02*
X91672D01*
X90983Y128308D02*
Y129686D01*
X81791Y128642D02*
X83169D01*
X82480Y127953D02*
Y129331D01*
X84744Y128642D02*
X86122D01*
X85433Y127953D02*
Y129331D01*
X87697Y128642D02*
X89075D01*
X88386Y127953D02*
Y129331D01*
X246555Y138583D02*
X247933D01*
X247244Y137894D02*
Y139272D01*
X246161Y128347D02*
X247539D01*
X246850Y127657D02*
Y129035D01*
X276869Y151968D02*
X278247D01*
X277558Y151279D02*
Y152657D01*
X252854Y86718D02*
X254232D01*
X253543Y86029D02*
Y87407D01*
X230807Y78851D02*
X232185D01*
X231496Y78162D02*
Y79540D01*
X241286Y103695D02*
X242664D01*
X241975Y103006D02*
Y104384D01*
X238009Y98014D02*
X239387D01*
X238698Y97325D02*
Y98703D01*
X228937Y88976D02*
X230118D01*
X229528Y88386D02*
Y89567D01*
X140354Y67716D02*
X141535D01*
X140945Y67126D02*
Y68307D01*
X241929Y108854D02*
X243307D01*
X242618Y108165D02*
Y109543D01*
X237894Y109449D02*
X239272D01*
X238583Y108760D02*
Y110138D01*
X47736Y5118D02*
X49114D01*
X48425Y4429D02*
Y5807D01*
X47736Y9055D02*
X49114D01*
X48425Y8366D02*
Y9744D01*
X47736Y12992D02*
X49114D01*
X48425Y12303D02*
Y13681D01*
X266240Y86718D02*
X267618D01*
X266929Y86029D02*
Y87407D01*
X259547Y86718D02*
X260925D01*
X260236Y86029D02*
Y87407D01*
X233658Y188882D02*
X235035D01*
X234347Y188193D02*
Y189571D01*
X230807Y76378D02*
X232185D01*
X231496Y75689D02*
Y77067D01*
X289469Y172339D02*
X290846D01*
X290158Y171650D02*
Y173028D01*
X289469Y169866D02*
X290846D01*
X290158Y169177D02*
Y170555D01*
X231988Y128347D02*
X233366D01*
X232677Y127658D02*
Y129036D01*
X239567Y191831D02*
X240945D01*
X240256Y191142D02*
Y192520D01*
X259547Y44390D02*
X260925D01*
X260236Y43701D02*
Y45079D01*
X116339Y107874D02*
X117717D01*
X117028Y107185D02*
Y108563D01*
X116339Y113779D02*
X117717D01*
X117028Y113091D02*
Y114469D01*
X119291Y110827D02*
X120669D01*
X119980Y110138D02*
Y111516D01*
X52165Y194783D02*
X53543D01*
X52854Y194095D02*
Y195472D01*
X49213Y194783D02*
X50590D01*
X49902Y194095D02*
Y195472D01*
X46260Y194783D02*
X47638D01*
X46949Y194095D02*
Y195472D01*
X55610Y173031D02*
X56988D01*
X56299Y172343D02*
Y173721D01*
X52658Y173031D02*
X54035D01*
X53347Y172343D02*
Y173721D01*
X49705Y173031D02*
X51083D01*
X50394Y172343D02*
Y173721D01*
M02*
