G04*
G04 #@! TF.GenerationSoftware,Altium Limited,Altium Designer,20.0.10 (225)*
G04*
G04 Layer_Color=2752767*
%FSLAX25Y25*%
%MOIN*%
G70*
G01*
G75*
%ADD14C,0.00394*%
%ADD212C,0.00200*%
%ADD213C,0.00267*%
%ADD214C,0.00133*%
D14*
X-532Y377165D02*
X1969D01*
X-532Y-335D02*
Y377165D01*
Y-335D02*
X380709D01*
X380709Y129665D02*
X380709Y-335D01*
X296969Y129665D02*
X380709D01*
X296969D02*
Y377165D01*
X1969D02*
X296969D01*
D212*
X313373Y16129D02*
Y17729D01*
X314973D01*
Y16129D01*
X313373D01*
Y22035D02*
Y23635D01*
X314973D01*
Y22035D01*
X313373D01*
Y27940D02*
Y29540D01*
X314973D01*
Y27940D01*
X313373D01*
Y33846D02*
Y35446D01*
X314973D01*
Y33846D01*
X313373D01*
Y39751D02*
Y41351D01*
X314973D01*
Y39751D01*
X313373D01*
Y45657D02*
Y47257D01*
X314973D01*
Y45657D01*
X313373D01*
X158788Y97752D02*
X157988Y99352D01*
X159588D01*
X158788Y97752D01*
X172708Y111671D02*
X171908Y113271D01*
X173508D01*
X172708Y111671D01*
X249965Y345865D02*
X250365Y346265D01*
X250765D01*
X250365Y346665D01*
X250765Y347065D01*
X250365D01*
X249965Y347465D01*
X249565Y347065D01*
X249165D01*
X249565Y346665D01*
X249165Y346265D01*
X249565D01*
X249965Y345865D01*
X269965D02*
X270365Y346265D01*
X270765D01*
X270365Y346665D01*
X270765Y347065D01*
X270365D01*
X269965Y347465D01*
X269565Y347065D01*
X269165D01*
X269565Y346665D01*
X269165Y346265D01*
X269565D01*
X269965Y345865D01*
X199465D02*
X199865Y346265D01*
X200265D01*
X199865Y346665D01*
X200265Y347065D01*
X199865D01*
X199465Y347465D01*
X199065Y347065D01*
X198665D01*
X199065Y346665D01*
X198665Y346265D01*
X199065D01*
X199465Y345865D01*
X219465D02*
X219865Y346265D01*
X220265D01*
X219865Y346665D01*
X220265Y347065D01*
X219865D01*
X219465Y347465D01*
X219065Y347065D01*
X218665D01*
X219065Y346665D01*
X218665Y346265D01*
X219065D01*
X219465Y345865D01*
X244165Y329865D02*
X244565Y330665D01*
X244165Y331465D01*
X244965Y331065D01*
X245765Y331465D01*
X245365Y330665D01*
X245765Y329865D01*
X244965Y330265D01*
X244165Y329865D01*
X274165Y319865D02*
X274565Y320665D01*
X274165Y321465D01*
X274965Y321065D01*
X275765Y321465D01*
X275365Y320665D01*
X275765Y319865D01*
X274965Y320265D01*
X274165Y319865D01*
Y259865D02*
X274565Y260665D01*
X274165Y261465D01*
X274965Y261065D01*
X275765Y261465D01*
X275365Y260665D01*
X275765Y259865D01*
X274965Y260265D01*
X274165Y259865D01*
X244165Y299865D02*
X244565Y300665D01*
X244165Y301465D01*
X244965Y301065D01*
X245765Y301465D01*
X245365Y300665D01*
X245765Y299865D01*
X244965Y300265D01*
X244165Y299865D01*
Y259865D02*
X244565Y260665D01*
X244165Y261465D01*
X244965Y261065D01*
X245765Y261465D01*
X245365Y260665D01*
X245765Y259865D01*
X244965Y260265D01*
X244165Y259865D01*
X195665Y329865D02*
X196065Y330665D01*
X195665Y331465D01*
X196465Y331065D01*
X197265Y331465D01*
X196865Y330665D01*
X197265Y329865D01*
X196465Y330265D01*
X195665Y329865D01*
X225665Y319865D02*
X226065Y320665D01*
X225665Y321465D01*
X226465Y321065D01*
X227265Y321465D01*
X226865Y320665D01*
X227265Y319865D01*
X226465Y320265D01*
X225665Y319865D01*
Y259865D02*
X226065Y260665D01*
X225665Y261465D01*
X226465Y261065D01*
X227265Y261465D01*
X226865Y260665D01*
X227265Y259865D01*
X226465Y260265D01*
X225665Y259865D01*
X195665Y299865D02*
X196065Y300665D01*
X195665Y301465D01*
X196465Y301065D01*
X197265Y301465D01*
X196865Y300665D01*
X197265Y299865D01*
X196465Y300265D01*
X195665Y299865D01*
Y259865D02*
X196065Y260665D01*
X195665Y261465D01*
X196465Y261065D01*
X197265Y261465D01*
X196865Y260665D01*
X197265Y259865D01*
X196465Y260265D01*
X195665Y259865D01*
X280302Y81484D02*
Y83083D01*
X281902D01*
Y81484D01*
X280302D01*
Y75578D02*
Y77178D01*
X281902D01*
Y75578D01*
X280302D01*
Y69672D02*
Y71272D01*
X281902D01*
Y69672D01*
X280302D01*
Y63767D02*
Y65367D01*
X281902D01*
Y63767D01*
X280302D01*
Y57861D02*
Y59461D01*
X281902D01*
Y57861D01*
X280302D01*
Y51956D02*
Y53556D01*
X281902D01*
Y51956D01*
X280302D01*
X74612Y63441D02*
Y63041D01*
X75412D01*
Y63441D01*
X75812D01*
Y64240D01*
X75412D01*
Y64640D01*
X74612D01*
Y64240D01*
X74212D01*
Y63441D01*
X74612D01*
Y56216D02*
Y55816D01*
X75412D01*
Y56216D01*
X75812D01*
Y57016D01*
X75412D01*
Y57416D01*
X74612D01*
Y57016D01*
X74212D01*
Y56216D01*
X74612D01*
X71000Y67053D02*
Y66653D01*
X71800D01*
Y67053D01*
X72200D01*
Y67853D01*
X71800D01*
Y68253D01*
X71000D01*
Y67853D01*
X70600D01*
Y67053D01*
X71000D01*
Y59828D02*
Y59428D01*
X71800D01*
Y59828D01*
X72200D01*
Y60628D01*
X71800D01*
Y61028D01*
X71000D01*
Y60628D01*
X70600D01*
Y59828D01*
X71000D01*
Y52604D02*
Y52204D01*
X71800D01*
Y52604D01*
X72200D01*
Y53404D01*
X71800D01*
Y53804D01*
X71000D01*
Y53404D01*
X70600D01*
Y52604D01*
X71000D01*
X67387Y63441D02*
Y63041D01*
X68187D01*
Y63441D01*
X68587D01*
Y64240D01*
X68187D01*
Y64640D01*
X67387D01*
Y64240D01*
X66987D01*
Y63441D01*
X67387D01*
Y56216D02*
Y55816D01*
X68187D01*
Y56216D01*
X68587D01*
Y57016D01*
X68187D01*
Y57416D01*
X67387D01*
Y57016D01*
X66987D01*
Y56216D01*
X67387D01*
X63775Y67053D02*
Y66653D01*
X64575D01*
Y67053D01*
X64975D01*
Y67853D01*
X64575D01*
Y68253D01*
X63775D01*
Y67853D01*
X63375D01*
Y67053D01*
X63775D01*
Y59828D02*
Y59428D01*
X64575D01*
Y59828D01*
X64975D01*
Y60628D01*
X64575D01*
Y61028D01*
X63775D01*
Y60628D01*
X63375D01*
Y59828D01*
X63775D01*
Y52604D02*
Y52204D01*
X64575D01*
Y52604D01*
X64975D01*
Y53404D01*
X64575D01*
Y53804D01*
X63775D01*
Y53404D01*
X63375D01*
Y52604D01*
X63775D01*
X60163Y63441D02*
Y63041D01*
X60963D01*
Y63441D01*
X61363D01*
Y64240D01*
X60963D01*
Y64640D01*
X60163D01*
Y64240D01*
X59763D01*
Y63441D01*
X60163D01*
Y56216D02*
Y55816D01*
X60963D01*
Y56216D01*
X61363D01*
Y57016D01*
X60963D01*
Y57416D01*
X60163D01*
Y57016D01*
X59763D01*
Y56216D01*
X60163D01*
X120263Y10365D02*
X120663D01*
X121063Y10765D01*
X121463Y10365D01*
X121863D01*
Y10765D01*
X121463Y11165D01*
X121863Y11565D01*
Y11965D01*
X121463D01*
X121063Y11565D01*
X120663Y11965D01*
X120263D01*
Y11565D01*
X120663Y11165D01*
X120263Y10765D01*
Y10365D01*
X132074D02*
X132474D01*
X132874Y10765D01*
X133274Y10365D01*
X133674D01*
Y10765D01*
X133274Y11165D01*
X133674Y11565D01*
Y11965D01*
X133274D01*
X132874Y11565D01*
X132474Y11965D01*
X132074D01*
Y11565D01*
X132474Y11165D01*
X132074Y10765D01*
Y10365D01*
X179909Y55512D02*
X180709Y56312D01*
X181509Y55512D01*
X180709Y54712D01*
X179909Y55512D01*
X203137Y42507D02*
Y44107D01*
X204737D01*
Y42507D01*
X203137D01*
X203537Y42907D02*
Y43707D01*
X204337D01*
Y42907D01*
X203537D01*
X185039Y12192D02*
X184239Y13792D01*
X185839D01*
X185039Y12192D01*
Y12592D02*
X184639Y13392D01*
X185439D01*
X185039Y12592D01*
X47373Y185894D02*
X48173Y186694D01*
X48973Y185894D01*
X48173Y185094D01*
X47373Y185894D01*
X35168Y161865D02*
Y163465D01*
X36768D01*
Y161865D01*
X35168D01*
X35568Y162265D02*
Y163065D01*
X36369D01*
Y162265D01*
X35568D01*
X5654Y180763D02*
X4854Y182363D01*
X6453D01*
X5654Y180763D01*
Y181163D02*
X5254Y181963D01*
X6053D01*
X5654Y181163D01*
X18126Y234865D02*
X17326Y236465D01*
X18926D01*
X18126Y234865D01*
X37811D02*
X37011Y236465D01*
X38611D01*
X37811Y234865D01*
X18110Y277940D02*
X17310Y279540D01*
X18910D01*
X18110Y277940D01*
X37795D02*
X36995Y279540D01*
X38595D01*
X37795Y277940D01*
X157874Y309436D02*
X157074Y311036D01*
X158674D01*
X157874Y309436D01*
X79134D02*
X78334Y311036D01*
X79934D01*
X79134Y309436D01*
X138189Y230696D02*
X137389Y232296D01*
X138989D01*
X138189Y230696D01*
X98819D02*
X98019Y232296D01*
X99619D01*
X98819Y230696D01*
X177559Y352743D02*
X177959Y353143D01*
X178359D01*
X177959Y353543D01*
X178359Y353943D01*
X177959D01*
X177559Y354343D01*
X177159Y353943D01*
X176759D01*
X177159Y353543D01*
X176759Y353143D01*
X177159D01*
X177559Y352743D01*
Y353143D02*
X177759Y353343D01*
X177959D01*
X177759Y353543D01*
X177959Y353743D01*
X177759D01*
X177559Y353943D01*
X177359Y353743D01*
X177159D01*
X177359Y353543D01*
X177159Y353343D01*
X177359D01*
X177559Y353143D01*
X59449Y352743D02*
X59849Y353143D01*
X60249D01*
X59849Y353543D01*
X60249Y353943D01*
X59849D01*
X59449Y354343D01*
X59049Y353943D01*
X58649D01*
X59049Y353543D01*
X58649Y353143D01*
X59049D01*
X59449Y352743D01*
Y353143D02*
X59649Y353343D01*
X59849D01*
X59649Y353543D01*
X59849Y353743D01*
X59649D01*
X59449Y353943D01*
X59249Y353743D01*
X59049D01*
X59249Y353543D01*
X59049Y353343D01*
X59249D01*
X59449Y353143D01*
X27953Y330932D02*
X28353Y331332D01*
X28753D01*
X28353Y331732D01*
X28753Y332132D01*
X28353D01*
X27953Y332532D01*
X27553Y332132D01*
X27153D01*
X27553Y331732D01*
X27153Y331332D01*
X27553D01*
X27953Y330932D01*
Y350932D02*
X28353Y351332D01*
X28753D01*
X28353Y351732D01*
X28753Y352132D01*
X28353D01*
X27953Y352532D01*
X27553Y352132D01*
X27153D01*
X27553Y351732D01*
X27153Y351332D01*
X27553D01*
X27953Y350932D01*
X24668Y131208D02*
X25069Y132008D01*
X24668Y132808D01*
X25469Y132408D01*
X26269Y132808D01*
X25868Y132008D01*
X26269Y131208D01*
X25469Y131608D01*
X24668Y131208D01*
X25069Y131608D02*
X25269Y132008D01*
X25069Y132408D01*
X25469Y132208D01*
X25868Y132408D01*
X25668Y132008D01*
X25868Y131608D01*
X25469Y131808D01*
X25069Y131608D01*
X24668Y111523D02*
X25069Y112323D01*
X24668Y113123D01*
X25469Y112723D01*
X26269Y113123D01*
X25868Y112323D01*
X26269Y111523D01*
X25469Y111923D01*
X24668Y111523D01*
X25069Y111923D02*
X25269Y112323D01*
X25069Y112723D01*
X25469Y112523D01*
X25868Y112723D01*
X25668Y112323D01*
X25868Y111923D01*
X25469Y112123D01*
X25069Y111923D01*
X242887Y191866D02*
Y191466D01*
X243687D01*
Y191866D01*
X244087D01*
Y192666D01*
X243687D01*
Y193066D01*
X242887D01*
Y192666D01*
X242487D01*
Y191866D01*
X242887D01*
X243087Y192066D02*
Y191866D01*
X243487D01*
Y192066D01*
X243687D01*
Y192466D01*
X243487D01*
Y192666D01*
X243087D01*
Y192466D01*
X242887D01*
Y192066D01*
X243087D01*
X314167Y57474D02*
Y57074D01*
X314967D01*
Y57474D01*
X315367D01*
Y58274D01*
X314967D01*
Y58674D01*
X314167D01*
Y58274D01*
X313767D01*
Y57474D01*
X314167D01*
X314367Y57674D02*
Y57474D01*
X314767D01*
Y57674D01*
X314967D01*
Y58074D01*
X314767D01*
Y58274D01*
X314367D01*
Y58074D01*
X314167D01*
Y57674D01*
X314367D01*
X323911Y9443D02*
Y9042D01*
X324711D01*
Y9443D01*
X325111D01*
Y10243D01*
X324711D01*
Y10643D01*
X323911D01*
Y10243D01*
X323511D01*
Y9443D01*
X323911D01*
X324111Y9642D02*
Y9443D01*
X324511D01*
Y9642D01*
X324711D01*
Y10042D01*
X324511D01*
Y10243D01*
X324111D01*
Y10042D01*
X323911D01*
Y9642D01*
X324111D01*
X338084Y36214D02*
Y35814D01*
X338884D01*
Y36214D01*
X339284D01*
Y37014D01*
X338884D01*
Y37414D01*
X338084D01*
Y37014D01*
X337684D01*
Y36214D01*
X338084D01*
X338284Y36414D02*
Y36214D01*
X338684D01*
Y36414D01*
X338884D01*
Y36814D01*
X338684D01*
Y37014D01*
X338284D01*
Y36814D01*
X338084D01*
Y36414D01*
X338284D01*
X331785Y36214D02*
Y35814D01*
X332585D01*
Y36214D01*
X332985D01*
Y37014D01*
X332585D01*
Y37414D01*
X331785D01*
Y37014D01*
X331385D01*
Y36214D01*
X331785D01*
X331985Y36414D02*
Y36214D01*
X332385D01*
Y36414D01*
X332585D01*
Y36814D01*
X332385D01*
Y37014D01*
X331985D01*
Y36814D01*
X331785D01*
Y36414D01*
X331985D01*
X325880Y36214D02*
Y35814D01*
X326679D01*
Y36214D01*
X327080D01*
Y37014D01*
X326679D01*
Y37414D01*
X325880D01*
Y37014D01*
X325480D01*
Y36214D01*
X325880D01*
X326080Y36414D02*
Y36214D01*
X326480D01*
Y36414D01*
X326679D01*
Y36814D01*
X326480D01*
Y37014D01*
X326080D01*
Y36814D01*
X325880D01*
Y36414D01*
X326080D01*
X236608Y236214D02*
Y235814D01*
X237408D01*
Y236214D01*
X237808D01*
Y237014D01*
X237408D01*
Y237414D01*
X236608D01*
Y237014D01*
X236208D01*
Y236214D01*
X236608D01*
X236808Y236414D02*
Y236214D01*
X237208D01*
Y236414D01*
X237408D01*
Y236814D01*
X237208D01*
Y237014D01*
X236808D01*
Y236814D01*
X236608D01*
Y236414D01*
X236808D01*
X292513Y112986D02*
Y112586D01*
X293313D01*
Y112986D01*
X293713D01*
Y113786D01*
X293313D01*
Y114186D01*
X292513D01*
Y113786D01*
X292113D01*
Y112986D01*
X292513D01*
X292713Y113186D02*
Y112986D01*
X293113D01*
Y113186D01*
X293313D01*
Y113586D01*
X293113D01*
Y113786D01*
X292713D01*
Y113586D01*
X292513D01*
Y113186D01*
X292713D01*
X35427Y174009D02*
Y173609D01*
X36227D01*
Y174009D01*
X36627D01*
Y174809D01*
X36227D01*
Y175209D01*
X35427D01*
Y174809D01*
X35027D01*
Y174009D01*
X35427D01*
X35627Y174209D02*
Y174009D01*
X36027D01*
Y174209D01*
X36227D01*
Y174609D01*
X36027D01*
Y174809D01*
X35627D01*
Y174609D01*
X35427D01*
Y174209D01*
X35627D01*
X123616Y172041D02*
Y171641D01*
X124416D01*
Y172041D01*
X124816D01*
Y172841D01*
X124416D01*
Y173241D01*
X123616D01*
Y172841D01*
X123216D01*
Y172041D01*
X123616D01*
X123816Y172241D02*
Y172041D01*
X124216D01*
Y172241D01*
X124416D01*
Y172641D01*
X124216D01*
Y172841D01*
X123816D01*
Y172641D01*
X123616D01*
Y172241D01*
X123816D01*
X137789Y167316D02*
Y166917D01*
X138589D01*
Y167316D01*
X138989D01*
Y168116D01*
X138589D01*
Y168517D01*
X137789D01*
Y168116D01*
X137389D01*
Y167316D01*
X137789D01*
X137989Y167517D02*
Y167316D01*
X138389D01*
Y167517D01*
X138589D01*
Y167917D01*
X138389D01*
Y168116D01*
X137989D01*
Y167917D01*
X137789D01*
Y167517D01*
X137989D01*
X151568Y164954D02*
Y164554D01*
X152368D01*
Y164954D01*
X152769D01*
Y165754D01*
X152368D01*
Y166154D01*
X151568D01*
Y165754D01*
X151169D01*
Y164954D01*
X151568D01*
X151769Y165154D02*
Y164954D01*
X152169D01*
Y165154D01*
X152368D01*
Y165554D01*
X152169D01*
Y165754D01*
X151769D01*
Y165554D01*
X151568D01*
Y165154D01*
X151769D01*
X151568Y180702D02*
Y180302D01*
X152368D01*
Y180702D01*
X152769D01*
Y181502D01*
X152368D01*
Y181902D01*
X151568D01*
Y181502D01*
X151169D01*
Y180702D01*
X151568D01*
X151769Y180902D02*
Y180702D01*
X152169D01*
Y180902D01*
X152368D01*
Y181302D01*
X152169D01*
Y181502D01*
X151769D01*
Y181302D01*
X151568D01*
Y180902D01*
X151769D01*
X163380Y172828D02*
Y172428D01*
X164180D01*
Y172828D01*
X164579D01*
Y173628D01*
X164180D01*
Y174028D01*
X163380D01*
Y173628D01*
X162979D01*
Y172828D01*
X163380D01*
X163579Y173028D02*
Y172828D01*
X163979D01*
Y173028D01*
X164180D01*
Y173428D01*
X163979D01*
Y173628D01*
X163579D01*
Y173428D01*
X163380D01*
Y173028D01*
X163579D01*
X74797Y159836D02*
Y159436D01*
X75597D01*
Y159836D01*
X75997D01*
Y160636D01*
X75597D01*
Y161036D01*
X74797D01*
Y160636D01*
X74397D01*
Y159836D01*
X74797D01*
X74997Y160036D02*
Y159836D01*
X75397D01*
Y160036D01*
X75597D01*
Y160436D01*
X75397D01*
Y160636D01*
X74997D01*
Y160436D01*
X74797D01*
Y160036D01*
X74997D01*
X86608Y171647D02*
Y171247D01*
X87408D01*
Y171647D01*
X87808D01*
Y172447D01*
X87408D01*
Y172847D01*
X86608D01*
Y172447D01*
X86208D01*
Y171647D01*
X86608D01*
X86808Y171847D02*
Y171647D01*
X87208D01*
Y171847D01*
X87408D01*
Y172247D01*
X87208D01*
Y172447D01*
X86808D01*
Y172247D01*
X86608D01*
Y171847D01*
X86808D01*
X96450Y174403D02*
Y174003D01*
X97250D01*
Y174403D01*
X97650D01*
Y175203D01*
X97250D01*
Y175603D01*
X96450D01*
Y175203D01*
X96050D01*
Y174403D01*
X96450D01*
X96650Y174603D02*
Y174403D01*
X97050D01*
Y174603D01*
X97250D01*
Y175003D01*
X97050D01*
Y175203D01*
X96650D01*
Y175003D01*
X96450D01*
Y174603D01*
X96650D01*
X96450Y190151D02*
Y189751D01*
X97250D01*
Y190151D01*
X97650D01*
Y190951D01*
X97250D01*
Y191351D01*
X96450D01*
Y190951D01*
X96050D01*
Y190151D01*
X96450D01*
X96650Y190351D02*
Y190151D01*
X97050D01*
Y190351D01*
X97250D01*
Y190751D01*
X97050D01*
Y190951D01*
X96650D01*
Y190751D01*
X96450D01*
Y190351D01*
X96650D01*
X25584Y235427D02*
Y235027D01*
X26384D01*
Y235427D01*
X26784D01*
Y236227D01*
X26384D01*
Y236627D01*
X25584D01*
Y236227D01*
X25184D01*
Y235427D01*
X25584D01*
X25784Y235627D02*
Y235427D01*
X26184D01*
Y235627D01*
X26384D01*
Y236027D01*
X26184D01*
Y236227D01*
X25784D01*
Y236027D01*
X25584D01*
Y235627D01*
X25784D01*
X17710Y243301D02*
Y242901D01*
X18510D01*
Y243301D01*
X18910D01*
Y244101D01*
X18510D01*
Y244501D01*
X17710D01*
Y244101D01*
X17310D01*
Y243301D01*
X17710D01*
X17910Y243501D02*
Y243301D01*
X18310D01*
Y243501D01*
X18510D01*
Y243901D01*
X18310D01*
Y244101D01*
X17910D01*
Y243901D01*
X17710D01*
Y243501D01*
X17910D01*
X3931Y206687D02*
Y206287D01*
X4731D01*
Y206687D01*
X5131D01*
Y207487D01*
X4731D01*
Y207887D01*
X3931D01*
Y207487D01*
X3531D01*
Y206687D01*
X3931D01*
X4131Y206887D02*
Y206687D01*
X4531D01*
Y206887D01*
X4731D01*
Y207287D01*
X4531D01*
Y207487D01*
X4131D01*
Y207287D01*
X3931D01*
Y206887D01*
X4131D01*
X20072Y194482D02*
Y194082D01*
X20872D01*
Y194482D01*
X21272D01*
Y195282D01*
X20872D01*
Y195682D01*
X20072D01*
Y195282D01*
X19672D01*
Y194482D01*
X20072D01*
X20272Y194682D02*
Y194482D01*
X20672D01*
Y194682D01*
X20872D01*
Y195082D01*
X20672D01*
Y195282D01*
X20272D01*
Y195082D01*
X20072D01*
Y194682D01*
X20272D01*
X20072Y222435D02*
Y222035D01*
X20872D01*
Y222435D01*
X21272D01*
Y223235D01*
X20872D01*
Y223635D01*
X20072D01*
Y223235D01*
X19672D01*
Y222435D01*
X20072D01*
X20272Y222635D02*
Y222435D01*
X20672D01*
Y222635D01*
X20872D01*
Y223035D01*
X20672D01*
Y223235D01*
X20272D01*
Y223035D01*
X20072D01*
Y222635D01*
X20272D01*
X39757Y206687D02*
Y206287D01*
X40558D01*
Y206687D01*
X40957D01*
Y207487D01*
X40558D01*
Y207887D01*
X39757D01*
Y207487D01*
X39358D01*
Y206687D01*
X39757D01*
X39957Y206887D02*
Y206687D01*
X40358D01*
Y206887D01*
X40558D01*
Y207287D01*
X40358D01*
Y207487D01*
X39957D01*
Y207287D01*
X39757D01*
Y206887D01*
X39957D01*
X35427Y181096D02*
Y180696D01*
X36227D01*
Y181096D01*
X36627D01*
Y181896D01*
X36227D01*
Y182296D01*
X35427D01*
Y181896D01*
X35027D01*
Y181096D01*
X35427D01*
X35627Y181296D02*
Y181096D01*
X36027D01*
Y181296D01*
X36227D01*
Y181696D01*
X36027D01*
Y181896D01*
X35627D01*
Y181696D01*
X35427D01*
Y181296D01*
X35627D01*
X51175Y162198D02*
Y161798D01*
X51975D01*
Y162198D01*
X52375D01*
Y162998D01*
X51975D01*
Y163398D01*
X51175D01*
Y162998D01*
X50775D01*
Y162198D01*
X51175D01*
X51375Y162398D02*
Y162198D01*
X51775D01*
Y162398D01*
X51975D01*
Y162798D01*
X51775D01*
Y162998D01*
X51375D01*
Y162798D01*
X51175D01*
Y162398D01*
X51375D01*
X38576Y154324D02*
Y153924D01*
X39376D01*
Y154324D01*
X39776D01*
Y155124D01*
X39376D01*
Y155524D01*
X38576D01*
Y155124D01*
X38176D01*
Y154324D01*
X38576D01*
X38776Y154524D02*
Y154324D01*
X39176D01*
Y154524D01*
X39376D01*
Y154924D01*
X39176D01*
Y155124D01*
X38776D01*
Y154924D01*
X38576D01*
Y154524D01*
X38776D01*
X61411Y128340D02*
Y127940D01*
X62211D01*
Y128340D01*
X62611D01*
Y129140D01*
X62211D01*
Y129540D01*
X61411D01*
Y129140D01*
X61011D01*
Y128340D01*
X61411D01*
X61611Y128540D02*
Y128340D01*
X62011D01*
Y128540D01*
X62211D01*
Y128940D01*
X62011D01*
Y129140D01*
X61611D01*
Y128940D01*
X61411D01*
Y128540D01*
X61611D01*
X55506Y133852D02*
Y133452D01*
X56305D01*
Y133852D01*
X56705D01*
Y134652D01*
X56305D01*
Y135052D01*
X55506D01*
Y134652D01*
X55106D01*
Y133852D01*
X55506D01*
X55705Y134052D02*
Y133852D01*
X56106D01*
Y134052D01*
X56305D01*
Y134452D01*
X56106D01*
Y134652D01*
X55705D01*
Y134452D01*
X55506D01*
Y134052D01*
X55705D01*
X83852Y110624D02*
Y110224D01*
X84652D01*
Y110624D01*
X85052D01*
Y111424D01*
X84652D01*
Y111824D01*
X83852D01*
Y111424D01*
X83452D01*
Y110624D01*
X83852D01*
X84052Y110824D02*
Y110624D01*
X84452D01*
Y110824D01*
X84652D01*
Y111224D01*
X84452D01*
Y111424D01*
X84052D01*
Y111224D01*
X83852D01*
Y110824D01*
X84052D01*
X70860Y120072D02*
Y119672D01*
X71660D01*
Y120072D01*
X72060D01*
Y120872D01*
X71660D01*
Y121272D01*
X70860D01*
Y120872D01*
X70460D01*
Y120072D01*
X70860D01*
X71060Y120272D02*
Y120072D01*
X71460D01*
Y120272D01*
X71660D01*
Y120672D01*
X71460D01*
Y120872D01*
X71060D01*
Y120672D01*
X70860D01*
Y120272D01*
X71060D01*
X144876Y98025D02*
Y97625D01*
X145676D01*
Y98025D01*
X146076D01*
Y98825D01*
X145676D01*
Y99225D01*
X144876D01*
Y98825D01*
X144476D01*
Y98025D01*
X144876D01*
X145076Y98225D02*
Y98025D01*
X145476D01*
Y98225D01*
X145676D01*
Y98625D01*
X145476D01*
Y98825D01*
X145076D01*
Y98625D01*
X144876D01*
Y98225D01*
X145076D01*
X158655Y87395D02*
Y86995D01*
X159455D01*
Y87395D01*
X159855D01*
Y88195D01*
X159455D01*
Y88595D01*
X158655D01*
Y88195D01*
X158255D01*
Y87395D01*
X158655D01*
X158855Y87595D02*
Y87395D01*
X159255D01*
Y87595D01*
X159455D01*
Y87995D01*
X159255D01*
Y88195D01*
X158855D01*
Y87995D01*
X158655D01*
Y87595D01*
X158855D01*
X241332Y9443D02*
Y9042D01*
X242132D01*
Y9443D01*
X242532D01*
Y10243D01*
X242132D01*
Y10643D01*
X241332D01*
Y10243D01*
X240932D01*
Y9443D01*
X241332D01*
X241532Y9642D02*
Y9443D01*
X241932D01*
Y9642D01*
X242132D01*
Y10042D01*
X241932D01*
Y10243D01*
X241532D01*
Y10042D01*
X241332D01*
Y9642D01*
X241532D01*
X233458Y9443D02*
Y9042D01*
X234258D01*
Y9443D01*
X234658D01*
Y10243D01*
X234258D01*
Y10643D01*
X233458D01*
Y10243D01*
X233058D01*
Y9443D01*
X233458D01*
X233658Y9642D02*
Y9443D01*
X234058D01*
Y9642D01*
X234258D01*
Y10042D01*
X234058D01*
Y10243D01*
X233658D01*
Y10042D01*
X233458D01*
Y9642D01*
X233658D01*
X271647Y22435D02*
Y22035D01*
X272447D01*
Y22435D01*
X272847D01*
Y23235D01*
X272447D01*
Y23635D01*
X271647D01*
Y23235D01*
X271247D01*
Y22435D01*
X271647D01*
X271847Y22635D02*
Y22435D01*
X272247D01*
Y22635D01*
X272447D01*
Y23035D01*
X272247D01*
Y23235D01*
X271847D01*
Y23035D01*
X271647D01*
Y22635D01*
X271847D01*
X279521Y30309D02*
Y29909D01*
X280321D01*
Y30309D01*
X280721D01*
Y31109D01*
X280321D01*
Y31509D01*
X279521D01*
Y31109D01*
X279121D01*
Y30309D01*
X279521D01*
X279721Y30509D02*
Y30309D01*
X280121D01*
Y30509D01*
X280321D01*
Y30909D01*
X280121D01*
Y31109D01*
X279721D01*
Y30909D01*
X279521D01*
Y30509D01*
X279721D01*
X271647Y30309D02*
Y29909D01*
X272447D01*
Y30309D01*
X272847D01*
Y31109D01*
X272447D01*
Y31509D01*
X271647D01*
Y31109D01*
X271247D01*
Y30309D01*
X271647D01*
X271847Y30509D02*
Y30309D01*
X272247D01*
Y30509D01*
X272447D01*
Y30909D01*
X272247D01*
Y31109D01*
X271847D01*
Y30909D01*
X271647D01*
Y30509D01*
X271847D01*
X252750Y68498D02*
Y68098D01*
X253550D01*
Y68498D01*
X253950D01*
Y69298D01*
X253550D01*
Y69698D01*
X252750D01*
Y69298D01*
X252350D01*
Y68498D01*
X252750D01*
X252950Y68698D02*
Y68498D01*
X253350D01*
Y68698D01*
X253550D01*
Y69098D01*
X253350D01*
Y69298D01*
X252950D01*
Y69098D01*
X252750D01*
Y68698D01*
X252950D01*
X259836Y68498D02*
Y68098D01*
X260636D01*
Y68498D01*
X261036D01*
Y69298D01*
X260636D01*
Y69698D01*
X259836D01*
Y69298D01*
X259436D01*
Y68498D01*
X259836D01*
X260036Y68698D02*
Y68498D01*
X260436D01*
Y68698D01*
X260636D01*
Y69098D01*
X260436D01*
Y69298D01*
X260036D01*
Y69098D01*
X259836D01*
Y68698D01*
X260036D01*
X266529Y68498D02*
Y68098D01*
X267329D01*
Y68498D01*
X267729D01*
Y69298D01*
X267329D01*
Y69698D01*
X266529D01*
Y69298D01*
X266129D01*
Y68498D01*
X266529D01*
X266729Y68698D02*
Y68498D01*
X267129D01*
Y68698D01*
X267329D01*
Y69098D01*
X267129D01*
Y69298D01*
X266729D01*
Y69098D01*
X266529D01*
Y68698D01*
X266729D01*
X289757Y75584D02*
Y75184D01*
X290558D01*
Y75584D01*
X290957D01*
Y76384D01*
X290558D01*
Y76784D01*
X289757D01*
Y76384D01*
X289357D01*
Y75584D01*
X289757D01*
X289957Y75784D02*
Y75584D01*
X290357D01*
Y75784D01*
X290558D01*
Y76184D01*
X290357D01*
Y76384D01*
X289957D01*
Y76184D01*
X289757D01*
Y75784D01*
X289957D01*
X264167Y98419D02*
Y98019D01*
X264967D01*
Y98419D01*
X265367D01*
Y99219D01*
X264967D01*
Y99619D01*
X264167D01*
Y99219D01*
X263767D01*
Y98419D01*
X264167D01*
X264367Y98619D02*
Y98419D01*
X264767D01*
Y98619D01*
X264967D01*
Y99019D01*
X264767D01*
Y99219D01*
X264367D01*
Y99019D01*
X264167D01*
Y98619D01*
X264367D01*
X264167Y110230D02*
Y109830D01*
X264967D01*
Y110230D01*
X265367D01*
Y111030D01*
X264967D01*
Y111430D01*
X264167D01*
Y111030D01*
X263767D01*
Y110230D01*
X264167D01*
X264367Y110430D02*
Y110230D01*
X264767D01*
Y110430D01*
X264967D01*
Y110830D01*
X264767D01*
Y111030D01*
X264367D01*
Y110830D01*
X264167D01*
Y110430D01*
X264367D01*
X212198Y110230D02*
Y109830D01*
X212998D01*
Y110230D01*
X213398D01*
Y111030D01*
X212998D01*
Y111430D01*
X212198D01*
Y111030D01*
X211798D01*
Y110230D01*
X212198D01*
X212398Y110430D02*
Y110230D01*
X212798D01*
Y110430D01*
X212998D01*
Y110830D01*
X212798D01*
Y111030D01*
X212398D01*
Y110830D01*
X212198D01*
Y110430D01*
X212398D01*
X203537Y121647D02*
Y121247D01*
X204337D01*
Y121647D01*
X204737D01*
Y122447D01*
X204337D01*
Y122847D01*
X203537D01*
Y122447D01*
X203137D01*
Y121647D01*
X203537D01*
X203737Y121847D02*
Y121647D01*
X204137D01*
Y121847D01*
X204337D01*
Y122247D01*
X204137D01*
Y122447D01*
X203737D01*
Y122247D01*
X203537D01*
Y121847D01*
X203737D01*
X200781Y135033D02*
Y134633D01*
X201581D01*
Y135033D01*
X201981D01*
Y135833D01*
X201581D01*
Y136233D01*
X200781D01*
Y135833D01*
X200381D01*
Y135033D01*
X200781D01*
X200981Y135233D02*
Y135033D01*
X201381D01*
Y135233D01*
X201581D01*
Y135633D01*
X201381D01*
Y135833D01*
X200981D01*
Y135633D01*
X200781D01*
Y135233D01*
X200981D01*
X208458Y135230D02*
Y134830D01*
X209258D01*
Y135230D01*
X209658D01*
Y136030D01*
X209258D01*
Y136430D01*
X208458D01*
Y136030D01*
X208058D01*
Y135230D01*
X208458D01*
X208658Y135430D02*
Y135230D01*
X209058D01*
Y135430D01*
X209258D01*
Y135830D01*
X209058D01*
Y136030D01*
X208658D01*
Y135830D01*
X208458D01*
Y135430D01*
X208658D01*
X216529Y135427D02*
Y135027D01*
X217329D01*
Y135427D01*
X217729D01*
Y136227D01*
X217329D01*
Y136627D01*
X216529D01*
Y136227D01*
X216129D01*
Y135427D01*
X216529D01*
X216729Y135627D02*
Y135427D01*
X217129D01*
Y135627D01*
X217329D01*
Y136027D01*
X217129D01*
Y136227D01*
X216729D01*
Y136027D01*
X216529D01*
Y135627D01*
X216729D01*
X231096Y172041D02*
Y171641D01*
X231896D01*
Y172041D01*
X232296D01*
Y172841D01*
X231896D01*
Y173241D01*
X231096D01*
Y172841D01*
X230696D01*
Y172041D01*
X231096D01*
X231296Y172241D02*
Y172041D01*
X231696D01*
Y172241D01*
X231896D01*
Y172641D01*
X231696D01*
Y172841D01*
X231296D01*
Y172641D01*
X231096D01*
Y172241D01*
X231296D01*
X268104Y121254D02*
Y120853D01*
X268904D01*
Y121254D01*
X269304D01*
Y122054D01*
X268904D01*
Y122453D01*
X268104D01*
Y122054D01*
X267704D01*
Y121254D01*
X268104D01*
X268304Y121453D02*
Y121254D01*
X268704D01*
Y121453D01*
X268904D01*
Y121853D01*
X268704D01*
Y122054D01*
X268304D01*
Y121853D01*
X268104D01*
Y121453D01*
X268304D01*
X279915Y121254D02*
Y120853D01*
X280715D01*
Y121254D01*
X281115D01*
Y122054D01*
X280715D01*
Y122453D01*
X279915D01*
Y122054D01*
X279515D01*
Y121254D01*
X279915D01*
X280115Y121453D02*
Y121254D01*
X280515D01*
Y121453D01*
X280715D01*
Y121853D01*
X280515D01*
Y122054D01*
X280115D01*
Y121853D01*
X279915D01*
Y121453D01*
X280115D01*
X194876Y211017D02*
Y210617D01*
X195676D01*
Y211017D01*
X196076D01*
Y211817D01*
X195676D01*
Y212217D01*
X194876D01*
Y211817D01*
X194476D01*
Y211017D01*
X194876D01*
X195076Y211217D02*
Y211017D01*
X195476D01*
Y211217D01*
X195676D01*
Y211617D01*
X195476D01*
Y211817D01*
X195076D01*
Y211617D01*
X194876D01*
Y211217D01*
X195076D01*
X210624Y211017D02*
Y210617D01*
X211424D01*
Y211017D01*
X211824D01*
Y211817D01*
X211424D01*
Y212217D01*
X210624D01*
Y211817D01*
X210224D01*
Y211017D01*
X210624D01*
X210824Y211217D02*
Y211017D01*
X211224D01*
Y211217D01*
X211424D01*
Y211617D01*
X211224D01*
Y211817D01*
X210824D01*
Y211617D01*
X210624D01*
Y211217D01*
X210824D01*
X226372Y211017D02*
Y210617D01*
X227172D01*
Y211017D01*
X227572D01*
Y211817D01*
X227172D01*
Y212217D01*
X226372D01*
Y211817D01*
X225972D01*
Y211017D01*
X226372D01*
X226572Y211217D02*
Y211017D01*
X226972D01*
Y211217D01*
X227172D01*
Y211617D01*
X226972D01*
Y211817D01*
X226572D01*
Y211617D01*
X226372D01*
Y211217D01*
X226572D01*
X185427Y127553D02*
Y127153D01*
X186227D01*
Y127553D01*
X186627D01*
Y128353D01*
X186227D01*
Y128753D01*
X185427D01*
Y128353D01*
X185027D01*
Y127553D01*
X185427D01*
X185627Y127753D02*
Y127553D01*
X186027D01*
Y127753D01*
X186227D01*
Y128153D01*
X186027D01*
Y128353D01*
X185627D01*
Y128153D01*
X185427D01*
Y127753D01*
X185627D01*
X201175Y127553D02*
Y127153D01*
X201975D01*
Y127553D01*
X202375D01*
Y128353D01*
X201975D01*
Y128753D01*
X201175D01*
Y128353D01*
X200775D01*
Y127553D01*
X201175D01*
X201375Y127753D02*
Y127553D01*
X201775D01*
Y127753D01*
X201975D01*
Y128153D01*
X201775D01*
Y128353D01*
X201375D01*
Y128153D01*
X201175D01*
Y127753D01*
X201375D01*
X187002Y159442D02*
Y159043D01*
X187802D01*
Y159442D01*
X188202D01*
Y160242D01*
X187802D01*
Y160643D01*
X187002D01*
Y160242D01*
X186602D01*
Y159442D01*
X187002D01*
X187202Y159643D02*
Y159442D01*
X187602D01*
Y159643D01*
X187802D01*
Y160043D01*
X187602D01*
Y160242D01*
X187202D01*
Y160043D01*
X187002D01*
Y159643D01*
X187202D01*
X204718Y183458D02*
Y183058D01*
X205518D01*
Y183458D01*
X205918D01*
Y184258D01*
X205518D01*
Y184658D01*
X204718D01*
Y184258D01*
X204318D01*
Y183458D01*
X204718D01*
X204918Y183658D02*
Y183458D01*
X205318D01*
Y183658D01*
X205518D01*
Y184058D01*
X205318D01*
Y184258D01*
X204918D01*
Y184058D01*
X204718D01*
Y183658D01*
X204918D01*
X234639Y205505D02*
Y205105D01*
X235439D01*
Y205505D01*
X235839D01*
Y206306D01*
X235439D01*
Y206705D01*
X234639D01*
Y206306D01*
X234239D01*
Y205505D01*
X234639D01*
X234839Y205705D02*
Y205505D01*
X235239D01*
Y205705D01*
X235439D01*
Y206105D01*
X235239D01*
Y206306D01*
X234839D01*
Y206105D01*
X234639D01*
Y205705D01*
X234839D01*
X227946Y223222D02*
Y222822D01*
X228747D01*
Y223222D01*
X229147D01*
Y224022D01*
X228747D01*
Y224422D01*
X227946D01*
Y224022D01*
X227547D01*
Y223222D01*
X227946D01*
X228147Y223422D02*
Y223222D01*
X228547D01*
Y223422D01*
X228747D01*
Y223822D01*
X228547D01*
Y224022D01*
X228147D01*
Y223822D01*
X227946D01*
Y223422D01*
X228147D01*
X207474Y222828D02*
Y222428D01*
X208274D01*
Y222828D01*
X208674D01*
Y223628D01*
X208274D01*
Y224028D01*
X207474D01*
Y223628D01*
X207074D01*
Y222828D01*
X207474D01*
X207674Y223028D02*
Y222828D01*
X208074D01*
Y223028D01*
X208274D01*
Y223428D01*
X208074D01*
Y223628D01*
X207674D01*
Y223428D01*
X207474D01*
Y223028D01*
X207674D01*
X199600Y222828D02*
Y222428D01*
X200400D01*
Y222828D01*
X200800D01*
Y223628D01*
X200400D01*
Y224028D01*
X199600D01*
Y223628D01*
X199200D01*
Y222828D01*
X199600D01*
X199800Y223028D02*
Y222828D01*
X200200D01*
Y223028D01*
X200400D01*
Y223428D01*
X200200D01*
Y223628D01*
X199800D01*
Y223428D01*
X199600D01*
Y223028D01*
X199800D01*
X168104Y222828D02*
Y222428D01*
X168904D01*
Y222828D01*
X169304D01*
Y223628D01*
X168904D01*
Y224028D01*
X168104D01*
Y223628D01*
X167704D01*
Y222828D01*
X168104D01*
X168304Y223028D02*
Y222828D01*
X168704D01*
Y223028D01*
X168904D01*
Y223428D01*
X168704D01*
Y223628D01*
X168304D01*
Y223428D01*
X168104D01*
Y223028D01*
X168304D01*
X160230Y222828D02*
Y222428D01*
X161030D01*
Y222828D01*
X161430D01*
Y223628D01*
X161030D01*
Y224028D01*
X160230D01*
Y223628D01*
X159830D01*
Y222828D01*
X160230D01*
X160430Y223028D02*
Y222828D01*
X160830D01*
Y223028D01*
X161030D01*
Y223428D01*
X160830D01*
Y223628D01*
X160430D01*
Y223428D01*
X160230D01*
Y223028D01*
X160430D01*
X223222Y118891D02*
Y118491D01*
X224022D01*
Y118891D01*
X224422D01*
Y119691D01*
X224022D01*
Y120091D01*
X223222D01*
Y119691D01*
X222822D01*
Y118891D01*
X223222D01*
X223422Y119091D02*
Y118891D01*
X223822D01*
Y119091D01*
X224022D01*
Y119491D01*
X223822D01*
Y119691D01*
X223422D01*
Y119491D01*
X223222D01*
Y119091D01*
X223422D01*
X218104Y116135D02*
Y115735D01*
X218904D01*
Y116135D01*
X219304D01*
Y116935D01*
X218904D01*
Y117335D01*
X218104D01*
Y116935D01*
X217704D01*
Y116135D01*
X218104D01*
X218304Y116335D02*
Y116135D01*
X218704D01*
Y116335D01*
X218904D01*
Y116735D01*
X218704D01*
Y116935D01*
X218304D01*
Y116735D01*
X218104D01*
Y116335D01*
X218304D01*
X212592Y116135D02*
Y115735D01*
X213392D01*
Y116135D01*
X213792D01*
Y116935D01*
X213392D01*
Y117335D01*
X212592D01*
Y116935D01*
X212192D01*
Y116135D01*
X212592D01*
X212792Y116335D02*
Y116135D01*
X213192D01*
Y116335D01*
X213392D01*
Y116735D01*
X213192D01*
Y116935D01*
X212792D01*
Y116735D01*
X212592D01*
Y116335D01*
X212792D01*
X269284Y157080D02*
Y156680D01*
X270084D01*
Y157080D01*
X270484D01*
Y157880D01*
X270084D01*
Y158280D01*
X269284D01*
Y157880D01*
X268884D01*
Y157080D01*
X269284D01*
X269484Y157280D02*
Y157080D01*
X269884D01*
Y157280D01*
X270084D01*
Y157680D01*
X269884D01*
Y157880D01*
X269484D01*
Y157680D01*
X269284D01*
Y157280D01*
X269484D01*
X238183Y115348D02*
Y114948D01*
X238983D01*
Y115348D01*
X239383D01*
Y116148D01*
X238983D01*
Y116548D01*
X238183D01*
Y116148D01*
X237783D01*
Y115348D01*
X238183D01*
X238383Y115548D02*
Y115348D01*
X238783D01*
Y115548D01*
X238983D01*
Y115948D01*
X238783D01*
Y116148D01*
X238383D01*
Y115948D01*
X238183D01*
Y115548D01*
X238383D01*
X271647Y233852D02*
Y233452D01*
X272447D01*
Y233852D01*
X272847D01*
Y234652D01*
X272447D01*
Y235052D01*
X271647D01*
Y234652D01*
X271247D01*
Y233852D01*
X271647D01*
X271847Y234052D02*
Y233852D01*
X272247D01*
Y234052D01*
X272447D01*
Y234452D01*
X272247D01*
Y234652D01*
X271847D01*
Y234452D01*
X271647D01*
Y234052D01*
X271847D01*
X274009Y193990D02*
Y193590D01*
X274809D01*
Y193990D01*
X275209D01*
Y194790D01*
X274809D01*
Y195190D01*
X274009D01*
Y194790D01*
X273609D01*
Y193990D01*
X274009D01*
X274209Y194190D02*
Y193990D01*
X274609D01*
Y194190D01*
X274809D01*
Y194590D01*
X274609D01*
Y194790D01*
X274209D01*
Y194590D01*
X274009D01*
Y194190D01*
X274209D01*
X265939Y187395D02*
Y186995D01*
X266739D01*
Y187395D01*
X267139D01*
Y188195D01*
X266739D01*
Y188595D01*
X265939D01*
Y188195D01*
X265539D01*
Y187395D01*
X265939D01*
X266139Y187595D02*
Y187395D01*
X266539D01*
Y187595D01*
X266739D01*
Y187995D01*
X266539D01*
Y188195D01*
X266139D01*
Y187995D01*
X265939D01*
Y187595D01*
X266139D01*
X171647Y158261D02*
Y157861D01*
X172447D01*
Y158261D01*
X172847D01*
Y159061D01*
X172447D01*
Y159461D01*
X171647D01*
Y159061D01*
X171247D01*
Y158261D01*
X171647D01*
X171847Y158461D02*
Y158261D01*
X172247D01*
Y158461D01*
X172447D01*
Y158861D01*
X172247D01*
Y159061D01*
X171847D01*
Y158861D01*
X171647D01*
Y158461D01*
X171847D01*
X159836Y154718D02*
Y154318D01*
X160636D01*
Y154718D01*
X161036D01*
Y155518D01*
X160636D01*
Y155918D01*
X159836D01*
Y155518D01*
X159436D01*
Y154718D01*
X159836D01*
X160036Y154918D02*
Y154718D01*
X160436D01*
Y154918D01*
X160636D01*
Y155318D01*
X160436D01*
Y155518D01*
X160036D01*
Y155318D01*
X159836D01*
Y154918D01*
X160036D01*
X163773Y158655D02*
Y158255D01*
X164573D01*
Y158655D01*
X164973D01*
Y159455D01*
X164573D01*
Y159855D01*
X163773D01*
Y159455D01*
X163373D01*
Y158655D01*
X163773D01*
X163973Y158855D02*
Y158655D01*
X164373D01*
Y158855D01*
X164573D01*
Y159255D01*
X164373D01*
Y159455D01*
X163973D01*
Y159255D01*
X163773D01*
Y158855D01*
X163973D01*
X175584Y162592D02*
Y162192D01*
X176384D01*
Y162592D01*
X176784D01*
Y163392D01*
X176384D01*
Y163792D01*
X175584D01*
Y163392D01*
X175184D01*
Y162592D01*
X175584D01*
X175784Y162792D02*
Y162592D01*
X176184D01*
Y162792D01*
X176384D01*
Y163192D01*
X176184D01*
Y163392D01*
X175784D01*
Y163192D01*
X175584D01*
Y162792D01*
X175784D01*
X167710Y162592D02*
Y162192D01*
X168510D01*
Y162592D01*
X168910D01*
Y163392D01*
X168510D01*
Y163792D01*
X167710D01*
Y163392D01*
X167310D01*
Y162592D01*
X167710D01*
X167910Y162792D02*
Y162592D01*
X168310D01*
Y162792D01*
X168510D01*
Y163192D01*
X168310D01*
Y163392D01*
X167910D01*
Y163192D01*
X167710D01*
Y162792D01*
X167910D01*
X216135Y141726D02*
Y141326D01*
X216935D01*
Y141726D01*
X217335D01*
Y142526D01*
X216935D01*
Y142926D01*
X216135D01*
Y142526D01*
X215735D01*
Y141726D01*
X216135D01*
X216335Y141926D02*
Y141726D01*
X216735D01*
Y141926D01*
X216935D01*
Y142326D01*
X216735D01*
Y142526D01*
X216335D01*
Y142326D01*
X216135D01*
Y141926D01*
X216335D01*
X220860Y141332D02*
Y140932D01*
X221660D01*
Y141332D01*
X222060D01*
Y142132D01*
X221660D01*
Y142532D01*
X220860D01*
Y142132D01*
X220460D01*
Y141332D01*
X220860D01*
X221060Y141532D02*
Y141332D01*
X221460D01*
Y141532D01*
X221660D01*
Y141932D01*
X221460D01*
Y142132D01*
X221060D01*
Y141932D01*
X220860D01*
Y141532D01*
X221060D01*
X239757Y26765D02*
Y26365D01*
X240558D01*
Y26765D01*
X240957D01*
Y27565D01*
X240558D01*
Y27965D01*
X239757D01*
Y27565D01*
X239357D01*
Y26765D01*
X239757D01*
X239957Y26965D02*
Y26765D01*
X240357D01*
Y26965D01*
X240558D01*
Y27365D01*
X240357D01*
Y27565D01*
X239957D01*
Y27365D01*
X239757D01*
Y26965D01*
X239957D01*
X239757Y43694D02*
Y43295D01*
X240558D01*
Y43694D01*
X240957D01*
Y44495D01*
X240558D01*
Y44894D01*
X239757D01*
Y44495D01*
X239357D01*
Y43694D01*
X239757D01*
X239957Y43894D02*
Y43694D01*
X240357D01*
Y43894D01*
X240558D01*
Y44295D01*
X240357D01*
Y44495D01*
X239957D01*
Y44295D01*
X239757D01*
Y43894D01*
X239957D01*
X73616Y20383D02*
Y19983D01*
X74416D01*
Y20383D01*
X74816D01*
Y21183D01*
X74416D01*
Y21583D01*
X73616D01*
Y21183D01*
X73216D01*
Y20383D01*
X73616D01*
X73816Y20583D02*
Y20383D01*
X74216D01*
Y20583D01*
X74416D01*
Y20983D01*
X74216D01*
Y21183D01*
X73816D01*
Y20983D01*
X73616D01*
Y20583D01*
X73816D01*
X49206Y109442D02*
Y109043D01*
X50006D01*
Y109442D01*
X50406D01*
Y110242D01*
X50006D01*
Y110643D01*
X49206D01*
Y110242D01*
X48806D01*
Y109442D01*
X49206D01*
X49406Y109643D02*
Y109442D01*
X49806D01*
Y109643D01*
X50006D01*
Y110043D01*
X49806D01*
Y110242D01*
X49406D01*
Y110043D01*
X49206D01*
Y109643D01*
X49406D01*
X49206Y106293D02*
Y105893D01*
X50006D01*
Y106293D01*
X50406D01*
Y107093D01*
X50006D01*
Y107493D01*
X49206D01*
Y107093D01*
X48806D01*
Y106293D01*
X49206D01*
X49406Y106493D02*
Y106293D01*
X49806D01*
Y106493D01*
X50006D01*
Y106893D01*
X49806D01*
Y107093D01*
X49406D01*
Y106893D01*
X49206D01*
Y106493D01*
X49406D01*
X47087Y136146D02*
Y135746D01*
X47887D01*
Y136146D01*
X48287D01*
Y136946D01*
X47887D01*
Y137346D01*
X47087D01*
Y136946D01*
X46687D01*
Y136146D01*
X47087D01*
X47287Y136346D02*
Y136146D01*
X47687D01*
Y136346D01*
X47887D01*
Y136746D01*
X47687D01*
Y136946D01*
X47287D01*
Y136746D01*
X47087D01*
Y136346D01*
X47287D01*
X70860Y152356D02*
Y151956D01*
X71660D01*
Y152356D01*
X72060D01*
Y153156D01*
X71660D01*
Y153556D01*
X70860D01*
Y153156D01*
X70460D01*
Y152356D01*
X70860D01*
X71060Y152556D02*
Y152356D01*
X71460D01*
Y152556D01*
X71660D01*
Y152956D01*
X71460D01*
Y153156D01*
X71060D01*
Y152956D01*
X70860D01*
Y152556D01*
X71060D01*
X291212Y100623D02*
Y100223D01*
X292012D01*
Y100623D01*
X292412D01*
Y101423D01*
X292012D01*
Y101823D01*
X291212D01*
Y101423D01*
X290812D01*
Y100623D01*
X291212D01*
X291412Y100823D02*
Y100623D01*
X291812D01*
Y100823D01*
X292012D01*
Y101223D01*
X291812D01*
Y101423D01*
X291412D01*
Y101223D01*
X291212D01*
Y100823D01*
X291412D01*
X90583Y128597D02*
Y128197D01*
X91383D01*
Y128597D01*
X91783D01*
Y129397D01*
X91383D01*
Y129797D01*
X90583D01*
Y129397D01*
X90183D01*
Y128597D01*
X90583D01*
X90783Y128797D02*
Y128597D01*
X91183D01*
Y128797D01*
X91383D01*
Y129197D01*
X91183D01*
Y129397D01*
X90783D01*
Y129197D01*
X90583D01*
Y128797D01*
X90783D01*
X82080Y128242D02*
Y127842D01*
X82880D01*
Y128242D01*
X83280D01*
Y129042D01*
X82880D01*
Y129442D01*
X82080D01*
Y129042D01*
X81680D01*
Y128242D01*
X82080D01*
X82280Y128442D02*
Y128242D01*
X82680D01*
Y128442D01*
X82880D01*
Y128842D01*
X82680D01*
Y129042D01*
X82280D01*
Y128842D01*
X82080D01*
Y128442D01*
X82280D01*
X85033Y128242D02*
Y127842D01*
X85833D01*
Y128242D01*
X86233D01*
Y129042D01*
X85833D01*
Y129442D01*
X85033D01*
Y129042D01*
X84633D01*
Y128242D01*
X85033D01*
X85233Y128442D02*
Y128242D01*
X85633D01*
Y128442D01*
X85833D01*
Y128842D01*
X85633D01*
Y129042D01*
X85233D01*
Y128842D01*
X85033D01*
Y128442D01*
X85233D01*
X87986Y128242D02*
Y127842D01*
X88786D01*
Y128242D01*
X89186D01*
Y129042D01*
X88786D01*
Y129442D01*
X87986D01*
Y129042D01*
X87586D01*
Y128242D01*
X87986D01*
X88186Y128442D02*
Y128242D01*
X88586D01*
Y128442D01*
X88786D01*
Y128842D01*
X88586D01*
Y129042D01*
X88186D01*
Y128842D01*
X87986D01*
Y128442D01*
X88186D01*
X246844Y138183D02*
Y137783D01*
X247644D01*
Y138183D01*
X248044D01*
Y138983D01*
X247644D01*
Y139383D01*
X246844D01*
Y138983D01*
X246444D01*
Y138183D01*
X246844D01*
X247044Y138383D02*
Y138183D01*
X247444D01*
Y138383D01*
X247644D01*
Y138783D01*
X247444D01*
Y138983D01*
X247044D01*
Y138783D01*
X246844D01*
Y138383D01*
X247044D01*
X246450Y127946D02*
Y127547D01*
X247250D01*
Y127946D01*
X247650D01*
Y128746D01*
X247250D01*
Y129147D01*
X246450D01*
Y128746D01*
X246050D01*
Y127946D01*
X246450D01*
X246650Y128147D02*
Y127946D01*
X247050D01*
Y128147D01*
X247250D01*
Y128547D01*
X247050D01*
Y128746D01*
X246650D01*
Y128547D01*
X246450D01*
Y128147D01*
X246650D01*
X277158Y151568D02*
Y151168D01*
X277958D01*
Y151568D01*
X278358D01*
Y152368D01*
X277958D01*
Y152768D01*
X277158D01*
Y152368D01*
X276758D01*
Y151568D01*
X277158D01*
X277358Y151768D02*
Y151568D01*
X277758D01*
Y151768D01*
X277958D01*
Y152168D01*
X277758D01*
Y152368D01*
X277358D01*
Y152168D01*
X277158D01*
Y151768D01*
X277358D01*
X253143Y86318D02*
Y85918D01*
X253943D01*
Y86318D01*
X254343D01*
Y87118D01*
X253943D01*
Y87518D01*
X253143D01*
Y87118D01*
X252743D01*
Y86318D01*
X253143D01*
X253343Y86518D02*
Y86318D01*
X253743D01*
Y86518D01*
X253943D01*
Y86918D01*
X253743D01*
Y87118D01*
X253343D01*
Y86918D01*
X253143D01*
Y86518D01*
X253343D01*
X231096Y78451D02*
Y78051D01*
X231896D01*
Y78451D01*
X232296D01*
Y79251D01*
X231896D01*
Y79651D01*
X231096D01*
Y79251D01*
X230696D01*
Y78451D01*
X231096D01*
X231296Y78651D02*
Y78451D01*
X231696D01*
Y78651D01*
X231896D01*
Y79051D01*
X231696D01*
Y79251D01*
X231296D01*
Y79051D01*
X231096D01*
Y78651D01*
X231296D01*
X241575Y103295D02*
Y102895D01*
X242375D01*
Y103295D01*
X242775D01*
Y104095D01*
X242375D01*
Y104495D01*
X241575D01*
Y104095D01*
X241175D01*
Y103295D01*
X241575D01*
X241775Y103495D02*
Y103295D01*
X242175D01*
Y103495D01*
X242375D01*
Y103895D01*
X242175D01*
Y104095D01*
X241775D01*
Y103895D01*
X241575D01*
Y103495D01*
X241775D01*
X238298Y97614D02*
Y97214D01*
X239098D01*
Y97614D01*
X239498D01*
Y98414D01*
X239098D01*
Y98814D01*
X238298D01*
Y98414D01*
X237898D01*
Y97614D01*
X238298D01*
X238498Y97814D02*
Y97614D01*
X238898D01*
Y97814D01*
X239098D01*
Y98214D01*
X238898D01*
Y98414D01*
X238498D01*
Y98214D01*
X238298D01*
Y97814D01*
X238498D01*
X228728Y88176D02*
X229128D01*
X229528Y88576D01*
X229928Y88176D01*
X230328D01*
Y88576D01*
X229928Y88976D01*
X230328Y89376D01*
Y89776D01*
X229928D01*
X229528Y89376D01*
X229128Y89776D01*
X228728D01*
Y89376D01*
X229128Y88976D01*
X228728Y88576D01*
Y88176D01*
X229128Y88576D02*
X229328D01*
X229528Y88776D01*
X229728Y88576D01*
X229928D01*
Y88776D01*
X229728Y88976D01*
X229928Y89176D01*
Y89376D01*
X229728D01*
X229528Y89176D01*
X229328Y89376D01*
X229128D01*
Y89176D01*
X229328Y88976D01*
X229128Y88776D01*
Y88576D01*
X140145Y66917D02*
X140545D01*
X140945Y67317D01*
X141345Y66917D01*
X141745D01*
Y67317D01*
X141345Y67716D01*
X141745Y68116D01*
Y68516D01*
X141345D01*
X140945Y68116D01*
X140545Y68516D01*
X140145D01*
Y68116D01*
X140545Y67716D01*
X140145Y67317D01*
Y66917D01*
X140545Y67317D02*
X140745D01*
X140945Y67516D01*
X141145Y67317D01*
X141345D01*
Y67516D01*
X141145Y67716D01*
X141345Y67917D01*
Y68116D01*
X141145D01*
X140945Y67917D01*
X140745Y68116D01*
X140545D01*
Y67917D01*
X140745Y67716D01*
X140545Y67516D01*
Y67317D01*
X242218Y108454D02*
Y108054D01*
X243018D01*
Y108454D01*
X243418D01*
Y109254D01*
X243018D01*
Y109654D01*
X242218D01*
Y109254D01*
X241818D01*
Y108454D01*
X242218D01*
X242418Y108654D02*
Y108454D01*
X242818D01*
Y108654D01*
X243018D01*
Y109054D01*
X242818D01*
Y109254D01*
X242418D01*
Y109054D01*
X242218D01*
Y108654D01*
X242418D01*
X238183Y109049D02*
Y108649D01*
X238983D01*
Y109049D01*
X239383D01*
Y109849D01*
X238983D01*
Y110249D01*
X238183D01*
Y109849D01*
X237783D01*
Y109049D01*
X238183D01*
X238383Y109249D02*
Y109049D01*
X238783D01*
Y109249D01*
X238983D01*
Y109649D01*
X238783D01*
Y109849D01*
X238383D01*
Y109649D01*
X238183D01*
Y109249D01*
X238383D01*
X48025Y4718D02*
Y4318D01*
X48825D01*
Y4718D01*
X49225D01*
Y5518D01*
X48825D01*
Y5918D01*
X48025D01*
Y5518D01*
X47625D01*
Y4718D01*
X48025D01*
X48225Y4918D02*
Y4718D01*
X48625D01*
Y4918D01*
X48825D01*
Y5318D01*
X48625D01*
Y5518D01*
X48225D01*
Y5318D01*
X48025D01*
Y4918D01*
X48225D01*
X48025Y8655D02*
Y8255D01*
X48825D01*
Y8655D01*
X49225D01*
Y9455D01*
X48825D01*
Y9855D01*
X48025D01*
Y9455D01*
X47625D01*
Y8655D01*
X48025D01*
X48225Y8855D02*
Y8655D01*
X48625D01*
Y8855D01*
X48825D01*
Y9255D01*
X48625D01*
Y9455D01*
X48225D01*
Y9255D01*
X48025D01*
Y8855D01*
X48225D01*
X48025Y12592D02*
Y12192D01*
X48825D01*
Y12592D01*
X49225D01*
Y13392D01*
X48825D01*
Y13792D01*
X48025D01*
Y13392D01*
X47625D01*
Y12592D01*
X48025D01*
X48225Y12792D02*
Y12592D01*
X48625D01*
Y12792D01*
X48825D01*
Y13192D01*
X48625D01*
Y13392D01*
X48225D01*
Y13192D01*
X48025D01*
Y12792D01*
X48225D01*
X266529Y86318D02*
Y85918D01*
X267329D01*
Y86318D01*
X267729D01*
Y87118D01*
X267329D01*
Y87518D01*
X266529D01*
Y87118D01*
X266129D01*
Y86318D01*
X266529D01*
X266729Y86518D02*
Y86318D01*
X267129D01*
Y86518D01*
X267329D01*
Y86918D01*
X267129D01*
Y87118D01*
X266729D01*
Y86918D01*
X266529D01*
Y86518D01*
X266729D01*
X259836Y86318D02*
Y85918D01*
X260636D01*
Y86318D01*
X261036D01*
Y87118D01*
X260636D01*
Y87518D01*
X259836D01*
Y87118D01*
X259436D01*
Y86318D01*
X259836D01*
X260036Y86518D02*
Y86318D01*
X260436D01*
Y86518D01*
X260636D01*
Y86918D01*
X260436D01*
Y87118D01*
X260036D01*
Y86918D01*
X259836D01*
Y86518D01*
X260036D01*
X233946Y188482D02*
Y188082D01*
X234747D01*
Y188482D01*
X235146D01*
Y189282D01*
X234747D01*
Y189682D01*
X233946D01*
Y189282D01*
X233546D01*
Y188482D01*
X233946D01*
X234146Y188682D02*
Y188482D01*
X234546D01*
Y188682D01*
X234747D01*
Y189082D01*
X234546D01*
Y189282D01*
X234146D01*
Y189082D01*
X233946D01*
Y188682D01*
X234146D01*
X231096Y75978D02*
Y75578D01*
X231896D01*
Y75978D01*
X232296D01*
Y76778D01*
X231896D01*
Y77178D01*
X231096D01*
Y76778D01*
X230696D01*
Y75978D01*
X231096D01*
X231296Y76178D02*
Y75978D01*
X231696D01*
Y76178D01*
X231896D01*
Y76578D01*
X231696D01*
Y76778D01*
X231296D01*
Y76578D01*
X231096D01*
Y76178D01*
X231296D01*
X289757Y171939D02*
Y171539D01*
X290558D01*
Y171939D01*
X290957D01*
Y172739D01*
X290558D01*
Y173139D01*
X289757D01*
Y172739D01*
X289357D01*
Y171939D01*
X289757D01*
X289957Y172139D02*
Y171939D01*
X290357D01*
Y172139D01*
X290558D01*
Y172539D01*
X290357D01*
Y172739D01*
X289957D01*
Y172539D01*
X289757D01*
Y172139D01*
X289957D01*
X289757Y169466D02*
Y169066D01*
X290558D01*
Y169466D01*
X290957D01*
Y170266D01*
X290558D01*
Y170666D01*
X289757D01*
Y170266D01*
X289357D01*
Y169466D01*
X289757D01*
X289957Y169666D02*
Y169466D01*
X290357D01*
Y169666D01*
X290558D01*
Y170066D01*
X290357D01*
Y170266D01*
X289957D01*
Y170066D01*
X289757D01*
Y169666D01*
X289957D01*
X232277Y127947D02*
Y127547D01*
X233077D01*
Y127947D01*
X233477D01*
Y128747D01*
X233077D01*
Y129147D01*
X232277D01*
Y128747D01*
X231877D01*
Y127947D01*
X232277D01*
X232477Y128147D02*
Y127947D01*
X232877D01*
Y128147D01*
X233077D01*
Y128547D01*
X232877D01*
Y128747D01*
X232477D01*
Y128547D01*
X232277D01*
Y128147D01*
X232477D01*
X239856Y191431D02*
Y191031D01*
X240656D01*
Y191431D01*
X241056D01*
Y192231D01*
X240656D01*
Y192631D01*
X239856D01*
Y192231D01*
X239456D01*
Y191431D01*
X239856D01*
X240056Y191631D02*
Y191431D01*
X240456D01*
Y191631D01*
X240656D01*
Y192031D01*
X240456D01*
Y192231D01*
X240056D01*
Y192031D01*
X239856D01*
Y191631D01*
X240056D01*
X259836Y43990D02*
Y43590D01*
X260636D01*
Y43990D01*
X261036D01*
Y44790D01*
X260636D01*
Y45190D01*
X259836D01*
Y44790D01*
X259436D01*
Y43990D01*
X259836D01*
X260036Y44190D02*
Y43990D01*
X260436D01*
Y44190D01*
X260636D01*
Y44590D01*
X260436D01*
Y44790D01*
X260036D01*
Y44590D01*
X259836D01*
Y44190D01*
X260036D01*
X116628Y107474D02*
Y107074D01*
X117428D01*
Y107474D01*
X117828D01*
Y108274D01*
X117428D01*
Y108674D01*
X116628D01*
Y108274D01*
X116228D01*
Y107474D01*
X116628D01*
X116828Y107674D02*
Y107474D01*
X117228D01*
Y107674D01*
X117428D01*
Y108074D01*
X117228D01*
Y108274D01*
X116828D01*
Y108074D01*
X116628D01*
Y107674D01*
X116828D01*
X116628Y113380D02*
Y112979D01*
X117428D01*
Y113380D01*
X117828D01*
Y114180D01*
X117428D01*
Y114579D01*
X116628D01*
Y114180D01*
X116228D01*
Y113380D01*
X116628D01*
X116828Y113579D02*
Y113380D01*
X117228D01*
Y113579D01*
X117428D01*
Y113979D01*
X117228D01*
Y114180D01*
X116828D01*
Y113979D01*
X116628D01*
Y113579D01*
X116828D01*
X119580Y110427D02*
Y110027D01*
X120380D01*
Y110427D01*
X120780D01*
Y111227D01*
X120380D01*
Y111627D01*
X119580D01*
Y111227D01*
X119180D01*
Y110427D01*
X119580D01*
X119780Y110627D02*
Y110427D01*
X120180D01*
Y110627D01*
X120380D01*
Y111027D01*
X120180D01*
Y111227D01*
X119780D01*
Y111027D01*
X119580D01*
Y110627D01*
X119780D01*
X52454Y194384D02*
Y193983D01*
X53254D01*
Y194384D01*
X53654D01*
Y195184D01*
X53254D01*
Y195583D01*
X52454D01*
Y195184D01*
X52054D01*
Y194384D01*
X52454D01*
X52654Y194583D02*
Y194384D01*
X53054D01*
Y194583D01*
X53254D01*
Y194983D01*
X53054D01*
Y195184D01*
X52654D01*
Y194983D01*
X52454D01*
Y194583D01*
X52654D01*
X49502Y194384D02*
Y193983D01*
X50302D01*
Y194384D01*
X50702D01*
Y195184D01*
X50302D01*
Y195583D01*
X49502D01*
Y195184D01*
X49102D01*
Y194384D01*
X49502D01*
X49702Y194583D02*
Y194384D01*
X50102D01*
Y194583D01*
X50302D01*
Y194983D01*
X50102D01*
Y195184D01*
X49702D01*
Y194983D01*
X49502D01*
Y194583D01*
X49702D01*
X46549Y194384D02*
Y193983D01*
X47349D01*
Y194384D01*
X47749D01*
Y195184D01*
X47349D01*
Y195583D01*
X46549D01*
Y195184D01*
X46149D01*
Y194384D01*
X46549D01*
X46749Y194583D02*
Y194384D01*
X47149D01*
Y194583D01*
X47349D01*
Y194983D01*
X47149D01*
Y195184D01*
X46749D01*
Y194983D01*
X46549D01*
Y194583D01*
X46749D01*
X55899Y172632D02*
Y172231D01*
X56699D01*
Y172632D01*
X57099D01*
Y173432D01*
X56699D01*
Y173831D01*
X55899D01*
Y173432D01*
X55499D01*
Y172632D01*
X55899D01*
X56099Y172831D02*
Y172632D01*
X56499D01*
Y172831D01*
X56699D01*
Y173231D01*
X56499D01*
Y173432D01*
X56099D01*
Y173231D01*
X55899D01*
Y172831D01*
X56099D01*
X52947Y172632D02*
Y172231D01*
X53746D01*
Y172632D01*
X54146D01*
Y173432D01*
X53746D01*
Y173831D01*
X52947D01*
Y173432D01*
X52547D01*
Y172632D01*
X52947D01*
X53146Y172831D02*
Y172632D01*
X53547D01*
Y172831D01*
X53746D01*
Y173231D01*
X53547D01*
Y173432D01*
X53146D01*
Y173231D01*
X52947D01*
Y172831D01*
X53146D01*
X49994Y172632D02*
Y172231D01*
X50794D01*
Y172632D01*
X51194D01*
Y173432D01*
X50794D01*
Y173831D01*
X49994D01*
Y173432D01*
X49594D01*
Y172632D01*
X49994D01*
X50194Y172831D02*
Y172632D01*
X50594D01*
Y172831D01*
X50794D01*
Y173231D01*
X50594D01*
Y173432D01*
X50194D01*
Y173231D01*
X49994D01*
Y172831D01*
X50194D01*
D213*
X346863Y101181D02*
G03*
X346863Y101181I-800J0D01*
G01*
Y115354D02*
G03*
X346863Y115354I-800J0D01*
G01*
X332690D02*
G03*
X332690Y115354I-800J0D01*
G01*
X185839Y30709D02*
G03*
X185839Y30709I-800J0D01*
G01*
X24170Y181563D02*
G03*
X24170Y181563I-800J0D01*
G01*
D214*
X185439Y30709D02*
G03*
X185439Y30709I-400J0D01*
G01*
X23770Y181563D02*
G03*
X23770Y181563I-400J0D01*
G01*
M02*
