G04*
G04 #@! TF.GenerationSoftware,Altium Limited,Altium Designer,20.0.10 (225)*
G04*
G04 Layer_Color=128*
%FSLAX25Y25*%
%MOIN*%
G70*
G01*
G75*
%ADD21R,0.03756X0.06118*%
%ADD22R,0.04800X0.04100*%
%ADD25R,0.04100X0.04800*%
%ADD27R,0.06118X0.03756*%
%ADD207R,0.05646X0.03284*%
%ADD208R,0.07299X0.04543*%
%ADD209R,0.04543X0.07299*%
%ADD210R,0.05331X0.03362*%
D21*
X332874Y109449D02*
D03*
X325394D02*
D03*
X307677Y72047D02*
D03*
X315158D02*
D03*
X324213Y15354D02*
D03*
X331693D02*
D03*
D22*
X326377Y101575D02*
D03*
X332677D02*
D03*
X351477Y22441D02*
D03*
X345177D02*
D03*
X307480Y64173D02*
D03*
X313780D02*
D03*
X306299Y78347D02*
D03*
X312599D02*
D03*
X306298Y84252D02*
D03*
X312598D02*
D03*
X371654Y61417D02*
D03*
X365354D02*
D03*
D25*
X349213Y90551D02*
D03*
Y96851D02*
D03*
X353937Y90551D02*
D03*
Y96851D02*
D03*
X359055D02*
D03*
Y90551D02*
D03*
X355512Y84646D02*
D03*
Y78346D02*
D03*
X306693Y96457D02*
D03*
Y90157D02*
D03*
X312598Y90156D02*
D03*
Y96456D02*
D03*
X361319Y16142D02*
D03*
Y9842D02*
D03*
X338878Y9054D02*
D03*
Y15354D02*
D03*
X332185Y22440D02*
D03*
Y28740D02*
D03*
X337697Y22440D02*
D03*
Y28740D02*
D03*
X348783Y61751D02*
D03*
Y68051D02*
D03*
X353937Y68110D02*
D03*
Y61810D02*
D03*
X359449D02*
D03*
Y68110D02*
D03*
X350394Y84646D02*
D03*
Y78346D02*
D03*
D27*
X324409Y21063D02*
D03*
Y28543D02*
D03*
X324803Y39961D02*
D03*
Y47441D02*
D03*
X331496Y39961D02*
D03*
Y47441D02*
D03*
X338189Y39961D02*
D03*
Y47441D02*
D03*
D207*
X341968Y96890D02*
D03*
Y91890D02*
D03*
Y86890D02*
D03*
Y81890D02*
D03*
Y76890D02*
D03*
Y71890D02*
D03*
Y66890D02*
D03*
X321024Y96890D02*
D03*
Y91890D02*
D03*
Y86890D02*
D03*
Y81890D02*
D03*
Y76890D02*
D03*
Y71890D02*
D03*
Y66890D02*
D03*
D208*
X368504Y85433D02*
D03*
Y96850D02*
D03*
X366142Y78543D02*
D03*
Y67126D02*
D03*
D209*
X345177Y29134D02*
D03*
X356594D02*
D03*
D210*
X355413Y9055D02*
D03*
Y16535D02*
D03*
X345177D02*
D03*
Y12795D02*
D03*
Y9055D02*
D03*
M02*
