M48
;Layer_Color=9474304
;FILE_FORMAT=2:5
INCH,LZ
;TYPE=PLATED
T1F00S00C0.00787
T2F00S00C0.01181
T3F00S00C0.01378
T4F00S00C0.01968
T5F00S00C0.03150
T6F00S00C0.03425
T7F00S00C0.03543
T8F00S00C0.03937
T10F00S00C0.04331
T12F00S00C0.05118
T13F00S00C0.06890
;TYPE=NON_PLATED
T14F00S00C0.08268
%
T01
X00647Y0053324
X0071925
Y0060548
X0068313Y0056936
X0075537
Y0064161
X0071925Y0067773
X0068313Y0064161
X00647Y0067773
X0061088Y0064161
X00647Y0060548
X0061088Y0056936
T02
X0230053Y0089296
X014147Y0068037
T03
X004895Y0005438
Y0009375
Y0013312
X0074541Y0021103
X0234383Y0010163
X0242257
X0240683Y0027485
X0272572Y0031029
Y0023155
X0280447Y0031029
X0324836Y0010163
X0326805Y0036934
X033271
X0339009
X0315092Y0058194
X0290683Y0076304
X0292137Y0101343
X0293439Y0113706
X028084Y0121974
X0269029
X0265092Y011095
Y0099139
X0267454Y0087038
X0260761
X0254068
X0253675Y0069218
X0260761
X0267454
X0260761Y004471
X0240683Y0044414
X0232021Y0076698
Y0079171
X0239223Y0098334
X02425Y0104015
X0243143Y0109174
X0239108Y0109769
Y0116068
X0224147Y0119611
X0219029Y0116855
X0217454Y0136147
X0217061Y0142446
X0221785Y0142052
X0233202Y0128667
X0247376Y0128666
X0247769Y0138903
X027021Y01578
X0278083Y0152288
X0290683Y0170186
Y0172659
X0266864Y0188115
X0234872Y0189202
X0232021Y0172761
X0205643Y0184178
X0187927Y0160162
X0176509Y0163312
X0168635
X0164698Y0159375
X0160761Y0155438
X0172572Y0158981
X0164305Y0173548
X0152494Y0165674
Y0181422
X0138714Y0168036
X0124541Y0172761
X0097376Y0175123
X0087533Y0172367
X0075722Y0160556
X0071785Y0153076
Y0120792
X0062336Y012906
X0083005Y0128962
X0085958
X0088911
X0091508Y0129317
X0084777Y0111344
X0117553Y01141
X0120505Y0111147
X0117553Y0108194
X0145801Y0098745
X015958Y0088115
X0186352Y0128273
X02021
X0201706Y0135753
X0209384Y013595
X0204462Y0122367
X0213517Y0116855
X0213124Y011095
X0050131Y0110162
Y0107013
X0048012Y0136866
X0056431Y0134572
X00521Y0162918
X0050919Y0173352
X0053872
X0056824
X0036352Y0174729
Y0181816
X0039502Y0155044
X0047474Y0195103
X0050427
X0053379
X0040683Y0207407
X0020998Y0195202
Y0223155
X0026509Y0236147
X0018635Y0244021
X0004856Y0207407
X0097376Y0190871
X0161155Y0223548
X0169029
X0200525
X0208399
X0211549Y0211737
X0195801
X0227297
X0228872Y0223942
X0237533Y0236934
X0235565Y0206225
X0240781Y0192151
X0243813Y0192586
X0274935Y019471
X0272572Y0234572
T04
X0346588Y0101501
Y0115674
X0332415
T05
X0025994Y0112643
Y0132328
T06
X0314698Y0017249
Y0023155
Y002906
Y0034966
Y0040871
Y0046777
X0281628Y0053076
Y0058981
Y0064887
Y0070792
Y0076698
Y0082603
T07
X0121588Y0011485
X0133399
T08
X0159313Y0098872
X0173233Y0112792
X0038336Y0235985
X0018651
X0018635Y027906
X003832
X0079659Y0310556
X0158399
X0138714Y0231816
X0099344
T10
X0059974Y0353863
X0178084
T12
X019699Y0260985
Y0300985
Y0330985
X022699Y0320985
X024549Y0330985
Y0300985
Y0260985
X022699
X027549
Y0320985
T13
X0028478Y0332052
X021999Y0346985
X025049
X027049
X019999
X0028478Y0352052
T14
X0185565Y0013312
X0006179Y0181883
M30
